<svg width="13" height="12" viewBox="0 0 13 12" fill="none" xmlns="http://www.w3.org/2000/svg">
<path fill-rule="evenodd" clip-rule="evenodd" d="M6.01455 0.32999C6.10754 0.241345 6.23108 0.191895 6.35955 0.191895C6.48802 0.191895 6.61157 0.241345 6.70455 0.32999L7.19655 0.79899C7.26368 0.863066 7.3473 0.907199 7.43808 0.926449C7.52886 0.945699 7.6232 0.939308 7.71055 0.90799L8.35055 0.67899C8.47143 0.635895 8.60426 0.640929 8.72153 0.693049C8.8388 0.74517 8.93154 0.840386 8.98055 0.95899L9.24055 1.58899C9.27581 1.67453 9.33411 1.74861 9.40897 1.80299C9.48382 1.85737 9.5723 1.88991 9.66455 1.89699L10.3426 1.94899C10.4707 1.95871 10.5903 2.01743 10.6763 2.11296C10.7623 2.20849 10.8083 2.33348 10.8046 2.46199L10.7846 3.14199C10.782 3.2346 10.8053 3.32609 10.8517 3.40626C10.8982 3.48642 10.966 3.55211 11.0476 3.59599L11.6466 3.91899C11.7598 3.98008 11.845 4.08244 11.8847 4.2048C11.9244 4.32716 11.9154 4.4601 11.8596 4.57599L11.5656 5.18899C11.5253 5.27246 11.509 5.36547 11.5186 5.45764C11.5281 5.54982 11.5631 5.63753 11.6196 5.71099L12.0356 6.24999C12.1139 6.3517 12.1502 6.47968 12.1368 6.60739C12.1234 6.73511 12.0614 6.85277 11.9636 6.93599L11.4446 7.37599C11.3738 7.43608 11.3212 7.51468 11.2926 7.60299C11.2639 7.69129 11.2605 7.78582 11.2826 7.87599L11.4426 8.53599C11.473 8.66091 11.4541 8.79273 11.3898 8.90409C11.3256 9.01545 11.2209 9.09778 11.0976 9.13399L10.4456 9.32599C10.3567 9.35209 10.2768 9.40238 10.2148 9.47125C10.1528 9.54011 10.1112 9.62485 10.0946 9.71599L9.97155 10.385C9.94853 10.5114 9.87772 10.6241 9.77382 10.6997C9.66992 10.7753 9.54091 10.808 9.41355 10.791L8.73955 10.701C8.64766 10.6885 8.55411 10.7018 8.46934 10.7394C8.38457 10.777 8.31194 10.8375 8.25955 10.914L7.87655 11.475C7.80409 11.5814 7.69337 11.6558 7.56744 11.6826C7.44152 11.7094 7.3101 11.6866 7.20055 11.619L6.62155 11.262C6.54276 11.2135 6.45206 11.1878 6.35955 11.1878C6.26704 11.1878 6.17635 11.2135 6.09755 11.262L5.51755 11.619C5.4081 11.6863 5.27691 11.7089 5.15122 11.6821C5.02554 11.6553 4.915 11.5811 4.84255 11.475L4.45955 10.914C4.40729 10.8373 4.33471 10.7766 4.24994 10.7388C4.16516 10.701 4.07154 10.6876 3.97955 10.7L3.30555 10.79C3.17834 10.807 3.04945 10.7744 2.94558 10.6991C2.84171 10.6237 2.77081 10.5112 2.74755 10.385L2.62455 9.71499C2.60801 9.62397 2.56653 9.53932 2.50474 9.47047C2.44295 9.40161 2.36326 9.35125 2.27455 9.32499L1.62155 9.13499C1.49801 9.09899 1.3931 9.01674 1.32866 8.90536C1.26421 8.79398 1.24519 8.66204 1.27555 8.53699L1.43555 7.87499C1.45754 7.78506 1.45414 7.6908 1.42571 7.60269C1.39728 7.51459 1.34495 7.43611 1.27455 7.37599L0.755554 6.93599C0.657756 6.85277 0.595727 6.73511 0.582323 6.60739C0.568918 6.47968 0.605166 6.3517 0.683554 6.24999L1.09955 5.70999C1.15582 5.63683 1.19074 5.54953 1.20045 5.45775C1.21015 5.36597 1.19427 5.2733 1.15455 5.18999L0.859554 4.57499C0.803732 4.4591 0.794719 4.32616 0.834388 4.2038C0.874057 4.08144 0.959356 3.97908 1.07255 3.91799L1.67255 3.59499C1.75378 3.55084 1.82117 3.48504 1.86724 3.40489C1.91332 3.32475 1.93627 3.2334 1.93355 3.14099L1.91355 2.46099C1.90986 2.33232 1.95593 2.20719 2.04217 2.11163C2.12841 2.01608 2.24818 1.95746 2.37655 1.94799L3.05455 1.89599C3.1468 1.88891 3.23528 1.85637 3.31014 1.80199C3.385 1.74761 3.4433 1.67353 3.47855 1.58799L3.73855 0.95799C3.78757 0.839386 3.88031 0.74417 3.99758 0.692049C4.11485 0.639929 4.24767 0.634895 4.36855 0.67799L5.00855 0.90699C5.09599 0.938181 5.19039 0.944411 5.28118 0.924983C5.37196 0.905555 5.45554 0.861236 5.52255 0.79699L6.01455 0.32999Z" fill="#E42575"/>
<path d="M8.85938 4.5L5.42137 7.938L3.85938 6.375" stroke="#120C18" stroke-width="1.2" stroke-linecap="round" stroke-linejoin="round"/>
</svg>
