<svg width="25" height="24" viewBox="0 0 25 24" fill="none" xmlns="http://www.w3.org/2000/svg">
<rect x="0.0625" width="24" height="24" rx="12" fill="#24182F"/>
<g clip-path="url(#clip0_1_14319)">
<mask id="mask0_1_14319" style="mask-type:luminance" maskUnits="userSpaceOnUse" x="4" y="5" width="16" height="14">
<path d="M19.5345 5.59998H4.8623V18.4H19.5345V5.59998Z" fill="white"/>
</mask>
<g mask="url(#mask0_1_14319)">
<path d="M15.9429 9.49729C15.6755 9.34445 15.3316 9.34445 15.0259 9.49729L12.8862 10.7582L11.4342 11.5606L9.33275 12.8215C9.06529 12.9743 8.72141 12.9743 8.41574 12.8215L6.77275 11.828C6.50529 11.6752 6.31425 11.3695 6.31425 11.0257V9.1152C6.31425 8.80953 6.46708 8.50386 6.77275 8.31281L8.41574 7.35759C8.6832 7.20475 9.02708 7.20475 9.33275 7.35759L10.9757 8.35102C11.2432 8.50386 11.4342 8.80953 11.4342 9.15341V10.4143L12.8862 9.57371V8.2746C12.8862 7.96893 12.7333 7.66326 12.4277 7.47222L9.37096 5.67639C9.1035 5.52356 8.75962 5.52356 8.45395 5.67639L5.32081 7.51042C5.01514 7.66326 4.8623 7.96893 4.8623 8.2746V11.8663C4.8623 12.1719 5.01514 12.4776 5.32081 12.6686L8.41574 14.4645C8.6832 14.6173 9.02708 14.6173 9.33275 14.4645L11.4342 13.2418L12.8862 12.4012L14.9877 11.1785C15.2552 11.0257 15.599 11.0257 15.9047 11.1785L17.5477 12.1337C17.8152 12.2865 18.0062 12.5922 18.0062 12.9361V14.8465C18.0062 15.1522 17.8534 15.4579 17.5477 15.6489L15.9429 16.6042C15.6755 16.757 15.3316 16.757 15.0259 16.6042L13.3829 15.6489C13.1154 15.4961 12.9244 15.1904 12.9244 14.8465V13.6239L11.4725 14.4645V15.7254C11.4725 16.031 11.6253 16.3367 11.931 16.5277L15.0259 18.3236C15.2934 18.4764 15.6373 18.4764 15.9429 18.3236L19.0378 16.5277C19.3053 16.3749 19.4964 16.0692 19.4964 15.7254V12.0955C19.4964 11.7898 19.3435 11.4842 19.0378 11.2931L15.9429 9.49729Z" fill="#8247E5"/>
</g>
</g>
<defs>
<clipPath id="clip0_1_14319">
<rect width="16" height="16" fill="white" transform="translate(4.0625 4)"/>
</clipPath>
</defs>
</svg>
