<svg width="27" height="28" viewBox="0 0 27 28" fill="none" xmlns="http://www.w3.org/2000/svg">
<g clip-path="url(#clip0_808_87592)">
<path d="M11.66 9.19198C11.7916 7.76061 12.296 6.38872 13.1231 5.21307C12.8671 4.04801 12.3019 2.97346 11.4869 2.10238C10.672 1.23129 9.63745 0.595867 8.49201 0.262903C7.34658 -0.0700609 6.13259 -0.0882607 4.97768 0.210217C3.82278 0.508695 2.76963 1.11282 1.92896 1.95909C1.08828 2.80535 0.491147 3.86248 0.200328 5.01933C-0.090491 6.17619 -0.0642479 7.39003 0.276298 8.53324C0.616844 9.67644 1.25911 10.7068 2.13557 11.5159C3.01204 12.3251 4.09031 12.8831 5.25704 13.1314C6.79439 11.0318 9.09282 9.6177 11.66 9.19198ZM3.98458 8.22166C3.98363 8.16524 3.99405 8.10921 4.01521 8.0569C4.03637 8.00459 4.06783 7.95707 4.10773 7.91717C4.14763 7.87727 4.19515 7.8458 4.24746 7.82465C4.29977 7.80349 4.3558 7.79307 4.41222 7.79402H5.77416V7.47445L5.58707 7.15604H4.41106C4.30134 7.15032 4.19801 7.10271 4.12237 7.02303C4.04674 6.94335 4.00457 6.83768 4.00457 6.72782C4.00457 6.61796 4.04674 6.51229 4.12237 6.43261C4.19801 6.35293 4.30134 6.30532 4.41106 6.2996H5.0804L3.63247 3.91736C3.54432 3.78232 3.49157 3.62727 3.47908 3.46648C3.48534 3.35082 3.51512 3.23765 3.56661 3.13389C3.61809 3.03014 3.6902 2.93797 3.77852 2.86303C3.86684 2.78809 3.96952 2.73194 4.08027 2.69804C4.19103 2.66413 4.30754 2.65317 4.42268 2.66582C4.58364 2.67092 4.73972 2.72229 4.87224 2.8138C5.00476 2.9053 5.10809 3.03306 5.16988 3.18178L6.64106 5.98236L8.11107 3.18178C8.1729 3.03332 8.27609 2.90576 8.40836 2.81429C8.54063 2.72281 8.69639 2.67128 8.85712 2.66582C8.97232 2.65317 9.08888 2.66413 9.19971 2.69802C9.31053 2.73192 9.41328 2.78804 9.50169 2.86297C9.5901 2.9379 9.66232 3.03005 9.71393 3.13382C9.76554 3.23758 9.79547 3.35077 9.80188 3.46648C9.78915 3.62686 9.73641 3.78148 9.64849 3.9162L8.20171 6.2996H8.87106C8.98078 6.30532 9.08411 6.35293 9.15975 6.43261C9.23538 6.51229 9.27755 6.61796 9.27755 6.72782C9.27755 6.83768 9.23538 6.94335 9.15975 7.02303C9.08411 7.10271 8.98078 7.15032 8.87106 7.15604H7.69389L7.50447 7.47445V7.79285H8.86874C8.97845 7.79857 9.08179 7.84618 9.15742 7.92586C9.23306 8.00554 9.27523 8.11121 9.27523 8.22108C9.27523 8.33094 9.23306 8.43661 9.15742 8.51629C9.08179 8.59597 8.97845 8.64358 8.86874 8.6493H7.50447V9.73583C7.51413 9.85264 7.49843 9.97017 7.45844 10.0803C7.41846 10.1905 7.35513 10.2908 7.2728 10.3742C7.19047 10.4576 7.09109 10.5223 6.98145 10.5637C6.87181 10.6052 6.75451 10.6225 6.63757 10.6144C6.52064 10.6225 6.40334 10.6052 6.2937 10.5637C6.18406 10.5223 6.08467 10.4576 6.00234 10.3742C5.92001 10.2908 5.85669 10.1905 5.8167 10.0803C5.77672 9.97017 5.76101 9.85264 5.77067 9.73583V8.6493H4.41106C4.35473 8.65008 4.29883 8.63955 4.24665 8.61832C4.19448 8.59709 4.1471 8.56561 4.10732 8.52572C4.06755 8.48584 4.03619 8.43837 4.0151 8.38614C3.99402 8.33391 3.98364 8.27798 3.98458 8.22166Z" fill="#F5F7FB"/>
<path d="M19.923 3.32007C18.3208 3.32276 16.7735 3.9042 15.566 4.95733C14.3584 6.01046 13.572 7.46438 13.3516 9.05138C14.5802 9.05916 15.7967 9.2956 16.9389 9.74862C16.9778 9.65979 17.0435 9.58536 17.1269 9.53577C17.2103 9.48617 17.307 9.46389 17.4037 9.47205H17.6361C17.409 9.12439 17.293 8.71583 17.3037 8.30069C17.3259 7.96525 17.4157 7.63775 17.5676 7.33787C17.7196 7.03799 17.9305 6.7719 18.1879 6.55559C18.4452 6.33928 18.7436 6.17721 19.0652 6.0791C19.3867 5.981 19.7247 5.94888 20.059 5.98469C21.9822 5.98469 22.9142 7.01661 22.9142 7.87305C22.9187 7.97998 22.9001 8.08663 22.8595 8.18566C22.8189 8.28469 22.7573 8.37375 22.679 8.44674C22.6008 8.51972 22.5076 8.57489 22.406 8.60845C22.3043 8.64202 22.1966 8.65318 22.0903 8.64117C21.1246 8.64117 21.7161 7.30131 20.231 7.30131C20.0752 7.28583 19.9178 7.30234 19.7686 7.34985C19.6194 7.39735 19.4815 7.47484 19.3633 7.57757C19.2452 7.68029 19.1492 7.80608 19.0814 7.94721C19.0136 8.08835 18.9753 8.24185 18.969 8.3983C19.0023 8.78077 19.1266 9.14972 19.3316 9.47437H20.5331C20.9828 9.47437 21.2141 9.63939 21.2141 10.0008C21.2141 10.3622 20.9817 10.5272 20.5331 10.5272H19.6651C19.701 10.6106 19.7204 10.7002 19.722 10.791C19.717 10.9715 19.6776 11.1494 19.6058 11.3151C19.963 11.614 20.2989 11.9374 20.611 12.2831C20.9046 12.3585 21.2053 12.4029 21.5081 12.4156C21.694 12.4156 22.1461 12.2994 22.3215 12.2994C22.4106 12.2988 22.4987 12.3169 22.5803 12.3525C22.6618 12.3882 22.735 12.4406 22.7951 12.5063C22.8551 12.572 22.9006 12.6497 22.9288 12.7341C22.9569 12.8186 22.967 12.908 22.9584 12.9966C22.9584 13.616 22.4041 13.8844 21.8335 13.9262C22.2177 14.5656 22.5295 15.2457 22.7631 15.9541C24.1271 15.3104 25.231 14.2213 25.893 12.8661C26.5549 11.511 26.7354 9.97071 26.4046 8.49925C26.0738 7.0278 25.2515 5.71296 24.0733 4.77148C22.8951 3.83 21.4312 3.31807 19.923 3.32007Z" fill="#F5F7FB"/>
<path d="M13.7205 19.7993V22.5162C14.5432 22.4616 15.4078 22.077 15.4078 21.1717C15.4078 20.2374 14.4595 19.9632 13.7205 19.7993Z" fill="#F5F7FB"/>
<path d="M11.3592 16.5478C11.3592 17.2358 11.8682 17.632 12.8966 17.8389V15.3811C11.9623 15.4148 11.3592 15.9575 11.3592 16.5478Z" fill="#F5F7FB"/>
<path d="M13.2812 10.7085C11.6395 10.7085 10.0347 11.1953 8.66965 12.1074C7.30461 13.0195 6.2407 14.3159 5.61244 15.8326C4.98419 17.3494 4.81981 19.0183 5.14009 20.6285C5.46037 22.2387 6.25093 23.7177 7.41179 24.8786C8.57266 26.0394 10.0517 26.83 11.6619 27.1503C13.272 27.4706 14.941 27.3062 16.4577 26.6779C17.9745 26.0497 19.2709 24.9857 20.183 23.6207C21.095 22.2557 21.5819 20.6508 21.5819 19.0091C21.5791 16.8085 20.7037 14.6988 19.1476 13.1428C17.5915 11.5867 15.4818 10.7113 13.2812 10.7085ZM13.7205 23.9223V24.7741C13.7266 24.832 13.7206 24.8905 13.7026 24.9458C13.6847 25.0012 13.6553 25.0521 13.6164 25.0954C13.5775 25.1387 13.53 25.1733 13.4768 25.1969C13.4237 25.2206 13.3661 25.2328 13.308 25.2328C13.2498 25.2328 13.1923 25.2206 13.1391 25.1969C13.086 25.1733 13.0384 25.1387 12.9995 25.0954C12.9606 25.0521 12.9312 25.0012 12.9133 24.9458C12.8954 24.8905 12.8893 24.832 12.8954 24.7741V23.9223C10.5771 23.8677 9.42317 22.4814 9.42317 21.396C9.41188 21.2809 9.42601 21.1648 9.46458 21.0558C9.50315 20.9467 9.5652 20.8475 9.64636 20.7652C9.72751 20.6828 9.82578 20.6193 9.93421 20.5791C10.0426 20.5389 10.1586 20.523 10.2738 20.5326C11.8112 20.5326 10.6166 22.4268 12.8954 22.5221V19.6483C10.863 19.2776 9.63002 18.3863 9.63002 16.8593C9.63002 14.9942 11.1802 14.0332 12.8954 13.9785V13.2476C12.8871 13.1887 12.8916 13.1286 12.9085 13.0715C12.9254 13.0144 12.9543 12.9616 12.9934 12.9167C13.0324 12.8718 13.0807 12.8357 13.1348 12.811C13.189 12.7863 13.2478 12.7736 13.3074 12.7736C13.3669 12.7736 13.4258 12.7863 13.4799 12.811C13.5341 12.8357 13.5823 12.8718 13.6214 12.9167C13.6604 12.9616 13.6894 13.0144 13.7063 13.0715C13.7232 13.1286 13.7276 13.1887 13.7193 13.2476V13.9785C14.7884 14.0076 16.9836 14.6758 16.9836 16.0238C16.9872 16.1376 16.9673 16.251 16.9249 16.3567C16.8826 16.4624 16.8188 16.5583 16.7375 16.6381C16.6563 16.7179 16.5594 16.78 16.4529 16.8205C16.3464 16.861 16.2328 16.8789 16.119 16.8733C15.2277 16.8733 15.2393 15.4067 13.7193 15.3788V17.9854C15.531 18.37 17.1358 18.9045 17.1358 21.0195C17.137 22.8614 15.7634 23.7945 13.7205 23.9223Z" fill="#F5F7FB"/>
</g>
<defs>
<clipPath id="clip0_808_87592">
<rect width="26.5625" height="27.3085" fill="white"/>
</clipPath>
</defs>
</svg>
