<svg width="9" height="15" viewBox="0 0 9 15" fill="none" xmlns="http://www.w3.org/2000/svg">
<path d="M4.05282 0.655273C4.55063 0.655273 4.95282 1.04629 4.95282 1.53027V2.50645C4.99782 2.51191 5.04 2.51738 5.085 2.52559C5.38313 2.56934 6.26907 2.70879 6.63469 2.79902C7.11563 2.9166 7.40813 3.39238 7.28719 3.8627C7.16625 4.33301 6.67688 4.61465 6.19313 4.49707C5.93157 4.43145 5.13563 4.30566 4.81782 4.25918C3.915 4.12793 3.14157 4.19355 2.61 4.39316C2.09532 4.58457 1.88157 4.85527 1.82532 5.15879C1.77188 5.45137 1.81125 5.61816 1.86188 5.72207C1.91532 5.83145 2.01938 5.95449 2.22469 6.08848C2.68032 6.38379 3.38063 6.57793 4.28625 6.81855L4.365 6.84043C5.16375 7.05098 6.1425 7.31074 6.86813 7.77832C7.26469 8.03535 7.63594 8.38262 7.86657 8.86387C8.1 9.35059 8.15063 9.89746 8.04375 10.4799C7.84969 11.5189 7.11282 12.2135 6.19875 12.5771C5.81344 12.7303 5.39438 12.8287 4.95 12.8779V13.7803C4.95 14.2643 4.54782 14.6553 4.05 14.6553C3.55219 14.6553 3.15 14.2643 3.15 13.7803V12.826C3.13875 12.8232 3.12469 12.8232 3.11344 12.8205H3.10782C2.42157 12.7166 1.29375 12.4295 0.534379 12.1014C0.078754 11.9045 -0.123746 11.3877 0.078754 10.9475C0.281254 10.5072 0.812817 10.3076 1.26563 10.5045C1.85344 10.7588 2.82094 11.0076 3.38063 11.0951C4.27782 11.2236 5.0175 11.1498 5.51813 10.9502C5.99344 10.7615 6.21 10.4881 6.27188 10.16C6.32532 9.86738 6.28594 9.70059 6.23532 9.59668C6.18188 9.4873 6.07782 9.36426 5.8725 9.23027C5.41688 8.93496 4.71657 8.74082 3.81094 8.5002L3.73219 8.47832C2.93344 8.26777 1.95469 8.00801 1.22907 7.54043C0.832504 7.2834 0.461254 6.93613 0.230629 6.45488C-0.00280851 5.96816 -0.0534335 5.42129 0.0534415 4.83887C0.255941 3.7752 1.04344 3.09707 1.97157 2.75254C2.33719 2.61582 2.73657 2.52832 3.15282 2.4791V1.53027C3.15282 1.04629 3.555 0.655273 4.05282 0.655273Z" fill="#FBFBFB" fill-opacity="0.5"/>
</svg>
