<svg width="25" height="24" viewBox="0 0 25 24" fill="none" xmlns="http://www.w3.org/2000/svg">
<rect x="0.90625" width="24" height="24" rx="12" fill="#24182F"/>
<path d="M10.9471 5L11.4809 6.85213H14.5086L15.0423 5H10.9471ZM11.6412 7.40535L11.6421 7.40905H10.9318C10.201 7.40905 10.2407 8.75882 10.9318 8.75882H11.5769V10.5073C9.50683 11.093 8 12.9329 8 15.1191C8 16.7094 8.79845 18.1224 10.0332 19H15.9486C17.1834 18.1224 18 16.7094 18 15.1191C18.0001 13.4985 17.1651 12.0686 15.8881 11.1984L15.8862 11.1965C14.1877 10.3322 11.9382 11.0693 10.832 12.9108C9.87891 14.4972 10.3074 16.4354 11.7093 17.2209C12.6872 17.7689 14.0656 17.5038 14.6872 16.4096C14.8303 16.1577 14.853 15.7805 14.7487 15.4151C14.6442 15.0497 14.4166 14.7079 14.1409 14.5205C13.7882 14.2806 13.0715 14.2833 12.6664 14.5603L12.3343 14.1088C12.9645 13.6778 13.8655 13.6557 14.4722 14.0681V14.069C14.8865 14.3508 15.1664 14.7961 15.3016 15.2689C15.4367 15.7418 15.4307 16.2535 15.1912 16.6751C14.4163 18.0392 12.6727 18.4004 11.4213 17.6992C9.71225 16.7416 9.2429 14.4523 10.3356 12.6332C10.9342 11.6367 11.8428 10.9184 12.8469 10.5544H14.4127V8.75885H15.0097C15.8075 8.75885 15.7603 7.40905 15.0097 7.40905H14.3473L14.3483 7.40535H11.6412Z" fill="url(#paint0_linear_1_14299)"/>
<defs>
<linearGradient id="paint0_linear_1_14299" x1="13" y1="5" x2="13" y2="19" gradientUnits="userSpaceOnUse">
<stop stop-color="#FFB986" stop-opacity="0.89"/>
<stop offset="1" stop-color="#71AFE8"/>
</linearGradient>
</defs>
</svg>
