<svg width="10" height="15" viewBox="0 0 10 15" fill="none" xmlns="http://www.w3.org/2000/svg">
<path d="M1.67132 0.851062C1.39569 0.391756 0.8388 0.269899 0.42254 0.576103C0.00627965 0.882307 -0.100598 1.50096 0.175034 1.96027L2.84135 6.40648H1.37319C0.875364 6.40648 0.473166 6.85328 0.473166 7.40633C0.473166 7.95937 0.875364 8.40618 1.37319 8.40618H3.62324V9.40602H1.37319C0.875364 9.40602 0.473166 9.85283 0.473166 10.4059C0.473166 10.9589 0.875364 11.4057 1.37319 11.4057H3.62324V13.4054C3.62324 13.9585 4.02544 14.4053 4.52327 14.4053C5.02109 14.4053 5.42329 13.9585 5.42329 13.4054V11.4057H7.67335C8.17117 11.4057 8.57337 10.9589 8.57337 10.4059C8.57337 9.85283 8.17117 9.40602 7.67335 9.40602H5.42329V8.40618H7.67335C8.17117 8.40618 8.57337 7.95937 8.57337 7.40633C8.57337 6.85328 8.17117 6.40648 7.67335 6.40648H6.20518L8.8715 1.96027C9.14713 1.50096 9.03463 0.879183 8.62118 0.572979C8.20773 0.266775 7.64803 0.391756 7.3724 0.851062L4.52327 5.60347L1.67132 0.851062Z" fill="#F8F7F8"/>
</svg>
