<svg width="18" height="18" viewBox="0 0 18 18" fill="none" xmlns="http://www.w3.org/2000/svg">
<g clip-path="url(#clip0_1_18994)">
<path d="M10.2241 11.957C10.1569 11.8834 10.0718 11.8283 9.98392 11.7824C9.79256 11.6826 9.58328 11.6221 9.37549 11.5675V13.1776C9.71276 13.1395 10.1 13.0171 10.2771 12.7022C10.3616 12.5518 10.3784 12.3671 10.344 12.1996C10.3253 12.1089 10.2867 12.0256 10.2241 11.957Z" fill="white"/>
<path d="M10.2754 12.7053C10.2761 12.7042 10.2764 12.7035 10.2772 12.7022C10.2766 12.7033 10.276 12.7043 10.2754 12.7053Z" fill="black"/>
<path d="M7.79334 9.38297C7.73535 9.46764 7.69897 9.56383 7.68893 9.66607C7.67889 9.76853 7.68452 9.88251 7.72345 9.97895C7.76051 10.0709 7.83815 10.1387 7.91828 10.1933C8.0082 10.2545 8.1071 10.3023 8.20782 10.3428C8.29232 10.3768 8.38736 10.4093 8.48982 10.4407V8.98373C8.23099 9.03896 7.94818 9.15688 7.79334 9.38297Z" fill="white"/>
<path d="M10.284 12.6903C10.2819 12.6941 10.2796 12.698 10.2773 12.7022C10.28 12.6974 10.282 12.6938 10.284 12.6903Z" fill="black"/>
<path d="M10.292 12.6755C10.2927 12.6742 10.2928 12.6741 10.292 12.6755V12.6755Z" fill="black"/>
<path d="M9.94275 3.91651C11.312 2.76624 12.227 0.174833 11.6639 0.0614916C10.9158 -0.0891649 9.29112 0.571445 8.50586 0.687836C7.39209 0.822313 6.17905 -0.519915 5.49815 0.228243C4.94453 0.836545 5.89506 3.04874 7.38218 4.01249C2.94542 6.19309 -3.29075 17.1399 7.58858 17.9342C22.642 19.0332 15.1042 6.04146 9.94275 3.91651ZM11.2355 12.5497C11.1893 12.9764 10.9631 13.3624 10.625 13.6244C10.268 13.9011 9.8203 14.0297 9.37545 14.0658V14.5373C9.37545 14.6635 9.32034 14.7855 9.22589 14.869C9.09607 14.9839 8.90531 15.0122 8.74775 14.9396C8.59218 14.8681 8.48998 14.7085 8.48998 14.5373V14.0219C8.41369 14.0074 8.33796 13.9902 8.26312 13.9697C7.84737 13.8554 7.46172 13.6328 7.18002 13.3033C7.0397 13.1391 6.9253 12.9528 6.84618 12.7517C6.82551 12.6991 6.80709 12.6456 6.79095 12.5914C6.77634 12.5424 6.76126 12.4926 6.75605 12.4415C6.74728 12.3559 6.76427 12.2684 6.80421 12.1921C6.88629 12.0351 7.05927 11.9403 7.23589 11.956C7.40971 11.9714 7.56206 12.0921 7.61679 12.2578C7.63364 12.3088 7.64508 12.3611 7.66401 12.4116C7.68278 12.4617 7.70544 12.5105 7.73208 12.5569C7.78468 12.6483 7.85059 12.7326 7.92649 12.8058C8.08294 12.9565 8.28222 13.0545 8.48998 13.1127V11.3609C8.08375 11.2557 7.66444 11.1199 7.32898 10.859C7.16596 10.7322 7.02763 10.5747 6.93703 10.3882C6.84144 10.1914 6.80184 9.97208 6.80023 9.75429C6.79857 9.53316 6.84059 9.31397 6.93284 9.11249C7.01924 8.92384 7.14364 8.75446 7.29616 8.61405C7.62229 8.31388 8.0555 8.14646 8.49002 8.08496V8.04641V7.59546C8.49002 7.46933 8.54512 7.34726 8.63957 7.26374C8.76943 7.14891 8.96012 7.12053 9.11772 7.19313C9.27325 7.26475 9.37549 7.42426 9.37549 7.59546V8.04641V8.08229C9.43339 8.08957 9.49112 8.0983 9.54855 8.10872C9.97524 8.18593 10.3926 8.36213 10.7046 8.66975C10.8524 8.81545 10.9734 8.98906 11.0585 9.17839C11.0823 9.23121 11.1031 9.28525 11.1211 9.34036C11.1378 9.39173 11.1547 9.44463 11.1627 9.49826C11.1755 9.58385 11.1624 9.67229 11.1258 9.75061C11.0508 9.91105 10.8824 10.0132 10.7053 10.0056C10.5314 9.99804 10.3737 9.88474 10.3114 9.7221C10.2929 9.67373 10.2836 9.62253 10.2646 9.57428C10.2455 9.52545 10.2208 9.47886 10.1923 9.43485C10.1369 9.34929 10.0651 9.27593 9.98316 9.21549C9.80569 9.08445 9.59044 9.01617 9.37536 8.97801V10.6545C9.63097 10.7157 9.8868 10.7825 10.1317 10.879C10.5018 11.025 10.8526 11.2488 11.0546 11.6017C11.0233 11.5467 10.9928 11.4931 11.0557 11.6035C11.1174 11.7119 11.0879 11.6603 11.0569 11.6059C11.2177 11.8892 11.2705 12.2279 11.2355 12.5497Z" fill="white"/>
<path d="M10.2708 12.7136C10.2682 12.7182 10.2659 12.7223 10.2642 12.7254C10.2657 12.7227 10.268 12.7187 10.2708 12.7136Z" fill="black"/>
</g>
<defs>
<clipPath id="clip0_1_18994">
<rect width="18" height="18" fill="white"/>
</clipPath>
</defs>
</svg>
