<svg width="30" height="29" viewBox="0 0 30 29" fill="none" xmlns="http://www.w3.org/2000/svg">
<path opacity="0.4" d="M29.3358 14.464C29.3358 22.2278 23.042 28.5215 15.2782 28.5215C7.51447 28.5215 1.2207 22.2278 1.2207 14.464C1.2207 6.70026 7.51447 0.406494 15.2782 0.406494C23.042 0.406494 29.3358 6.70026 29.3358 14.464Z" fill="#120C18" stroke="#120C18" stroke-width="0.5"/>
<g clip-path="url(#clip0_387_1823)">
<path d="M9.66667 7C8.7474 7 8 7.84082 8 8.875V17.3125C8 18.3467 8.7474 19.1875 9.66667 19.1875H14.25L13.9714 20.125H12.1667C11.7057 20.125 11.3333 20.5439 11.3333 21.0625C11.3333 21.5811 11.7057 22 12.1667 22H18.8333C19.2943 22 19.6667 21.5811 19.6667 21.0625C19.6667 20.5439 19.2943 20.125 18.8333 20.125H17.0286L16.75 19.1875H21.3333C22.2526 19.1875 23 18.3467 23 17.3125V8.875C23 7.84082 22.2526 7 21.3333 7H9.66667ZM21.3333 8.875V17.3125H9.66667V8.875H21.3333Z" fill="#F8F7F8"/>
</g>
<defs>
<clipPath id="clip0_387_1823">
<rect width="15" height="15" fill="white" transform="translate(8 7)"/>
</clipPath>
</defs>
</svg>
