<svg width="138" height="32" viewBox="0 0 138 32" fill="none" xmlns="http://www.w3.org/2000/svg">
<path d="M48.1286 26H44.9046L40.5956 11.616H40.5336V26H37.4336V4.29999H41.0916L44.9666 17.227H45.0286V4.29999H48.1286V26ZM62.1711 26H58.8231L58.1101 21.071H54.4831L53.7701 26H50.4841L54.2351 4.29999H58.4201L62.1711 26ZM56.2501 8.94999L54.9171 18.095H57.6761L56.3431 8.94999H56.2501ZM71.4103 12.918L75.9673 26H72.4643L69.2403 16.514L67.8143 19.304V26H64.5283V4.29999H67.8143V13.352H67.8763L72.4333 4.29999H75.8743L71.4103 12.918ZM88.4182 26H85.0702L84.3572 21.071H80.7302L80.0172 26H76.7312L80.4822 4.29999H84.6672L88.4182 26ZM82.4972 8.94999L81.1642 18.095H83.9232L82.5902 8.94999H82.4972ZM95.4506 16.204V26H92.1648V16.173L87.6078 4.29999H91.0798L93.8386 11.988H93.9006L96.5356 4.29999H99.9456L95.4506 16.204ZM105.998 3.98999C107.652 3.98999 108.943 4.48599 109.873 5.47799C110.824 6.44929 111.299 7.78229 111.299 9.47699V20.823C111.299 22.5177 110.824 23.861 109.873 24.853C108.943 25.8243 107.652 26.31 105.998 26.31C104.345 26.31 103.043 25.8243 102.092 24.853C101.162 23.861 100.697 22.5177 100.697 20.823V9.47699C100.697 7.78229 101.162 6.44929 102.092 5.47799C103.043 4.48599 104.345 3.98999 105.998 3.98999ZM105.998 7.02799C105.337 7.02799 104.831 7.24499 104.479 7.67899C104.149 8.09229 103.983 8.70199 103.983 9.50799V20.792C103.983 21.598 104.149 22.218 104.479 22.652C104.831 23.0653 105.337 23.272 105.998 23.272C106.66 23.272 107.156 23.0653 107.486 22.652C107.838 22.218 108.013 21.598 108.013 20.792V9.50799C108.013 8.70199 107.838 8.09229 107.486 7.67899C107.156 7.24499 106.66 7.02799 105.998 7.02799ZM121.362 12.918L125.919 26H122.416L119.192 16.514L117.766 19.304V26H114.48V4.29999H117.766V13.352H117.828L122.385 4.29999H125.826L121.362 12.918ZM137.752 21.133C137.752 22.807 137.297 24.0883 136.388 24.977C135.499 25.8657 134.249 26.31 132.637 26.31C131.066 26.31 129.826 25.8657 128.917 24.977C128.028 24.0883 127.584 22.807 127.584 21.133V4.29999H130.746V21.04C130.746 22.4867 131.366 23.21 132.606 23.21C133.846 23.21 134.466 22.4867 134.466 21.04V4.29999H137.752V21.133Z" fill="url(#paint0_linear_1_25046)"/>
<path d="M16 0C7.17729 0 0 7.1773 0 16C0 24.8227 7.17729 32 16 32C24.8227 32 32 24.8227 32 16C32 7.1773 24.8227 0 16 0ZM28.1409 23.6002H3.85909C3.68769 23.3277 3.52402 23.0501 3.37086 22.7656H28.6291C28.476 23.0501 28.3123 23.3277 28.1409 23.6002ZM16.2768 22.2092H3.08562C2.41609 20.823 1.96786 19.3118 1.77676 17.7227C3.1355 18.3374 5.11949 18.6831 7.29249 18.6831C8.13069 18.6831 8.99549 18.6325 9.86109 18.5264C11.4615 18.3304 13.7497 17.8554 16.2016 16.744C18.7983 17.9742 21.2312 18.4828 22.9139 18.6887C23.7794 18.7941 24.6351 18.8453 25.4592 18.8453C27.2746 18.8453 28.9221 18.5924 30.172 18.1351C29.9563 19.5739 29.527 20.9432 28.9158 22.2092H16.2782H16.2768ZM1.66927 16C1.66927 14.5562 1.88636 13.1617 2.28541 11.8465C4.39519 14.6082 8.02249 15.5237 10.9304 15.4204C11.7699 15.3902 12.5758 15.2764 13.3359 15.0972C13.8663 15.4618 14.3982 15.7829 14.9279 16.0794C12.9144 16.8873 11.066 17.2569 9.72619 17.4206C6.06379 17.8681 2.9978 17.2709 1.68051 16.4166C1.6763 16.2775 1.66927 16.1398 1.66927 16ZM16.1806 13.9752C16.6386 14.2612 17.1445 14.5071 17.6833 14.7164C17.1915 15.0101 16.7019 15.2693 16.2164 15.5054C15.7225 15.2553 15.2251 14.9806 14.7263 14.6708C15.2448 14.4726 15.7344 14.2422 16.1806 13.9752ZM14.7572 10.8517C13.9914 9.1241 14.5169 7.0171 16.2768 4.7296C18.0016 6.9757 18.5152 9.0482 17.7599 10.7519C17.4416 11.4692 16.9028 12.1071 16.1953 12.6376C15.5511 12.1296 15.0565 11.5268 14.7572 10.8517ZM29.7652 12.0242C30.1305 13.2874 30.3307 14.6202 30.3307 16C30.3307 16.2951 30.3188 16.5873 30.3012 16.8775C28.8757 17.5519 26.1969 17.9679 23.048 17.5829C21.6303 17.4093 19.6491 17.0068 17.4979 16.1019C18.0234 15.818 18.5517 15.4984 19.0786 15.1485C19.8072 15.3199 20.5786 15.4281 21.3809 15.4569C21.5228 15.4618 21.6661 15.4647 21.8108 15.4647C24.5255 15.4647 27.7713 14.5429 29.7652 12.0242ZM16 1.66927C22.0378 1.66927 27.2114 5.4244 29.3184 10.7196C27.5606 13.5277 24.1412 14.4523 21.4216 14.3448C21.05 14.3314 20.6882 14.2963 20.3334 14.2492C21.5952 13.2621 22.8253 12.0573 23.9543 10.5812L23.0698 9.9053C21.7743 11.5999 20.3362 12.9137 18.8735 13.9408C18.2615 13.7659 17.6847 13.5481 17.1726 13.2734C17.8829 12.679 18.433 11.9807 18.7772 11.2037C19.4734 9.6334 19.6786 7.0192 16.7019 3.4854L16.2761 2.98024L15.8504 3.4854C12.8301 7.0719 13.0352 9.7163 13.7392 11.3034C14.0617 12.0313 14.5633 12.6882 15.2061 13.2537C14.7087 13.5108 14.1495 13.7153 13.5607 13.8832C12.143 12.8547 10.7491 11.5598 9.48379 9.9053L8.59929 10.5812C9.70439 12.0263 10.903 13.2116 12.131 14.1958C11.7278 14.2527 11.314 14.2921 10.8896 14.3075C8.06529 14.415 4.49709 13.4638 2.7491 10.5482C4.89889 5.3436 10.0276 1.66927 16 1.66927ZM16 30.3307C11.1271 30.3307 6.81689 27.8844 4.22659 24.1567H27.7734C25.1831 27.8837 20.8729 30.3307 16 30.3307Z" fill="url(#paint1_linear_1_25046)"/>
<path d="M13.2224 20.284C13.5297 20.284 13.7788 20.0348 13.7788 19.7275C13.7788 19.4202 13.5297 19.1711 13.2224 19.1711C12.9151 19.1711 12.666 19.4202 12.666 19.7275C12.666 20.0348 12.9151 20.284 13.2224 20.284Z" fill="#76B1C8"/>
<path d="M18.7889 20.284C19.0962 20.284 19.3453 20.0348 19.3453 19.7275C19.3453 19.4202 19.0962 19.1711 18.7889 19.1711C18.4816 19.1711 18.2324 19.4202 18.2324 19.7275C18.2324 20.0348 18.4816 20.284 18.7889 20.284Z" fill="#9D97C5"/>
<path d="M16.1451 20.8924C16.7597 20.8924 17.2579 20.3941 17.2579 19.7795C17.2579 19.1649 16.7597 18.6667 16.1451 18.6667C15.5304 18.6667 15.0322 19.1649 15.0322 19.7795C15.0322 20.3941 15.5304 20.8924 16.1451 20.8924Z" fill="#87A5C7"/>
<defs>
<linearGradient id="paint0_linear_1_25046" x1="35.0596" y1="6.49999" x2="75.8199" y2="72.4347" gradientUnits="userSpaceOnUse">
<stop stop-color="#09FBD3"/>
<stop offset="1" stop-color="#FE53BB"/>
</linearGradient>
<linearGradient id="paint1_linear_1_25046" x1="-0.16053" y1="0.88889" x2="36.6919" y2="9.757" gradientUnits="userSpaceOnUse">
<stop stop-color="#09FBD3"/>
<stop offset="1" stop-color="#FE53BB"/>
</linearGradient>
</defs>
</svg>
