<svg width="204" height="47" viewBox="0 0 204 47" fill="none" xmlns="http://www.w3.org/2000/svg">
<path d="M61.4621 33H58.2381L53.9291 18.616H53.8671V33H50.7671V11.3H54.4251L58.3001 24.227H58.3621V11.3H61.4621V33ZM75.5046 33H72.1566L71.4436 28.071H67.8166L67.1036 33H63.8176L67.5686 11.3H71.7536L75.5046 33ZM69.5836 15.95L68.2506 25.095H71.0096L69.6766 15.95H69.5836ZM84.7438 19.918L89.3008 33H85.7978L82.5738 23.514L81.1478 26.304V33H77.8618V11.3H81.1478V20.352H81.2098L85.7668 11.3H89.2078L84.7438 19.918ZM101.752 33H98.4037L97.6907 28.071H94.0637L93.3507 33H90.0647L93.8157 11.3H98.0007L101.752 33ZM95.8307 15.95L94.4977 25.095H97.2567L95.9237 15.95H95.8307ZM108.784 23.204V33H105.498V23.173L100.941 11.3H104.413L107.172 18.988H107.234L109.869 11.3H113.279L108.784 23.204ZM119.331 10.99C120.985 10.99 122.276 11.486 123.206 12.478C124.157 13.4493 124.632 14.7823 124.632 16.477V27.823C124.632 29.5177 124.157 30.861 123.206 31.853C122.276 32.8243 120.985 33.31 119.331 33.31C117.678 33.31 116.376 32.8243 115.425 31.853C114.495 30.861 114.03 29.5177 114.03 27.823V16.477C114.03 14.7823 114.495 13.4493 115.425 12.478C116.376 11.486 117.678 10.99 119.331 10.99ZM119.331 14.028C118.67 14.028 118.164 14.245 117.812 14.679C117.482 15.0923 117.316 15.702 117.316 16.508V27.792C117.316 28.598 117.482 29.218 117.812 29.652C118.164 30.0653 118.67 30.272 119.331 30.272C119.993 30.272 120.489 30.0653 120.819 29.652C121.171 29.218 121.346 28.598 121.346 27.792V16.508C121.346 15.702 121.171 15.0923 120.819 14.679C120.489 14.245 119.993 14.028 119.331 14.028ZM134.695 19.918L139.252 33H135.749L132.525 23.514L131.099 26.304V33H127.813V11.3H131.099V20.352H131.161L135.718 11.3H139.159L134.695 19.918ZM151.085 28.133C151.085 29.807 150.63 31.0883 149.721 31.977C148.832 32.8657 147.582 33.31 145.97 33.31C144.399 33.31 143.159 32.8657 142.25 31.977C141.361 31.0883 140.917 29.807 140.917 28.133V11.3H144.079V28.04C144.079 29.4867 144.699 30.21 145.939 30.21C147.179 30.21 147.799 29.4867 147.799 28.04V11.3H151.085V28.133Z" fill="url(#paint0_linear_48_201)"/>
<path d="M29.3335 7C20.5108 7 13.3335 14.1773 13.3335 23C13.3335 31.8227 20.5108 39 29.3335 39C38.1562 39 45.3335 31.8227 45.3335 23C45.3335 14.1773 38.1562 7 29.3335 7ZM41.4744 30.6002H17.1926C17.0212 30.3277 16.8575 30.0501 16.7044 29.7656H41.9626C41.8095 30.0501 41.6458 30.3277 41.4744 30.6002ZM29.6103 29.2092H16.4191C15.7496 27.823 15.3014 26.3118 15.1103 24.7227C16.469 25.3374 18.453 25.6831 20.626 25.6831C21.4642 25.6831 22.329 25.6325 23.1946 25.5264C24.795 25.3304 27.0832 24.8554 29.5351 23.744C32.1318 24.9742 34.5647 25.4828 36.2473 25.6887C37.1129 25.7941 37.9686 25.8453 38.7927 25.8453C40.6081 25.8453 42.2556 25.5924 43.5054 25.1351C43.2898 26.5739 42.8605 27.9432 42.2493 29.2092H29.6117H29.6103ZM15.0028 23C15.0028 21.5562 15.2199 20.1617 15.6189 18.8465C17.7287 21.6082 21.356 22.5237 24.2639 22.4204C25.1034 22.3902 25.9092 22.2764 26.6694 22.0972C27.1998 22.4618 27.7317 22.7829 28.2614 23.0794C26.2479 23.8873 24.3994 24.2569 23.0597 24.4206C19.3973 24.8681 16.3313 24.2709 15.014 23.4166C15.0098 23.2775 15.0028 23.1398 15.0028 23ZM29.5141 20.9752C29.9721 21.2612 30.478 21.5071 31.0168 21.7164C30.525 22.0101 30.0354 22.2693 29.5499 22.5054C29.056 22.2553 28.5586 21.9806 28.0598 21.6708C28.5782 21.4726 29.0679 21.2422 29.5141 20.9752ZM28.0907 17.8517C27.3249 16.1241 27.8504 14.0171 29.6103 11.7296C31.3351 13.9757 31.8486 16.0482 31.0934 17.7519C30.7751 18.4692 30.2363 19.1071 29.5288 19.6376C28.8846 19.1296 28.39 18.5268 28.0907 17.8517ZM43.0987 19.0242C43.464 20.2874 43.6642 21.6202 43.6642 23C43.6642 23.2951 43.6523 23.5873 43.6347 23.8775C42.2092 24.5519 39.5304 24.9679 36.3815 24.5829C34.9638 24.4093 32.9826 24.0068 30.8313 23.1019C31.3569 22.818 31.8852 22.4984 32.4121 22.1485C33.1406 22.3199 33.912 22.4281 34.7144 22.4569C34.8563 22.4618 34.9996 22.4647 35.1443 22.4647C37.859 22.4647 41.1048 21.5429 43.0987 19.0242ZM29.3335 8.66927C35.3713 8.66927 40.5449 12.4244 42.6518 17.7196C40.894 20.5277 37.4747 21.4523 34.7551 21.3448C34.3835 21.3314 34.0216 21.2963 33.6669 21.2492C34.9286 20.2621 36.1588 19.0573 37.2878 17.5812L36.4033 16.9053C35.1078 18.5999 33.6697 19.9137 32.2069 20.9408C31.595 20.7659 31.0182 20.5481 30.5061 20.2734C31.2163 19.679 31.7664 18.9807 32.1107 18.2037C32.8069 16.6334 33.0121 14.0192 30.0353 10.4854L29.6096 9.98024L29.1839 10.4854C26.1636 14.0719 26.3687 16.7163 27.0727 18.3034C27.3951 19.0313 27.8968 19.6882 28.5396 20.2537C28.0422 20.5108 27.483 20.7153 26.8942 20.8832C25.4765 19.8547 24.0826 18.5598 22.8173 16.9053L21.9328 17.5812C23.0379 19.0263 24.2365 20.2116 25.4645 21.1958C25.0613 21.2527 24.6474 21.2921 24.2231 21.3075C21.3988 21.415 17.8306 20.4638 16.0826 17.5482C18.2324 12.3436 23.3611 8.66927 29.3335 8.66927ZM29.3335 37.3307C24.4606 37.3307 20.1504 34.8844 17.5601 31.1567H41.1069C38.5166 34.8837 34.2064 37.3307 29.3335 37.3307Z" fill="url(#paint1_linear_48_201)"/>
<path d="M26.5564 27.284C26.8637 27.284 27.1128 27.0348 27.1128 26.7275C27.1128 26.4202 26.8637 26.1711 26.5564 26.1711C26.2491 26.1711 26 26.4202 26 26.7275C26 27.0348 26.2491 27.284 26.5564 27.284Z" fill="#76B1C8"/>
<path d="M32.1214 27.284C32.4287 27.284 32.6778 27.0348 32.6778 26.7275C32.6778 26.4202 32.4287 26.1711 32.1214 26.1711C31.8141 26.1711 31.5649 26.4202 31.5649 26.7275C31.5649 27.0348 31.8141 27.284 32.1214 27.284Z" fill="#9D97C5"/>
<path d="M29.4791 27.8924C30.0937 27.8924 30.5919 27.3941 30.5919 26.7795C30.5919 26.1649 30.0937 25.6667 29.4791 25.6667C28.8644 25.6667 28.3662 26.1649 28.3662 26.7795C28.3662 27.3941 28.8644 27.8924 29.4791 27.8924Z" fill="#87A5C7"/>
<defs>
<linearGradient id="paint0_linear_48_201" x1="48.3931" y1="13.5" x2="89.1534" y2="79.4347" gradientUnits="userSpaceOnUse">
<stop stop-color="#09FBD3"/>
<stop offset="1" stop-color="#FE53BB"/>
</linearGradient>
<linearGradient id="paint1_linear_48_201" x1="13.173" y1="7.88889" x2="50.0254" y2="16.757" gradientUnits="userSpaceOnUse">
<stop stop-color="#09FBD3"/>
<stop offset="1" stop-color="#FE53BB"/>
</linearGradient>
</defs>
</svg>
