<svg width="9" height="15" viewBox="0 0 9 15" fill="none" xmlns="http://www.w3.org/2000/svg">
<path d="M1.35281 7.12016C1.35 7.20451 1.35 7.28574 1.35 7.37009V7.86994C1.35 7.95429 1.35 8.03552 1.35281 8.11987H0.9C0.402187 8.11987 0 8.56661 0 9.11958C0 9.67254 0.402187 10.1193 0.9 10.1193H1.69594C2.52844 12.7404 4.78125 14.618 7.425 14.618H8.1C8.59781 14.618 9 14.1712 9 13.6183C9 13.0653 8.59781 12.6185 8.1 12.6185H7.425C5.79656 12.6185 4.38188 11.6063 3.65906 10.1193H7.2C7.69781 10.1193 8.1 9.67254 8.1 9.11958C8.1 8.56661 7.69781 8.11987 7.2 8.11987H3.15562C3.15281 8.03864 3.15 7.95429 3.15 7.86994V7.37009C3.15 7.28574 3.15281 7.20139 3.15562 7.12016H7.2C7.69781 7.12016 8.1 6.67342 8.1 6.12046C8.1 5.56749 7.69781 5.12075 7.2 5.12075H3.65906C4.38188 3.63369 5.79656 2.62148 7.425 2.62148H8.1C8.59781 2.62148 9 2.17474 9 1.62178C9 1.06881 8.59781 0.62207 8.1 0.62207H7.425C4.78125 0.62207 2.52844 2.49964 1.69594 5.12075H0.9C0.402187 5.12075 0 5.56749 0 6.12046C0 6.67342 0.402187 7.12016 0.9 7.12016H1.35281Z" fill="#FBFBFB" fill-opacity="0.5"/>
</svg>
