<svg width="25" height="24" viewBox="0 0 25 24" fill="none" xmlns="http://www.w3.org/2000/svg">
<g clip-path="url(#clip0_1_19011)">
<path d="M23.4442 10.208L22.1482 10.078C22.0612 9.629 21.9432 9.188 21.7982 8.762L22.8542 8.003C23.2722 7.702 23.3942 7.138 23.1362 6.691L22.3382 5.31C22.0812 4.864 21.5322 4.687 21.0612 4.898L19.8792 5.432C19.5802 5.089 19.2562 4.765 18.9132 4.466L19.4472 3.283C19.6582 2.813 19.4812 2.264 19.0352 2.006L17.6542 1.209C17.2062 0.951 16.6432 1.073 16.3422 1.491L15.5832 2.547C15.1572 2.401 14.7162 2.284 14.2672 2.197L14.1372 0.901C14.0852 0.387 13.6572 0 13.1412 0H11.5462C11.0302 0 10.6022 0.387 10.5512 0.9L10.4212 2.196C9.97224 2.283 9.53124 2.401 9.10524 2.546L8.34624 1.491C8.04624 1.073 7.48224 0.951 7.03424 1.209L5.65424 2.006C5.20724 2.264 5.03024 2.813 5.24224 3.284L5.77624 4.466C5.43224 4.765 5.10924 5.088 4.81024 5.432L3.62724 4.897C3.15724 4.686 2.60824 4.863 2.35024 5.31L1.55324 6.69C1.29524 7.138 1.41724 7.702 1.83524 8.002L2.89124 8.761C2.74524 9.187 2.62824 9.628 2.54124 10.077L1.24524 10.207C0.731238 10.259 0.344238 10.687 0.344238 11.203V12.798C0.344238 13.314 0.731238 13.742 1.24424 13.793L2.54024 13.923C2.62724 14.372 2.74524 14.813 2.89024 15.239L1.83424 15.998C1.41624 16.299 1.29424 16.863 1.55224 17.31L2.34924 18.691C2.60724 19.138 3.15724 19.316 3.62624 19.103L4.80824 18.569C5.10724 18.912 5.43124 19.236 5.77424 19.535L5.24024 20.718C5.02924 21.188 5.20624 21.737 5.65224 21.995L7.03324 22.792C7.48124 23.051 8.04524 22.929 8.34524 22.51L9.10424 21.454C9.53024 21.6 9.97124 21.717 10.4202 21.804L10.5502 23.1C10.6032 23.613 11.0312 24 11.5472 24H13.1422C13.6582 24 14.0862 23.613 14.1372 23.1L14.2672 21.804C14.7162 21.717 15.1572 21.599 15.5832 21.454L16.3422 22.51C16.6432 22.928 17.2052 23.049 17.6542 22.792L19.0352 21.995C19.4812 21.737 19.6592 21.188 19.4472 20.718L18.9132 19.536C19.2562 19.237 19.5802 18.913 19.8792 18.57L21.0622 19.104C21.5322 19.315 22.0822 19.139 22.3392 18.692L23.1362 17.311C23.3942 16.864 23.2722 16.3 22.8542 15.999L21.7982 15.24C21.9442 14.814 22.0612 14.373 22.1482 13.924L23.4442 13.794C23.9572 13.741 24.3442 13.313 24.3442 12.797V11.202C24.3442 10.687 23.9572 10.259 23.4442 10.208ZM12.3442 5C15.8632 5 18.7762 7.613 19.2642 11H14.6322C14.2452 10.119 13.3672 9.5 12.3442 9.5C12.2512 9.5 12.1622 9.518 12.0712 9.528L9.74924 5.504C10.5522 5.182 11.4272 5 12.3442 5ZM5.34424 12C5.34424 9.773 6.39324 7.79 8.01824 6.507L10.3372 10.523C10.0312 10.939 9.84424 11.446 9.84424 12C9.84424 12.554 10.0312 13.061 10.3372 13.476L8.01824 17.492C6.39324 16.209 5.34424 14.227 5.34424 12ZM12.3442 19C11.4272 19 10.5522 18.818 9.74924 18.495L12.0722 14.472C12.1622 14.482 12.2512 14.5 12.3442 14.5C13.3672 14.5 14.2452 13.881 14.6322 13H19.2642C18.7762 16.387 15.8632 19 12.3442 19Z" fill="white"/>
</g>
<defs>
<clipPath id="clip0_1_19011">
<rect width="24" height="24" fill="white" transform="translate(0.344238)"/>
</clipPath>
</defs>
</svg>
