<svg width="29" height="29" viewBox="0 0 29 29" fill="none" xmlns="http://www.w3.org/2000/svg">
<path opacity="0.4" d="M14.3075 28.615C22.2094 28.615 28.615 22.2094 28.615 14.3075C28.615 6.4057 22.2094 0 14.3075 0C6.4057 0 0 6.4057 0 14.3075C0 22.2094 6.4057 28.615 14.3075 28.615Z" fill="black"/>
<path d="M15.0769 7.15385C15.0769 6.51562 14.5957 6 14 6C13.4043 6 12.9231 6.51562 12.9231 7.15385V12.3462H8.07692C7.48125 12.3462 7 12.8618 7 13.5C7 14.1382 7.48125 14.6538 8.07692 14.6538H12.9231V19.8462C12.9231 20.4844 13.4043 21 14 21C14.5957 21 15.0769 20.4844 15.0769 19.8462V14.6538H19.9231C20.5188 14.6538 21 14.1382 21 13.5C21 12.8618 20.5188 12.3462 19.9231 12.3462H15.0769V7.15385Z" fill="white"/>
</svg>
