<svg width="34" height="34" viewBox="0 0 34 34" fill="none" xmlns="http://www.w3.org/2000/svg">
<circle cx="16.9229" cy="16.835" r="16.4385" fill="#A8A8A8"/>
<g clip-path="url(#clip0_1111_90466)">
<path d="M10.6131 9.47266C9.45297 9.47266 8.50977 10.4159 8.50977 11.576V22.0926C8.50977 23.2527 9.45297 24.1959 10.6131 24.1959H23.233C24.3931 24.1959 25.3364 23.2527 25.3364 22.0926V14.731C25.3364 13.5709 24.3931 12.6276 23.233 12.6276H11.1389C10.8497 12.6276 10.6131 12.391 10.6131 12.1018C10.6131 11.8126 10.8497 11.576 11.1389 11.576H23.233C23.8147 11.576 24.2847 11.106 24.2847 10.5243C24.2847 9.94262 23.8147 9.47266 23.233 9.47266H10.6131ZM22.1814 19.4634C21.5997 19.4634 21.1297 18.9935 21.1297 18.4118C21.1297 17.8301 21.5997 17.3601 22.1814 17.3601C22.7631 17.3601 23.233 17.8301 23.233 18.4118C23.233 18.9935 22.7631 19.4634 22.1814 19.4634Z" fill="white"/>
</g>
<defs>
<clipPath id="clip0_1111_90466">
<rect width="16.8266" height="16.8266" fill="white" transform="translate(8.50977 8.42188)"/>
</clipPath>
</defs>
</svg>
