<svg xmlns="http://www.w3.org/2000/svg" width="19" height="21" viewBox="0 0 19 21"><g><g><path fill="#fff" d="M16.941 15.244a.983.983 0 0 1-.248.757.984.984 0 0 1-.728.32H2.255a.972.972 0 0 1-.724-.32.973.973 0 0 1-.252-.757c.046-.493.506-.881 1.045-.881.862 0 1.563-.702 1.563-1.564V8.813a5.18 5.18 0 0 1 1.597-3.757 5.174 5.174 0 0 1 3.819-1.462c2.771.098 5.03 2.504 5.03 5.36v3.845c0 .862.702 1.564 1.564 1.564.538 0 .995.388 1.044.881zm-7.83 3.689a1.638 1.638 0 0 1-1.6-1.306h3.199a1.637 1.637 0 0 1-1.6 1.306zm0-17.627c.508 0 .923.414.923.923 0 .043-.007.082-.013.124a5.785 5.785 0 0 0-.673-.062 6.727 6.727 0 0 0-1.149.066c-.006-.043-.013-.082-.013-.124 0-.513.415-.927.924-.927zm6.528 11.493V8.954c0-2.856-1.828-5.347-4.345-6.277a2.23 2.23 0 1 0-4.37-.013 6.487 6.487 0 0 0-2.348 1.452 6.47 6.47 0 0 0-1.994 4.697V12.8c0 .14-.114.258-.258.258-1.205 0-2.233.907-2.344 2.063a2.287 2.287 0 0 0 2.275 2.507h3.937a2.943 2.943 0 0 0 2.918 2.611 2.943 2.943 0 0 0 2.919-2.611h3.936c.643 0 1.26-.274 1.691-.748.43-.476.643-1.116.584-1.76-.11-1.155-1.142-2.062-2.343-2.062a.256.256 0 0 1-.258-.258z"/></g></g></svg>