<svg xmlns="http://www.w3.org/2000/svg" width="15" height="15" viewBox="0 0 15 15"><g><g><path fill="#c92828" d="M13.831 7.502c0-3.49-2.84-6.33-6.33-6.33s-6.329 2.84-6.329 6.33 2.84 6.33 6.33 6.33 6.33-2.84 6.33-6.33zm1.172 0c0 2.003-.78 3.887-2.197 5.304a7.452 7.452 0 0 1-5.304 2.197 7.452 7.452 0 0 1-5.305-2.197A7.452 7.452 0 0 1 0 7.502c0-2.004.78-3.888 2.197-5.305A7.452 7.452 0 0 1 7.502 0c2.003 0 3.887.78 5.304 2.197a7.452 7.452 0 0 1 2.197 5.305zm-4.215-2.458L8.33 7.501l2.457 2.457-.829.829L7.502 8.33l-2.456 2.457-.83-.83 2.457-2.456-2.456-2.457.829-.828 2.456 2.456L9.96 4.216z"/></g></g></svg>