<svg xmlns="http://www.w3.org/2000/svg" width="106" height="106" viewBox="0 0 106 106"><g><g><path fill="#00ac77" d="M53 0C23.769 0 0 23.767 0 53c0 29.234 23.768 53.001 53 53.001 29.234 0 53.001-23.767 53.001-53S82.234 0 53.001 0z"/></g><g><path fill="#fff" d="M78.632 34.978a3.324 3.324 0 0 1 0 4.68L47.576 70.711a3.31 3.31 0 0 1-2.339.973 3.31 3.31 0 0 1-2.34-.973L27.37 55.185a3.324 3.324 0 0 1 0-4.68 3.324 3.324 0 0 1 4.679 0l13.188 13.189 28.716-28.716a3.287 3.287 0 0 1 4.679 0z"/></g></g></svg>