<svg width="14" height="14" viewBox="0 0 14 14" fill="none" xmlns="http://www.w3.org/2000/svg">
<path d="M1.75 0.5C0.784766 0.5 0 1.33281 0 2.35714V11.6429C0 12.6672 0.784766 13.5 1.75 13.5H12.25C13.2152 13.5 14 12.6672 14 11.6429V2.35714C14 1.33281 13.2152 0.5 12.25 0.5H1.75ZM4.78516 4.64955C5.04219 4.37679 5.45781 4.37679 5.71211 4.64955L6.99727 6.01339L8.28242 4.64955C8.53945 4.37679 8.95508 4.37679 9.20937 4.64955C9.46367 4.92232 9.46641 5.36339 9.20937 5.63326L7.92422 6.9971L9.20937 8.36094C9.46641 8.63371 9.46641 9.07478 9.20937 9.34464C8.95234 9.61451 8.53672 9.61741 8.28242 9.34464L6.99727 7.9808L5.71211 9.34464C5.45508 9.61741 5.03945 9.61741 4.78516 9.34464C4.53086 9.07187 4.52812 8.6308 4.78516 8.36094L6.07031 6.9971L4.78516 5.63326C4.52812 5.36049 4.52812 4.91942 4.78516 4.64955Z" fill="#FF3030"/>
</svg>
