<svg width="16" height="18" viewBox="0 0 16 18" fill="none" xmlns="http://www.w3.org/2000/svg">
<path d="M8.94295 3.91652C10.3122 2.76624 11.2272 0.174841 10.6641 0.0614993C9.91597 -0.0891572 8.29132 0.571453 7.50606 0.687844C6.39229 0.822321 5.17925 -0.519907 4.49835 0.228251C3.94473 0.836552 4.89526 3.04875 6.38238 4.01249C1.94562 6.1931 -4.29055 17.1399 6.58878 17.9342C21.6422 19.0332 14.1044 6.04147 8.94295 3.91652ZM10.2357 12.5497C10.1895 12.9765 9.96328 13.3624 9.6252 13.6244C9.26823 13.9011 8.8205 14.0297 8.37565 14.0658V14.5373C8.37565 14.6635 8.32054 14.7855 8.22609 14.869C8.09627 14.9839 7.90551 15.0122 7.74795 14.9396C7.59238 14.8681 7.49017 14.7085 7.49017 14.5373V14.0219C7.41389 14.0075 7.33816 13.9902 7.26332 13.9697C6.84756 13.8554 6.46192 13.6328 6.18022 13.3033C6.0399 13.1391 5.9255 12.9528 5.84638 12.7517C5.82571 12.6991 5.80729 12.6456 5.79115 12.5914C5.77654 12.5424 5.76146 12.4926 5.75625 12.4415C5.74748 12.3559 5.76446 12.2684 5.8044 12.1921C5.88649 12.0351 6.05947 11.9403 6.23609 11.956C6.40991 11.9715 6.56226 12.0921 6.61698 12.2578C6.63384 12.3088 6.64528 12.3611 6.66421 12.4116C6.68297 12.4618 6.70563 12.5105 6.73228 12.5569C6.78488 12.6483 6.85078 12.7326 6.92668 12.8058C7.08314 12.9565 7.28242 13.0545 7.49017 13.1127V11.3609C7.08395 11.2557 6.66463 11.1199 6.32918 10.859C6.16616 10.7322 6.02783 10.5747 5.93723 10.3882C5.84163 10.1914 5.80203 9.97209 5.80042 9.7543C5.79877 9.53316 5.84079 9.31398 5.93304 9.11249C6.01944 8.92385 6.14384 8.75447 6.29636 8.61406C6.62249 8.31389 7.0557 8.14646 7.49022 8.08496V8.04642V7.59547C7.49022 7.46933 7.54532 7.34727 7.63977 7.26374C7.76963 7.14892 7.96031 7.12054 8.11792 7.19314C8.27344 7.26476 8.37569 7.42427 8.37569 7.59547V8.04642V8.0823C8.43359 8.08958 8.49132 8.09831 8.54875 8.10873C8.97543 8.18594 9.39276 8.36213 9.70479 8.66976C9.8526 8.81546 9.97361 8.98907 10.0587 9.1784C10.0825 9.23122 10.1033 9.28526 10.1213 9.34036C10.138 9.39174 10.1549 9.44464 10.1629 9.49826C10.1757 9.58386 10.1626 9.6723 10.126 9.75061C10.051 9.91105 9.88263 10.0132 9.70555 10.0056C9.53155 9.99805 9.37391 9.88475 9.31161 9.72211C9.29305 9.67374 9.28378 9.62253 9.26484 9.57429C9.24574 9.52545 9.22101 9.47886 9.1925 9.43486C9.1371 9.3493 9.06531 9.27594 8.98335 9.2155C8.80589 9.08446 8.59064 9.01618 8.37556 8.97802V10.6545C8.63117 10.7157 8.887 10.7825 9.13189 10.879C9.50203 11.025 9.85277 11.2488 10.0548 11.6017C10.0235 11.5467 9.99297 11.4931 10.0559 11.6035C10.1176 11.7119 10.0881 11.6603 10.0571 11.6059C10.2179 11.8892 10.2707 12.2279 10.2357 12.5497Z" fill="#FAFAFA"/>
</svg>
