<svg width="27" height="28" viewBox="0 0 27 28" fill="none" xmlns="http://www.w3.org/2000/svg">
<g clip-path="url(#clip0_876_87743)">
<path d="M11.66 9.19198C11.7916 7.76061 12.296 6.38872 13.1231 5.21307C12.8671 4.04801 12.3019 2.97346 11.4869 2.10238C10.672 1.23129 9.63745 0.595867 8.49201 0.262903C7.34658 -0.0700609 6.13259 -0.0882607 4.97768 0.210217C3.82278 0.508695 2.76963 1.11282 1.92896 1.95909C1.08828 2.80535 0.491147 3.86248 0.200328 5.01933C-0.090491 6.17619 -0.0642479 7.39003 0.276298 8.53324C0.616844 9.67644 1.25911 10.7068 2.13557 11.5159C3.01204 12.3251 4.09031 12.8831 5.25704 13.1314C6.79439 11.0318 9.09282 9.6177 11.66 9.19198ZM3.98458 8.22166C3.98363 8.16524 3.99405 8.10921 4.01521 8.0569C4.03637 8.00459 4.06783 7.95707 4.10773 7.91717C4.14763 7.87727 4.19515 7.8458 4.24746 7.82465C4.29977 7.80349 4.3558 7.79307 4.41222 7.79402H5.77416V7.47445L5.58707 7.15604H4.41106C4.30134 7.15032 4.19801 7.10271 4.12237 7.02303C4.04674 6.94335 4.00457 6.83768 4.00457 6.72782C4.00457 6.61796 4.04674 6.51229 4.12237 6.43261C4.19801 6.35293 4.30134 6.30532 4.41106 6.2996H5.0804L3.63247 3.91736C3.54432 3.78232 3.49157 3.62727 3.47908 3.46648C3.48534 3.35082 3.51512 3.23765 3.56661 3.13389C3.61809 3.03014 3.6902 2.93797 3.77852 2.86303C3.86684 2.78809 3.96952 2.73194 4.08027 2.69804C4.19103 2.66413 4.30754 2.65317 4.42268 2.66582C4.58364 2.67092 4.73972 2.72229 4.87224 2.8138C5.00476 2.9053 5.10809 3.03306 5.16988 3.18178L6.64106 5.98236L8.11107 3.18178C8.1729 3.03332 8.27609 2.90576 8.40836 2.81429C8.54063 2.72281 8.69639 2.67128 8.85712 2.66582C8.97232 2.65317 9.08888 2.66413 9.19971 2.69802C9.31053 2.73192 9.41328 2.78804 9.50169 2.86297C9.5901 2.9379 9.66232 3.03005 9.71393 3.13382C9.76554 3.23758 9.79547 3.35077 9.80188 3.46648C9.78915 3.62686 9.73641 3.78148 9.64849 3.9162L8.20171 6.2996H8.87106C8.98078 6.30532 9.08411 6.35293 9.15975 6.43261C9.23538 6.51229 9.27755 6.61796 9.27755 6.72782C9.27755 6.83768 9.23538 6.94335 9.15975 7.02303C9.08411 7.10271 8.98078 7.15032 8.87106 7.15604H7.69389L7.50447 7.47445V7.79285H8.86874C8.97845 7.79857 9.08179 7.84618 9.15742 7.92586C9.23306 8.00554 9.27523 8.11121 9.27523 8.22108C9.27523 8.33094 9.23306 8.43661 9.15742 8.51629C9.08179 8.59597 8.97845 8.64358 8.86874 8.6493H7.50447V9.73583C7.51413 9.85264 7.49843 9.97017 7.45844 10.0803C7.41846 10.1905 7.35513 10.2908 7.2728 10.3742C7.19047 10.4576 7.09109 10.5223 6.98145 10.5637C6.87181 10.6052 6.75451 10.6225 6.63757 10.6144C6.52064 10.6225 6.40334 10.6052 6.2937 10.5637C6.18406 10.5223 6.08467 10.4576 6.00234 10.3742C5.92001 10.2908 5.85669 10.1905 5.8167 10.0803C5.77672 9.97017 5.76101 9.85264 5.77067 9.73583V8.6493H4.41106C4.35473 8.65008 4.29883 8.63955 4.24665 8.61832C4.19448 8.59709 4.1471 8.56561 4.10732 8.52572C4.06755 8.48584 4.03619 8.43837 4.0151 8.38614C3.99402 8.33391 3.98364 8.27798 3.98458 8.22166Z" fill="#13161C"/>
<path d="M19.923 3.31983C18.3208 3.32252 16.7735 3.90396 15.566 4.95709C14.3584 6.01022 13.572 7.46414 13.3516 9.05114C14.5802 9.05892 15.7967 9.29536 16.9389 9.74838C16.9778 9.65954 17.0435 9.58512 17.1269 9.53552C17.2103 9.48593 17.307 9.46365 17.4037 9.47181H17.6361C17.409 9.12415 17.293 8.71558 17.3037 8.30044C17.3259 7.965 17.4157 7.63751 17.5676 7.33763C17.7196 7.03774 17.9305 6.77166 18.1879 6.55535C18.4452 6.33904 18.7436 6.17696 19.0652 6.07886C19.3867 5.98075 19.7247 5.94864 20.059 5.98445C21.9822 5.98445 22.9142 7.01636 22.9142 7.8728C22.9187 7.97973 22.9001 8.08638 22.8595 8.18541C22.8189 8.28444 22.7573 8.37351 22.679 8.44649C22.6008 8.51948 22.5076 8.57465 22.406 8.60821C22.3043 8.64177 22.1966 8.65294 22.0903 8.64093C21.1246 8.64093 21.7161 7.30107 20.231 7.30107C20.0752 7.28558 19.9178 7.3021 19.7686 7.3496C19.6194 7.39711 19.4815 7.4746 19.3633 7.57732C19.2452 7.68005 19.1492 7.80583 19.0814 7.94697C19.0136 8.0881 18.9753 8.24161 18.969 8.39806C19.0023 8.78052 19.1266 9.14947 19.3316 9.47413H20.5331C20.9828 9.47413 21.2141 9.63914 21.2141 10.0005C21.2141 10.3619 20.9817 10.527 20.5331 10.527H19.6651C19.701 10.6103 19.7204 10.7 19.722 10.7908C19.717 10.9713 19.6776 11.1491 19.6058 11.3148C19.963 11.6137 20.2989 11.9372 20.611 12.2828C20.9046 12.3582 21.2053 12.4026 21.5081 12.4153C21.694 12.4153 22.1461 12.2991 22.3215 12.2991C22.4106 12.2985 22.4987 12.3167 22.5803 12.3523C22.6618 12.388 22.735 12.4403 22.7951 12.5061C22.8551 12.5718 22.9006 12.6494 22.9288 12.7339C22.9569 12.8183 22.967 12.9078 22.9584 12.9964C22.9584 13.6157 22.4041 13.8842 21.8335 13.926C22.2177 14.5653 22.5295 15.2455 22.7631 15.9538C24.1271 15.3102 25.231 14.221 25.893 12.8659C26.5549 11.5107 26.7354 9.97047 26.4046 8.49901C26.0738 7.02755 25.2515 5.71271 24.0733 4.77123C22.8951 3.82975 21.4312 3.31782 19.923 3.31983Z" fill="#13161C"/>
<path d="M13.7207 19.7993V22.5162C14.5434 22.4616 15.408 22.077 15.408 21.1717C15.408 20.2374 14.4598 19.9632 13.7207 19.7993Z" fill="#13161C"/>
<path d="M11.3594 16.5476C11.3594 17.2355 11.8684 17.6318 12.8968 17.8386V15.3809C11.9625 15.4146 11.3594 15.9572 11.3594 16.5476Z" fill="#13161C"/>
<path d="M13.2811 10.7085C11.6394 10.7085 10.0346 11.1953 8.66952 12.1074C7.30449 13.0195 6.24058 14.3159 5.61232 15.8326C4.98407 17.3494 4.81968 19.0183 5.13997 20.6285C5.46025 22.2387 6.25081 23.7177 7.41167 24.8786C8.57254 26.0394 10.0516 26.83 11.6617 27.1503C13.2719 27.4706 14.9409 27.3062 16.4576 26.6779C17.9744 26.0497 19.2708 24.9857 20.1828 23.6207C21.0949 22.2557 21.5817 20.6508 21.5817 19.0091C21.579 16.8085 20.7036 14.6988 19.1475 13.1428C17.5914 11.5867 15.4817 10.7113 13.2811 10.7085ZM13.7204 23.9223V24.7741C13.7265 24.832 13.7204 24.8905 13.7025 24.9458C13.6846 25.0012 13.6552 25.0521 13.6163 25.0954C13.5774 25.1387 13.5298 25.1733 13.4767 25.1969C13.4235 25.2206 13.366 25.2328 13.3078 25.2328C13.2497 25.2328 13.1921 25.2206 13.139 25.1969C13.0858 25.1733 13.0383 25.1387 12.9994 25.0954C12.9605 25.0521 12.9311 25.0012 12.9132 24.9458C12.8952 24.8905 12.8892 24.832 12.8953 24.7741V23.9223C10.577 23.8677 9.42305 22.4814 9.42305 21.396C9.41175 21.2809 9.42589 21.1648 9.46446 21.0558C9.50302 20.9467 9.56508 20.8475 9.64624 20.7652C9.72739 20.6828 9.82566 20.6193 9.93408 20.5791C10.0425 20.5389 10.1584 20.523 10.2737 20.5326C11.8111 20.5326 10.6165 22.4268 12.8953 22.5221V19.6483C10.8628 19.2776 9.6299 18.3863 9.6299 16.8593C9.6299 14.9942 11.1801 14.0332 12.8953 13.9785V13.2476C12.887 13.1887 12.8914 13.1286 12.9083 13.0715C12.9252 13.0144 12.9542 12.9616 12.9932 12.9167C13.0323 12.8718 13.0805 12.8357 13.1347 12.811C13.1889 12.7863 13.2477 12.7736 13.3073 12.7736C13.3668 12.7736 13.4256 12.7863 13.4798 12.811C13.534 12.8357 13.5822 12.8718 13.6213 12.9167C13.6603 12.9616 13.6893 13.0144 13.7062 13.0715C13.7231 13.1286 13.7275 13.1887 13.7192 13.2476V13.9785C14.7883 14.0076 16.9834 14.6758 16.9834 16.0238C16.9871 16.1376 16.9672 16.251 16.9248 16.3567C16.8825 16.4624 16.8187 16.5583 16.7374 16.6381C16.6562 16.7179 16.5592 16.78 16.4528 16.8205C16.3463 16.861 16.2326 16.8789 16.1189 16.8733C15.2276 16.8733 15.2392 15.4067 13.7192 15.3788V17.9854C15.5309 18.37 17.1357 18.9045 17.1357 21.0195C17.1368 22.8614 15.7633 23.7945 13.7204 23.9223Z" fill="#13161C"/>
</g>
<defs>
<clipPath id="clip0_876_87743">
<rect width="26.5625" height="27.3085" fill="white"/>
</clipPath>
</defs>
</svg>
