<svg width="25" height="24" viewBox="0 0 25 24" fill="none" xmlns="http://www.w3.org/2000/svg">
<rect x="0.15625" width="24" height="24" rx="12" fill="#24182F"/>
<g clip-path="url(#clip0_48_253)">
<mask id="mask0_48_253" style="mask-type:luminance" maskUnits="userSpaceOnUse" x="4" y="5" width="16" height="14">
<path d="M19.6284 5.60001H4.95618V18.4H19.6284V5.60001Z" fill="white"/>
</mask>
<g mask="url(#mask0_48_253)">
<path d="M16.0367 9.49729C15.7693 9.34445 15.4255 9.34445 15.1198 9.49729L12.9801 10.7582L11.5281 11.5606L9.42662 12.8215C9.15916 12.9743 8.81528 12.9743 8.50961 12.8215L6.86662 11.828C6.59916 11.6752 6.40812 11.3695 6.40812 11.0257V9.1152C6.40812 8.80953 6.56095 8.50386 6.86662 8.31281L8.50961 7.35759C8.77707 7.20475 9.12095 7.20475 9.42662 7.35759L11.0696 8.35102C11.3371 8.50386 11.5281 8.80953 11.5281 9.15341V10.4143L12.9801 9.57371V8.2746C12.9801 7.96893 12.8272 7.66326 12.5216 7.47222L9.46483 5.67639C9.19737 5.52356 8.85349 5.52356 8.54782 5.67639L5.41468 7.51042C5.10901 7.66326 4.95618 7.96893 4.95618 8.2746V11.8663C4.95618 12.1719 5.10901 12.4776 5.41468 12.6686L8.50961 14.4645C8.77707 14.6173 9.12095 14.6173 9.42662 14.4645L11.5281 13.2418L12.9801 12.4012L15.0815 11.1785C15.349 11.0257 15.6929 11.0257 15.9986 11.1785L17.6416 12.1337C17.9091 12.2865 18.1 12.5922 18.1 12.9361V14.8465C18.1 15.1522 17.9473 15.4579 17.6416 15.6489L16.0367 16.6042C15.7693 16.757 15.4255 16.757 15.1198 16.6042L13.4768 15.6489C13.2093 15.4961 13.0183 15.1904 13.0183 14.8465V13.6239L11.5663 14.4645V15.7254C11.5663 16.031 11.7192 16.3367 12.0248 16.5277L15.1198 18.3236C15.3873 18.4764 15.7311 18.4764 16.0367 18.3236L19.1316 16.5277C19.3991 16.3749 19.5903 16.0692 19.5903 15.7254V12.0955C19.5903 11.7898 19.4373 11.4842 19.1316 11.2931L16.0367 9.49729Z" fill="#8247E5"/>
</g>
</g>
<defs>
<clipPath id="clip0_48_253">
<rect width="16" height="16" fill="white" transform="translate(4.15625 4)"/>
</clipPath>
</defs>
</svg>
