<svg width="21" height="21" viewBox="0 0 21 21" fill="none" xmlns="http://www.w3.org/2000/svg">
<path d="M10.0859 20.5C4.5625 20.5 0.0859375 16.0234 0.0859375 10.5C0.0859375 4.97656 4.5625 0.5 10.0859 0.5C15.6094 0.5 20.0859 4.97656 20.0859 10.5C20.0859 16.0234 15.6094 20.5 10.0859 20.5ZM9.14844 5.1875V10.5C9.14844 10.8125 9.30469 11.1055 9.56641 11.2812L13.3164 13.7812C13.7461 14.0703 14.3281 13.9531 14.6172 13.5195C14.9062 13.0859 14.7891 12.5078 14.3555 12.2188L11.0234 10V5.1875C11.0234 4.66797 10.6055 4.25 10.0859 4.25C9.56641 4.25 9.14844 4.66797 9.14844 5.1875Z" fill="#F8F7F8"/>
</svg>
