<svg width="21" height="17" viewBox="0 0 21 17" fill="none" xmlns="http://www.w3.org/2000/svg">
<path d="M18.2778 0.012146C19.5035 0.012146 20.5 0.925681 20.5 2.0493V11.2165C20.5 12.3401 19.5035 13.2536 18.2778 13.2536H12.1667L12.5382 14.2722H14.9444C15.559 14.2722 16.0556 14.7274 16.0556 15.2908C16.0556 15.8542 15.559 16.3094 14.9444 16.3094H6.05556C5.44097 16.3094 4.94444 15.8542 4.94444 15.2908C4.94444 14.7274 5.44097 14.2722 6.05556 14.2722H8.4618L8.83333 13.2536H2.72222C1.49653 13.2536 0.5 12.3401 0.5 11.2165V2.0493C0.5 0.925681 1.49653 0.012146 2.72222 0.012146H18.2778ZM2.72222 2.0493V9.17933H18.2778V2.0493H2.72222Z" fill="#F8F7F8"/>
</svg>
