<svg xmlns="http://www.w3.org/2000/svg" width="22.858" height="23.5" viewBox="0 0 22.858 23.5"><defs><style>.a{fill:#acacac;}</style></defs><path class="a" d="M10.676,7.91a7.077,7.077,0,0,1,1.259-3.424A5.713,5.713,0,1,0,5.166,11.3,8.566,8.566,0,0,1,10.676,7.91ZM4.071,7.075a.362.362,0,0,1,.368-.368H5.611V6.432l-.161-.274H4.438a.369.369,0,0,1,0-.737h.576L3.768,3.371a.827.827,0,0,1-.132-.388.733.733,0,0,1,.812-.689.721.721,0,0,1,.643.444L6.357,5.148,7.622,2.738a.722.722,0,0,1,.642-.444.734.734,0,0,1,.813.689.828.828,0,0,1-.132.387L7.7,5.421h.576a.369.369,0,0,1,0,.737H7.263L7.1,6.432v.274H8.274a.369.369,0,0,1,0,.737H7.1v.935a.7.7,0,0,1-.746.756.7.7,0,0,1-.746-.756V7.443H4.438A.362.362,0,0,1,4.071,7.075Z" transform="translate(-0.643)"/><g transform="translate(11.489 2.857)"><path class="a" d="M29.275,5.714a5.719,5.719,0,0,0-5.655,4.932,8.519,8.519,0,0,1,3.087.6.4.4,0,0,1,.4-.238h.2A1.76,1.76,0,0,1,27.021,10a2.147,2.147,0,0,1,2.371-1.993c1.655,0,2.457.888,2.457,1.625a.638.638,0,0,1-.709.661c-.831,0-.322-1.153-1.6-1.153a.989.989,0,0,0-1.086.944,2.072,2.072,0,0,0,.312.926H29.8c.387,0,.586.142.586.453s-.2.453-.586.453h-.747a.6.6,0,0,1,.049.227,1.219,1.219,0,0,1-.1.451,8.613,8.613,0,0,1,.865.833,3.731,3.731,0,0,0,.772.114c.16,0,.549-.1.7-.1a.547.547,0,0,1,.548.6c0,.533-.477.764-.968.8a8.644,8.644,0,0,1,.8,1.745A5.709,5.709,0,0,0,29.275,5.714Z" transform="translate(-23.62 -5.714)"/></g><g transform="translate(11.807 17.038)"><path class="a" d="M24.257,34.076v2.338c.708-.047,1.452-.378,1.452-1.157C25.709,34.453,24.893,34.217,24.257,34.076Z" transform="translate(-24.257 -34.076)"/></g><g transform="translate(9.775 13.236)"><path class="a" d="M20.193,27.475c0,.592.438.933,1.323,1.111V26.471C20.712,26.5,20.193,26.967,20.193,27.475Z" transform="translate(-20.193 -26.471)"/></g><g transform="translate(4.285 9.215)"><path class="a" d="M16.357,18.429A7.143,7.143,0,1,0,23.5,25.572,7.152,7.152,0,0,0,16.357,18.429ZM16.735,29.8v.733a.357.357,0,1,1-.71,0V29.8c-1.995-.047-2.988-1.24-2.988-2.174a.679.679,0,0,1,.732-.743c1.323,0,.295,1.63,2.256,1.712V26.122c-1.749-.319-2.81-1.086-2.81-2.4,0-1.605,1.334-2.432,2.81-2.479v-.629a.358.358,0,1,1,.709,0v.629c.92.025,2.809.6,2.809,1.76a.709.709,0,0,1-.744.731c-.767,0-.757-1.262-2.065-1.286v2.243c1.559.331,2.94.791,2.94,2.611C19.675,28.887,18.493,29.69,16.735,29.8Z" transform="translate(-9.213 -18.429)"/></g></svg>