<svg xmlns="http://www.w3.org/2000/svg" width="49" height="45" viewBox="0 0 49 45"><g><g><g><g><path fill="#eceff1" d="M12.754 35.713a7.641 7.641 0 0 1-7.229-5.206l-.071-.234c-.249-.825-.353-1.519-.353-2.213V14.146L.15 30.672c-.637 2.431.814 4.951 3.249 5.623l31.556 8.45a4.68 4.68 0 0 0 1.176.152c2.032 0 3.89-1.35 4.41-3.337l1.838-5.847z"/></g><g><path fill="#eceff1" d="M48.977 4.591v23.47a4.599 4.599 0 0 1-4.591 4.591H12.754a5.36 5.36 0 0 1-.592-.04 4.566 4.566 0 0 1-3.98-4.184c-.02-.123-.02-.245-.02-.368V4.591A4.599 4.599 0 0 1 12.754 0h31.632a4.599 4.599 0 0 1 4.591 4.591z"/></g><g><path fill="#ffc107" d="M22.447 10.204a4.082 4.082 0 1 1-8.163 0 4.082 4.082 0 0 1 8.163 0z"/></g><g><path fill="#388e3c" d="M48.977 22.326v5.734a4.599 4.599 0 0 1-4.591 4.592H12.754c-.204 0-.408-.02-.592-.04l21.02-21.02a3.597 3.597 0 0 1 5.06 0z"/></g><g><path fill="#4caf50" d="M36.855 32.652H12.754c-.204 0-.408-.02-.592-.04a4.566 4.566 0 0 1-3.98-4.184l9.694-9.694a3.597 3.597 0 0 1 5.061 0z"/></g></g></g></g></svg>