<svg xmlns="http://www.w3.org/2000/svg" width="65" height="56" viewBox="0 0 65 56"><g><g><path fill="#fff" d="M64.75 3.469h-4.625V24.28h4.625v3.469h-4.625v24.281h4.625V55.5H55.5V0h9.25zM46.43 39.746l-1.336-28.183-1.373 28.183zM52.032 55.5h-4.625l-.722-11.996h-3.216L42.78 55.5h-4.625L42.781 0h4.625zm-17.343-4.878c0 1.229-.26 2.174-.777 2.837-.518.662-1.283 1.15-2.295 1.463-.482.144-1.072.259-1.77.343-.699.084-1.662.15-2.89.199-1.23.024-2.313.036-3.253.036h-2.89V0a247.325 247.325 0 0 1 6.034.072c2.12.048 3.685.205 4.697.47 1.036.29 1.819.753 2.349 1.391.53.638.795 1.548.795 2.728zm-4.626-46.07c0-.457-.216-.746-.65-.866-.41-.145-1.734-.217-3.975-.217V52.03c2.24 0 3.566-.072 3.975-.217.434-.144.65-.445.65-.903zM12.105 0h4.083v55.5h-4.046V21.969L8.997 53.187H7.19L4.047 21.97V55.5H0V0h4.083l4.01 33.531z"/></g></g></svg>