<svg xmlns="http://www.w3.org/2000/svg" width="20" height="20" viewBox="0 0 20 20"><defs><clipPath id="3d8ca"><path fill="#fff" d="M.326 9.905a9.407 9.407 0 1 1 18.814 0 9.407 9.407 0 0 1-18.814 0z"/></clipPath></defs><g><g><g><path fill="none" stroke="#fff" stroke-miterlimit="20" stroke-width="2" d="M.326 9.905a9.407 9.407 0 1 1 18.814 0 9.407 9.407 0 0 1-18.814 0z" clip-path="url(&quot;#3d8ca&quot;)"/></g><g><g><g><g><path fill="#fff" d="M9.768 11.434a4.37 4.37 0 0 0 4.358-4.358A4.37 4.37 0 0 0 9.768 2.72a4.37 4.37 0 0 0-4.357 4.357 4.37 4.37 0 0 0 4.357 4.358z"/></g><g><path fill="#fff" d="M17.247 14.916a4.063 4.063 0 0 0-.438-.799c-.875-1.294-2.226-2.15-3.749-2.36a.802.802 0 0 0-.551.134c-.8.59-1.751.894-2.74.894-.99 0-1.942-.304-2.74-.894a.714.714 0 0 0-.553-.134 5.377 5.377 0 0 0-3.748 2.36 4.685 4.685 0 0 0-.438.8c-.057.113-.038.247.02.36.151.267.342.534.513.762.266.362.552.685.875.99.267.266.571.513.876.76a8.621 8.621 0 0 0 5.175 1.713c1.865 0 3.673-.59 5.176-1.712.305-.229.609-.495.875-.762.305-.304.61-.627.876-.989.19-.247.361-.495.514-.761.095-.114.114-.248.057-.362z"/></g></g></g></g></g></g></svg>