<svg width="16" height="16" viewBox="0 0 16 16" fill="none" xmlns="http://www.w3.org/2000/svg">
<rect width="16" height="16" rx="1.06667" fill="#005C46"/>
<path d="M8.52839 11.8868C8.21914 11.5587 7.71025 11.3528 7.28827 11.2142C7.32037 10.8839 7.18258 10.4744 6.7739 10.1777C6.66862 10.1033 6.5588 10.0356 6.44508 9.97491C6.45575 10.1836 6.51586 10.3867 6.62045 10.5676C6.73084 10.7437 7.07297 11.0592 7.22564 11.1939C6.96963 11.1117 6.72849 11.0444 6.45448 10.9637C6.4507 10.8518 6.43282 10.7408 6.40124 10.6333C6.37587 10.5298 6.3402 10.4291 6.29477 10.3327C6.21278 10.1935 6.10828 10.0689 5.98552 9.96395C5.90134 9.89111 5.81326 9.82289 5.72168 9.75961C5.69741 10.1229 5.771 10.4689 6.38636 10.9434C6.12957 10.8651 5.88061 10.7868 5.6293 10.692C5.62689 10.3326 5.51371 9.98269 5.30518 9.68993C5.24682 9.61325 5.18463 9.53957 5.11884 9.46915C4.96226 9.93889 5.20183 10.3609 5.5604 10.6654C5.31418 10.5694 5.07684 10.4521 4.85109 10.3147C4.9059 10.0501 4.88319 9.54353 4.64362 9.06204C4.33985 9.50516 4.56925 10.0211 4.78846 10.2716C4.56907 10.1316 4.36812 9.96456 4.19032 9.77448L4.18328 9.76587C4.26157 9.5905 4.44242 9.00019 4.27801 8.5054C3.96485 8.8076 3.94214 9.24681 4.09324 9.62338C4.10392 9.6549 4.11647 9.68575 4.13082 9.71577C3.95663 9.51685 3.80875 9.29635 3.69083 9.05969C3.82607 8.88907 3.92483 8.69249 3.98099 8.48213C4.03714 8.27177 4.0495 8.05213 4.0173 7.8368C3.63289 8.08811 3.56713 8.63066 3.66421 8.99549C3.54876 8.75527 3.4547 8.50535 3.38315 8.24861C3.73859 7.89787 3.8936 7.48762 3.8936 7.12201C3.59453 7.24492 3.43325 7.54399 3.3808 7.85559C3.35991 7.96629 3.35569 8.0795 3.36827 8.19145C3.29895 7.93089 3.2549 7.66425 3.23674 7.39524C3.29076 7.35375 3.38315 7.26215 3.47161 7.17133C3.70469 6.96608 3.85937 6.68635 3.90926 6.37982C3.60314 6.44715 3.40272 6.71333 3.29859 7.00614C3.25674 7.12254 3.234 7.24495 3.23127 7.36862C3.22422 7.24884 3.22109 7.13375 3.22265 7.01866C3.23749 6.42778 3.35841 5.84438 3.57966 5.29628C3.58905 5.27044 3.59766 5.25009 3.60471 5.23443C3.63759 5.19841 3.69083 5.12795 3.74798 5.05045C3.82627 4.9471 3.90926 4.83202 3.95545 4.75686C4.09548 4.52327 4.20096 4.27064 4.26861 4.00684C4.04133 4.15737 3.85922 4.36682 3.74172 4.6128C3.69082 4.72807 3.64996 4.84752 3.61958 4.96981C3.59736 5.05241 3.58217 5.13674 3.57418 5.2219C3.56713 5.23834 3.55774 5.26105 3.54678 5.28923C3.49354 5.41919 3.43091 5.59456 3.3808 5.76445C3.38785 5.71435 3.40507 5.56403 3.42856 5.39571C3.44108 5.30254 3.45596 5.20389 3.46692 5.11229C3.47763 5.03446 3.48313 4.95599 3.48336 4.87742C3.47158 4.67749 3.43637 4.47962 3.37845 4.2879C3.24301 4.54469 3.13653 4.82497 3.17255 5.13891C3.19134 5.31272 3.25867 5.65093 3.37688 5.7762C3.30007 6.04048 3.2456 6.31075 3.21404 6.58415C3.15376 5.74018 3.21404 5.70965 2.93768 5.135C2.67697 5.92965 3.06138 6.51839 3.20934 6.62251C3.17811 6.89566 3.17208 7.1711 3.19134 7.44535C2.96038 6.66636 3.03476 6.61547 2.62608 6.07292C2.51726 6.87774 2.93533 7.39446 3.19682 7.50876C3.22003 7.77351 3.26746 8.03558 3.33852 8.29166C2.94707 7.58705 3.01127 7.51581 2.48438 7.06407C2.5384 7.97459 3.16863 8.33081 3.36123 8.36995C3.43583 8.62088 3.53169 8.86499 3.64777 9.09962C3.59453 9.03934 3.52016 8.95322 3.44187 8.85849C3.42464 8.83813 3.40742 8.81778 3.39098 8.79664C3.12479 8.47408 3.06294 8.35195 2.5384 8.08106C2.78188 8.8898 3.38158 9.19044 3.69239 9.18574C3.81353 9.41397 3.96265 9.62621 4.1363 9.81754L4.11673 9.8058L4.00399 9.73299C3.96328 9.70559 3.91865 9.67662 3.87481 9.64452C3.45439 9.3525 3.43873 9.23193 2.79519 9.07144C3.08878 9.60616 3.5319 9.97647 4.1316 9.9154L4.17623 9.90836L4.21381 9.89818C4.39271 10.0795 4.59243 10.239 4.80881 10.3734C4.76576 10.3624 4.63344 10.3256 4.51131 10.2857C3.98833 10.115 3.96328 10.0305 3.27432 10.0274C3.94527 10.7594 4.68355 10.5903 4.91372 10.4376C5.12995 10.5625 5.35559 10.6703 5.58859 10.7602C4.72035 10.7101 4.68981 10.6263 4.0267 10.8486C4.90981 11.3622 5.60972 10.9105 5.71307 10.8087C5.94324 10.894 6.1742 10.9653 6.40907 11.0389C6.23448 11.0467 5.66531 11.0741 5.4962 11.1242C5.29181 11.1945 5.09974 11.2965 4.92703 11.4264C5.07178 11.4713 5.22082 11.5009 5.37172 11.5149C5.90488 11.5572 6.44587 11.197 6.54608 11.0796C6.75511 11.1422 7.00721 11.2158 7.23268 11.291C6.33 11.3215 6.12409 11.5024 5.83129 11.81C5.97089 11.8313 6.1121 11.8402 6.25327 11.8366C6.70344 11.8186 7.27105 11.453 7.37596 11.3403C8.07196 11.5885 8.34519 11.8218 8.55031 12.066C8.54618 12.0059 8.53886 11.9461 8.52839 11.8868Z" fill="#F5F7FB"/>
<path d="M3.26172 6.52904C3.81993 6.2057 3.9953 5.89019 4.06654 5.63184C3.64612 5.66002 3.33218 6.10941 3.26172 6.52904Z" fill="#F5F7FB"/>
<path d="M3.8117 5.11276C3.74318 5.17328 3.68196 5.24159 3.62929 5.31631C3.5536 5.42926 3.49306 5.55166 3.44922 5.68036C3.48758 5.66236 3.93305 5.43296 4.027 5.34919C4.15995 5.22147 4.268 5.07015 4.34564 4.90294C4.24695 4.8989 4.1485 4.91547 4.05657 4.95159C3.96463 4.98772 3.88124 5.04261 3.8117 5.11276Z" fill="#F5F7FB"/>
<path d="M7.50317 11.8862C7.81633 11.5581 8.32209 11.3522 8.74329 11.2137C8.71198 10.8833 8.84977 10.4738 9.25766 10.1771C9.36307 10.1025 9.47317 10.0348 9.58726 9.97433C9.57588 10.183 9.51553 10.386 9.41111 10.567C9.30072 10.7431 8.95859 11.0587 8.80671 11.1933C9.06272 11.1111 9.30385 11.0438 9.57787 10.9631C9.5812 10.8512 9.5991 10.7401 9.6311 10.6328C9.65648 10.5292 9.69214 10.4285 9.73758 10.3321C9.81933 10.1928 9.92386 10.0681 10.0468 9.96337C10.1308 9.89058 10.2186 9.82237 10.3099 9.75904C10.3342 10.1223 10.2606 10.4683 9.64598 10.9428C9.90277 10.8645 10.1517 10.7862 10.4023 10.6915C10.4051 10.3321 10.5183 9.98232 10.7264 9.68936C10.8047 9.59071 10.8697 9.51634 10.9127 9.46858C11.0693 9.93832 10.8305 10.3603 10.4719 10.6649C10.7178 10.5687 10.9549 10.4514 11.1805 10.3141C11.1264 10.0495 11.1484 9.54295 11.3887 9.06147C11.6925 9.50459 11.4631 10.0205 11.2439 10.2711C11.463 10.131 11.6637 9.96398 11.8412 9.77391L11.8491 9.7653C11.7708 9.58993 11.5891 8.99962 11.7543 8.50483C12.0675 8.80703 12.0902 9.24623 11.9391 9.62281C11.9272 9.6528 11.9136 9.68208 11.8984 9.7105C12.0726 9.51173 12.2202 9.2912 12.3376 9.05442C12.2036 8.88409 12.1059 8.68815 12.0504 8.47866C11.995 8.26917 11.9829 8.05054 12.015 7.83623C12.3995 8.08754 12.4652 8.63009 12.3674 8.99492C12.4828 8.7547 12.5769 8.50477 12.6484 8.24803C12.2938 7.89729 12.1387 7.48705 12.1387 7.12143C12.437 7.24435 12.5983 7.54342 12.6515 7.85501C12.6724 7.96572 12.6767 8.07893 12.6641 8.19088C12.733 7.93024 12.7771 7.66364 12.7956 7.39467C12.7135 7.32417 12.6351 7.24944 12.5607 7.17076C12.3248 6.96727 12.1677 6.68744 12.1168 6.38003C12.4222 6.44735 12.6234 6.71354 12.7275 7.00635C12.7691 7.12279 12.7915 7.24521 12.794 7.36883C12.8019 7.24905 12.805 7.13396 12.8026 7.01887C12.7881 6.42804 12.6674 5.84464 12.4464 5.29649L12.4214 5.23464C12.3877 5.19863 12.3353 5.12816 12.2773 5.05066C12.199 4.94731 12.1207 4.83223 12.0706 4.75707C11.9298 4.52128 11.8241 4.26625 11.7567 4C11.9844 4.15008 12.1666 4.35965 12.2836 4.60597C12.3349 4.72109 12.3757 4.84057 12.4057 4.96297C12.4287 5.0454 12.4439 5.1298 12.4511 5.21507C12.4582 5.23151 12.4683 5.25421 12.4793 5.2824C12.5318 5.41236 12.5952 5.58773 12.6453 5.75762C12.6382 5.70751 12.6202 5.55719 12.5967 5.38887C12.5842 5.29571 12.5701 5.19706 12.5592 5.10546C12.5482 5.02763 12.5425 4.94917 12.5419 4.87059C12.5545 4.67074 12.5897 4.47297 12.6468 4.28106C12.7831 4.53785 12.8895 4.81813 12.8535 5.13208C12.8347 5.30588 12.7674 5.6441 12.6484 5.76936C12.7294 6.03529 12.7873 6.30771 12.8214 6.58358C12.8825 5.73961 12.8214 5.70908 13.0978 5.13443C13.3593 5.92907 12.9741 6.51782 12.8261 6.62194C12.8561 6.89231 12.8613 7.16484 12.8418 7.43616C13.0767 6.65717 12.9984 6.60628 13.4078 6.06373C13.5167 6.86856 13.0947 7.38527 12.8371 7.49958C12.8136 7.76435 12.7659 8.02641 12.6946 8.28248C13.09 7.57787 13.0226 7.50662 13.5495 7.05489C13.4947 7.9654 12.8653 8.32163 12.6719 8.36077C12.5976 8.61181 12.5018 8.85595 12.3854 9.09044C12.4386 9.03015 12.513 8.94403 12.592 8.8493L12.6429 8.78745C12.9091 8.4649 12.971 8.34276 13.4947 8.07188C13.252 8.88062 12.6523 9.18125 12.3415 9.17656C12.2201 9.40481 12.0707 9.61705 11.8968 9.80836L11.9164 9.79662C11.9508 9.77548 11.9884 9.75042 12.0299 9.7238C12.0714 9.69718 12.1153 9.66744 12.1591 9.63534C12.5795 9.34331 12.5952 9.22275 13.2387 9.06225C12.9451 9.59697 12.502 9.96729 11.9023 9.90622L11.8577 9.89918L11.8201 9.889C11.6411 10.0705 11.4411 10.23 11.2243 10.3642C11.2682 10.3533 11.4005 10.3165 11.5226 10.2765C12.0456 10.1059 12.0706 10.0213 12.7596 10.0182C12.0879 10.7502 11.3504 10.5811 11.1155 10.4284C10.8995 10.5533 10.6742 10.6612 10.4414 10.751C11.3096 10.7009 11.3394 10.6171 12.0025 10.8394C11.1194 11.353 10.4203 10.9013 10.3169 10.7995C10.0868 10.8849 9.85501 10.9561 9.62014 11.0297C9.79551 11.0375 10.3647 11.0649 10.5338 11.115C10.7381 11.1855 10.9302 11.2874 11.103 11.4172C10.9582 11.462 10.8092 11.4917 10.6583 11.5057C10.1251 11.548 9.58413 11.1878 9.48392 11.0704C9.27488 11.133 9.02357 11.2066 8.79809 11.2818C9.7 11.3123 9.90669 11.4932 10.1987 11.8008C10.0594 11.8222 9.91842 11.8311 9.77751 11.8275C9.32734 11.8095 8.75973 11.4438 8.65482 11.3311C7.95882 11.5793 7.68481 11.8126 7.48047 12.0569C7.4848 11.9996 7.49238 11.9426 7.50317 11.8862Z" fill="#F5F7FB"/>
<path d="M12.7697 6.52904C12.2115 6.2057 12.0361 5.89019 11.9648 5.63184C12.3853 5.66002 12.6992 6.10941 12.7697 6.52904Z" fill="#F5F7FB"/>
<path d="M12.2222 5.11276C12.2907 5.17312 12.3517 5.24146 12.4039 5.31632C12.4801 5.42903 12.541 5.55148 12.5847 5.68037C12.5463 5.66236 12.1009 5.43297 12.0069 5.3492C11.8737 5.22154 11.7654 5.07022 11.6875 4.90294C11.7863 4.89889 11.8849 4.91545 11.9769 4.95157C12.069 4.9877 12.1525 5.04259 12.2222 5.11276Z" fill="#F5F7FB"/>
<path d="M5.18261 6.20823C5.24593 6.31218 5.33815 6.39543 5.44802 6.4478C5.46044 6.45367 5.47158 6.46194 5.4808 6.47214C5.49001 6.48234 5.49712 6.49425 5.5017 6.50721C5.50629 6.52016 5.50826 6.5339 5.50751 6.54762C5.50676 6.56134 5.50331 6.57478 5.49734 6.58716C5.48517 6.61196 5.46377 6.63102 5.43772 6.64024C5.41167 6.64946 5.38305 6.64811 5.35798 6.63648C5.31617 6.61606 5.2761 6.59223 5.2382 6.56524C5.29457 6.73038 5.40119 6.87375 5.54313 6.97526C5.68507 7.07677 5.85522 7.13132 6.02972 7.13128H6.03598C6.03167 7.07368 6.03167 7.01585 6.03598 6.95826C6.05903 6.69122 6.18194 6.4427 6.38018 6.26231C6.57842 6.08192 6.8374 5.98293 7.10542 5.98511H7.70043C7.71476 5.98587 7.72909 5.98366 7.74252 5.97861C7.75596 5.97357 7.7682 5.96581 7.77849 5.95581C7.78879 5.94582 7.7969 5.9338 7.80233 5.92052C7.80776 5.90724 7.81038 5.89298 7.81004 5.87863C7.81004 5.79558 7.84303 5.71592 7.90176 5.65719C7.96049 5.59846 8.04014 5.56547 8.1232 5.56547H8.43636C8.46252 5.56774 8.48688 5.57973 8.50462 5.59908C8.52237 5.61843 8.53221 5.64373 8.53221 5.66999C8.53221 5.69624 8.52237 5.72155 8.50462 5.7409C8.48688 5.76025 8.46252 5.77224 8.43636 5.77451H8.1232C8.09558 5.77451 8.0691 5.78548 8.04957 5.805C8.03004 5.82453 8.01907 5.85102 8.01907 5.87863C8.01907 5.96169 7.98608 6.04134 7.92735 6.10007C7.86862 6.1588 7.78897 6.19179 7.70591 6.19179H7.10542C6.8895 6.18926 6.68063 6.26861 6.52084 6.41386C6.36106 6.55912 6.26223 6.75951 6.24423 6.9747C6.23893 7.05344 6.24499 7.13255 6.26224 7.20957C6.26694 7.23071 6.27163 7.25028 6.27789 7.26985C6.27884 7.27387 6.28016 7.27781 6.28181 7.28159C6.28807 7.30273 6.29512 7.3223 6.30295 7.34188V7.34814C6.35212 7.4664 6.42771 7.57185 6.52392 7.65639C6.62013 7.74093 6.73442 7.80233 6.85803 7.83589H6.86586C6.88543 7.84059 6.90422 7.84528 6.92379 7.84842L6.95354 7.85311C6.96779 7.85566 6.98216 7.85749 6.9966 7.85859C7.02243 7.85859 7.04905 7.86329 7.07489 7.86329C7.20527 7.86284 7.33375 7.83195 7.45009 7.7731C7.56644 7.71425 7.66744 7.62905 7.74506 7.52429C7.69544 7.49286 7.64785 7.45835 7.60257 7.42095C7.58138 7.40314 7.56809 7.37767 7.5656 7.3501C7.5631 7.32253 7.57161 7.29509 7.58926 7.27377C7.59796 7.26309 7.6087 7.25427 7.62086 7.24781C7.63301 7.24135 7.64634 7.23738 7.66005 7.23614C7.67376 7.2349 7.68758 7.23641 7.7007 7.24059C7.71382 7.24476 7.72597 7.25152 7.73644 7.26045C7.87913 7.37884 8.04632 7.46408 8.22594 7.51002C8.40557 7.55596 8.59315 7.56145 8.77516 7.5261C8.95716 7.49075 9.12905 7.41543 9.27842 7.30559C9.42778 7.19575 9.55091 7.05412 9.6389 6.89092C9.58285 6.81484 9.53998 6.72989 9.51207 6.63961C9.50824 6.62645 9.50704 6.61267 9.50856 6.59904C9.51007 6.58542 9.51425 6.57223 9.52087 6.56023C9.52749 6.54823 9.53641 6.53765 9.54713 6.52911C9.55784 6.52056 9.57014 6.51422 9.58331 6.51043C9.59637 6.50647 9.61008 6.50513 9.62366 6.50649C9.63724 6.50785 9.65041 6.51188 9.66242 6.51836C9.67443 6.52484 9.68504 6.53363 9.69363 6.54423C9.70223 6.55483 9.70863 6.56702 9.71249 6.58011C9.74216 6.67952 9.79606 6.77 9.86934 6.84343C9.94262 6.91686 10.033 6.97094 10.1324 7.00081C10.2317 7.03067 10.3369 7.03539 10.4385 7.01454C10.5402 6.99369 10.635 6.94792 10.7146 6.88135C10.7941 6.81477 10.8559 6.72948 10.8944 6.63312C10.9328 6.53677 10.9467 6.43237 10.9349 6.32931C10.923 6.22625 10.8857 6.12776 10.8263 6.04267C10.767 5.95758 10.6874 5.88857 10.5948 5.84183C10.5814 5.90279 10.5636 5.96271 10.5416 6.02112C10.5312 6.04697 10.511 6.06764 10.4854 6.07858C10.4597 6.08951 10.4308 6.08983 10.405 6.07945C10.3791 6.06906 10.3585 6.04884 10.3475 6.02322C10.3366 5.9976 10.3363 5.96868 10.3466 5.94283C10.3797 5.85869 10.4013 5.77047 10.4108 5.68056C10.4108 5.66568 10.4108 5.65237 10.4108 5.63828C10.4108 5.62419 10.4108 5.58817 10.4108 5.55999C10.411 5.33923 10.341 5.12413 10.211 4.94571C10.0809 4.76729 9.89763 4.63477 9.68744 4.56727C9.72038 4.61715 9.74944 4.6695 9.77434 4.72385C9.78305 4.74053 9.787 4.75929 9.78576 4.77808C9.78451 4.79686 9.77813 4.81493 9.76729 4.83032C9.75667 4.84586 9.74204 4.85823 9.72495 4.86611C9.70785 4.87399 9.68895 4.87709 9.67023 4.87508C9.65152 4.87307 9.6337 4.86603 9.61867 4.8547C9.60364 4.84338 9.59196 4.82819 9.58488 4.81075C9.47523 4.57393 9.28119 4.38652 9.0407 4.28516C8.80021 4.18381 8.53056 4.17581 8.28448 4.26272C8.20741 4.28899 8.13381 4.32447 8.06526 4.36841C8.05378 4.37706 8.04064 4.38326 8.02666 4.38662C8.01268 4.38998 7.99816 4.39044 7.984 4.38795C7.96984 4.38546 7.95634 4.38009 7.94434 4.37217C7.93234 4.36425 7.9221 4.35395 7.91425 4.34191C7.9064 4.32986 7.90111 4.31633 7.8987 4.30215C7.8963 4.28798 7.89684 4.27346 7.90028 4.2595C7.90372 4.24554 7.91 4.23244 7.91872 4.22101C7.92743 4.20957 7.93841 4.20005 7.95096 4.19304L7.9995 4.16407C7.89067 4.11239 7.77058 4.08895 7.6503 4.09593C7.53003 4.10291 7.41345 4.14008 7.31133 4.204C7.35962 4.24705 7.40295 4.29537 7.44051 4.34806C7.45145 4.36317 7.45817 4.38094 7.45995 4.39952C7.46174 4.4181 7.45854 4.43682 7.45068 4.45375C7.44304 4.47058 7.43101 4.48505 7.41586 4.49566C7.40071 4.50626 7.383 4.51261 7.36456 4.51403C7.34598 4.51552 7.32733 4.51202 7.31054 4.5039C7.29375 4.49578 7.27943 4.48333 7.26905 4.46784C7.22002 4.39737 7.15683 4.3379 7.0835 4.29325C6.9523 4.21167 6.79543 4.18188 6.64345 4.20967C6.49148 4.23746 6.3553 4.32084 6.26145 4.44357C6.30264 4.4559 6.34293 4.47107 6.38202 4.48898C6.39896 4.49668 6.41358 4.50868 6.42443 4.52379C6.43528 4.5389 6.44198 4.55659 6.44387 4.5751C6.44521 4.59364 6.44164 4.6122 6.43352 4.62892C6.4254 4.64564 6.41301 4.65992 6.3976 4.67032C6.3822 4.68072 6.36432 4.68688 6.34578 4.68817C6.32724 4.68945 6.30868 4.68583 6.29199 4.67766C6.20845 4.6382 6.11722 4.6177 6.02484 4.61764C5.93245 4.61759 5.8412 4.63797 5.75762 4.67733C5.67404 4.71669 5.6002 4.77405 5.54139 4.8453C5.48259 4.91655 5.44027 4.99993 5.41748 5.08946C5.47347 5.06767 5.5318 5.05243 5.59129 5.04406C5.60486 5.04215 5.61867 5.04294 5.63194 5.04638C5.64521 5.04982 5.65766 5.05583 5.6686 5.06408C5.67955 5.07234 5.68876 5.08266 5.69571 5.09447C5.70266 5.10628 5.70721 5.11935 5.70912 5.13292C5.71102 5.14649 5.71023 5.1603 5.70679 5.17357C5.70336 5.18683 5.69734 5.19929 5.68909 5.21023C5.68084 5.22117 5.67051 5.23038 5.6587 5.23733C5.64689 5.24429 5.63383 5.24884 5.62026 5.25074C5.52486 5.2642 5.43395 5.29986 5.35485 5.35487C5.22408 5.44575 5.13283 5.58303 5.09967 5.73879C5.06651 5.89455 5.09393 6.05709 5.17635 6.19336L5.18261 6.20823Z" fill="#F5F7FB"/>
<path d="M9.53544 8.1805C10.0835 8.1805 10.5282 7.82898 10.5282 7.3976C10.5275 7.33741 10.5186 7.2776 10.5015 7.21988C10.3793 7.24752 10.2523 7.24701 10.1302 7.21839C10.0082 7.18978 9.89419 7.1338 9.79693 7.05469C9.67675 7.25373 9.51103 7.4214 9.3134 7.54389C9.11577 7.66639 8.89188 7.74022 8.66016 7.7593C8.81147 7.97139 9.04059 8.11494 9.29744 8.15858C9.37583 8.17392 9.45557 8.18127 9.53544 8.1805Z" fill="#F5F7FB"/>
<path d="M8.41378 7.75749C8.26692 7.74416 8.12285 7.70907 7.98631 7.65336C7.98271 7.65417 7.97896 7.65417 7.97535 7.65336C7.96439 7.64945 7.95421 7.64396 7.94404 7.63927L7.93073 7.63379C7.89496 7.68531 7.85404 7.73305 7.80859 7.77628C7.81124 7.85755 7.8454 7.93462 7.90384 7.99117C7.96229 8.04771 8.04043 8.0793 8.12176 8.07926C8.16797 8.07831 8.21386 8.08732 8.25628 8.1057C8.2987 8.12407 8.33667 8.15137 8.36759 8.18573L8.97199 8.87782C8.98245 8.88951 8.99523 8.8989 9.00952 8.90537C9.02381 8.91184 9.03929 8.91526 9.05498 8.9154C9.06958 8.9155 9.08405 8.91273 9.09758 8.90724C9.11111 8.90175 9.12342 8.89364 9.13382 8.88339C9.14421 8.87314 9.15249 8.86095 9.15817 8.8475C9.16385 8.83405 9.16683 8.81961 9.16693 8.80501V8.3431C9.00636 8.30613 8.85578 8.23458 8.7257 8.13344C8.59562 8.0323 8.48918 7.904 8.41378 7.75749Z" fill="#F5F7FB"/>
</svg>
