<svg width="32" height="32" viewBox="0 0 32 32" fill="none" xmlns="http://www.w3.org/2000/svg">
<rect width="32" height="32" rx="4" fill="#232323"/>
<path d="M15.8632 5C9.87301 5 5 9.87301 5 15.8632C5 21.8533 9.87301 26.7263 15.8632 26.7263C21.8533 26.7263 26.7263 21.8533 26.7263 15.8632C26.7263 9.87301 21.8533 5 15.8632 5ZM24.1062 21.0233H7.62012C7.50375 20.8383 7.39263 20.6498 7.28864 20.4567H24.4377C24.3337 20.6498 24.2226 20.8383 24.1062 21.0233ZM16.0511 20.0789H7.09498C6.6404 19.1377 6.33607 18.1117 6.20633 17.0328C7.12884 17.4501 8.47587 17.6849 9.95122 17.6849C10.5203 17.6849 11.1075 17.6505 11.6952 17.5785C12.7818 17.4454 14.3353 17.1229 16 16.3683C17.7631 17.2035 19.4149 17.5489 20.5573 17.6887C21.145 17.7602 21.7259 17.795 22.2855 17.795C23.518 17.795 24.6366 17.6233 25.4852 17.3128C25.3388 18.2897 25.0473 19.2193 24.6323 20.0789H16.052H16.0511ZM6.13335 15.8632C6.13335 14.8829 6.28074 13.9361 6.55167 13.0432C7.98411 14.9182 10.4469 15.5398 12.4212 15.4697C12.9911 15.4491 13.5383 15.3719 14.0544 15.2502C14.4145 15.4978 14.7756 15.7158 15.1353 15.9171C13.7682 16.4656 12.5132 16.7165 11.6036 16.8277C9.117 17.1315 7.03535 16.726 6.14098 16.146C6.13812 16.0516 6.13335 15.9581 6.13335 15.8632ZM15.9858 14.4884C16.2967 14.6826 16.6402 14.8496 17.006 14.9917C16.6721 15.1911 16.3397 15.3671 16.0101 15.5274C15.6748 15.3576 15.337 15.171 14.9984 14.9607C15.3504 14.8261 15.6828 14.6697 15.9858 14.4884ZM15.0194 12.3677C14.4994 11.1948 14.8562 9.76425 16.0511 8.21115C17.2221 9.73614 17.5709 11.1433 17.058 12.3C16.8419 12.787 16.4761 13.2201 15.9958 13.5803C15.5584 13.2354 15.2226 12.8261 15.0194 12.3677ZM25.209 13.1638C25.457 14.0215 25.593 14.9264 25.593 15.8632C25.593 16.0635 25.5849 16.2619 25.5729 16.4589C24.6051 16.9168 22.7863 17.1993 20.6484 16.9379C19.6858 16.82 18.3407 16.5467 16.8802 15.9324C17.2369 15.7396 17.5956 15.5226 17.9534 15.285C18.4481 15.4014 18.9718 15.4749 19.5165 15.4944C19.6129 15.4978 19.7102 15.4997 19.8084 15.4997C21.6515 15.4997 23.8553 14.8739 25.209 13.1638ZM15.8632 6.13335C19.9625 6.13335 23.4751 8.68289 24.9057 12.2781C23.7122 14.1846 21.3906 14.8124 19.5441 14.7394C19.2919 14.7303 19.0462 14.7064 18.8053 14.6745C19.662 14.0043 20.4972 13.1863 21.2637 12.1841L20.6632 11.7252C19.7836 12.8757 18.8072 13.7677 17.8141 14.4651C17.3986 14.3463 17.007 14.1985 16.6593 14.0119C17.1416 13.6084 17.515 13.1343 17.7487 12.6067C18.2214 11.5406 18.3607 9.76567 16.3397 7.36641L16.0506 7.02343L15.7616 7.36641C13.711 9.80145 13.8502 11.5969 14.3282 12.6744C14.5472 13.1686 14.8877 13.6146 15.3241 13.9986C14.9864 14.1731 14.6068 14.312 14.207 14.426C13.2445 13.7277 12.2981 12.8485 11.439 11.7252L10.8385 12.1841C11.5888 13.1652 12.4026 13.97 13.2363 14.6382C12.9626 14.6768 12.6816 14.7036 12.3935 14.714C10.4759 14.787 8.05329 14.1412 6.8665 12.1617C8.32609 8.62803 11.8082 6.13335 15.8632 6.13335ZM15.8632 25.593C12.5547 25.593 9.62831 23.9321 7.86964 21.4011H23.8567C22.098 23.9316 19.1716 25.593 15.8632 25.593Z" fill="url(#paint0_linear_470_1723)"/>
<path d="M13.9769 18.7718C14.1855 18.7718 14.3546 18.6026 14.3546 18.394C14.3546 18.1854 14.1855 18.0162 13.9769 18.0162C13.7682 18.0162 13.5991 18.1854 13.5991 18.394C13.5991 18.6026 13.7682 18.7718 13.9769 18.7718Z" fill="#76B1C8"/>
<path d="M17.7568 18.7718C17.9655 18.7718 18.1346 18.6026 18.1346 18.394C18.1346 18.1854 17.9655 18.0162 17.7568 18.0162C17.5482 18.0162 17.379 18.1854 17.379 18.394C17.379 18.6026 17.5482 18.7718 17.7568 18.7718Z" fill="#9D97C5"/>
<path d="M15.9616 19.185C16.3789 19.185 16.7172 18.8466 16.7172 18.4294C16.7172 18.0121 16.3789 17.6738 15.9616 17.6738C15.5443 17.6738 15.206 18.0121 15.206 18.4294C15.206 18.8466 15.5443 19.185 15.9616 19.185Z" fill="#87A5C7"/>
<defs>
<linearGradient id="paint0_linear_470_1723" x1="4.89101" y1="5.60351" x2="29.9119" y2="11.6245" gradientUnits="userSpaceOnUse">
<stop stop-color="#09FBD3"/>
<stop offset="1" stop-color="#FE53BB"/>
</linearGradient>
</defs>
</svg>
