<svg width="32" height="32" viewBox="0 0 32 32" fill="none" xmlns="http://www.w3.org/2000/svg">
<rect width="32" height="32" rx="4" fill="#232323"/>
<mask id="mask0_1521_3278" style="mask-type:luminance" maskUnits="userSpaceOnUse" x="5" y="3" width="23" height="24">
<path d="M27.257 3H5V27H27.257V3Z" fill="white"/>
</mask>
<g mask="url(#mask0_1521_3278)">
<path d="M20.8868 19.2078C23.8616 16.148 24.7767 10.2548 21.5543 6.93766L21.236 6.6134L20.5092 7.36017C23.2557 10.5385 23.1562 15.4171 20.1927 18.4612C18.6936 20.0023 16.6998 20.8512 14.5789 20.8512C12.6379 20.8512 10.8083 20.1331 9.36158 18.831L8.63335 19.5809L8.93398 19.8918C10.2423 21.2375 12.1166 21.9791 14.212 21.9791C14.6557 21.9791 15.1037 21.9332 15.5515 21.8664V25.9958H14.1157C13.8715 25.9958 13.6737 26.1946 13.6737 26.44C13.6737 26.6853 13.8715 26.8841 14.1157 26.8841H17.8711C18.1152 26.8841 18.3131 26.6853 18.3131 26.44C18.3131 26.1946 18.1153 25.9958 17.8711 25.9958H16.4356V21.6981C18.1502 21.2811 19.7245 20.4091 20.8866 19.2082L20.8868 19.2078Z" fill="white"/>
<path d="M15.0155 19.2623C15.8997 19.0212 16.6854 17.9903 17.1967 16.5293C16.486 16.5955 15.7542 16.6309 15.0155 16.6428V19.2623Z" fill="white"/>
<path d="M21.243 13.0283H18.602C18.5786 13.941 18.4706 14.8063 18.2925 15.5982C19.1884 15.4706 20.0305 15.3004 20.7904 15.0829C21.0438 14.4399 21.201 13.7493 21.2432 13.026L21.243 13.0283Z" fill="white"/>
<path d="M20.3331 16.0275C19.6248 16.1953 18.8671 16.3348 18.0697 16.4365C17.7531 17.4601 17.312 18.3231 16.7821 18.9544C18.2809 18.432 19.5381 17.3845 20.3355 16.0275H20.3331Z" fill="white"/>
<path d="M15.0155 12.2347H17.8114C17.7833 11.282 17.6542 10.3742 17.4456 9.56081C16.6598 9.47801 15.8437 9.43084 15.0156 9.41895V12.2372L15.0155 12.2347Z" fill="white"/>
<path d="M20.7904 10.1775C20.0305 9.96227 19.1886 9.78978 18.2925 9.66211C18.4708 10.4542 18.5786 11.3195 18.602 12.232H21.243C21.2008 11.511 21.0436 10.8182 20.7903 10.1752L20.7904 10.1775Z" fill="white"/>
<path d="M15.0155 6V8.61955C15.7544 8.62894 16.4861 8.66687 17.1967 8.73297C16.6854 7.27185 15.8996 6.24111 15.0155 6Z" fill="white"/>
<path d="M20.3331 9.23699C19.5379 7.87987 18.2807 6.83251 16.7796 6.31006C17.3097 6.94135 17.7529 7.80422 18.0672 8.828C18.8646 8.92958 19.6223 9.0668 20.3306 9.23699H20.3331Z" fill="white"/>
<path d="M15.0156 15.847C15.8437 15.8351 16.6599 15.788 17.4456 15.7052C17.6521 14.8918 17.781 13.9839 17.8114 13.0312H15.0155V15.8495L15.0156 15.847Z" fill="white"/>
<path d="M14.2275 19.2623V16.6428C13.4887 16.6334 12.7569 16.5955 12.0463 16.5293C12.5576 17.9905 13.3434 19.0212 14.2275 19.2623Z" fill="white"/>
<path d="M14.2275 9.41603C13.3995 9.42792 12.5832 9.47509 11.7976 9.55783C11.5911 10.3712 11.4622 11.2791 11.4317 12.2318H14.2276V9.41357L14.2275 9.41603Z" fill="white"/>
<path d="M8.00019 12.2346H10.6412C10.6646 11.3219 10.7726 10.4566 10.9507 9.66467C10.0548 9.79234 9.21271 9.96253 8.45272 10.18C8.19945 10.823 8.04223 11.5136 8 12.2369L8.00019 12.2346Z" fill="white"/>
<path d="M14.2275 6C13.3432 6.23879 12.5576 7.272 12.0463 8.73297C12.757 8.66682 13.4888 8.63139 14.2275 8.6195V6Z" fill="white"/>
<path d="M14.2276 13.0285H11.4317C11.4599 13.9812 11.5889 14.889 11.7976 15.7024C12.5834 15.7852 13.3995 15.8324 14.2275 15.8442V13.026L14.2276 13.0285Z" fill="white"/>
<path d="M12.4613 6.31191C10.9625 6.83436 9.70527 7.88176 8.90784 9.23882C9.61609 9.07097 10.3761 8.93141 11.1712 8.82982C11.4878 7.80621 11.9289 6.94318 12.4588 6.31189L12.4613 6.31191Z" fill="white"/>
<path d="M12.4614 18.9521C11.9313 18.3208 11.4881 17.4579 11.1738 16.4341C10.3786 16.3325 9.61866 16.1953 8.9104 16.0275C9.70553 17.3822 10.9626 18.432 12.4614 18.9521Z" fill="white"/>
<path d="M8.45304 15.086C9.21303 15.3012 10.0574 15.4737 10.9511 15.5991C10.7727 14.8069 10.6649 13.9416 10.6415 13.0292H8.0005C8.04271 13.7502 8.19976 14.443 8.45304 15.086Z" fill="white"/>
</g>
</svg>
