<svg width="261" height="34" viewBox="0 0 261 34" fill="none" xmlns="http://www.w3.org/2000/svg">
<mask id="mask0_1518_3236" style="mask-type:luminance" maskUnits="userSpaceOnUse" x="0" y="0" width="32" height="34">
<path d="M31.5308 0H0V34H31.5308V0Z" fill="white"/>
</mask>
<g mask="url(#mask0_1518_3236)">
<path d="M22.656 23.1428C26.8703 18.8082 28.1667 10.4594 23.6015 5.76015L23.1507 5.30078L22.121 6.3587C26.0119 10.8613 25.8709 17.7727 21.6726 22.0852C19.5489 24.2684 16.7244 25.4709 13.7198 25.4709C10.97 25.4709 8.37807 24.4537 6.32854 22.6091L5.29688 23.6714L5.72277 24.1118C7.57624 26.0183 10.2315 27.0689 13.2 27.0689C13.8286 27.0689 14.4632 27.0038 15.0976 26.9091V32.7592H13.0636C12.7176 32.7592 12.4373 33.0408 12.4373 33.3884C12.4373 33.736 12.7176 34.0176 13.0636 34.0176H18.3837C18.7296 34.0176 19.0099 33.736 19.0099 33.3884C19.0099 33.0408 18.7296 32.7592 18.3837 32.7592H16.35V26.6708C18.7791 26.08 21.0094 24.8447 22.6556 23.1435L22.656 23.1428Z" fill="white"/>
<path d="M14.3398 23.2233C15.5926 22.8817 16.7056 21.4213 17.4299 19.3516C16.4231 19.4453 15.3864 19.4955 14.3398 19.5123V23.2233Z" fill="white"/>
<path d="M23.1604 14.39H19.419C19.3858 15.6829 19.2329 16.9088 18.9805 18.0307C20.2497 17.8498 21.4427 17.6087 22.5193 17.3006C22.8781 16.3897 23.1008 15.4114 23.1606 14.3867L23.1604 14.39Z" fill="white"/>
<path d="M21.8704 18.6406C20.867 18.8784 19.7936 19.076 18.6639 19.22C18.2155 20.6701 17.5906 21.8927 16.8398 22.7871C18.9632 22.047 20.7442 20.5631 21.8738 18.6406H21.8704Z" fill="white"/>
<path d="M14.3398 13.2664H18.3008C18.2609 11.9167 18.078 10.6306 17.7825 9.47831C16.6692 9.36101 15.5132 9.2942 14.3401 9.27734V13.2699L14.3398 13.2664Z" fill="white"/>
<path d="M22.5193 10.3512C21.4427 10.0463 20.2499 9.80196 18.9805 9.62109C19.2331 10.7432 19.3858 11.9691 19.419 13.2618H23.1604C23.1006 12.2404 22.8778 11.2589 22.519 10.348L22.5193 10.3512Z" fill="white"/>
<path d="M14.3398 4.43359V8.14462C15.3866 8.15792 16.4233 8.21166 17.4299 8.30531C16.7056 6.23539 15.5924 4.77517 14.3398 4.43359Z" fill="white"/>
<path d="M21.8739 9.01758C20.7475 7.09499 18.9664 5.61124 16.8398 4.87109C17.5908 5.76543 18.2187 6.98782 18.6639 8.43817C19.7936 8.58208 20.8671 8.77647 21.8704 9.01758H21.8739Z" fill="white"/>
<path d="M14.3401 18.3835C15.5132 18.3667 16.6695 18.2999 17.7825 18.1826C18.075 17.0303 18.2577 15.7442 18.3008 14.3945H14.3398V18.387L14.3401 18.3835Z" fill="white"/>
<path d="M13.2229 23.2233V19.5123C12.1762 19.499 11.1395 19.4453 10.1328 19.3516C10.8571 21.4216 11.9704 22.8818 13.2229 23.2233Z" fill="white"/>
<path d="M13.2224 9.273C12.0493 9.28986 10.893 9.35667 9.78 9.4739C9.48749 10.6262 9.30484 11.9124 9.26172 13.262H13.2226V9.26953L13.2224 9.273Z" fill="white"/>
<path d="M4.40065 13.2657H8.14207C8.17522 11.9728 8.32818 10.7469 8.58057 9.625C7.31134 9.80587 6.11839 10.047 5.04175 10.3551C4.68295 11.266 4.46021 12.2443 4.40039 13.269L4.40065 13.2657Z" fill="white"/>
<path d="M13.2229 4.43359C11.9701 4.77189 10.8571 6.23559 10.1328 8.30531C11.1397 8.21159 12.1764 8.1614 13.2229 8.14455V4.43359Z" fill="white"/>
<path d="M13.2226 14.3902H9.26172C9.30161 15.7399 9.48441 17.026 9.78 18.1783C10.8933 18.2956 12.0493 18.3624 13.2224 18.3792V14.3867L13.2226 14.3902Z" fill="white"/>
<path d="M10.7196 4.87503C8.59627 5.61517 6.81524 7.09898 5.68555 9.02148C6.68891 8.7837 7.76555 8.58598 8.892 8.44207C9.34047 6.99196 9.96537 5.76933 10.7161 4.875L10.7196 4.87503Z" fill="white"/>
<path d="M10.72 22.7838C9.96907 21.8895 9.34117 20.6671 8.89592 19.2167C7.76947 19.0728 6.69282 18.8784 5.68945 18.6406C6.81588 20.5599 8.59667 22.047 10.72 22.7838Z" fill="white"/>
<path d="M5.04149 17.3044C6.11813 17.6093 7.31434 17.8537 8.58036 18.0313C8.32768 16.9091 8.17494 15.6833 8.14179 14.3906H4.40039C4.46019 15.412 4.68266 16.3935 5.04149 17.3044Z" fill="white"/>
</g>
<path d="M51.954 16.5199V25.5018H49.9537L49.4763 23.3709C48.1579 24.9748 45.8393 25.96 43.2933 25.96C36.4284 25.96 33.7461 21.9273 33.7461 17.3218C33.7461 12.7163 36.5875 8.68359 43.2024 8.68359C48.1351 8.68359 51.2948 11.204 51.6585 14.4119H47.976C47.3623 12.1893 45.3164 11.2499 43.1115 11.2499C38.9061 11.2499 37.2922 13.839 37.2922 17.4364C37.2922 21.7899 40.0655 23.3938 42.9296 23.3938C46.4075 23.3938 47.9988 21.7899 48.5443 19.0861H43.9525V16.5199H51.954ZM54.3005 25.5018V8.8669H57.4375V25.5018H54.3005ZM62.1386 19.4298C62.1386 21.5378 63.2752 23.5312 66.3212 23.5312C69.3673 23.5312 70.5038 21.5378 70.5038 19.4298C70.5038 17.3218 69.3673 15.3284 66.3212 15.3284C63.2752 15.3284 62.1386 17.3218 62.1386 19.4298ZM58.8653 19.4298C58.8653 16.0845 60.9339 12.8996 66.3212 12.8996C71.7086 12.8996 73.777 16.0845 73.777 19.4298C73.777 22.7751 71.7086 25.96 66.3212 25.96C60.9339 25.96 58.8653 22.7751 58.8653 19.4298ZM82.1576 15.4659C79.2253 15.4659 78.1114 17.4593 78.1114 19.4756C78.1114 21.5378 79.2253 23.5312 82.1576 23.5312C85.1127 23.5312 86.2266 21.5378 86.2266 19.4756C86.2266 17.4593 85.1127 15.4659 82.1576 15.4659ZM75.1108 25.5018V8.8669H78.2478V15.0992H78.2933C79.2253 13.6328 81.0211 13.0371 82.9078 13.0371C87.4995 13.0371 89.4999 16.4053 89.4999 19.4756C89.4999 22.5918 87.4995 25.96 82.9078 25.96C80.4073 25.96 78.5206 24.5623 78.2933 23.8291H78.2478V25.5018H75.1108ZM103.768 16.9781V22.7293C103.768 23.3938 104.245 23.4167 104.45 23.4167C104.745 23.4167 105.223 23.3938 105.473 23.3479V25.5705C104.859 25.6851 104.314 25.8455 103.245 25.8455C101.199 25.8455 100.972 24.7456 100.881 24.2874C100.267 24.8831 98.7443 25.96 95.2209 25.96C92.084 25.96 90.3109 24.5394 90.3109 22.1565C90.3109 18.8112 93.7206 18.5133 95.721 18.33C100.222 17.8946 100.699 17.7342 100.699 16.7948C100.699 15.3971 99.108 15.0534 97.2895 15.0534C95.2209 15.0534 94.1071 15.7179 93.9934 17.0698H90.9247C91.3793 13.8849 93.7206 12.8996 97.2895 12.8996C103.586 12.8996 103.768 15.3971 103.768 16.9781ZM100.631 20.6213V19.4527C99.7217 19.8422 98.7443 19.9568 96.5166 20.2089C94.1525 20.4838 93.5842 21.0108 93.5842 22.0419C93.5842 23.6458 95.0391 23.9437 96.1074 23.9437C97.7896 23.9437 100.631 23.3021 100.631 20.6213ZM106.248 25.5018V8.8669H109.385V25.5018H106.248ZM130.003 17.6197H126.73C126.503 16.3595 125.184 15.3284 123.388 15.3284C120.479 15.3284 119.206 17.3218 119.206 19.4298C119.206 21.5378 120.342 23.5312 123.047 23.5312C125.48 23.5312 126.139 22.5689 126.798 20.8504H130.071C129.344 25.8913 124.229 25.96 123.388 25.96C118.001 25.96 115.932 22.7751 115.932 19.4298C115.932 15.5117 118.728 12.8996 123.388 12.8996C125.207 12.8996 129.344 13.5182 130.003 17.6197ZM144.269 16.9781V22.7293C144.269 23.3938 144.746 23.4167 144.951 23.4167C145.247 23.4167 145.724 23.3938 145.974 23.3479V25.5705C145.36 25.6851 144.815 25.8455 143.746 25.8455C141.7 25.8455 141.473 24.7456 141.382 24.2874C140.768 24.8831 139.245 25.96 135.722 25.96C132.585 25.96 130.812 24.5394 130.812 22.1565C130.812 18.8112 134.222 18.5133 136.222 18.33C140.723 17.8946 141.2 17.7342 141.2 16.7948C141.2 15.3971 139.609 15.0534 137.791 15.0534C135.722 15.0534 134.608 15.7179 134.495 17.0698H131.426C131.88 13.8849 134.222 12.8996 137.791 12.8996C144.087 12.8996 144.269 15.3971 144.269 16.9781ZM141.132 20.6213V19.4527C140.223 19.8422 139.245 19.9568 137.018 20.2089C134.654 20.4838 134.085 21.0108 134.085 22.0419C134.085 23.6458 135.54 23.9437 136.609 23.9437C138.291 23.9437 141.132 23.3021 141.132 20.6213ZM146.658 25.5018V13.3579H149.795V15.7179H149.841C150.682 14.3431 151.977 13.0371 154.387 13.0371C154.864 13.0371 155.228 13.0829 155.637 13.1516V16.2678C154.773 15.9929 154.182 15.9699 153.637 15.9699C152.046 15.9699 149.795 16.8177 149.795 19.636V25.5018H146.658ZM163.545 15.4659C160.613 15.4659 159.499 17.4593 159.499 19.4756C159.499 21.5378 160.613 23.5312 163.545 23.5312C166.501 23.5312 167.614 21.5378 167.614 19.4756C167.614 17.4593 166.501 15.4659 163.545 15.4659ZM156.499 30.1302V13.3579H159.636V15.0992H159.681C160.613 13.6328 162.409 13.0371 164.296 13.0371C168.887 13.0371 170.888 16.4053 170.888 19.4756C170.888 22.5918 168.887 25.96 164.296 25.96C161.795 25.96 159.908 24.5623 159.681 23.8291H159.636V30.1302H156.499ZM185.156 16.9781V22.7293C185.156 23.3938 185.633 23.4167 185.838 23.4167C186.133 23.4167 186.611 23.3938 186.861 23.3479V25.5705C186.247 25.6851 185.701 25.8455 184.633 25.8455C182.587 25.8455 182.36 24.7456 182.269 24.2874C181.655 24.8831 180.132 25.96 176.609 25.96C173.472 25.96 171.699 24.5394 171.699 22.1565C171.699 18.8112 175.108 18.5133 177.109 18.33C181.61 17.8946 182.087 17.7342 182.087 16.7948C182.087 15.3971 180.496 15.0534 178.677 15.0534C176.609 15.0534 175.495 15.7179 175.381 17.0698H172.312C172.767 13.8849 175.108 12.8996 178.677 12.8996C184.974 12.8996 185.156 15.3971 185.156 16.9781ZM182.019 20.6213V19.4527C181.11 19.8422 180.132 19.9568 177.904 20.2089C175.54 20.4838 174.972 21.0108 174.972 22.0419C174.972 23.6458 176.427 23.9437 177.495 23.9437C179.177 23.9437 182.019 23.3021 182.019 20.6213ZM188.522 22.1106V15.6492H186.022V13.3579H188.522V9.60012H191.659V13.3579H194.933V15.6492H191.659V21.1941C191.659 22.5918 191.727 23.3479 192.796 23.3479C193.569 23.3479 194.296 23.325 195.046 23.3021V25.5934C194.205 25.708 193.591 25.7767 192.637 25.7767C188.818 25.7767 188.522 24.4019 188.522 22.1106ZM196.211 25.5018V13.3579H199.348V25.5018H196.211ZM196.211 11.4332V8.8669H199.348V11.4332H196.211ZM214.846 17.6197H211.573C211.345 16.3595 210.027 15.3284 208.231 15.3284C205.322 15.3284 204.049 17.3218 204.049 19.4298C204.049 21.5378 205.185 23.5312 207.89 23.5312C210.322 23.5312 210.982 22.5689 211.641 20.8504H214.914C214.187 25.8913 209.072 25.96 208.231 25.96C202.844 25.96 200.775 22.7751 200.775 19.4298C200.775 15.5117 203.571 12.8996 208.231 12.8996C210.05 12.8996 214.187 13.5182 214.846 17.6197ZM229.112 16.9781V22.7293C229.112 23.3938 229.589 23.4167 229.794 23.4167C230.089 23.4167 230.567 23.3938 230.817 23.3479V25.5705C230.203 25.6851 229.657 25.8455 228.589 25.8455C226.543 25.8455 226.316 24.7456 226.225 24.2874C225.611 24.8831 224.088 25.96 220.565 25.96C217.428 25.96 215.655 24.5394 215.655 22.1565C215.655 18.8112 219.065 18.5133 221.065 18.33C225.566 17.8946 226.043 17.7342 226.043 16.7948C226.043 15.3971 224.452 15.0534 222.633 15.0534C220.565 15.0534 219.451 15.7179 219.337 17.0698H216.269C216.723 13.8849 219.065 12.8996 222.633 12.8996C228.93 12.8996 229.112 15.3971 229.112 16.9781ZM225.975 20.6213V19.4527C225.066 19.8422 224.088 19.9568 221.861 20.2089C219.496 20.4838 218.928 21.0108 218.928 22.0419C218.928 23.6458 220.383 23.9437 221.451 23.9437C223.134 23.9437 225.975 23.3021 225.975 20.6213ZM237.888 21.6982H241.298C241.389 23.5312 243.48 23.8062 244.617 23.8062C246.185 23.8062 247.89 23.3938 247.89 22.2481C247.89 21.3087 247.368 20.9879 243.981 20.5296C240.253 20.0255 238.298 19.5902 238.298 16.8177C238.298 13.3579 242.298 12.8996 244.322 12.8996C246.185 12.8996 250.664 13.1745 250.845 17.0698H247.572C247.322 15.2596 245.231 15.0534 244.162 15.0534C242.389 15.0534 241.435 15.8095 241.435 16.4511C241.435 17.4364 241.73 17.5968 244.753 18.0321C248.709 18.6049 251.3 18.9945 251.3 21.8128C251.3 24.906 248.368 25.96 244.64 25.96C242.071 25.96 238.002 25.4101 237.888 21.6982ZM252.651 25.5018V8.8669H255.788V25.5018H252.651Z" fill="white"/>
</svg>
