<svg width="261" height="34" viewBox="0 0 261 34" fill="none" xmlns="http://www.w3.org/2000/svg">
<mask id="mask0_1518_3259" style="mask-type:luminance" maskUnits="userSpaceOnUse" x="0" y="0" width="32" height="34">
<path d="M31.5308 0H0V34H31.5308V0Z" fill="white"/>
</mask>
<g mask="url(#mask0_1518_3259)">
<path d="M22.656 23.1428C26.8703 18.8082 28.1667 10.4594 23.6015 5.76015L23.1507 5.30078L22.121 6.3587C26.0119 10.8613 25.8709 17.7727 21.6726 22.0852C19.5489 24.2684 16.7244 25.4709 13.7198 25.4709C10.97 25.4709 8.37807 24.4537 6.32854 22.6091L5.29688 23.6714L5.72277 24.1118C7.57624 26.0183 10.2315 27.0689 13.2 27.0689C13.8286 27.0689 14.4632 27.0038 15.0976 26.9091V32.7592H13.0636C12.7176 32.7592 12.4373 33.0408 12.4373 33.3884C12.4373 33.736 12.7176 34.0176 13.0636 34.0176H18.3837C18.7296 34.0176 19.0099 33.736 19.0099 33.3884C19.0099 33.0408 18.7296 32.7592 18.3837 32.7592H16.35V26.6708C18.7791 26.08 21.0094 24.8447 22.6556 23.1435L22.656 23.1428Z" fill="#0D0D0E"/>
<path d="M14.3398 23.2233C15.5926 22.8817 16.7056 21.4213 17.4299 19.3516C16.4231 19.4453 15.3864 19.4955 14.3398 19.5123V23.2233Z" fill="#0D0D0E"/>
<path d="M23.1604 14.39H19.419C19.3858 15.6829 19.2329 16.9088 18.9805 18.0307C20.2497 17.8498 21.4427 17.6087 22.5193 17.3006C22.8781 16.3897 23.1008 15.4114 23.1606 14.3867L23.1604 14.39Z" fill="#0D0D0E"/>
<path d="M21.8724 18.6406C20.8689 18.8784 19.7956 19.076 18.6659 19.22C18.2174 20.6701 17.5925 21.8927 16.8418 22.7871C18.9651 22.047 20.7461 20.5631 21.8758 18.6406H21.8724Z" fill="#0D0D0E"/>
<path d="M14.3398 13.2664H18.3008C18.2609 11.9167 18.078 10.6306 17.7825 9.47831C16.6692 9.36101 15.5132 9.2942 14.3401 9.27734V13.2699L14.3398 13.2664Z" fill="#0D0D0E"/>
<path d="M22.5193 10.3512C21.4427 10.0463 20.2499 9.80196 18.9805 9.62109C19.2331 10.7432 19.3858 11.9691 19.419 13.2618H23.1604C23.1006 12.2404 22.8778 11.2589 22.519 10.348L22.5193 10.3512Z" fill="#0D0D0E"/>
<path d="M14.3398 4.43359V8.14462C15.3866 8.15792 16.4233 8.21166 17.4299 8.30531C16.7056 6.23539 15.5924 4.77517 14.3398 4.43359Z" fill="#0D0D0E"/>
<path d="M21.872 9.01758C20.7455 7.09499 18.9645 5.61124 16.8379 4.87109C17.5888 5.76543 18.2167 6.98782 18.662 8.43817C19.7917 8.58208 20.8651 8.77647 21.8684 9.01758H21.872Z" fill="#0D0D0E"/>
<path d="M14.3401 18.3835C15.5132 18.3667 16.6695 18.2999 17.7825 18.1826C18.075 17.0303 18.2577 15.7442 18.3008 14.3945H14.3398V18.387L14.3401 18.3835Z" fill="#0D0D0E"/>
<path d="M13.2229 23.2233V19.5123C12.1762 19.499 11.1395 19.4453 10.1328 19.3516C10.8571 21.4216 11.9704 22.8818 13.2229 23.2233Z" fill="#0D0D0E"/>
<path d="M13.2224 9.273C12.0493 9.28986 10.893 9.35667 9.78 9.4739C9.48749 10.6262 9.30484 11.9124 9.26172 13.262H13.2226V9.26953L13.2224 9.273Z" fill="#0D0D0E"/>
<path d="M4.40065 13.2657H8.14207C8.17522 11.9728 8.32818 10.7469 8.58057 9.625C7.31134 9.80587 6.11839 10.047 5.04175 10.3551C4.68295 11.266 4.46021 12.2443 4.40039 13.269L4.40065 13.2657Z" fill="#0D0D0E"/>
<path d="M13.2229 4.43359C11.9701 4.77189 10.8571 6.23559 10.1328 8.30531C11.1397 8.21159 12.1764 8.1614 13.2229 8.14455V4.43359Z" fill="#0D0D0E"/>
<path d="M13.2226 14.3902H9.26172C9.30161 15.7399 9.48441 17.026 9.78 18.1783C10.8933 18.2956 12.0493 18.3624 13.2224 18.3792V14.3867L13.2226 14.3902Z" fill="#0D0D0E"/>
<path d="M10.7196 4.87503C8.59627 5.61517 6.81524 7.09898 5.68555 9.02148C6.68891 8.7837 7.76555 8.58598 8.892 8.44207C9.34047 6.99196 9.96537 5.76933 10.7161 4.875L10.7196 4.87503Z" fill="#0D0D0E"/>
<path d="M10.72 22.7838C9.96907 21.8895 9.34117 20.6671 8.89592 19.2167C7.76947 19.0728 6.69282 18.8784 5.68945 18.6406C6.81588 20.5599 8.59667 22.047 10.72 22.7838Z" fill="#0D0D0E"/>
<path d="M5.04149 17.3044C6.11813 17.6093 7.31434 17.8537 8.58036 18.0313C8.32768 16.9091 8.17494 15.6833 8.14179 14.3906H4.40039C4.46019 15.412 4.68266 16.3935 5.04149 17.3044Z" fill="#0D0D0E"/>
</g>
<path d="M51.956 16.5199V25.5018H49.9556L49.4783 23.3709C48.1598 24.9748 45.8412 25.96 43.2953 25.96C36.4304 25.96 33.748 21.9273 33.748 17.3218C33.748 12.7163 36.5895 8.68359 43.2044 8.68359C48.1371 8.68359 51.2968 11.204 51.6605 14.4119H47.978C47.3642 12.1893 45.3184 11.2499 43.1134 11.2499C38.9081 11.2499 37.2942 13.839 37.2942 17.4364C37.2942 21.7899 40.0674 23.3938 42.9316 23.3938C46.4095 23.3938 48.0007 21.7899 48.5463 19.0861H43.9545V16.5199H51.956ZM54.3025 25.5018V8.8669H57.4394V25.5018H54.3025ZM62.1406 19.4298C62.1406 21.5378 63.2772 23.5312 66.3232 23.5312C69.3692 23.5312 70.5058 21.5378 70.5058 19.4298C70.5058 17.3218 69.3692 15.3284 66.3232 15.3284C63.2772 15.3284 62.1406 17.3218 62.1406 19.4298ZM58.8672 19.4298C58.8672 16.0845 60.9358 12.8996 66.3232 12.8996C71.7106 12.8996 73.779 16.0845 73.779 19.4298C73.779 22.7751 71.7106 25.96 66.3232 25.96C60.9358 25.96 58.8672 22.7751 58.8672 19.4298ZM82.1596 15.4659C79.2272 15.4659 78.1134 17.4593 78.1134 19.4756C78.1134 21.5378 79.2272 23.5312 82.1596 23.5312C85.1147 23.5312 86.2285 21.5378 86.2285 19.4756C86.2285 17.4593 85.1147 15.4659 82.1596 15.4659ZM75.1128 25.5018V8.8669H78.2498V15.0992H78.2952C79.2272 13.6328 81.023 13.0371 82.9097 13.0371C87.5015 13.0371 89.5018 16.4053 89.5018 19.4756C89.5018 22.5918 87.5015 25.96 82.9097 25.96C80.4093 25.96 78.5225 24.5623 78.2952 23.8291H78.2498V25.5018H75.1128ZM103.77 16.9781V22.7293C103.77 23.3938 104.247 23.4167 104.452 23.4167C104.747 23.4167 105.225 23.3938 105.475 23.3479V25.5705C104.861 25.6851 104.315 25.8455 103.247 25.8455C101.201 25.8455 100.974 24.7456 100.883 24.2874C100.269 24.8831 98.7462 25.96 95.2229 25.96C92.0859 25.96 90.3129 24.5394 90.3129 22.1565C90.3129 18.8112 93.7226 18.5133 95.723 18.33C100.224 17.8946 100.701 17.7342 100.701 16.7948C100.701 15.3971 99.1099 15.0534 97.2914 15.0534C95.2229 15.0534 94.109 15.7179 93.9954 17.0698H90.9266C91.3812 13.8849 93.7226 12.8996 97.2914 12.8996C103.588 12.8996 103.77 15.3971 103.77 16.9781ZM100.633 20.6213V19.4527C99.7237 19.8422 98.7463 19.9568 96.5186 20.2089C94.1545 20.4838 93.5862 21.0108 93.5862 22.0419C93.5862 23.6458 95.041 23.9437 96.1094 23.9437C97.7915 23.9437 100.633 23.3021 100.633 20.6213ZM106.25 25.5018V8.8669H109.387V25.5018H106.25ZM129.113 17.6197H125.839C125.612 16.3595 124.294 15.3284 122.498 15.3284C119.588 15.3284 118.315 17.3218 118.315 19.4298C118.315 21.5378 119.452 23.5312 122.157 23.5312C124.589 23.5312 125.248 22.5689 125.908 20.8504H129.181C128.454 25.8913 123.339 25.96 122.498 25.96C117.111 25.96 115.042 22.7751 115.042 19.4298C115.042 15.5117 117.838 12.8996 122.498 12.8996C124.316 12.8996 128.454 13.5182 129.113 17.6197ZM143.379 16.9781V22.7293C143.379 23.3938 143.856 23.4167 144.061 23.4167C144.356 23.4167 144.833 23.3938 145.083 23.3479V25.5705C144.47 25.6851 143.924 25.8455 142.856 25.8455C140.81 25.8455 140.583 24.7456 140.492 24.2874C139.878 24.8831 138.355 25.96 134.832 25.96C131.695 25.96 129.922 24.5394 129.922 22.1565C129.922 18.8112 133.331 18.5133 135.332 18.33C139.832 17.8946 140.31 17.7342 140.31 16.7948C140.31 15.3971 138.719 15.0534 136.9 15.0534C134.832 15.0534 133.718 15.7179 133.604 17.0698H130.535C130.99 13.8849 133.331 12.8996 136.9 12.8996C143.197 12.8996 143.379 15.3971 143.379 16.9781ZM140.242 20.6213V19.4527C139.332 19.8422 138.355 19.9568 136.127 20.2089C133.763 20.4838 133.195 21.0108 133.195 22.0419C133.195 23.6458 134.65 23.9437 135.718 23.9437C137.4 23.9437 140.242 23.3021 140.242 20.6213ZM145.768 25.5018V13.3579H148.905V15.7179H148.95C149.791 14.3431 151.087 13.0371 153.496 13.0371C153.974 13.0371 154.337 13.0829 154.747 13.1516V16.2678C153.883 15.9929 153.292 15.9699 152.746 15.9699C151.155 15.9699 148.905 16.8177 148.905 19.636V25.5018H145.768ZM162.655 15.4659C159.723 15.4659 158.609 17.4593 158.609 19.4756C158.609 21.5378 159.723 23.5312 162.655 23.5312C165.61 23.5312 166.724 21.5378 166.724 19.4756C166.724 17.4593 165.61 15.4659 162.655 15.4659ZM155.608 30.1302V13.3579H158.745V15.0992H158.791C159.723 13.6328 161.518 13.0371 163.405 13.0371C167.997 13.0371 169.997 16.4053 169.997 19.4756C169.997 22.5918 167.997 25.96 163.405 25.96C160.905 25.96 159.018 24.5623 158.791 23.8291H158.745V30.1302H155.608ZM184.265 16.9781V22.7293C184.265 23.3938 184.743 23.4167 184.947 23.4167C185.243 23.4167 185.72 23.3938 185.97 23.3479V25.5705C185.356 25.6851 184.811 25.8455 183.742 25.8455C181.697 25.8455 181.469 24.7456 181.378 24.2874C180.765 24.8831 179.242 25.96 175.718 25.96C172.581 25.96 170.808 24.5394 170.808 22.1565C170.808 18.8112 174.218 18.5133 176.218 18.33C180.719 17.8946 181.197 17.7342 181.197 16.7948C181.197 15.3971 179.605 15.0534 177.787 15.0534C175.718 15.0534 174.604 15.7179 174.491 17.0698H171.422C171.877 13.8849 174.218 12.8996 177.787 12.8996C184.083 12.8996 184.265 15.3971 184.265 16.9781ZM181.128 20.6213V19.4527C180.219 19.8422 179.242 19.9568 177.014 20.2089C174.65 20.4838 174.082 21.0108 174.082 22.0419C174.082 23.6458 175.536 23.9437 176.605 23.9437C178.287 23.9437 181.128 23.3021 181.128 20.6213ZM187.632 22.1106V15.6492H185.131V13.3579H187.632V9.60012H190.769V13.3579H194.042V15.6492H190.769V21.1941C190.769 22.5918 190.837 23.3479 191.905 23.3479C192.678 23.3479 193.406 23.325 194.156 23.3021V25.5934C193.315 25.708 192.701 25.7767 191.746 25.7767C187.927 25.7767 187.632 24.4019 187.632 22.1106ZM195.32 25.5018V13.3579H198.457V25.5018H195.32ZM195.32 11.4332V8.8669H198.457V11.4332H195.32ZM213.956 17.6197H210.682C210.455 16.3595 209.136 15.3284 207.341 15.3284C204.431 15.3284 203.158 17.3218 203.158 19.4298C203.158 21.5378 204.295 23.5312 207 23.5312C209.432 23.5312 210.091 22.5689 210.75 20.8504H214.024C213.296 25.8913 208.182 25.96 207.341 25.96C201.953 25.96 199.885 22.7751 199.885 19.4298C199.885 15.5117 202.681 12.8996 207.341 12.8996C209.159 12.8996 213.296 13.5182 213.956 17.6197ZM228.221 16.9781V22.7293C228.221 23.3938 228.699 23.4167 228.903 23.4167C229.199 23.4167 229.676 23.3938 229.926 23.3479V25.5705C229.313 25.6851 228.767 25.8455 227.699 25.8455C225.653 25.8455 225.425 24.7456 225.335 24.2874C224.721 24.8831 223.198 25.96 219.674 25.96C216.537 25.96 214.764 24.5394 214.764 22.1565C214.764 18.8112 218.174 18.5133 220.174 18.33C224.675 17.8946 225.153 17.7342 225.153 16.7948C225.153 15.3971 223.561 15.0534 221.743 15.0534C219.674 15.0534 218.561 15.7179 218.447 17.0698H215.378C215.833 13.8849 218.174 12.8996 221.743 12.8996C228.04 12.8996 228.221 15.3971 228.221 16.9781ZM225.084 20.6213V19.4527C224.175 19.8422 223.198 19.9568 220.97 20.2089C218.606 20.4838 218.038 21.0108 218.038 22.0419C218.038 23.6458 219.493 23.9437 220.561 23.9437C222.243 23.9437 225.084 23.3021 225.084 20.6213ZM236.027 21.6982H239.436C239.527 23.5312 241.619 23.8062 242.755 23.8062C244.324 23.8062 246.029 23.3938 246.029 22.2481C246.029 21.3087 245.506 20.9879 242.119 20.5296C238.391 20.0255 236.436 19.5902 236.436 16.8177C236.436 13.3579 240.437 12.8996 242.46 12.8996C244.324 12.8996 248.802 13.1745 248.984 17.0698H245.71C245.46 15.2596 243.369 15.0534 242.301 15.0534C240.528 15.0534 239.573 15.8095 239.573 16.4511C239.573 17.4364 239.868 17.5968 242.892 18.0321C246.847 18.6049 249.438 18.9945 249.438 21.8128C249.438 24.906 246.506 25.96 242.778 25.96C240.209 25.96 236.14 25.4101 236.027 21.6982ZM250.79 25.5018V8.8669H253.927V25.5018H250.79Z" fill="#0D0D0E"/>
</svg>
