<svg width="21" height="21" viewBox="0 0 21 21" fill="none" xmlns="http://www.w3.org/2000/svg">
<path d="M10.543 0.5C10.7346 0.5 10.9263 0.538905 11.1013 0.612825L18.9471 3.72136C19.8638 4.08318 20.5471 4.92742 20.5429 5.94674C20.5221 9.80615 18.8221 16.8675 11.6388 20.0772C10.943 20.3884 10.1346 20.3884 9.4388 20.0772C2.26382 16.8675 0.563821 9.80615 0.542988 5.94674C0.538821 4.92742 1.22215 4.08318 2.13882 3.72136L9.9888 0.612825C10.1596 0.538905 10.3513 0.5 10.543 0.5Z" fill="#F8F7F8"/>
<path d="M16.1846 6.5535C16.4687 6.81883 16.4687 7.24974 16.1846 7.51508L10.3648 12.9492C10.0806 13.2145 9.61911 13.2145 9.33494 12.9492L6.42504 10.2321C6.14087 9.9668 6.14087 9.53589 6.42504 9.27055C6.70921 9.00521 7.1707 9.00521 7.45487 9.27055L9.85099 11.5058L15.157 6.5535C15.4412 6.28816 15.9027 6.28816 16.1868 6.5535H16.1846Z" fill="black"/>
</svg>
