<svg xmlns="http://www.w3.org/2000/svg" width="24" height="22" viewBox="0 0 24 22"><g><g><path fill="#fff" d="M6.4 2.147c1.307 0 2.537.517 3.462 1.455l1.6 1.62a.773.773 0 0 0 1.066 0l1.6-1.62a4.847 4.847 0 0 1 3.464-1.455 4.84 4.84 0 0 1 3.464 1.454c1.917 1.943 1.917 5.104 0 7.048l-9.06 9.181-9.06-9.182c-1.918-1.942-1.918-5.104 0-7.047a4.84 4.84 0 0 1 3.463-1.454zm5.062 19.276a.746.746 0 0 0 1.068 0l9.594-9.72c2.491-2.524 2.491-6.63 0-9.155a6.324 6.324 0 0 0-4.532-1.9 6.325 6.325 0 0 0-4.53 1.9l-1.066 1.08-1.065-1.08a6.323 6.323 0 0 0-4.53-1.9 6.324 6.324 0 0 0-4.533 1.9c-2.49 2.524-2.49 6.631 0 9.153z"/></g></g></svg>