<svg width="13" height="14" viewBox="0 0 13 14" fill="none" xmlns="http://www.w3.org/2000/svg">
<g clip-path="url(#clip0_919_87829)">
<path d="M6.18799 13.4575C9.50205 13.4575 12.188 10.7716 12.188 7.45752C12.188 4.14346 9.50205 1.45752 6.18799 1.45752C2.87393 1.45752 0.187988 4.14346 0.187988 7.45752C0.187988 10.7716 2.87393 13.4575 6.18799 13.4575ZM8.83643 6.35596L5.83643 9.35596C5.61611 9.57627 5.25986 9.57627 5.04189 9.35596L3.54189 7.85596C3.32158 7.63564 3.32158 7.27939 3.54189 7.06143C3.76221 6.84346 4.11846 6.84111 4.33643 7.06143L5.43799 8.16299L8.03955 5.55908C8.25986 5.33877 8.61611 5.33877 8.83408 5.55908C9.05205 5.77939 9.05439 6.13564 8.83408 6.35361L8.83643 6.35596Z" fill="white"/>
</g>
<defs>
<clipPath id="clip0_919_87829">
<rect width="13" height="13" fill="white" transform="translate(0 0.992676)"/>
</clipPath>
</defs>
</svg>
