<svg width="66" height="59" viewBox="0 0 66 59" fill="none" xmlns="http://www.w3.org/2000/svg">
<path d="M52.2756 26.1178C52.6325 25.1365 52.9001 24.1552 52.9001 22.9955C52.9001 18.2673 49.0641 14.4313 44.3359 14.4313C42.5517 14.4313 40.8567 14.9666 39.5186 15.9479C37.1099 11.6658 32.4709 8.72184 27.2075 8.72184C19.2678 8.72184 12.9339 15.145 12.9339 22.9955C12.9339 23.2631 12.9339 23.5308 12.9339 23.7984C7.9381 25.4934 4.36969 30.3107 4.36969 35.8418C4.36969 42.9786 10.0791 48.6881 17.216 48.6881H50.0454C56.2901 48.6881 61.4643 43.6031 61.4643 37.2691C61.4643 31.8273 57.539 27.1884 52.2756 26.1178ZM39.7862 31.8273L38.8049 32.8086C38.002 33.6115 36.5746 33.6115 35.7717 32.7194L32.917 29.6863V40.8376C32.917 42.0865 31.9357 42.9786 30.7759 42.9786H29.3486C28.0996 42.9786 27.2075 42.0865 27.2075 40.8376V29.6863L24.2636 32.7194C23.4607 33.6115 22.0333 33.6115 21.2304 32.8086L20.2491 31.8273C19.357 30.9352 19.357 29.5971 20.2491 28.7942L28.5457 20.4976C29.3486 19.6947 30.6867 19.6947 31.4896 20.4976L39.7862 28.7942C40.6783 29.5971 40.6783 30.9352 39.7862 31.8273Z" fill="#F8F7F8"/>
</svg>
