<svg width="20" height="25" viewBox="0 0 20 25" fill="none" xmlns="http://www.w3.org/2000/svg">
<path d="M11.0089 0.939475C10.4509 0.353508 9.54464 0.353508 8.98661 0.939475L3.27232 6.93977C2.71429 7.52573 2.71429 8.47734 3.27232 9.06331C3.83036 9.64927 4.73661 9.64927 5.29464 9.06331L8.57143 5.62252V15.4996C8.57143 16.3293 9.20982 16.9996 10 16.9996C10.7902 16.9996 11.4286 16.3293 11.4286 15.4996V5.62252L14.7054 9.06331C15.2634 9.64927 16.1696 9.64927 16.7277 9.06331C17.2857 8.47734 17.2857 7.52573 16.7277 6.93977L11.0134 0.939475H11.0089ZM2.85714 16.9996C2.85714 16.1699 2.21875 15.4996 1.42857 15.4996C0.638393 15.4996 0 16.1699 0 16.9996V19.9998C0 22.4843 1.91964 24.5 4.28571 24.5H15.7143C18.0804 24.5 20 22.4843 20 19.9998V16.9996C20 16.1699 19.3616 15.4996 18.5714 15.4996C17.7812 15.4996 17.1429 16.1699 17.1429 16.9996V19.9998C17.1429 20.8295 16.5045 21.4999 15.7143 21.4999H4.28571C3.49554 21.4999 2.85714 20.8295 2.85714 19.9998V16.9996Z" fill="#005C46"/>
</svg>
