<svg width="21" height="21" viewBox="0 0 21 21" fill="none" xmlns="http://www.w3.org/2000/svg">
<path d="M0.5 1.02077C0.5 0.4968 0.874705 0.0752563 1.34046 0.0752563H2.93383C3.70426 0.0752563 4.38713 0.579533 4.7058 1.33595H19.0987C20.0197 1.33595 20.6921 2.32086 20.4504 3.32153L19.0146 9.32163C18.717 10.5587 17.7189 11.4215 16.5808 11.4215H6.47778L6.66688 12.5443C6.74392 12.9895 7.09061 13.3125 7.49333 13.3125H17.5894C18.0551 13.3125 18.4298 13.7341 18.4298 14.258C18.4298 14.782 18.0551 15.2035 17.5894 15.2035H7.49333C6.28167 15.2035 5.2416 14.2344 5.01748 12.8988L3.21049 2.22237C3.18597 2.07266 3.07041 1.96629 2.93383 1.96629H1.34046C0.874705 1.96629 0.5 1.54475 0.5 1.02077ZM4.98246 18.3553C4.98246 18.1069 5.02593 17.861 5.11041 17.6316C5.19488 17.4022 5.3187 17.1937 5.47479 17.0181C5.63087 16.8425 5.81618 16.7032 6.02012 16.6082C6.22406 16.5131 6.44264 16.4642 6.66338 16.4642C6.88412 16.4642 7.1027 16.5131 7.30664 16.6082C7.51058 16.7032 7.69588 16.8425 7.85197 17.0181C8.00806 17.1937 8.13187 17.4022 8.21635 17.6316C8.30082 17.861 8.3443 18.1069 8.3443 18.3553C8.3443 18.6036 8.30082 18.8495 8.21635 19.0789C8.13187 19.3084 8.00806 19.5168 7.85197 19.6924C7.69588 19.868 7.51058 20.0073 7.30664 20.1024C7.1027 20.1974 6.88412 20.2463 6.66338 20.2463C6.44264 20.2463 6.22406 20.1974 6.02012 20.1024C5.81618 20.0073 5.63087 19.868 5.47479 19.6924C5.3187 19.5168 5.19488 19.3084 5.11041 19.0789C5.02593 18.8495 4.98246 18.6036 4.98246 18.3553ZM16.7489 16.4642C17.1947 16.4642 17.6223 16.6635 17.9375 17.0181C18.2527 17.3727 18.4298 17.8537 18.4298 18.3553C18.4298 18.8568 18.2527 19.3378 17.9375 19.6924C17.6223 20.0471 17.1947 20.2463 16.7489 20.2463C16.3031 20.2463 15.8755 20.0471 15.5603 19.6924C15.2451 19.3378 15.068 18.8568 15.068 18.3553C15.068 17.8537 15.2451 17.3727 15.5603 17.0181C15.8755 16.6635 16.3031 16.4642 16.7489 16.4642Z" fill="#F8F7F8"/>
</svg>
