<svg width="30" height="29" viewBox="0 0 30 29" fill="none" xmlns="http://www.w3.org/2000/svg">
<path opacity="0.4" d="M15.2782 28.6483C23.1801 28.6483 29.5858 22.2426 29.5858 14.3407C29.5858 6.4389 23.1801 0.0332031 15.2782 0.0332031C7.3764 0.0332031 0.970703 6.4389 0.970703 14.3407C0.970703 22.2426 7.3764 28.6483 15.2782 28.6483Z" fill="black"/>
<path d="M10.7783 8.65332V20.6764C10.7783 21.0428 11.0338 21.3408 11.3479 21.3408C11.465 21.3408 11.5799 21.2998 11.676 21.2205L15.2783 18.2783L18.8807 21.2205C18.9768 21.2998 19.0916 21.3408 19.2088 21.3408C19.5229 21.3408 19.7783 21.0428 19.7783 20.6764V8.65332C19.7783 7.92871 19.2744 7.34082 18.6533 7.34082H11.9033C11.2822 7.34082 10.7783 7.92871 10.7783 8.65332Z" fill="white"/>
</svg>
