<svg width="24" height="24" viewBox="0 0 24 24" fill="none" xmlns="http://www.w3.org/2000/svg">
<rect width="24" height="24" rx="12" fill="#24182F"/>
<path d="M10.0409 5L10.5746 6.85213H13.6023L14.1361 5H10.0409ZM10.735 7.40535L10.7359 7.40905H10.0255C9.29471 7.40905 9.3344 8.75882 10.0255 8.75882H10.6706V10.5073C8.60058 11.093 7.09375 12.9329 7.09375 15.1191C7.09375 16.7094 7.8922 18.1224 9.12699 19H15.0423C16.2772 18.1224 17.0937 16.7094 17.0937 15.1191C17.0938 13.4985 16.2588 12.0686 14.9819 11.1984L14.9799 11.1965C13.2815 10.3322 11.0319 11.0693 9.92572 12.9108C8.97266 14.4972 9.40119 16.4354 10.8031 17.2209C11.781 17.7689 13.1594 17.5038 13.781 16.4096C13.924 16.1577 13.9468 15.7805 13.8424 15.4151C13.738 15.0497 13.5103 14.7079 13.2347 14.5205C12.8819 14.2806 12.1652 14.2833 11.7602 14.5603L11.428 14.1088C12.0583 13.6778 12.9593 13.6557 13.5659 14.0681V14.069C13.9802 14.3508 14.2602 14.7961 14.3953 15.2689C14.5304 15.7418 14.5245 16.2535 14.2849 16.6751C13.51 18.0392 11.7664 18.4004 10.5151 17.6992C8.806 16.7416 8.33665 14.4523 9.42936 12.6332C10.028 11.6367 10.9365 10.9184 11.9406 10.5544H13.5064V8.75885H14.1035C14.9012 8.75885 14.854 7.40905 14.1035 7.40905H13.4411L13.4421 7.40535H10.735Z" fill="url(#paint0_linear_48_237)"/>
<defs>
<linearGradient id="paint0_linear_48_237" x1="12.0938" y1="5" x2="12.0938" y2="19" gradientUnits="userSpaceOnUse">
<stop stop-color="#FFB986" stop-opacity="0.89"/>
<stop offset="1" stop-color="#71AFE8"/>
</linearGradient>
</defs>
</svg>
