<svg xmlns="http://www.w3.org/2000/svg" width="83" height="60" viewBox="0 0 83 60"><g><g><g><path fill="#fadca9" d="M75.167 59.408H7.62C3.46 59.408 0 56.045 0 51.786V7.622C0 3.46 3.363.001 7.621.001h67.546c4.163 0 7.621 3.362 7.621 7.621v44.164c0 4.163-3.363 7.622-7.621 7.622z"/></g><g><path fill="#ffc85a" d="M75.167 0H41.394v59.408h33.773c4.258 0 7.621-3.459 7.621-7.622V7.622c0-4.259-3.458-7.621-7.621-7.621z"/></g><g><path fill="#ff9355" d="M25.807 33.774a6.502 6.502 0 0 1-6.495-6.495 6.502 6.502 0 0 1 6.495-6.495 6.502 6.502 0 0 1 6.494 6.495 6.502 6.502 0 0 1-6.494 6.495z"/></g><g><path fill="#48b658" d="M36.198 49.016H15.415a2.426 2.426 0 0 1-2.426-2.425c0-7.068 5.75-12.817 12.818-12.817 7.067 0 12.817 5.75 12.817 12.817a2.426 2.426 0 0 1-2.426 2.425z"/></g><g><path fill="#0a0400" d="M67.373 28.233H49.188a2.425 2.425 0 0 1 0-4.851h18.185a2.425 2.425 0 0 1 0 4.85z"/></g><g><path fill="#352e2f" d="M67.373 15.243H15.415a2.425 2.425 0 0 1 0-4.85h51.958a2.425 2.425 0 0 1 0 4.85z"/></g><g><g><path fill="#0a0400" d="M67.373 38.624H49.188a2.425 2.425 0 0 1 0-4.85h18.185a2.425 2.425 0 0 1 0 4.85z"/></g><g><path fill="#0a0400" d="M62.177 49.016h-12.99a2.425 2.425 0 0 1 0-4.85h12.99a2.426 2.426 0 0 1 0 4.85z"/></g><g><path fill="#0a0400" d="M69.799 12.818a2.425 2.425 0 0 0-2.426-2.426H41.394v4.851h25.98a2.425 2.425 0 0 0 2.425-2.425z"/></g></g></g></g></svg>