<svg width="323" height="35" viewBox="0 0 323 35" fill="none" xmlns="http://www.w3.org/2000/svg">
<path d="M25.936 33.9021C24.6089 32.4944 22.4252 31.6108 20.6144 31.0162C20.7521 29.5984 20.1608 27.8414 18.4071 26.5681C17.9554 26.249 17.4841 25.9584 16.9961 25.698C17.0419 26.5933 17.2998 27.465 17.7486 28.2412C18.2223 28.9971 19.6905 30.351 20.3456 30.9288C19.247 30.5761 18.2123 30.2871 17.0364 29.9411C17.0202 29.4608 16.9435 28.9844 16.808 28.5234C16.6991 28.0792 16.546 27.647 16.3511 27.2333C15.9992 26.6361 15.5508 26.1014 15.024 25.6509C14.6628 25.3384 14.2848 25.0456 13.8919 24.7741C13.7877 26.3329 14.1035 27.8178 16.7441 29.8538C15.6422 29.5178 14.5739 29.1818 13.4954 28.7753C13.4851 27.233 12.9994 25.7313 12.1046 24.4751C11.8541 24.146 11.5873 23.8298 11.305 23.5277C10.6331 25.5434 11.6611 27.3542 13.1998 28.6611C12.1432 28.2492 11.1247 27.7456 10.156 27.156C10.3912 26.0205 10.2937 23.8468 9.26571 21.7807C7.9622 23.6822 8.94656 25.8962 9.88724 26.9712C8.9458 26.3703 8.0835 25.6536 7.32052 24.8379L7.29029 24.801C7.62625 24.0484 8.40231 21.5153 7.6968 19.392C6.35296 20.6888 6.25553 22.5736 6.90393 24.1895C6.94975 24.3247 7.00361 24.4571 7.06519 24.5859C6.31771 23.7323 5.68315 22.7861 5.17711 21.7706C5.75746 21.0384 6.18125 20.1949 6.42223 19.2922C6.66321 18.3895 6.71625 17.447 6.57805 16.5229C4.9285 17.6014 4.6463 19.9296 5.06289 21.4951C4.56745 20.4643 4.16386 19.3918 3.8568 18.2901C5.38205 16.785 6.04724 15.0246 6.04724 13.4557C4.76388 13.9831 4.07181 15.2665 3.84672 16.6036C3.75709 17.0786 3.73897 17.5644 3.79297 18.0448C3.49548 16.9267 3.30646 15.7825 3.22855 14.6281C3.46036 14.4501 3.85679 14.057 4.23642 13.6673C5.23661 12.7866 5.90034 11.5862 6.11444 10.2708C4.80084 10.5597 3.94078 11.702 3.49396 12.9584C3.31435 13.4579 3.21678 13.9832 3.20504 14.5139C3.1748 13.9999 3.16136 13.506 3.16808 13.0122C3.23175 10.4766 3.75066 7.97311 4.70005 5.62112C4.74036 5.51025 4.77732 5.4229 4.80756 5.35571C4.94866 5.20117 5.17711 4.89881 5.42235 4.56621C5.75831 4.12275 6.11444 3.62889 6.31265 3.30637C6.91353 2.304 7.36617 1.21993 7.65648 0.0878906C6.68119 0.73385 5.89969 1.63263 5.39548 2.68821C5.17708 3.18285 5.00173 3.6954 4.87139 4.22017C4.77603 4.57462 4.71085 4.93651 4.67654 5.30196C4.6463 5.37251 4.60598 5.46994 4.55895 5.59088C4.3305 6.14857 4.06173 6.90111 3.84672 7.63014C3.87696 7.41513 3.95086 6.77009 4.05165 6.04778C4.1054 5.64799 4.16923 5.22468 4.21627 4.83161C4.26224 4.49761 4.28582 4.1609 4.28683 3.82374C4.23627 2.96578 4.08517 2.11671 3.83664 1.29398C3.25544 2.39592 2.79853 3.59865 2.95307 4.94584C3.0337 5.69166 3.32262 7.143 3.82992 7.68053C3.50031 8.81462 3.26656 9.9744 3.13113 11.1476C2.87244 7.526 3.13113 7.39498 1.9452 4.92904C0.826459 8.33902 2.47601 10.8654 3.11097 11.3122C2.97692 12.4843 2.95105 13.6663 3.0337 14.8432C2.04262 11.5004 2.36178 11.282 0.608083 8.95382C0.141101 12.4075 1.93512 14.6248 3.05722 15.1153C3.15682 16.2514 3.36036 17.3759 3.6653 18.4749C1.98551 15.4512 2.261 15.1455 0 13.207C0.231811 17.1142 2.93628 18.6428 3.76273 18.8108C4.08286 19.8876 4.49421 20.9351 4.99233 21.9419C4.76388 21.6833 4.44473 21.3137 4.10877 20.9072C4.03486 20.8198 3.96094 20.7325 3.89039 20.6418C2.74813 19.2576 2.48273 18.7335 0.231812 17.5711C1.27664 21.0416 3.85007 22.3317 5.18383 22.3115C5.70363 23.2909 6.34353 24.2016 7.08871 25.0227L7.00472 24.9723L6.52094 24.6598C6.34625 24.5423 6.15475 24.418 5.96661 24.2802C4.16252 23.0271 4.09533 22.5097 1.33375 21.821C2.5936 24.1156 4.49512 25.7047 7.06856 25.4426L7.26004 25.4124L7.42131 25.3687C8.189 26.1468 9.04605 26.8313 9.97459 27.408C9.78981 27.3609 9.22204 27.203 8.69794 27.0317C6.45374 26.2993 6.34624 25.9365 3.38981 25.9231C6.26897 29.0643 9.43706 28.3386 10.4248 27.6835C11.3527 28.2194 12.3209 28.6822 13.3207 29.0676C9.59495 28.8526 9.46394 28.4931 6.61837 29.4472C10.408 31.6511 13.4114 29.7127 13.8549 29.2759C14.8426 29.6421 15.8337 29.9478 16.8416 30.2636C16.0924 30.2972 13.65 30.4148 12.9243 30.6298C12.0472 30.9314 11.223 31.369 10.4819 31.9266C11.103 32.1192 11.7426 32.2464 12.3901 32.3063C14.678 32.4877 16.9995 30.9423 17.4295 30.4383C18.3265 30.7071 19.4083 31.0229 20.3758 31.3454C16.5022 31.4764 15.6187 32.2525 14.3622 33.5728C14.9613 33.6642 15.5672 33.7025 16.173 33.687C18.1048 33.6098 20.5405 32.0408 20.9907 31.5571C23.9773 32.622 25.1498 33.6232 26.03 34.6714C26.0123 34.4135 25.9809 34.1567 25.936 33.9021Z" fill="#005C46"/>
<path d="M3.33936 10.9126C5.73473 9.52507 6.48728 8.17116 6.793 7.0625C4.98891 7.18344 3.64172 9.11184 3.33936 10.9126Z" fill="#005C46"/>
<path d="M5.69465 4.83554C5.40061 5.09524 5.1379 5.38839 4.91186 5.70903C4.58706 6.19372 4.32728 6.71894 4.13916 7.27123C4.30378 7.19396 6.21538 6.2096 6.61853 5.85013C7.18904 5.30206 7.65269 4.65271 7.98587 3.93517C7.56236 3.91783 7.13989 3.98894 6.7454 4.14396C6.3509 4.29898 5.99305 4.53452 5.69465 4.83554Z" fill="#005C46"/>
<path d="M21.5349 33.9021C22.8788 32.4944 25.049 31.6108 26.8565 31.0162C26.7221 29.5985 27.3134 27.8414 29.0637 26.5681C29.5161 26.2481 29.9885 25.9574 30.4781 25.698C30.4293 26.5933 30.1703 27.4645 29.7222 28.2412C29.2485 28.9971 27.7804 30.351 27.1286 30.9288C28.2272 30.5761 29.262 30.2872 30.4378 29.9411C30.4521 29.4606 30.5289 28.9841 30.6663 28.5234C30.7751 28.0792 30.9282 27.647 31.1232 27.2333C31.474 26.6354 31.9225 26.1005 32.4502 25.6509C32.8104 25.3386 33.1873 25.0459 33.579 24.7741C33.6832 26.3329 33.3674 27.8179 30.7301 29.8538C31.832 29.5178 32.9004 29.1819 33.9754 28.7754C33.9877 27.2333 34.4732 25.7322 35.3663 24.4751C35.7023 24.0518 35.9811 23.7326 36.1659 23.5277C36.8378 25.5434 35.8131 27.3542 34.2744 28.6611C35.3296 28.2485 36.347 27.7449 37.3149 27.156C37.0831 26.0205 37.1771 23.8468 38.2085 21.7807C39.512 23.6822 38.5277 25.8962 37.587 26.9713C38.5274 26.3703 39.3886 25.6535 40.1504 24.8379L40.1839 24.801C39.848 24.0484 39.0686 21.5153 39.7774 19.3921C41.1213 20.6888 41.2187 22.5736 40.5703 24.1895C40.5194 24.3182 40.461 24.4439 40.3956 24.5658C41.143 23.7129 41.7766 22.7665 42.2803 21.7505C41.7054 21.0195 41.286 20.1787 41.048 19.2798C40.81 18.3808 40.7583 17.4426 40.8962 16.523C42.5457 17.6014 42.8279 19.9296 42.408 21.4951C42.9034 20.4643 43.307 19.3918 43.6141 18.2901C42.0922 16.785 41.427 15.0246 41.427 13.4557C42.707 13.9831 43.3991 15.2665 43.6275 16.6036C43.7171 17.0787 43.7353 17.5644 43.6813 18.0449C43.9771 16.9264 44.1661 15.7824 44.2457 14.6282C43.8932 14.3257 43.5568 14.0049 43.2378 13.6673C42.2252 12.7941 41.5511 11.5933 41.3329 10.2742C42.6432 10.5631 43.5066 11.7053 43.9534 12.9618C44.1319 13.4615 44.2283 13.9868 44.239 14.5173C44.2726 14.0033 44.286 13.5094 44.2759 13.0156C44.2133 10.4802 43.6955 7.97671 42.7473 5.6245L42.6398 5.35909C42.4953 5.20455 42.2702 4.90219 42.0216 4.56959C41.6857 4.12612 41.3497 3.63227 41.1347 3.30975C40.5304 2.29792 40.0766 1.20355 39.7875 0.0610352C40.7645 0.70506 41.5465 1.60436 42.0485 2.66135C42.2685 3.15536 42.4439 3.66806 42.5726 4.19332C42.6713 4.54702 42.7365 4.9092 42.7675 5.2751C42.7977 5.34565 42.8414 5.44308 42.8884 5.56403C43.1135 6.12172 43.3856 6.87426 43.6006 7.60329C43.5704 7.38827 43.4931 6.74324 43.3923 6.02093C43.3386 5.62114 43.2781 5.19783 43.2311 4.80476C43.1842 4.4708 43.1595 4.13411 43.1572 3.79688C43.211 2.93931 43.3621 2.09063 43.6074 1.26712C44.1919 2.36906 44.6488 3.5718 44.4943 4.91899C44.4137 5.66481 44.1247 7.11615 43.6141 7.65368C43.9615 8.79484 44.2099 9.96382 44.3565 11.1476C44.6186 7.52602 44.3565 7.395 45.5425 4.92907C46.6646 8.33904 45.0117 10.8654 44.3767 11.3123C44.5051 12.4725 44.5276 13.642 44.4439 14.8062C45.4518 11.4634 45.1158 11.2451 46.8729 8.91688C47.3398 12.3705 45.529 14.5879 44.4237 15.0784C44.323 16.2145 44.1183 17.3391 43.8123 18.4379C45.5089 15.4143 45.22 15.1086 47.4809 13.1701C47.2458 17.0773 44.5447 18.6059 43.7149 18.7739C43.3962 19.8512 42.9848 20.8988 42.4853 21.905C42.7137 21.6463 43.0329 21.2768 43.3722 20.8703L43.5906 20.6049C44.7328 19.2207 44.9982 18.6966 47.2458 17.5342C46.2043 21.0047 43.6309 22.2947 42.2971 22.2746C41.7761 23.254 41.1351 24.1648 40.3889 24.9857L40.4729 24.9354C40.6207 24.8446 40.782 24.7371 40.96 24.6229C41.1381 24.5087 41.3262 24.381 41.5143 24.2433C43.3184 22.9902 43.3856 22.4728 46.1472 21.7841C44.8874 24.0787 42.9858 25.6677 40.4124 25.4057L40.2209 25.3755L40.0596 25.3318C39.2914 26.1107 38.4332 26.7952 37.503 27.371C37.6911 27.324 38.2589 27.1661 38.783 26.9948C41.0272 26.2624 41.1347 25.8995 44.0911 25.8861C41.2086 29.0273 38.0439 28.3016 37.036 27.6465C36.1093 28.1824 35.1422 28.6452 34.1434 29.0307C37.8692 28.8157 37.9969 28.4562 40.8424 29.4103C37.0528 31.6142 34.0527 29.6757 33.6093 29.239C32.6215 29.6052 31.6271 29.9109 30.6192 30.2267C31.3718 30.2603 33.8142 30.3779 34.5399 30.5929C35.4166 30.8951 36.2407 31.3327 36.9823 31.8897C36.361 32.0818 35.7215 32.2091 35.074 32.2693C32.7862 32.4507 30.4647 30.9053 30.0347 30.4014C29.1377 30.6702 28.0592 30.986 27.0917 31.3085C30.9619 31.4395 31.8488 32.2156 33.102 33.5359C32.504 33.6275 31.8992 33.6657 31.2945 33.6501C29.3627 33.5728 26.9271 32.0039 26.4769 31.5201C23.4902 32.5851 22.3143 33.5863 21.4375 34.6345C21.4561 34.3887 21.4886 34.1442 21.5349 33.9021Z" fill="#005C46"/>
<path d="M44.1348 10.9126C41.7394 9.52507 40.9869 8.17116 40.6812 7.0625C42.4852 7.18344 43.8324 9.11184 44.1348 10.9126Z" fill="#005C46"/>
<path d="M41.7795 4.83556C42.0732 5.09456 42.3349 5.38781 42.5589 5.70904C42.8863 6.19274 43.1473 6.71816 43.3349 7.27125C43.1703 7.19398 41.2587 6.20962 40.8556 5.85015C40.2839 5.30236 39.819 4.653 39.4849 3.93519C39.9089 3.91779 40.3319 3.98886 40.7269 4.14387C41.122 4.29888 41.4804 4.53444 41.7795 4.83556Z" fill="#005C46"/>
<path d="M11.5809 9.53868C11.8526 9.98473 12.2483 10.342 12.7198 10.5667C12.7731 10.5919 12.8209 10.6274 12.8604 10.6711C12.9 10.7149 12.9305 10.766 12.9501 10.8216C12.9698 10.8772 12.9783 10.9362 12.9751 10.995C12.9719 11.0539 12.957 11.1116 12.9314 11.1647C12.8792 11.2712 12.7873 11.3529 12.6756 11.3925C12.5638 11.432 12.441 11.4263 12.3334 11.3764C12.154 11.2887 11.982 11.1865 11.8194 11.0706C12.0613 11.7793 12.5188 12.3945 13.1279 12.8301C13.737 13.2657 14.4671 13.4998 15.2159 13.4996H15.2428C15.2243 13.2525 15.2243 13.0043 15.2428 12.7572C15.3417 11.6113 15.8692 10.5448 16.7199 9.77072C17.5705 8.99664 18.6819 8.57186 19.832 8.5812H22.3853C22.4468 8.58446 22.5083 8.57497 22.5659 8.55334C22.6235 8.53171 22.6761 8.4984 22.7203 8.4555C22.7644 8.41259 22.7992 8.36103 22.8225 8.30403C22.8458 8.24704 22.8571 8.18585 22.8556 8.1243C22.8556 7.76789 22.9972 7.42608 23.2492 7.17406C23.5012 6.92204 23.843 6.78046 24.1994 6.78046H25.5433C25.6555 6.79019 25.7601 6.84165 25.8362 6.92469C25.9124 7.00772 25.9546 7.1163 25.9546 7.22897C25.9546 7.34164 25.9124 7.45021 25.8362 7.53325C25.7601 7.61628 25.6555 7.66775 25.5433 7.67747H24.1994C24.0809 7.67747 23.9673 7.72455 23.8835 7.80835C23.7997 7.89214 23.7526 8.00579 23.7526 8.1243C23.7526 8.4807 23.611 8.82251 23.359 9.07453C23.107 9.32655 22.7652 9.46813 22.4088 9.46813H19.832C18.9054 9.45726 18.0091 9.79775 17.3235 10.4211C16.6378 11.0444 16.2137 11.9043 16.1365 12.8277C16.1137 13.1656 16.1397 13.5051 16.2137 13.8356C16.2339 13.9263 16.254 14.0103 16.2809 14.0943C16.285 14.1115 16.2906 14.1284 16.2977 14.1447C16.3246 14.2354 16.3548 14.3194 16.3884 14.4033V14.4302C16.5994 14.9377 16.9238 15.3902 17.3367 15.753C17.7495 16.1158 18.24 16.3792 18.7704 16.5232H18.804C18.888 16.5434 18.9686 16.5636 19.0526 16.577L19.1802 16.5972C19.2414 16.6081 19.3031 16.6159 19.365 16.6207C19.4759 16.6207 19.5901 16.6408 19.701 16.6408C20.2605 16.6389 20.8118 16.5064 21.311 16.2538C21.8103 16.0013 22.2437 15.6357 22.5768 15.1861C22.3639 15.0512 22.1597 14.9031 21.9653 14.7427C21.8744 14.6662 21.8174 14.5569 21.8067 14.4386C21.796 14.3203 21.8325 14.2026 21.9082 14.1111C21.9455 14.0653 21.9916 14.0274 22.0438 13.9997C22.096 13.972 22.1532 13.9549 22.212 13.9496C22.2708 13.9443 22.3301 13.9508 22.3864 13.9687C22.4427 13.9866 22.4949 14.0156 22.5398 14.0539C23.1521 14.562 23.8695 14.9278 24.6404 15.1249C25.4112 15.322 26.2161 15.3456 26.9971 15.1939C27.7781 15.0422 28.5157 14.719 29.1567 14.2476C29.7977 13.7763 30.326 13.1685 30.7036 12.4682C30.4631 12.1418 30.2791 11.7772 30.1593 11.3898C30.1429 11.3333 30.1378 11.2742 30.1443 11.2157C30.1507 11.1573 30.1687 11.1007 30.1971 11.0492C30.2255 10.9977 30.2638 10.9523 30.3098 10.9156C30.3558 10.8789 30.4085 10.8517 30.4651 10.8355C30.5211 10.8185 30.5799 10.8127 30.6382 10.8185C30.6965 10.8244 30.753 10.8417 30.8045 10.8695C30.8561 10.8973 30.9016 10.935 30.9385 10.9805C30.9753 11.026 31.0028 11.0783 31.0194 11.1345C31.1467 11.5611 31.378 11.9493 31.6925 12.2644C32.0069 12.5795 32.3948 12.8116 32.8211 12.9397C33.2474 13.0679 33.6989 13.0882 34.135 12.9987C34.5711 12.9092 34.9781 12.7128 35.3195 12.4271C35.661 12.1414 35.9261 11.7754 36.0911 11.362C36.2561 10.9485 36.3158 10.5005 36.2648 10.0583C36.2139 9.61601 36.0539 9.19334 35.7992 8.82821C35.5445 8.46309 35.2031 8.16695 34.8056 7.96639C34.7479 8.22796 34.6716 8.48507 34.5772 8.73574C34.5326 8.84667 34.4458 8.93536 34.3359 8.9823C34.226 9.02923 34.1019 9.03058 33.9909 8.98603C33.88 8.94148 33.7913 8.85469 33.7444 8.74474C33.6974 8.6348 33.6961 8.51071 33.7407 8.39978C33.8827 8.03874 33.9754 7.66016 34.0161 7.27432C34.0161 7.21049 34.0161 7.15337 34.0161 7.0929C34.0161 7.03243 34.0161 6.87789 34.0161 6.75694C34.0167 5.80961 33.7163 4.88658 33.1584 4.12095C32.6005 3.35533 31.8138 2.78668 30.9119 2.497C31.0533 2.71107 31.1779 2.9357 31.2848 3.16892C31.3222 3.24052 31.3391 3.32102 31.3338 3.40161C31.3285 3.4822 31.301 3.55977 31.2546 3.62582C31.209 3.69249 31.1462 3.74555 31.0728 3.77937C30.9995 3.81319 30.9184 3.82649 30.8381 3.81788C30.7578 3.80926 30.6813 3.77905 30.6168 3.73044C30.5523 3.68183 30.5022 3.61665 30.4718 3.54183C30.0013 2.52557 29.1686 1.72136 28.1366 1.28644C27.1046 0.851522 25.9475 0.817178 24.8915 1.19013C24.5608 1.30284 24.245 1.45513 23.9508 1.64367C23.9016 1.6808 23.8452 1.70739 23.7852 1.72182C23.7252 1.73624 23.6629 1.73818 23.6021 1.72751C23.5414 1.71685 23.4834 1.6938 23.4319 1.65981C23.3804 1.62582 23.3365 1.58162 23.3028 1.52993C23.2691 1.47824 23.2464 1.42018 23.2361 1.35935C23.2258 1.29852 23.2281 1.23622 23.2429 1.17632C23.2576 1.11641 23.2846 1.06019 23.322 1.01113C23.3594 0.962065 23.4065 0.92122 23.4603 0.891123L23.6686 0.766821C23.2016 0.545027 22.6863 0.44446 22.1702 0.474406C21.654 0.504351 21.1538 0.663843 20.7156 0.938157C20.9228 1.12289 21.1087 1.33024 21.2699 1.55632C21.3169 1.6212 21.3457 1.69743 21.3534 1.77716C21.361 1.85689 21.3473 1.93722 21.3136 2.00986C21.2807 2.0821 21.2291 2.1442 21.1641 2.1897C21.0991 2.23521 21.0231 2.26244 20.944 2.26855C20.8642 2.27492 20.7842 2.25992 20.7122 2.22508C20.6401 2.19024 20.5787 2.13682 20.5341 2.07033C20.3238 1.76793 20.0526 1.51276 19.7379 1.32115C19.1749 0.971084 18.5017 0.843216 17.8496 0.962466C17.1974 1.08172 16.6131 1.43954 16.2104 1.96619C16.3871 2.0191 16.56 2.08421 16.7277 2.16104C16.8004 2.19409 16.8632 2.2456 16.9097 2.31043C16.9563 2.37527 16.985 2.45118 16.9931 2.5306C16.9989 2.61015 16.9836 2.68982 16.9487 2.76156C16.9139 2.8333 16.8607 2.89458 16.7946 2.93922C16.7285 2.98385 16.6518 3.01027 16.5722 3.01579C16.4927 3.02132 16.413 3.00577 16.3414 2.9707C15.9829 2.80136 15.5915 2.71341 15.195 2.71317C14.7986 2.71292 14.407 2.80038 14.0483 2.96928C13.6897 3.13818 13.3728 3.38433 13.1205 3.69009C12.8681 3.99585 12.6865 4.35365 12.5887 4.73784C12.829 4.64432 13.0793 4.57893 13.3346 4.54298C13.3928 4.53482 13.4521 4.53821 13.509 4.55296C13.5659 4.5677 13.6194 4.59352 13.6663 4.62893C13.7133 4.66433 13.7528 4.70864 13.7826 4.75932C13.8125 4.81 13.832 4.86606 13.8402 4.9243C13.8484 4.98254 13.845 5.0418 13.8302 5.09873C13.8155 5.15566 13.7897 5.20913 13.7543 5.25608C13.7188 5.30303 13.6745 5.34255 13.6238 5.37237C13.5732 5.4022 13.5171 5.42175 13.4589 5.42991C13.0495 5.48764 12.6594 5.64069 12.32 5.87674C11.7588 6.26671 11.3672 6.8558 11.2249 7.5242C11.0826 8.19261 11.2003 8.89011 11.554 9.47484L11.5809 9.53868Z" fill="#005C46"/>
<path d="M30.2462 17.9981C32.5979 17.9981 34.5062 16.4896 34.5062 14.6385C34.5035 14.3802 34.4651 14.1236 34.392 13.8759C33.8672 13.9945 33.3223 13.9923 32.7985 13.8695C32.2748 13.7467 31.7857 13.5065 31.3683 13.167C30.8526 14.0211 30.1415 14.7406 29.2934 15.2663C28.4454 15.7919 27.4846 16.1087 26.4902 16.1906C27.1395 17.1007 28.1227 17.7167 29.2249 17.904C29.5613 17.9698 29.9035 18.0013 30.2462 17.9981Z" fill="#005C46"/>
<path d="M25.4388 16.1875C24.8085 16.1304 24.1903 15.9798 23.6044 15.7407C23.5889 15.7442 23.5729 15.7442 23.5574 15.7407C23.5104 15.7239 23.4667 15.7004 23.423 15.6802L23.3659 15.6567C23.2124 15.8778 23.0368 16.0827 22.8418 16.2682C22.8531 16.617 22.9997 16.9477 23.2505 17.1903C23.5013 17.433 23.8367 17.5685 24.1856 17.5683C24.384 17.5642 24.5809 17.6029 24.7629 17.6818C24.9449 17.7606 25.1078 17.8778 25.2405 18.0252L27.8341 20.9951C27.879 21.0453 27.9339 21.0855 27.9952 21.1133C28.0565 21.1411 28.1229 21.1557 28.1903 21.1564C28.2529 21.1568 28.315 21.1449 28.3731 21.1213C28.4311 21.0978 28.484 21.063 28.5286 21.019C28.5732 20.975 28.6087 20.9227 28.6331 20.865C28.6575 20.8073 28.6702 20.7453 28.6707 20.6827V18.7005C27.9816 18.5419 27.3355 18.2349 26.7773 17.8008C26.2191 17.3668 25.7623 16.8163 25.4388 16.1875Z" fill="#005C46"/>
<path d="M203.18 26.9819L205.154 8.16406H208.458L206.479 26.9819H203.18Z" fill="#005C46"/>
<path d="M209.205 26.9819L210.612 13.5405H213.726L213.589 14.8601C214.782 13.8459 215.927 13.3388 217.025 13.3388C217.379 13.3281 217.73 13.4149 218.039 13.5896C218.304 13.7391 218.516 13.9679 218.644 14.2439C218.776 14.541 218.865 14.8547 218.911 15.1764C218.933 15.339 218.944 15.503 218.944 15.6671C218.942 15.8497 218.928 16.0319 218.9 16.2124L217.766 26.9819H214.652L215.699 16.9377C215.707 16.8124 215.707 16.6867 215.699 16.5614C215.706 16.3742 215.671 16.1879 215.596 16.0161C215.498 15.8035 215.274 15.6999 214.914 15.6999C214.362 15.7605 213.839 15.9802 213.409 16.3324L212.313 26.9819H209.205Z" fill="#005C46"/>
<path d="M223.847 27.1618C223.327 27.1733 222.811 27.069 222.336 26.8564C221.962 26.6895 221.649 26.4091 221.442 26.0549C221.241 25.6808 221.113 25.2718 221.066 24.8498C221.066 24.6208 221.017 24.3808 221.011 24.1191C221.012 23.8383 221.03 23.5578 221.066 23.2793L221.884 15.6071H220.559L220.771 13.5405H222.091L222.511 9.60352H225.63L225.221 13.5405H227.277L227.064 15.6071H225.008L224.179 23.4266C224.174 23.5137 224.174 23.6011 224.179 23.6883C224.154 23.9383 224.222 24.189 224.37 24.3917C224.491 24.5058 224.635 24.5934 224.791 24.6488C224.948 24.7042 225.115 24.7262 225.281 24.7135C225.604 24.7101 225.927 24.6827 226.246 24.6316L225.995 27.0146C225.079 27.1127 224.397 27.1618 223.95 27.1618H223.847Z" fill="#005C46"/>
<path d="M231.829 27.1837C230.286 27.1837 229.223 26.7638 228.65 25.9131C228.172 25.1053 227.946 24.1729 228.001 23.2358C228.001 22.8868 228.001 22.516 228.061 22.1452L228.459 18.4427C228.634 16.7596 229.099 15.4872 229.855 14.6257C230.608 13.775 231.747 13.3497 233.258 13.3497C233.945 13.3252 234.63 13.4499 235.265 13.715C235.755 13.9332 236.159 14.307 236.415 14.7784C236.688 15.3068 236.85 15.886 236.89 16.4797C236.917 16.7442 236.929 17.0099 236.928 17.2758C236.932 17.7713 236.907 18.2666 236.851 18.759L236.671 20.4384H231.366L231.153 22.4124C231.109 22.865 231.077 23.2848 231.06 23.6611V23.7865C231.048 24.0716 231.124 24.3536 231.279 24.5935C231.367 24.7175 231.487 24.8153 231.626 24.8767C231.765 24.9382 231.918 24.9609 232.069 24.9425C232.256 24.9587 232.444 24.9248 232.614 24.8443C232.783 24.7638 232.929 24.6396 233.034 24.4845C233.262 24.0707 233.391 23.6096 233.411 23.1376L233.525 22.107H236.486L236.399 22.9031C236.338 24.0953 235.857 25.2274 235.041 26.0985C234.604 26.4833 234.095 26.7774 233.544 26.9637C232.993 27.15 232.41 27.2247 231.829 27.1837ZM231.513 18.8407H233.836L233.972 17.5593C233.997 17.3494 234.01 17.1382 234.01 16.9268C234.023 16.6316 233.976 16.3369 233.874 16.0598C233.793 15.9038 233.667 15.776 233.513 15.6933C233.358 15.6105 233.182 15.5767 233.007 15.5963C232.813 15.5812 232.618 15.6213 232.445 15.712C232.273 15.8026 232.129 15.9402 232.031 16.1089C231.769 16.7034 231.619 17.3412 231.589 17.9901L231.513 18.8407Z" fill="#005C46"/>
<path d="M238.176 26.982L239.577 13.5406H242.685L242.484 15.5855C243.471 14.1077 244.496 13.3716 245.548 13.3716C245.708 13.3709 245.867 13.3892 246.022 13.4261L245.684 16.5397C245.326 16.4025 244.945 16.3322 244.561 16.3325C244.137 16.3425 243.722 16.4548 243.351 16.6597C242.919 16.926 242.548 17.2788 242.26 17.6957L241.284 26.9656L238.176 26.982Z" fill="#005C46"/>
<path d="M246.121 26.982L247.528 13.5406H250.636L250.5 14.8602C251.699 13.846 252.846 13.3389 253.941 13.3389C254.294 13.3275 254.643 13.4144 254.949 13.5897C255.217 13.7374 255.431 13.9666 255.56 14.2441C255.692 14.5411 255.782 14.8549 255.827 15.1765C255.849 15.3391 255.86 15.5031 255.86 15.6672C255.858 15.8498 255.844 16.0321 255.816 16.2125L254.693 26.9711H251.574L252.665 16.9378C252.665 16.8015 252.665 16.676 252.665 16.5615C252.671 16.3743 252.636 16.188 252.561 16.0162C252.463 15.8036 252.234 15.7 251.879 15.7C251.326 15.7614 250.801 15.981 250.369 16.3325L249.246 27.0038L246.121 26.982Z" fill="#005C46"/>
<path d="M259.605 27.1837C259.222 27.1964 258.841 27.1127 258.498 26.9403C258.155 26.7679 257.861 26.5122 257.642 26.1967C257.245 25.663 257.032 25.0138 257.037 24.3482C257.038 24.2259 257.047 24.1039 257.064 23.9828C257.109 23.5433 257.208 23.1111 257.359 22.6959C257.494 22.3261 257.677 21.9758 257.904 21.6544C258.12 21.3482 258.369 21.0666 258.646 20.8147C258.914 20.5651 259.204 20.3406 259.513 20.144C259.832 19.9443 260.161 19.7623 260.5 19.5987C260.865 19.4242 261.209 19.2715 261.53 19.1461C261.852 19.0207 262.201 18.8844 262.577 18.7481L263.041 18.579L263.155 17.4884C263.155 17.2376 263.193 17.0086 263.193 16.8068V16.5124C263.193 16.2807 263.103 16.0582 262.943 15.8907C262.754 15.7385 262.514 15.6643 262.272 15.6835C261.53 15.6835 261.105 16.1907 261.001 17.1994L260.876 18.0283L257.877 17.9083C257.877 17.8592 257.877 17.7774 257.921 17.6575C257.964 17.5375 257.921 17.4557 257.959 17.4176C258.08 16.2343 258.633 15.1373 259.513 14.3367C260.454 13.6343 261.612 13.2867 262.785 13.3552C264.108 13.3552 265.051 13.7187 265.615 14.4457C266.091 15.1114 266.327 15.9187 266.285 16.7359C266.284 16.9948 266.268 17.2534 266.236 17.5102L265.593 23.6393C265.512 24.4346 265.474 25.2337 265.478 26.0331C265.478 26.3494 265.478 26.6765 265.478 27.0092H262.665C262.586 26.3539 262.54 25.6951 262.528 25.0352C262.296 25.6326 261.922 26.1642 261.438 26.5838C260.924 27.0062 260.27 27.2203 259.605 27.1837ZM261.056 24.7462C261.336 24.735 261.605 24.6357 261.825 24.4627C262.058 24.3068 262.272 24.1238 262.463 23.9174L262.85 20.2258C261.17 21.0982 260.271 22.087 260.151 23.1922C260.143 23.3083 260.143 23.4249 260.151 23.5411C260.139 23.8213 260.201 24.0997 260.331 24.3482C260.403 24.4762 260.508 24.5821 260.636 24.6542C260.764 24.7263 260.909 24.7619 261.056 24.7571V24.7462Z" fill="#005C46"/>
<path d="M271.243 27.1618C270.721 27.1732 270.203 27.0689 269.727 26.8564C269.352 26.6895 269.039 26.4091 268.832 26.0549C268.633 25.6804 268.507 25.2714 268.462 24.8498C268.429 24.6208 268.412 24.3808 268.402 24.1191C268.404 23.8382 268.424 23.5577 268.462 23.2793L269.279 15.6071H267.933L268.145 13.5405H269.465L269.885 9.60352H273.004L272.6 13.5405H274.651L274.438 15.6071H272.382L271.553 23.4266C271.553 23.5193 271.553 23.6065 271.553 23.6883C271.53 23.9381 271.598 24.1879 271.744 24.3917C271.865 24.5058 272.009 24.5934 272.166 24.6488C272.322 24.7042 272.489 24.7262 272.655 24.7135C272.978 24.7106 273.301 24.6833 273.62 24.6316L273.369 27.0146C272.453 27.1127 271.771 27.1618 271.324 27.1618H271.243Z" fill="#005C46"/>
<path d="M275.305 26.9819L276.712 13.5406H279.82L278.413 26.9819H275.305ZM276.941 11.4303L277.224 8.75293H280.343L280.06 11.4303H276.941Z" fill="#005C46"/>
<path d="M288.266 25.9617C287.822 26.3873 287.293 26.7156 286.715 26.9259C286.137 27.1362 285.521 27.2238 284.907 27.1831C283.457 27.1831 282.426 26.7796 281.821 25.9617C281.301 25.1936 281.05 24.2754 281.106 23.3498C281.105 23.0493 281.12 22.749 281.15 22.45L281.603 18.0877C281.677 16.7946 282.18 15.563 283.031 14.587C283.47 14.1579 283.995 13.8264 284.571 13.614C285.147 13.4017 285.761 13.3133 286.374 13.3546C287.828 13.3546 288.86 13.7636 289.471 14.5815C289.995 15.3385 290.253 16.2471 290.207 17.1662C290.207 17.4742 290.189 17.7819 290.153 18.0877L289.7 22.45C289.627 23.7478 289.123 24.984 288.266 25.9617ZM285.147 24.9856C285.337 24.9872 285.524 24.9423 285.692 24.8548C285.842 24.7744 285.972 24.6628 286.074 24.5276C286.185 24.361 286.266 24.1765 286.314 23.9823C286.378 23.7794 286.426 23.5715 286.456 23.3607C286.456 23.1698 286.51 22.9353 286.543 22.6463L287.056 17.8424C287.056 17.4279 287.094 17.0462 287.11 16.6973C287.107 16.6792 287.107 16.6608 287.11 16.6427C287.113 16.3624 287.03 16.0881 286.87 15.8575C286.782 15.7423 286.667 15.6509 286.534 15.5919C286.402 15.5328 286.257 15.5079 286.112 15.5194C285.922 15.5164 285.734 15.5634 285.567 15.6558C285.414 15.7329 285.281 15.845 285.18 15.9829C285.069 16.1496 284.988 16.3341 284.94 16.5282C284.88 16.7518 284.831 16.959 284.798 17.1444C284.765 17.3298 284.738 17.5697 284.711 17.8533L284.198 22.6572C284.16 23.2025 284.144 23.5733 284.144 23.8351C284.131 24.1175 284.209 24.3966 284.367 24.6312C284.455 24.7531 284.573 24.85 284.71 24.9122C284.847 24.9744 284.997 24.9997 285.147 24.9856Z" fill="#005C46"/>
<path d="M291.412 26.982L292.819 13.5406H295.927L295.791 14.8602C296.99 13.846 298.137 13.3389 299.232 13.3389C299.585 13.3275 299.934 13.4144 300.24 13.5897C300.508 13.7374 300.722 13.9666 300.851 14.2441C300.983 14.5411 301.073 14.8549 301.118 15.1765C301.14 15.3391 301.151 15.5031 301.151 15.6672C301.149 15.8498 301.135 16.0321 301.107 16.2125L299.984 26.9711H296.87L297.923 16.9378C297.923 16.8015 297.923 16.676 297.923 16.5615C297.929 16.3743 297.894 16.188 297.819 16.0162C297.721 15.8036 297.492 15.7 297.138 15.7C296.584 15.7614 296.059 15.981 295.627 16.3325L294.504 27.0038L291.412 26.982Z" fill="#005C46"/>
<path d="M304.886 27.1837C304.502 27.1964 304.121 27.1127 303.779 26.9403C303.436 26.7679 303.141 26.5122 302.923 26.1967C302.525 25.663 302.312 25.0138 302.317 24.3482C302.319 24.2259 302.328 24.1039 302.345 23.9828C302.389 23.5433 302.488 23.1111 302.639 22.6959C302.774 22.3261 302.957 21.9758 303.184 21.6544C303.4 21.3482 303.649 21.0666 303.926 20.8147C304.194 20.5651 304.484 20.3406 304.793 20.144C305.112 19.9443 305.441 19.7623 305.78 19.5987C306.145 19.4242 306.489 19.2715 306.811 19.1461C307.132 19.0207 307.481 18.8844 307.858 18.7481L308.321 18.579L308.436 17.4884C308.436 17.2376 308.474 17.0086 308.474 16.8068V16.5124C308.473 16.2807 308.383 16.0582 308.223 15.8907C308.034 15.7385 307.794 15.6643 307.552 15.6835C306.811 15.6835 306.385 16.1907 306.282 17.1994L306.156 18.0283L303.157 17.9083C303.157 17.8592 303.157 17.7774 303.201 17.6575C303.244 17.5375 303.228 17.4557 303.239 17.4176C303.36 16.2343 303.913 15.1373 304.793 14.3367C305.734 13.6343 306.893 13.2867 308.065 13.3552C309.392 13.3552 310.335 13.7187 310.895 14.4457C311.371 15.1114 311.607 15.9187 311.566 16.7359C311.565 16.9948 311.548 17.2534 311.516 17.5102L310.873 23.6393C310.793 24.4346 310.754 25.2337 310.759 26.0331C310.759 26.3494 310.759 26.6765 310.759 27.0092H307.945C307.866 26.3539 307.821 25.6951 307.809 25.0352C307.577 25.6326 307.202 26.1642 306.718 26.5838C306.204 27.0062 305.55 27.2203 304.886 27.1837ZM306.336 24.7462C306.616 24.735 306.885 24.6357 307.105 24.4627C307.339 24.3068 307.553 24.1238 307.743 23.9174L308.13 20.2258C306.451 21.0982 305.542 22.087 305.404 23.1922C305.396 23.3083 305.396 23.4249 305.404 23.5411C305.392 23.8213 305.454 24.0997 305.584 24.3482C305.658 24.4805 305.768 24.5892 305.901 24.6616C306.034 24.734 306.185 24.7671 306.336 24.7571V24.7462Z" fill="#005C46"/>
<path d="M313.001 26.9819L314.98 8.16406H318.099L316.125 26.9819H313.001Z" fill="#005C46"/>
<path d="M106.277 26.9874L108.251 8.16406H111.556L109.576 26.9874H106.277Z" fill="#005C46"/>
<path d="M112.302 26.9869L113.709 13.5456H116.817L116.686 14.8597C117.878 13.8455 119.023 13.3384 120.121 13.3384C120.476 13.3305 120.826 13.417 121.135 13.5892C121.4 13.7424 121.611 13.9726 121.741 14.249C121.872 14.5461 121.962 14.8598 122.008 15.1815C122.03 15.3423 122.041 15.5044 122.041 15.6668C122.04 15.8494 122.025 16.0316 121.997 16.2121L120.874 26.976H117.76L118.807 16.9264C118.814 16.8029 118.814 16.6791 118.807 16.5556C118.814 16.3683 118.779 16.1819 118.703 16.0103C118.605 15.7976 118.382 15.6886 118.022 15.6886C117.468 15.7551 116.945 15.9762 116.511 16.3266L115.388 26.9978L112.302 26.9869Z" fill="#005C46"/>
<path d="M123.252 26.987L124.659 13.5457H127.767L127.631 14.8598C128.825 13.8456 129.975 13.3385 131.071 13.3385C131.424 13.3299 131.773 13.4166 132.08 13.5893C132.347 13.7405 132.561 13.9711 132.691 14.2491C132.822 14.5461 132.912 14.8599 132.958 15.1815C132.98 15.3424 132.991 15.5045 132.991 15.6668C132.991 15.8497 132.974 16.0322 132.942 16.2121L131.818 26.9761H128.705L129.752 16.9265C129.752 16.7901 129.752 16.6647 129.752 16.5557C129.756 16.3686 129.721 16.1827 129.648 16.0104C129.55 15.7977 129.321 15.6887 128.967 15.6887C128.413 15.754 127.889 15.9753 127.456 16.3267L126.333 26.9979L123.252 26.987Z" fill="#005C46"/>
<path d="M141.498 25.9623C141.053 26.3883 140.525 26.7173 139.947 26.9285C139.369 27.1397 138.753 27.2285 138.139 27.1892C136.685 27.1892 135.656 26.7802 135.052 25.9623C134.532 25.1946 134.281 24.276 134.338 23.3504C134.337 23.0517 134.351 22.7532 134.382 22.4561L134.834 18.0938C134.912 16.8023 135.412 15.5721 136.257 14.593C136.699 14.1664 137.225 13.8364 137.802 13.6242C138.378 13.4121 138.993 13.3223 139.606 13.3607C141.06 13.3607 142.092 13.7697 142.703 14.5876C143.225 15.3469 143.484 16.257 143.439 17.1777C143.439 17.4839 143.421 17.7898 143.384 18.0938L142.926 22.4561C142.856 23.7517 142.353 24.9862 141.498 25.9623ZM138.379 24.9862C138.561 24.9916 138.743 24.9533 138.908 24.8746C139.073 24.7959 139.217 24.679 139.327 24.5336C139.438 24.3667 139.519 24.1823 139.567 23.9883C139.631 23.7871 139.679 23.581 139.709 23.3722C139.736 23.1813 139.764 22.9414 139.796 22.6578L140.309 17.8539C140.309 17.4394 140.347 17.0577 140.364 16.7087C140.36 16.6889 140.36 16.6686 140.364 16.6488C140.367 16.3702 140.283 16.0976 140.124 15.869C140.036 15.7532 139.921 15.661 139.788 15.601C139.656 15.5411 139.511 15.5151 139.366 15.5255C139.182 15.5233 139 15.5647 138.835 15.6462C138.67 15.7277 138.527 15.847 138.417 15.9944C138.306 16.1608 138.225 16.3454 138.177 16.5397C138.117 16.7687 138.068 16.9759 138.035 17.1613C138.002 17.3467 137.975 17.5812 137.948 17.8702L137.435 22.6742C137.397 23.1922 137.381 23.5848 137.381 23.852C137.369 24.1344 137.447 24.4132 137.604 24.6481C137.694 24.7655 137.812 24.858 137.948 24.9172C138.083 24.9763 138.232 25.0001 138.379 24.9862Z" fill="#005C46"/>
<path d="M146.335 26.9872L145.13 13.5459H148.183L148.516 23.4102L150.888 13.5459H153.882L149.901 26.9872H146.335Z" fill="#005C46"/>
<path d="M156.513 27.1894C156.13 27.2011 155.75 27.117 155.407 26.9446C155.064 26.7723 154.77 26.5172 154.55 26.2024C154.156 25.6671 153.946 25.0186 153.951 24.3539C153.942 24.2322 153.942 24.1102 153.951 23.9885C154 23.5498 154.099 23.1181 154.245 22.7017C154.38 22.3302 154.563 21.9781 154.79 21.6547C155.004 21.3484 155.251 21.0668 155.526 20.8149C155.794 20.5654 156.085 20.3409 156.393 20.1443C156.713 19.9425 157.044 19.7604 157.386 19.599C157.746 19.4245 158.089 19.2718 158.411 19.1409C158.733 19.0101 159.082 18.8792 159.463 18.7429L159.927 18.5738L160.041 17.4832C160.041 17.2324 160.074 17.0088 160.074 16.8016V16.5072C160.076 16.3929 160.054 16.2796 160.011 16.1737C159.968 16.0679 159.904 15.9718 159.823 15.891C159.635 15.7373 159.395 15.6612 159.153 15.6783C158.411 15.6783 157.991 16.1855 157.882 17.1997L157.757 18.0285L154.763 17.9031C154.763 17.8595 154.763 17.7777 154.801 17.6523C154.839 17.5269 154.834 17.456 154.839 17.4178C154.961 16.2331 155.514 15.1344 156.393 14.3315C157.335 13.6304 158.493 13.2829 159.665 13.35C160.99 13.35 161.928 13.7098 162.49 14.4405C162.965 15.1086 163.201 15.9174 163.16 16.7362C163.16 16.9761 163.16 17.2324 163.117 17.5051L162.468 23.6341C162.387 24.4313 162.349 25.2321 162.353 26.0334C162.353 26.3496 162.353 26.6768 162.353 27.0094H159.54C159.461 26.3524 159.415 25.6917 159.403 25.03C159.175 25.6308 158.8 26.1649 158.313 26.5841C157.808 27.0012 157.167 27.2168 156.513 27.1894ZM157.969 24.7519C158.248 24.7376 158.515 24.6365 158.733 24.4629C158.971 24.3116 159.188 24.1281 159.376 23.9176L159.763 20.2315C158.084 21.0985 157.179 22.0909 157.037 23.1924C157.029 23.3104 157.029 23.4288 157.037 23.5468C157.025 23.827 157.087 24.1054 157.217 24.3539C157.292 24.4848 157.402 24.592 157.535 24.6633C157.668 24.7346 157.819 24.7672 157.969 24.7574V24.7519Z" fill="#005C46"/>
<path d="M168.15 27.1672C167.628 27.1785 167.111 27.0742 166.634 26.8618C166.261 26.6949 165.95 26.4144 165.745 26.0602C165.542 25.6851 165.414 25.2739 165.369 24.8497C165.336 24.6093 165.318 24.3671 165.315 24.1244C165.315 23.8436 165.333 23.5631 165.369 23.2847L166.187 15.6125H164.856L165.075 13.5459H166.389L166.809 9.60889H169.933L169.524 13.5459H171.58L171.362 15.6125H169.306L168.477 23.4319C168.477 23.5246 168.477 23.6119 168.477 23.6937C168.457 23.944 168.527 24.1934 168.673 24.3971C168.794 24.5092 168.937 24.5952 169.093 24.6496C169.249 24.704 169.414 24.7257 169.579 24.7134C169.902 24.7098 170.224 24.6843 170.544 24.637L170.293 27.0199C169.377 27.1181 168.701 27.1672 168.254 27.1672H168.15Z" fill="#005C46"/>
<path d="M172.214 26.9874L173.621 13.546H176.734L175.327 26.9874H172.214ZM173.85 11.4358L174.133 8.75293H177.236L176.952 11.4358H173.85Z" fill="#005C46"/>
<path d="M185.181 25.9621C184.736 26.3882 184.207 26.7173 183.628 26.9285C183.049 27.1397 182.432 27.2284 181.817 27.189C180.363 27.189 179.334 26.78 178.731 25.9621C178.212 25.1934 177.961 24.2756 178.016 23.3502C178.016 23.0666 178.016 22.7667 178.06 22.4559L178.518 18.0936C178.59 16.8009 179.091 15.5691 179.941 14.5928C180.382 14.1666 180.907 13.8369 181.483 13.6247C182.058 13.4125 182.671 13.3226 183.284 13.3605C184.738 13.3605 185.77 13.7695 186.381 14.5874C186.905 15.3462 187.166 16.2562 187.123 17.1775C187.12 17.4838 187.1 17.7897 187.063 18.0936L186.61 22.4559C186.537 23.751 186.034 24.9847 185.181 25.9621ZM182.057 24.9861C182.247 24.9876 182.434 24.9427 182.602 24.8552C182.752 24.7789 182.883 24.6688 182.984 24.5335C183.094 24.3656 183.176 24.1816 183.229 23.9882C183.29 23.7862 183.338 23.5804 183.371 23.372C183.398 23.1811 183.425 22.9412 183.453 22.6577L183.965 17.8537C183.965 17.4393 184.009 17.0576 184.02 16.7086C184.014 16.689 184.014 16.6682 184.02 16.6486C184.02 16.3704 183.937 16.0986 183.78 15.8688C183.691 15.7529 183.575 15.6608 183.441 15.6009C183.308 15.5409 183.162 15.515 183.016 15.5253C182.826 15.5259 182.639 15.5726 182.471 15.6616C182.321 15.7426 182.19 15.8563 182.09 15.9942C181.976 16.1594 181.895 16.3443 181.85 16.5395C181.789 16.7434 181.742 16.9511 181.708 17.1612C181.675 17.3466 181.648 17.581 181.615 17.87L181.103 22.674C181.064 23.192 181.048 23.5847 181.048 23.8518C181.038 24.1348 181.118 24.4136 181.277 24.648C181.367 24.7669 181.486 24.8606 181.622 24.9199C181.759 24.9791 181.909 25.0019 182.057 24.9861Z" fill="#005C46"/>
<path d="M188.321 26.987L189.728 13.5456H192.842L192.705 14.8598C193.898 13.8455 195.045 13.3384 196.146 13.3384C196.499 13.3304 196.847 13.417 197.155 13.5892C197.419 13.7424 197.63 13.9726 197.76 14.249C197.892 14.5461 197.982 14.8598 198.027 15.1815C198.049 15.3423 198.06 15.5044 198.06 15.6668C198.062 15.8495 198.047 16.0319 198.016 16.2121L196.893 26.9761H193.785L194.827 16.9264C194.834 16.8029 194.834 16.6791 194.827 16.5556C194.833 16.3689 194.799 16.1831 194.728 16.0103C194.659 15.8956 194.557 15.8039 194.436 15.7467C194.315 15.6894 194.179 15.6692 194.047 15.6886C193.493 15.7531 192.969 15.9744 192.536 16.3266L191.413 26.987H188.321Z" fill="#005C46"/>
<path d="M60.2032 26.9998C59.4879 27.0126 58.7752 26.9095 58.0929 26.6944C57.5551 26.5246 57.0654 26.2293 56.6643 25.8328C56.2978 25.4419 56.0124 24.9823 55.8245 24.4805C55.6215 23.918 55.5057 23.3277 55.481 22.7301C55.481 22.5502 55.481 22.3703 55.481 22.1849C55.481 21.6996 55.5082 21.1924 55.5518 20.6635L56.2444 14.1201C56.328 13.2175 56.5108 12.3269 56.7897 11.4645C57.0234 10.7472 57.3795 10.0757 57.8421 9.47966C58.3109 8.89543 58.9262 8.44578 59.6252 8.17641C60.4645 7.86851 61.3542 7.72056 62.248 7.74019C63.048 7.71836 63.845 7.84596 64.5982 8.11644C65.182 8.32544 65.6894 8.70548 66.0541 9.20701C66.3984 9.71311 66.6223 10.2914 66.7084 10.8974C66.7718 11.2758 66.8028 11.6589 66.8011 12.0425C66.801 12.418 66.7773 12.7932 66.7302 13.1658L66.5612 14.8017H63.3277L63.4967 13.2258C63.5567 12.6314 63.5894 12.1352 63.5894 11.8135C63.5922 11.6438 63.5812 11.4743 63.5567 11.3064C63.5113 11.0218 63.3686 10.7617 63.1527 10.5708C62.9369 10.3798 62.6614 10.2697 62.3734 10.2594C62.2589 10.2594 62.1335 10.2594 61.9972 10.2594C61.6835 10.2535 61.3719 10.311 61.0811 10.4285C60.8484 10.5259 60.6385 10.6707 60.4649 10.8538C60.2936 11.0676 60.1641 11.3118 60.0832 11.5736C59.9813 11.8556 59.9029 12.1456 59.8487 12.4406C59.7996 12.7132 59.7506 13.0677 59.7069 13.5039L58.889 21.3833C58.8466 21.7453 58.8229 22.1094 58.8181 22.4739C58.7939 22.9325 58.8721 23.3907 59.0472 23.8153C59.1922 24.0648 59.4078 24.2658 59.6669 24.3929C59.926 24.52 60.217 24.5676 60.5031 24.5296C60.7006 24.5297 60.8978 24.5115 61.092 24.4751C61.2577 24.4402 61.4151 24.3736 61.5555 24.2788C61.6818 24.199 61.8005 24.1078 61.9099 24.0061C62.0228 23.8954 62.1102 23.7614 62.1662 23.6135C62.2371 23.4445 62.2971 23.2918 62.3461 23.1609C62.4065 22.9832 62.4521 22.8008 62.4825 22.6156C62.5206 22.3866 62.5533 22.1903 62.5697 22.0322C62.5861 21.874 62.6133 21.6559 62.646 21.3724L62.8151 19.7365H66.0378L65.8796 21.2688C65.8152 21.9112 65.7004 22.5475 65.5361 23.1718C65.3816 23.7274 65.1562 24.2607 64.8654 24.7586C64.5936 25.2293 64.2346 25.6439 63.8075 25.9801C63.3478 26.3212 62.828 26.5727 62.2753 26.7217C61.6022 26.9169 60.9039 27.0106 60.2032 26.9998Z" fill="#005C46"/>
<path d="M67.6738 26.7705L69.6478 7.95264H72.7723L70.7983 26.7705H67.6738Z" fill="#005C46"/>
<path d="M75.859 26.9781C75.4757 26.9883 75.0959 26.9036 74.7534 26.7313C74.4109 26.5591 74.1163 26.3048 73.8959 25.9911C73.5003 25.4544 73.2898 24.8038 73.2961 24.1371C73.288 24.0173 73.288 23.897 73.2961 23.7772C73.3454 23.3367 73.4442 22.9032 73.5906 22.4849C73.7265 22.1156 73.9098 21.7655 74.1359 21.4434C74.3495 21.1371 74.5963 20.8555 74.872 20.6036C75.1399 20.3541 75.4302 20.1296 75.739 19.9329C76.0578 19.7333 76.3873 19.5512 76.726 19.3876C77.0913 19.2132 77.4349 19.0659 77.7566 18.9351C78.0783 18.8042 78.4273 18.6733 78.8035 18.537L79.2725 18.368L79.387 17.2774C79.387 17.0266 79.4197 16.7975 79.4197 16.5958V16.3013C79.421 16.0692 79.3309 15.8459 79.1689 15.6797C78.9787 15.5298 78.7397 15.456 78.4982 15.4725C77.7566 15.4725 77.3313 15.9796 77.2276 16.9938L77.1022 17.8227L74.1086 17.6973C74.1086 17.6482 74.1086 17.5664 74.1468 17.4464C74.185 17.3265 74.1795 17.2447 74.185 17.2065C74.3076 16.0237 74.8607 14.9272 75.739 14.1256C76.6801 13.4237 77.8387 13.0762 79.0107 13.1441C80.3358 13.1441 81.2737 13.504 81.8353 14.2347C82.3113 14.9004 82.5477 15.7076 82.506 16.5249C82.506 16.7703 82.5061 17.0266 82.4624 17.2992L81.8135 23.4282C81.733 24.2236 81.6948 25.0227 81.699 25.8221C81.699 26.1438 81.699 26.4655 81.699 26.7981H78.8853C78.8065 26.1429 78.761 25.484 78.749 24.8242C78.5214 25.4238 78.1463 25.9564 77.6584 26.3728C77.154 26.7898 76.513 27.0055 75.859 26.9781ZM77.3149 24.5352C77.5928 24.5231 77.8599 24.4239 78.0783 24.2516C78.3146 24.0973 78.5307 23.9141 78.7217 23.7063L79.1089 20.0147C77.4221 20.8872 76.5133 21.876 76.3825 22.9811C76.3747 23.0973 76.3747 23.2139 76.3825 23.3301C76.3698 23.6103 76.4319 23.8888 76.5624 24.1371C76.6366 24.2689 76.7467 24.3768 76.88 24.4483C77.0132 24.5197 77.1641 24.5518 77.3149 24.5406V24.5352Z" fill="#005C46"/>
<path d="M87.2007 26.9779C86.7215 27.0033 86.242 26.9335 85.79 26.7726C85.3379 26.6116 84.9222 26.3626 84.567 26.04C83.8777 25.3108 83.4716 24.3593 83.4219 23.3572L85.892 22.5065C86.0629 24.0188 86.5827 24.7749 87.4515 24.7749H87.4842C87.8157 24.766 88.1315 24.6315 88.3676 24.3987C88.4867 24.2861 88.5822 24.151 88.6487 24.0013C88.7151 23.8515 88.7512 23.69 88.7548 23.5262V23.4499C88.7548 22.97 88.3949 22.3866 87.6642 21.705L85.9629 20.1018C85.5067 19.7348 85.1334 19.2754 84.8674 18.7538C84.6015 18.2322 84.4489 17.6602 84.4197 17.0755C84.42 16.9258 84.4309 16.7764 84.4524 16.6283C84.5474 15.6303 85.0312 14.7097 85.7993 14.0655C86.5819 13.4205 87.572 13.0814 88.5857 13.1112C89.038 13.0863 89.4903 13.1591 89.9118 13.3247C90.3334 13.4903 90.7143 13.7448 91.0286 14.0709C91.6444 14.7788 91.9935 15.6795 92.0156 16.6174L89.8671 17.4681C89.7399 16.0721 89.2819 15.3687 88.493 15.3578H88.4494C88.2985 15.354 88.1483 15.3805 88.0078 15.4358C87.8673 15.4911 87.7394 15.5739 87.6315 15.6795C87.41 15.8778 87.2717 16.1524 87.2443 16.4484V16.5302C87.3485 17.1139 87.6651 17.6384 88.1331 18.0025L89.8671 19.7528C90.3958 20.2354 90.8449 20.7986 91.1976 21.4214C91.4448 21.8976 91.5686 22.4282 91.5576 22.9646C91.5654 23.1117 91.5654 23.2591 91.5576 23.4063C91.5251 23.9184 91.3837 24.4177 91.143 24.8709C90.9023 25.3242 90.5678 25.7208 90.1616 26.0345C89.3088 26.6729 88.2657 27.0052 87.2007 26.9779Z" fill="#005C46"/>
<path d="M96.3609 26.9779C95.8817 27.0033 95.4022 26.9335 94.9501 26.7726C94.4981 26.6116 94.0824 26.3626 93.7271 26.04C93.0379 25.3108 92.6318 24.3593 92.582 23.3572L95.0522 22.5065C95.2194 24.0188 95.7392 24.7749 96.6117 24.7749H96.6281C96.9595 24.766 97.2753 24.6315 97.5114 24.3987C97.6305 24.2861 97.726 24.151 97.7925 24.0013C97.8589 23.8515 97.895 23.69 97.8986 23.5262V23.4499C97.8986 22.97 97.5387 22.3866 96.808 21.705L95.1067 20.1018C94.6506 19.7348 94.2772 19.2754 94.0112 18.7538C93.7453 18.2322 93.5927 17.6602 93.5635 17.0755C93.5638 16.9258 93.5747 16.7764 93.5963 16.6283C93.6912 15.6303 94.175 14.7097 94.9431 14.0655C95.7257 13.4205 96.7158 13.0814 97.7295 13.1112C98.1818 13.0863 98.6341 13.1591 99.0556 13.3247C99.4772 13.4903 99.8581 13.7448 100.172 14.0709C100.788 14.7788 101.137 15.6795 101.159 16.6174L99.011 17.4681C98.8801 16.0721 98.4275 15.3687 97.6368 15.3578H97.6041C97.4532 15.354 97.3031 15.3805 97.1626 15.4358C97.0221 15.4911 96.8941 15.5739 96.7862 15.6795C96.5647 15.8778 96.4265 16.1524 96.399 16.4484V16.5302C96.5032 17.1139 96.8198 17.6384 97.2879 18.0025L99.0219 19.7528C99.5506 20.2354 99.9996 20.7986 100.352 21.4214C100.6 21.8976 100.723 22.4282 100.712 22.9646C100.72 23.1117 100.72 23.2591 100.712 23.4063C100.68 23.9184 100.538 24.4177 100.298 24.8709C100.057 25.3242 99.7225 25.7208 99.3163 26.0345C98.4645 26.671 97.4238 27.0031 96.3609 26.9779Z" fill="#005C46"/>
<path d="M320.089 8.1784C321.243 8.1784 322.178 7.24304 322.178 6.0892C322.178 4.93537 321.243 4 320.089 4C318.935 4 318 4.93537 318 6.0892C318 7.24304 318.935 8.1784 320.089 8.1784Z" stroke="#005C46" stroke-width="0.7" stroke-linecap="round" stroke-linejoin="round"/>
<path d="M319.463 7.07672V5.25342H320.079C320.221 5.25342 320.338 5.27775 320.43 5.32642C320.521 5.3745 320.589 5.44067 320.633 5.52495C320.677 5.60923 320.699 5.70509 320.699 5.81252C320.699 5.91994 320.677 6.0152 320.633 6.0983C320.589 6.18139 320.521 6.24668 320.431 6.29416C320.34 6.34105 320.224 6.36449 320.083 6.36449H319.584V6.16507H320.075C320.173 6.16507 320.251 6.15082 320.31 6.12234C320.37 6.09385 320.414 6.05349 320.44 6.00126C320.468 5.94843 320.481 5.88552 320.481 5.81252C320.481 5.73951 320.468 5.67571 320.44 5.62111C320.413 5.5665 320.369 5.52436 320.31 5.49469C320.25 5.46442 320.17 5.44928 320.072 5.44928H319.684V7.07672H319.463ZM320.321 6.25766L320.77 7.07672H320.513L320.072 6.25766H320.321Z" fill="#005C46"/>
</svg>
