<svg width="150" height="63" viewBox="0 0 150 63" fill="none" xmlns="http://www.w3.org/2000/svg">
<path d="M76.8799 62.8731C76.7202 62.8762 76.561 62.8529 76.4088 62.8042C76.2883 62.7668 76.1787 62.7007 76.0894 62.6116C76.0077 62.5252 75.9439 62.4234 75.9018 62.3121C75.8566 62.1867 75.831 62.0551 75.8259 61.9219C75.8259 61.882 75.8259 61.841 75.8259 61.8001C75.8259 61.6923 75.8309 61.5795 75.8409 61.4608L75.9956 59.9986C76.014 59.7972 76.0541 59.5984 76.1154 59.4057C76.1671 59.2452 76.2468 59.0952 76.3509 58.9625C76.4553 58.8314 76.5932 58.731 76.7502 58.6721C76.9375 58.6025 77.1362 58.5686 77.336 58.5723C77.5147 58.5675 77.6927 58.5959 77.861 58.6561C77.9914 58.7035 78.1044 58.7891 78.1854 58.9017C78.2618 59.0149 78.3119 59.1438 78.3321 59.2789C78.3458 59.3638 78.3525 59.4495 78.3521 59.5355C78.3518 59.6192 78.3468 59.7028 78.3371 59.786L78.2992 60.1463H77.5766L77.6145 59.794C77.6267 59.6896 77.6337 59.5846 77.6355 59.4796C77.636 59.4415 77.6333 59.4034 77.6275 59.3658C77.6175 59.3023 77.5858 59.2442 77.5377 59.2016C77.4896 59.159 77.4282 59.1345 77.364 59.1322C77.3362 59.1289 77.3082 59.1272 77.2801 59.1272C77.2097 59.1258 77.1398 59.1387 77.0745 59.1652C77.0229 59.187 76.9763 59.2193 76.9378 59.26C76.8993 59.3072 76.8701 59.3615 76.852 59.4197C76.8296 59.4831 76.8123 59.5482 76.8001 59.6143C76.7891 59.6752 76.7781 59.754 76.7681 59.8518L76.5855 61.6105C76.5761 61.6923 76.5711 61.7746 76.5705 61.857C76.5648 61.9594 76.5822 62.0617 76.6214 62.1564C76.6733 62.2632 76.7821 62.3161 76.9458 62.3161C76.99 62.3166 77.0341 62.3125 77.0775 62.3041C77.1132 62.2957 77.147 62.2809 77.1773 62.2602C77.2055 62.2425 77.2319 62.2221 77.2562 62.1993C77.2812 62.1748 77.3006 62.1452 77.3131 62.1125C77.329 62.0746 77.343 62.0406 77.354 62.0127C77.3676 61.9731 77.3776 61.9323 77.3839 61.8909C77.3929 61.84 77.3999 61.7961 77.4039 61.7612C77.4079 61.7263 77.4139 61.6763 77.4209 61.6135L77.4588 61.2492H78.1784L78.1425 61.5915C78.1288 61.7348 78.1031 61.8767 78.0656 62.0157C78.0315 62.1396 77.9812 62.2584 77.9159 62.369C77.855 62.4739 77.7751 62.5667 77.6804 62.6425C77.5785 62.7202 77.4631 62.7784 77.34 62.8142C77.1903 62.8561 77.0353 62.8759 76.8799 62.8731Z" fill="white"/>
<path d="M78.5481 62.7737L78.9893 58.5718H79.6879L79.2468 62.7737H78.5481Z" fill="white"/>
<path d="M80.3754 62.2611C80.2898 62.2634 80.205 62.2445 80.1285 62.206C80.0521 62.1675 79.9863 62.1106 79.9372 62.0405C79.8475 61.9218 79.7988 61.7771 79.7985 61.6283C79.797 61.6014 79.797 61.5744 79.7985 61.5475C79.8092 61.4494 79.8313 61.353 79.8644 61.26C79.8934 61.1775 79.933 61.099 79.9821 61.0265C80.0301 60.9582 80.0853 60.8953 80.1468 60.8388C80.207 60.7835 80.2718 60.7335 80.3404 60.6891C80.4118 60.6453 80.4854 60.6053 80.561 60.5694C80.6429 60.5304 80.7187 60.4965 80.7906 60.4695C80.8624 60.4426 80.9403 60.4117 81.0251 60.3807L81.1249 60.3428L81.1499 60.0943C81.1553 60.0439 81.1579 59.9932 81.1579 59.9426V59.8767C81.1583 59.8512 81.1535 59.8258 81.1439 59.8021C81.1343 59.7785 81.12 59.757 81.102 59.7389C81.06 59.7046 81.0064 59.6878 80.9523 59.692C80.7879 59.692 80.6934 59.8052 80.6688 60.0314L80.6409 60.216L79.9721 60.1881C79.9721 60.1781 79.9721 60.1591 79.9811 60.1322C79.9901 60.1052 79.9881 60.0883 79.9901 60.0793C80.042 59.7672 80.1575 59.538 80.3364 59.3916C80.5451 59.2357 80.8019 59.158 81.0621 59.172C81.3615 59.172 81.5681 59.2529 81.6929 59.4126C81.7989 59.5616 81.8516 59.7419 81.8426 59.9246C81.8422 59.9823 81.8385 60.04 81.8316 60.0973L81.6879 61.4656C81.6698 61.6434 81.6611 61.822 81.6619 62.0006C81.6619 62.0715 81.6619 62.1443 81.6619 62.2182H81.0331C81.0132 62.0276 81.0032 61.8808 81.0032 61.777C80.951 61.9111 80.8662 62.0301 80.7566 62.1234C80.6498 62.2129 80.5147 62.2617 80.3754 62.2611ZM80.6998 61.7162C80.7619 61.7131 80.8216 61.6908 80.8704 61.6523C80.9236 61.6165 80.972 61.5738 81.0141 61.5255L81.1 60.7021C80.7247 60.8964 80.5251 61.117 80.5011 61.3638C80.4975 61.39 80.4958 61.4163 80.4961 61.4427C80.4933 61.505 80.5071 61.567 80.5361 61.6223C80.5517 61.6512 80.575 61.6751 80.6033 61.6917C80.6316 61.7082 80.664 61.7167 80.6968 61.7162H80.6998Z" fill="white"/>
<path d="M82.9069 62.2645C82.7999 62.2703 82.6928 62.2547 82.5919 62.2188C82.491 62.1828 82.3982 62.1271 82.319 62.0549C82.165 61.8923 82.0743 61.6798 82.0635 61.4561L82.6154 61.2655C82.6533 61.6041 82.7691 61.7731 82.9628 61.7725H82.9707C83.0456 61.7715 83.1172 61.7415 83.1704 61.6886C83.1968 61.6635 83.2181 61.6334 83.2328 61.6C83.2476 61.5665 83.2555 61.5305 83.2562 61.494V61.481C83.2562 61.3732 83.1763 61.2425 83.0157 61.0908L82.6334 60.7335C82.4038 60.5192 82.289 60.2937 82.289 60.0568C82.2889 60.0234 82.2912 59.99 82.296 59.957C82.3178 59.7344 82.4251 59.529 82.5955 59.3841C82.7706 59.2404 82.9918 59.1649 83.2183 59.1715C83.3193 59.1659 83.4204 59.1822 83.5146 59.2192C83.6088 59.2563 83.694 59.3132 83.7642 59.3861C83.9011 59.5444 83.9785 59.7457 83.9828 59.955L83.5047 60.1446C83.4761 59.8325 83.3736 59.6755 83.1973 59.6735H83.1923C83.1587 59.6726 83.1252 59.6784 83.0939 59.6906C83.0625 59.7027 83.0339 59.721 83.0097 59.7444C82.9599 59.7888 82.9292 59.8506 82.9238 59.917V59.935C82.9238 60.0228 82.9904 60.1326 83.1234 60.2644L83.5107 60.6546C83.6295 60.7626 83.7305 60.8885 83.8101 61.0279C83.8655 61.1341 83.8933 61.2525 83.891 61.3722C83.8913 61.4056 83.8896 61.4389 83.886 61.4721C83.8786 61.5863 83.8469 61.6978 83.7933 61.7989C83.7396 61.9001 83.665 61.9887 83.5746 62.0589C83.3817 62.201 83.1463 62.2735 82.9069 62.2645Z" fill="white"/>
<path d="M84.9513 62.2645C84.8443 62.2703 84.7372 62.2547 84.6363 62.2188C84.5354 62.1828 84.4426 62.1271 84.3634 62.0549C84.2094 61.8923 84.1188 61.6798 84.1079 61.4561L84.6599 61.2655C84.6978 61.6041 84.8136 61.7731 85.0072 61.7725H85.0152C85.0901 61.7715 85.1617 61.7415 85.2148 61.6886C85.2413 61.6635 85.2625 61.6334 85.2773 61.6C85.292 61.5665 85.2999 61.5305 85.3006 61.494V61.481C85.3006 61.3732 85.2208 61.2425 85.0601 61.0908L84.6778 60.7335C84.4483 60.5192 84.3335 60.2937 84.3335 60.0568C84.3333 60.0234 84.3357 59.99 84.3405 59.957C84.3622 59.7344 84.4696 59.529 84.6399 59.3841C84.8151 59.2404 85.0363 59.1649 85.2627 59.1715C85.3638 59.1659 85.4649 59.1822 85.5591 59.2192C85.6533 59.2563 85.7384 59.3132 85.8087 59.3861C85.9456 59.5444 86.0229 59.7457 86.0272 59.955L85.5491 60.1446C85.5199 59.8325 85.4174 59.6755 85.2417 59.6735H85.2348C85.2011 59.6726 85.1677 59.6784 85.1363 59.6906C85.1049 59.7027 85.0763 59.721 85.0521 59.7444C85.0024 59.7888 84.9716 59.8506 84.9663 59.917V59.935C84.9663 60.0228 85.0328 60.1326 85.1659 60.2644L85.5531 60.6546C85.6719 60.7626 85.773 60.8885 85.8526 61.0279C85.908 61.1341 85.9358 61.2525 85.9334 61.3722C85.9337 61.4056 85.9321 61.4389 85.9284 61.4721C85.921 61.5863 85.8894 61.6978 85.8357 61.7989C85.782 61.9001 85.7075 61.9887 85.617 62.0589C85.4247 62.2006 85.19 62.2731 84.9513 62.2645Z" fill="white"/>
<path d="M87.4038 62.7737L87.844 58.5718H88.5816L88.1404 62.7737H87.4038Z" fill="white"/>
<path d="M88.749 62.2167L89.0634 59.2165H89.7621L89.7321 59.5099C89.9986 59.2834 90.2551 59.1706 90.4997 59.1706C90.5785 59.1684 90.6565 59.1877 90.7252 59.2265C90.7848 59.2599 90.8322 59.3113 90.861 59.3732C90.9061 59.4729 90.9289 59.5812 90.9278 59.6906C90.928 59.732 90.9247 59.7735 90.9179 59.8143L90.6673 62.2167H89.9687L90.2022 59.974C90.2022 59.9431 90.2072 59.9162 90.2072 59.8902C90.2091 59.8468 90.2012 59.8035 90.1843 59.7634C90.1623 59.7165 90.1114 59.6926 90.0326 59.6926C89.9086 59.7059 89.7911 59.7548 89.6942 59.8333L89.4427 62.2157L88.749 62.2167Z" fill="white"/>
<path d="M91.1899 62.2167L91.5043 59.2165H92.198L92.1681 59.5099C92.4346 59.2834 92.6911 59.1706 92.9356 59.1706C93.0145 59.1684 93.0925 59.1877 93.1612 59.2265C93.2207 59.2599 93.2682 59.3113 93.2969 59.3732C93.342 59.4729 93.3648 59.5812 93.3638 59.6906C93.364 59.732 93.3606 59.7735 93.3538 59.8143L93.1033 62.2167H92.4046L92.6382 59.974C92.6382 59.9431 92.6382 59.9162 92.6382 59.8902C92.64 59.8468 92.6322 59.8035 92.6152 59.7634C92.5933 59.7165 92.5424 59.6926 92.4635 59.6926C92.3398 59.7065 92.2227 59.7557 92.1261 59.8343L91.8756 62.2167H91.1899Z" fill="white"/>
<path d="M95.2639 61.988C95.0883 62.171 94.8384 62.2625 94.5144 62.2625C94.19 62.2625 93.9594 62.1707 93.8247 61.988C93.7088 61.8166 93.6527 61.6117 93.665 61.4051C93.665 61.3385 93.6683 61.2718 93.675 61.2055L93.7748 60.2274C93.7906 59.9388 93.9023 59.6638 94.0922 59.4459C94.2678 59.2622 94.5167 59.1704 94.8387 59.1704C95.1608 59.1704 95.3914 59.2616 95.5304 59.4439C95.6473 59.6132 95.7052 59.8163 95.6951 60.0218C95.6949 60.0905 95.6909 60.1591 95.6831 60.2274L95.5833 61.2055C95.5672 61.4947 95.4547 61.7701 95.2639 61.988ZM94.5653 61.7704C94.6093 61.7714 94.6528 61.7614 94.692 61.7415C94.7249 61.7236 94.7538 61.6991 94.7769 61.6696C94.8011 61.6331 94.8197 61.593 94.8318 61.5508C94.8456 61.5058 94.8559 61.4598 94.8627 61.4131C94.8687 61.3712 94.8757 61.3183 94.8817 61.2534L94.9964 60.1815C95.0014 60.0887 95.0054 60.0038 95.0084 59.926C95.0073 59.9217 95.0073 59.9172 95.0084 59.913C95.0084 59.8508 94.99 59.79 94.9555 59.7383C94.9354 59.7127 94.9093 59.6924 94.8796 59.6792C94.8499 59.666 94.8173 59.6602 94.7848 59.6625C94.7414 59.6616 94.6984 59.6719 94.6601 59.6924C94.6261 59.7104 94.5965 59.7356 94.5732 59.7663C94.5487 59.8024 94.5308 59.8426 94.5204 59.885C94.5064 59.9359 94.4954 59.9849 94.4884 60.0228C94.4814 60.0607 94.4754 60.1226 94.4685 60.1815L94.3656 61.2534C94.3567 61.3702 94.3527 61.453 94.3527 61.5169C94.3505 61.58 94.3683 61.6422 94.4036 61.6946C94.4228 61.7202 94.4481 61.7406 94.4772 61.7538C94.5063 61.7671 94.5383 61.7728 94.5703 61.7704H94.5653Z" fill="white"/>
<path d="M96.3469 62.1707L96.0784 59.1704H96.7611L96.8339 61.3722L97.3599 59.1704H98.0286L97.1393 62.1707H96.3469Z" fill="white"/>
<path d="M98.6198 62.2681C98.5342 62.2703 98.4495 62.2513 98.373 62.2129C98.2966 62.1744 98.2308 62.1176 98.1816 62.0475C98.0935 61.9279 98.0465 61.7829 98.0479 61.6343C98.0476 61.6073 98.0492 61.5803 98.0529 61.5535C98.0632 61.455 98.0853 61.3582 98.1188 61.265C98.1477 61.1827 98.1873 61.1045 98.2365 61.0325C98.2839 60.9637 98.3392 60.9008 98.4012 60.8448C98.4612 60.7893 98.526 60.7392 98.5948 60.6951C98.6662 60.6513 98.7398 60.6113 98.8154 60.5753C98.8963 60.5364 98.9731 60.5025 99.045 60.4755C99.1168 60.4486 99.1947 60.4176 99.2795 60.3867L99.3793 60.3488L99.4043 60.1003C99.4093 60.0444 99.4123 59.9945 99.4123 59.9485V59.8827C99.413 59.8562 99.4084 59.8299 99.3988 59.8052C99.3892 59.7805 99.3748 59.758 99.3564 59.739C99.3144 59.7046 99.2608 59.6878 99.2067 59.692C99.041 59.692 98.9465 59.8052 98.9232 60.0314L98.8953 60.216L98.2256 60.1881C98.2256 60.1781 98.2305 60.1591 98.2345 60.1322C98.2385 60.1052 98.2415 60.0883 98.2435 60.0793C98.2967 59.7672 98.4125 59.538 98.5908 59.3916C98.7991 59.2357 99.0556 59.1579 99.3155 59.172C99.6109 59.172 99.8212 59.2522 99.9463 59.4126C100.052 59.5616 100.105 59.7419 100.096 59.9246C100.096 59.9823 100.093 60.0399 100.086 60.0973L99.9413 61.4656C99.9236 61.6434 99.9152 61.822 99.9163 62.0006C99.9163 62.0715 99.9163 62.1433 99.9163 62.2182H99.2885C99.2707 62.0718 99.2603 61.9245 99.2576 61.777C99.2057 61.9111 99.1213 62.0301 99.012 62.1234C98.9033 62.2177 98.7638 62.2692 98.6198 62.2681ZM98.9442 61.7231C99.0067 61.7203 99.0667 61.698 99.1158 61.6593C99.1681 61.6245 99.2154 61.5829 99.2566 61.5355L99.3434 60.7121C98.9681 60.9064 98.7668 61.127 98.7396 61.3738C98.7381 61.4001 98.7381 61.4264 98.7396 61.4527C98.737 61.5151 98.7512 61.5771 98.7805 61.6323C98.7967 61.6611 98.8206 61.6849 98.8495 61.7009C98.8784 61.7169 98.9112 61.7246 98.9442 61.7231Z" fill="white"/>
<path d="M101.217 62.6915C101.101 62.6935 100.985 62.67 100.879 62.6226C100.795 62.5854 100.726 62.5229 100.679 62.444C100.634 62.3606 100.605 62.269 100.596 62.1745C100.588 62.1205 100.584 62.0662 100.583 62.0118C100.583 61.949 100.587 61.8863 100.596 61.8241L100.778 60.1114H100.479L100.527 59.6503H100.82L100.914 58.771H101.613L101.521 59.6503H101.98L101.932 60.1114H101.473L101.288 61.8571C101.288 61.878 101.288 61.897 101.288 61.916C101.283 61.9717 101.298 62.0273 101.331 62.0727C101.358 62.0975 101.389 62.1166 101.424 62.1288C101.458 62.141 101.494 62.146 101.531 62.1435C101.603 62.1429 101.675 62.1369 101.746 62.1256L101.69 62.6585C101.486 62.6805 101.334 62.6915 101.234 62.6915H101.217Z" fill="white"/>
<path d="M102.125 62.7426L102.439 59.7423H103.133L102.819 62.7426H102.125ZM102.49 59.2702L102.553 58.6714H103.251L103.188 59.2702H102.49Z" fill="white"/>
<path d="M105.019 61.988C104.842 62.1707 104.593 62.2625 104.268 62.2625C103.944 62.2625 103.714 62.1707 103.578 61.988C103.463 61.8163 103.407 61.6116 103.419 61.4051C103.419 61.3384 103.423 61.2718 103.43 61.2055L103.53 60.2274C103.546 59.9387 103.658 59.6636 103.848 59.4459C104.023 59.2622 104.272 59.1704 104.595 59.1704C104.917 59.1704 105.148 59.2616 105.286 59.4439C105.403 59.6132 105.461 59.8163 105.451 60.0218C105.452 60.0921 105.45 60.1624 105.444 60.2324L105.344 61.2105C105.3 61.5449 105.194 61.8064 105.019 61.988ZM104.32 61.7704C104.361 61.7719 104.401 61.7636 104.438 61.7463C104.475 61.7289 104.507 61.703 104.532 61.6706C104.556 61.6343 104.575 61.5942 104.587 61.5518C104.601 61.5068 104.611 61.4608 104.618 61.4141C104.624 61.3722 104.63 61.3193 104.637 61.2544L104.751 60.1825C104.756 60.0897 104.76 60.0048 104.764 59.927C104.763 59.9227 104.763 59.9182 104.764 59.914C104.765 59.8517 104.746 59.7908 104.711 59.7393C104.691 59.7139 104.665 59.6937 104.636 59.6804C104.606 59.6672 104.574 59.6614 104.542 59.6635C104.498 59.6625 104.455 59.6728 104.416 59.6934C104.382 59.7114 104.353 59.7367 104.33 59.7673C104.306 59.8035 104.287 59.8437 104.276 59.886C104.263 59.9313 104.253 59.9773 104.245 60.0238C104.238 60.0657 104.231 60.1186 104.224 60.1825L104.11 61.2544C104.102 61.3712 104.097 61.454 104.097 61.5179C104.095 61.581 104.113 61.6432 104.148 61.6956C104.168 61.7218 104.195 61.7424 104.225 61.7555C104.255 61.7686 104.288 61.7738 104.321 61.7704H104.32Z" fill="white"/>
<path d="M105.72 62.2167L106.035 59.2165H106.729L106.699 59.5099C106.965 59.2834 107.222 59.1706 107.466 59.1706C107.545 59.1684 107.623 59.1877 107.692 59.2265C107.751 59.2599 107.799 59.3113 107.827 59.3732C107.873 59.4729 107.895 59.5812 107.894 59.6906C107.894 59.732 107.891 59.7735 107.884 59.8143L107.634 62.2167H106.935L107.169 59.974C107.169 59.9431 107.174 59.9162 107.174 59.8902C107.176 59.8468 107.168 59.8035 107.151 59.7634C107.129 59.7165 107.078 59.6926 106.999 59.6926C106.875 59.7065 106.758 59.7557 106.662 59.8343L106.411 62.2167H105.72Z" fill="white"/>
<path d="M109.262 62.7737L109.702 58.5718H110.44L109.999 62.7737H109.262Z" fill="white"/>
<path d="M110.607 62.7734L110.921 59.7731H111.62L111.59 60.0666C111.857 59.84 112.113 59.7272 112.358 59.7272C112.436 59.725 112.514 59.7443 112.583 59.7831C112.643 59.8166 112.69 59.8679 112.719 59.9298C112.764 60.0295 112.787 60.1378 112.786 60.2472C112.786 60.2887 112.783 60.3301 112.776 60.371L112.525 62.7734H111.827L112.06 60.5307C112.06 60.4997 112.065 60.4728 112.065 60.4468C112.067 60.4034 112.059 60.3601 112.042 60.3201C112.02 60.2732 111.969 60.2492 111.89 60.2492C111.767 60.263 111.65 60.3122 111.553 60.391L111.303 62.7734H110.607Z" fill="white"/>
<path d="M113.876 62.8145C113.759 62.8165 113.644 62.793 113.537 62.7457C113.454 62.7082 113.384 62.6458 113.338 62.567C113.293 62.4833 113.265 62.3918 113.254 62.2975C113.247 62.2435 113.243 62.1892 113.241 62.1348C113.242 62.0721 113.246 62.0094 113.254 61.9472L113.437 60.2345H113.137L113.185 59.7734H113.485L113.578 58.894H114.277L114.185 59.7734H114.641L114.593 60.2345H114.134L113.95 61.9801C113.95 62.0011 113.95 62.0201 113.95 62.039C113.945 62.0947 113.96 62.1501 113.993 62.1957C114.019 62.2204 114.051 62.2394 114.085 62.2516C114.119 62.2638 114.156 62.2689 114.192 62.2666C114.264 62.2659 114.336 62.2599 114.407 62.2486L114.352 62.7816C114.147 62.8035 113.995 62.8145 113.896 62.8145H113.876Z" fill="white"/>
<path d="M115.657 62.8198C115.313 62.8198 115.077 62.7249 114.948 62.5353C114.84 62.3547 114.79 62.146 114.804 61.9364C114.804 61.8586 114.808 61.7758 114.816 61.6879L114.905 60.8625C114.944 60.4852 115.048 60.2018 115.216 60.0121C115.384 59.8225 115.638 59.7274 115.977 59.7267C116.13 59.7215 116.283 59.7497 116.424 59.8095C116.534 59.8572 116.625 59.9405 116.681 60.0461C116.742 60.1643 116.779 60.2937 116.788 60.4263C116.793 60.4822 116.795 60.5411 116.795 60.604C116.795 60.7142 116.787 60.8242 116.772 60.9334L116.732 61.3077H115.548L115.501 61.7488C115.491 61.8486 115.484 61.9434 115.48 62.0283V62.0552C115.477 62.119 115.495 62.1819 115.529 62.2359C115.548 62.2636 115.575 62.2854 115.606 62.2991C115.637 62.3128 115.671 62.3179 115.705 62.3137C115.747 62.3175 115.789 62.3102 115.826 62.2927C115.864 62.2752 115.897 62.248 115.921 62.2139C115.972 62.1219 116 62.0194 116.005 61.9145L116.03 61.6839H116.691L116.671 61.8606C116.66 62.1266 116.554 62.3796 116.372 62.5742C116.275 62.6605 116.162 62.7267 116.039 62.7689C115.917 62.811 115.787 62.8283 115.657 62.8198ZM115.586 60.9563H116.106L116.136 60.6709C116.136 60.618 116.144 60.5711 116.144 60.5281C116.148 60.4625 116.137 60.3968 116.113 60.3355C116.095 60.3016 116.067 60.2739 116.032 60.2561C115.998 60.2383 115.959 60.2312 115.921 60.2357C115.877 60.2323 115.834 60.2413 115.795 60.2617C115.757 60.282 115.725 60.3128 115.703 60.3505C115.644 60.4832 115.61 60.6257 115.603 60.7707L115.586 60.9563Z" fill="white"/>
<path d="M117.075 62.7736L117.388 59.7733H118.087L118.041 60.2295C118.263 59.8968 118.491 59.7321 118.726 59.7354C118.762 59.7355 118.798 59.7395 118.833 59.7474L118.756 60.446C118.676 60.4155 118.591 60.4 118.505 60.4001C118.411 60.4025 118.318 60.4275 118.236 60.473C118.139 60.5323 118.056 60.6112 117.991 60.7045L117.773 62.7776L117.075 62.7736Z" fill="white"/>
<path d="M118.851 62.7734L119.165 59.7731H119.864L119.833 60.0666C120.1 59.84 120.356 59.7272 120.601 59.7272C120.68 59.7251 120.758 59.7445 120.827 59.7831C120.886 59.8169 120.933 59.8681 120.963 59.9298C121.006 60.0299 121.029 60.1379 121.029 60.2472C121.029 60.2886 121.026 60.33 121.019 60.371L120.768 62.7734H120.074L120.307 60.5307C120.309 60.5027 120.309 60.4747 120.307 60.4468C120.309 60.4035 120.301 60.3602 120.285 60.3201C120.262 60.2732 120.212 60.2492 120.132 60.2492C120.008 60.2632 119.891 60.3123 119.795 60.3909L119.544 62.7734H118.851Z" fill="white"/>
<path d="M121.859 62.8193C121.773 62.8216 121.688 62.8026 121.612 62.7641C121.535 62.7256 121.47 62.6688 121.421 62.5987C121.332 62.4792 121.285 62.3342 121.286 62.1855C121.286 62.1584 121.288 62.1314 121.292 62.1046C121.302 62.0061 121.324 61.9092 121.358 61.8162C121.387 61.7339 121.426 61.6557 121.476 61.5836C121.523 61.5149 121.578 61.4519 121.64 61.396C121.7 61.3405 121.765 61.2904 121.834 61.2463C121.905 61.2025 121.979 61.1625 122.054 61.1265C122.135 61.0876 122.212 61.0536 122.284 61.0267C122.356 60.9998 122.434 60.9688 122.518 60.9379L122.617 60.8999L122.642 60.6514C122.647 60.5955 122.65 60.5456 122.65 60.4997V60.4338C122.65 60.3824 122.63 60.3331 122.594 60.2961C122.552 60.2618 122.499 60.245 122.445 60.2492C122.279 60.2492 122.184 60.3623 122.16 60.5885L122.133 60.7732L121.464 60.7452C121.464 60.7353 121.469 60.7163 121.473 60.6893C121.477 60.6624 121.48 60.6454 121.482 60.6364C121.533 60.3244 121.649 60.0951 121.829 59.9488C122.037 59.7927 122.294 59.715 122.553 59.7292C122.849 59.7292 123.059 59.8094 123.184 59.9697C123.29 60.1187 123.343 60.2991 123.334 60.4817C123.334 60.5394 123.331 60.5971 123.324 60.6544L123.179 62.0228C123.162 62.2006 123.153 62.3791 123.154 62.5578C123.154 62.6286 123.154 62.7005 123.154 62.7753H122.527C122.509 62.6289 122.498 62.4817 122.496 62.3342C122.444 62.4682 122.359 62.5872 122.25 62.6805C122.141 62.7725 122.002 62.8218 121.859 62.8193ZM122.183 62.2743C122.246 62.2715 122.306 62.2491 122.355 62.2104C122.408 62.1749 122.456 62.1323 122.498 62.0837L122.583 61.2603C122.209 61.4545 122.01 61.6751 121.985 61.922C121.983 61.9482 121.983 61.9746 121.985 62.0008C121.982 62.0633 121.996 62.1253 122.025 62.1805C122.041 62.2089 122.064 62.2327 122.091 62.2492C122.119 62.2657 122.151 62.2744 122.183 62.2743Z" fill="white"/>
<path d="M124.456 62.8145C124.34 62.8165 124.225 62.793 124.118 62.7457C124.035 62.7085 123.965 62.646 123.919 62.567C123.873 62.4837 123.844 62.392 123.835 62.2975C123.828 62.2435 123.823 62.1892 123.822 62.1348C123.822 62.0721 123.826 62.0094 123.835 61.9472L124.023 60.2345H123.724L123.773 59.7734H124.066L124.16 58.894H124.859L124.768 59.7734H125.221L125.172 60.2345H124.714L124.528 61.9801C124.528 62.0011 124.528 62.0201 124.528 62.039C124.523 62.0947 124.539 62.1503 124.571 62.1957C124.598 62.2205 124.629 62.2396 124.664 62.2518C124.698 62.264 124.735 62.269 124.771 62.2666C124.843 62.2659 124.915 62.2599 124.986 62.2486L124.931 62.7816C124.726 62.8035 124.574 62.8145 124.474 62.8145H124.456Z" fill="white"/>
<path d="M125.364 62.7733L125.678 59.7731H126.372L126.058 62.7733H125.364ZM125.728 59.301L125.792 58.7021H126.491L126.428 59.301H125.728Z" fill="white"/>
<path d="M128.258 62.5451C128.082 62.7281 127.832 62.8196 127.508 62.8196C127.184 62.8196 126.954 62.7281 126.818 62.5451C126.703 62.3735 126.647 62.1688 126.659 61.9623C126.659 61.8984 126.659 61.8315 126.669 61.7626L126.769 60.7845C126.785 60.4958 126.897 60.2208 127.087 60.003C127.262 59.8194 127.51 59.7275 127.833 59.7275C128.155 59.7275 128.385 59.8187 128.525 60.001C128.642 60.1703 128.7 60.3734 128.69 60.5789C128.689 60.6476 128.685 60.7163 128.677 60.7845L128.577 61.7626C128.561 62.0518 128.449 62.3273 128.258 62.5451ZM127.559 62.3276C127.6 62.3291 127.64 62.3208 127.677 62.3034C127.714 62.286 127.746 62.2601 127.771 62.2278C127.795 62.1914 127.814 62.1513 127.826 62.109C127.84 62.0641 127.85 62.018 127.856 61.9712C127.862 61.9293 127.869 61.8764 127.876 61.8115L127.99 60.7396C127.995 60.6468 127.999 60.5619 128.002 60.4841C128.001 60.4798 128.001 60.4754 128.002 60.4711C128.003 60.4089 127.984 60.3479 127.949 60.2965C127.929 60.271 127.903 60.2508 127.874 60.2376C127.844 60.2244 127.812 60.2185 127.78 60.2206C127.736 60.2196 127.693 60.2299 127.654 60.2505C127.62 60.2683 127.591 60.2935 127.568 60.3244C127.543 60.3604 127.525 60.4007 127.514 60.4432C127.501 60.4884 127.491 60.5344 127.483 60.5809C127.477 60.6228 127.47 60.6757 127.462 60.7396L127.348 61.8115C127.339 61.9283 127.335 62.0112 127.335 62.075C127.333 62.1381 127.351 62.2003 127.386 62.2527C127.407 62.2792 127.433 62.3 127.464 62.3132C127.494 62.3263 127.528 62.3312 127.561 62.3276H127.559Z" fill="white"/>
<path d="M128.96 62.7734L129.275 59.7731H129.968L129.938 60.0666C130.205 59.84 130.461 59.7272 130.706 59.7272C130.785 59.7251 130.863 59.7445 130.931 59.7831C130.991 59.8165 131.038 59.8679 131.067 59.9298C131.112 60.0295 131.135 60.1378 131.134 60.2472C131.134 60.2887 131.131 60.3301 131.124 60.371L130.874 62.7734H130.175L130.411 60.5307C130.411 60.4997 130.416 60.4728 130.416 60.4468C130.418 60.4034 130.41 60.3601 130.393 60.3201C130.372 60.2732 130.321 60.2492 130.241 60.2492C130.117 60.2632 130.001 60.3124 129.904 60.3909L129.653 62.7734H128.96Z" fill="white"/>
<path d="M131.969 62.8193C131.883 62.8216 131.798 62.8027 131.721 62.7642C131.645 62.7257 131.579 62.6689 131.53 62.5988C131.442 62.4789 131.395 62.3341 131.396 62.1856C131.395 62.1585 131.397 62.1315 131.401 62.1047C131.412 62.0063 131.434 61.9095 131.467 61.8163C131.496 61.7339 131.535 61.6557 131.584 61.5837C131.632 61.515 131.687 61.452 131.749 61.3961C131.809 61.3405 131.874 61.2904 131.943 61.2464C132.014 61.2025 132.088 61.1626 132.163 61.1266C132.244 61.0877 132.321 61.0537 132.393 61.0268C132.465 60.9998 132.543 60.9689 132.627 60.9379L132.727 60.9L132.752 60.6515C132.757 60.5956 132.76 60.5457 132.76 60.4998V60.4339C132.761 60.4076 132.757 60.3814 132.748 60.3568C132.739 60.3321 132.725 60.3095 132.707 60.2902C132.665 60.2558 132.612 60.239 132.558 60.2433C132.392 60.2433 132.297 60.3564 132.274 60.5826L132.246 60.7673L131.577 60.7393C131.577 60.7293 131.577 60.7104 131.585 60.6834C131.593 60.6565 131.593 60.6395 131.594 60.6305C131.647 60.3185 131.763 60.0892 131.942 59.9428C132.15 59.7871 132.407 59.7094 132.666 59.7233C132.966 59.7233 133.172 59.8031 133.298 59.9638C133.403 60.1131 133.456 60.2933 133.447 60.4758C133.447 60.5335 133.443 60.5912 133.437 60.6485L133.293 62.0169C133.275 62.1946 133.266 62.3732 133.267 62.5519C133.267 62.6227 133.267 62.6946 133.267 62.7694H132.638C132.618 62.5788 132.608 62.4311 132.608 62.3283C132.556 62.4622 132.471 62.5811 132.362 62.6746C132.253 62.7692 132.113 62.8207 131.969 62.8193ZM132.293 62.2744C132.355 62.2713 132.415 62.249 132.464 62.2105C132.517 62.176 132.565 62.1343 132.607 62.0867L132.694 61.2633C132.319 61.4576 132.118 61.6782 132.09 61.9251C132.087 61.9512 132.086 61.9775 132.085 62.0039C132.083 62.0664 132.097 62.1284 132.126 62.1836C132.143 62.2127 132.167 62.2367 132.197 62.2528C132.226 62.2688 132.26 62.2763 132.293 62.2744Z" fill="white"/>
<path d="M133.781 62.7737L134.222 58.5718H134.92L134.479 62.7737H133.781Z" fill="white"/>
<path d="M36.3132 54.7C34.4552 52.7292 31.3978 51.4921 28.8624 50.6595C29.0553 48.6745 28.2274 46.2144 25.772 44.4317C25.1395 43.9849 24.4797 43.578 23.7964 43.2134C23.8606 44.467 24.2217 45.6875 24.8501 46.7742C25.5133 47.8325 27.5689 49.7281 28.4861 50.5372C26.948 50.0433 25.4992 49.6388 23.8529 49.1543C23.8302 48.4818 23.7227 47.8148 23.533 47.1693C23.3806 46.5474 23.1663 45.9423 22.8933 45.363C22.4007 44.5269 21.7729 43.7783 21.0353 43.1475C20.5295 42.7099 20.0004 42.3001 19.4502 41.9199C19.3043 44.1024 19.7465 46.1815 23.4437 49.032C21.9008 48.5616 20.405 48.0912 18.8951 47.5221C18.8807 45.3626 18.2006 43.2601 16.9477 41.5012C16.5971 41.0405 16.2235 40.5978 15.8282 40.1748C14.8875 42.997 16.3268 45.5324 18.4812 47.3621C17.0018 46.7854 15.5759 46.0803 14.2195 45.2548C14.5488 43.665 14.4124 40.6216 12.973 37.7288C11.148 40.3911 12.5262 43.4909 13.8432 44.9961C12.5251 44.1547 11.3178 43.1513 10.2496 42.0092L10.2072 41.9575C10.6776 40.9038 11.7642 37.3572 10.7764 34.3844C8.89486 36.2001 8.75844 38.8389 9.66627 41.1014C9.73043 41.2907 9.80583 41.4761 9.89206 41.6564C8.8455 40.4613 7.95704 39.1365 7.24853 37.7147C8.06108 36.6895 8.65444 35.5084 8.99184 34.2446C9.32924 32.9807 9.4035 31.6611 9.21 30.3674C6.90045 31.8773 6.50534 35.137 7.08861 37.329C6.39494 35.8857 5.82987 34.3841 5.39995 32.8416C7.53547 30.7343 8.46681 28.2695 8.46681 26.0728C6.66997 26.8113 5.70099 28.6081 5.38584 30.4802C5.26035 31.1454 5.23498 31.8255 5.31058 32.4982C4.89406 30.9327 4.62942 29.3307 4.52033 27.7144C4.84489 27.4651 5.39994 26.9148 5.93147 26.3691C7.33184 25.136 8.26114 23.4553 8.56089 21.6136C6.72171 22.0181 5.51754 23.6174 4.89193 25.3766C4.64045 26.076 4.50385 26.8115 4.48741 27.5545C4.44508 26.8348 4.42626 26.1434 4.43567 25.4519C4.52481 21.9018 5.25134 18.3966 6.58059 15.1036C6.63704 14.9484 6.68878 14.8261 6.73111 14.732C6.92867 14.5156 7.24853 14.0923 7.5919 13.6266C8.06228 13.0057 8.56089 12.3142 8.83842 11.8627C9.67972 10.4592 10.3135 8.94143 10.7199 7.35645C9.35441 8.26086 8.26022 9.51925 7.55428 10.9972C7.24849 11.6897 7.00298 12.4074 6.82049 13.1421C6.68697 13.6384 6.59571 14.1451 6.54767 14.6567C6.50534 14.7555 6.44889 14.8919 6.38304 15.0612C6.06318 15.8421 5.68688 16.8957 5.38584 17.9164C5.42817 17.6154 5.53165 16.7123 5.67276 15.701C5.74802 15.1412 5.83739 14.5485 5.90324 13.9982C5.96762 13.5305 6.00063 13.0591 6.00203 12.5871C5.93125 11.3858 5.7197 10.197 5.37173 9.0451C4.55797 10.5879 3.91826 12.2719 4.13463 14.1581C4.24752 15.2024 4.65204 17.2344 5.36231 17.987C4.90083 19.5748 4.57355 21.1987 4.38393 22.8413C4.02174 17.7706 4.38393 17.5872 2.7235 14.1346C1.15714 18.9089 3.46669 22.4462 4.35571 23.0718C4.16803 24.7129 4.13181 26.3677 4.24752 28.0155C2.8599 23.3352 3.30676 23.0295 0.851384 19.7697C0.197558 24.6052 2.70938 27.7097 4.28045 28.3965C4.4199 29.9871 4.70488 31.5616 5.13183 33.1003C2.77994 28.8668 3.16565 28.4388 0 25.7247C0.324561 31.1952 4.11111 33.3354 5.26824 33.5706C5.71646 35.0782 6.29239 36.5448 6.98982 37.9546C6.66996 37.5924 6.22311 37.0749 5.75273 36.5058C5.64925 36.3835 5.54576 36.2612 5.44698 36.1342C3.84769 34.1962 3.4761 33.4624 0.324562 31.8349C1.78744 36.6939 5.39053 38.5002 7.25794 38.472C7.98571 39.8432 8.88165 41.1184 9.92499 42.2679L9.80739 42.1974L9.13005 41.7599C8.88545 41.5953 8.61734 41.4212 8.35393 41.2284C5.82799 39.4739 5.73391 38.7495 1.8674 37.7852C3.63132 40.9979 6.29367 43.2228 9.89677 42.8559L10.1649 42.8136L10.3907 42.7524C11.4655 43.8418 12.6655 44.8002 13.9655 45.6076C13.7068 45.5418 12.9119 45.3207 12.1781 45.0808C9.03596 44.0554 8.88545 43.5474 4.74612 43.5286C8.77726 47.9266 13.2129 46.9106 14.5958 45.9933C15.895 46.7437 17.2506 47.3916 18.6505 47.9313C13.434 47.6302 13.2506 47.1269 9.26646 48.4628C14.5723 51.5485 18.7775 48.8344 19.3984 48.2229C20.7813 48.7356 22.1689 49.1637 23.5801 49.6058C22.5311 49.6529 19.1115 49.8175 18.0955 50.1185C16.8674 50.5407 15.7135 51.1535 14.6758 51.9342C15.5455 52.2039 16.4409 52.382 17.3476 52.4657C20.5508 52.7197 23.8012 50.556 24.4032 49.8504C25.6591 50.2267 27.1738 50.6689 28.5285 51.1205C23.105 51.3039 21.8679 52.3905 20.1087 54.2391C20.9474 54.3671 21.7958 54.4206 22.644 54.399C25.3487 54.2908 28.7589 52.0941 29.3893 51.4168C33.5709 52.9079 35.2125 54.3096 36.4449 55.7772C36.4201 55.4161 36.3761 55.0565 36.3132 54.7Z" fill="white"/>
<path d="M4.67554 22.5121C8.02934 20.5695 9.08298 18.6738 9.51103 17.1216C6.98509 17.2909 5.09888 19.9909 4.67554 22.5121Z" fill="white"/>
<path d="M7.97302 14.0025C7.56134 14.3661 7.19351 14.7765 6.87703 15.2255C6.42228 15.9041 6.05855 16.6394 5.79517 17.4127C6.02565 17.3045 8.70211 15.9263 9.26656 15.423C10.0653 14.6557 10.7145 13.7465 11.181 12.7419C10.588 12.7176 9.99653 12.8171 9.44419 13.0342C8.89185 13.2512 8.39082 13.581 7.97302 14.0025Z" fill="white"/>
<path d="M30.1513 54.7001C32.0328 52.7292 35.0715 51.4921 37.6021 50.6595C37.4139 48.6745 38.2418 46.2144 40.6925 44.4317C41.3258 43.9836 41.9873 43.5767 42.6728 43.2134C42.6044 44.467 42.2418 45.6868 41.6144 46.7742C40.9512 47.8326 38.8956 49.7282 37.9831 50.5372C39.5212 50.0433 40.97 49.6388 42.6163 49.1543C42.6364 48.4816 42.7439 47.8143 42.9362 47.1693C43.0886 46.5474 43.3029 45.9423 43.5759 45.3631C44.0671 44.5259 44.6951 43.777 45.4339 43.1476C45.9383 42.7102 46.4659 42.3004 47.0144 41.9199C47.1602 44.1024 46.718 46.1815 43.0256 49.032C44.5684 48.5616 46.0642 48.0913 47.5694 47.5221C47.5866 45.3631 48.2664 43.2614 49.5168 41.5013C49.9872 40.9086 50.3776 40.4617 50.6363 40.1748C51.577 42.9971 50.1424 45.5324 47.9881 47.3622C49.4654 46.7845 50.8898 46.0794 52.245 45.2549C51.9204 43.665 52.0521 40.6216 53.4962 37.7288C55.3213 40.3912 53.9431 43.491 52.626 44.9962C53.9426 44.1547 55.1484 43.1512 56.215 42.0093L56.262 41.9575C55.7916 40.9039 54.7004 37.3572 55.6929 34.3844C57.5744 36.2001 57.7108 38.8389 56.803 41.1014C56.7317 41.2816 56.65 41.4575 56.5583 41.6283C57.6048 40.4341 58.4919 39.1091 59.1972 37.6865C58.3922 36.6631 57.805 35.4859 57.4718 34.2272C57.1385 32.9686 57.0662 31.655 57.2592 30.3674C59.5688 31.8773 59.9639 35.137 59.3759 37.329C60.0696 35.8857 60.6347 34.3841 61.0646 32.8416C58.9338 30.7343 58.0024 28.2695 58.0024 26.0728C59.7946 26.8113 60.7635 28.6082 61.0834 30.4803C61.2089 31.1454 61.2342 31.8256 61.1586 32.4982C61.5729 30.9322 61.8375 29.3305 61.9489 27.7145C61.4554 27.2909 60.9844 26.8419 60.5378 26.3692C59.12 25.1466 58.1762 23.4653 57.8707 21.6184C59.7052 22.0229 60.9141 23.6222 61.5397 25.3814C61.7895 26.081 61.9246 26.8165 61.9395 27.5592C61.9865 26.8396 62.0053 26.1481 61.9912 25.4566C61.9036 21.9068 61.1786 18.4017 59.851 15.1083L59.7005 14.7367C59.4982 14.5203 59.1831 14.097 58.835 13.6313C58.3646 13.0104 57.8942 12.319 57.5932 11.8674C56.7471 10.4507 56.1117 8.9185 55.707 7.31885C57.0749 8.22055 58.1697 9.47968 58.8726 10.9596C59.1807 11.6513 59.4262 12.3691 59.6064 13.1045C59.7446 13.5997 59.8359 14.1068 59.8792 14.6191C59.9216 14.7179 59.9827 14.8543 60.0486 15.0237C60.3637 15.8045 60.7447 16.8581 61.0458 17.8788C61.0034 17.5778 60.8952 16.6747 60.7541 15.6634C60.6789 15.1036 60.5942 14.5109 60.5283 13.9606C60.4627 13.493 60.4281 13.0216 60.4249 12.5495C60.5003 11.3488 60.7117 10.1605 61.0552 9.0075C61.8736 10.5503 62.5133 12.2343 62.297 14.1205C62.1841 15.1648 61.7796 17.1968 61.0646 17.9494C61.551 19.5471 61.8988 21.1839 62.1041 22.8413C62.471 17.7707 62.1041 17.5872 63.7646 14.1346C65.3356 18.909 63.0214 22.4462 62.1323 23.0718C62.3122 24.6962 62.3436 26.3336 62.2264 27.9638C63.6376 23.2835 63.1672 22.9777 65.6272 19.718C66.2811 24.5535 63.7457 27.658 62.1982 28.3448C62.0571 29.9356 61.7706 31.5101 61.3421 33.0486C63.7175 28.8152 63.313 28.3871 66.4786 25.673C66.1494 31.1435 62.3675 33.2837 61.2057 33.5189C60.7595 35.0272 60.1835 36.494 59.4841 37.9029C59.804 37.5407 60.2508 37.0233 60.7259 36.4541L61.0317 36.0825C62.6309 34.1445 63.0025 33.4107 66.1494 31.7832C64.6912 36.6422 61.0881 38.4485 59.2207 38.4203C58.4912 39.7917 57.5937 41.0668 56.5489 42.2162L56.6665 42.1457C56.8735 42.0187 57.0993 41.8681 57.3486 41.7082C57.5979 41.5483 57.8613 41.3696 58.1247 41.1767C60.6507 39.4222 60.7447 38.6978 64.6112 37.7335C62.8473 40.9462 60.185 43.1711 56.5819 42.8042L56.3138 42.7619L56.088 42.7007C55.0124 43.7912 53.8107 44.7497 52.5084 45.5559C52.7718 45.4901 53.5667 45.269 54.3005 45.0291C57.4427 44.0037 57.5932 43.4957 61.7325 43.4768C57.6967 47.8749 53.2657 46.8589 51.8546 45.9416C50.557 46.692 49.203 47.3399 47.8046 47.8796C53.0211 47.5785 53.1999 47.0752 57.184 48.4111C51.8781 51.4968 47.6776 48.7827 47.0567 48.1712C45.6738 48.6839 44.2815 49.112 42.8703 49.5541C43.924 49.6012 47.3436 49.7658 48.3597 50.0668C49.5872 50.4901 50.7411 51.1027 51.7793 51.8825C50.9095 52.1516 50.0141 52.3297 49.1076 52.414C45.9043 52.668 42.654 50.5043 42.0519 49.7987C40.796 50.175 39.286 50.6172 37.9314 51.0688C43.3501 51.2522 44.5919 52.3388 46.3464 54.1874C45.5093 54.3156 44.6624 54.3691 43.8158 54.3473C41.1111 54.2391 37.7009 52.0424 37.0706 51.3651C32.8889 52.8562 31.2426 54.2579 30.0149 55.7255C30.0409 55.3814 30.0865 55.039 30.1513 54.7001Z" fill="white"/>
<path d="M61.7937 22.5121C58.4399 20.5695 57.3863 18.6738 56.9583 17.1216C59.4842 17.2909 61.3704 19.9909 61.7937 22.5121Z" fill="white"/>
<path d="M58.4969 14.0025C58.9081 14.3651 59.2745 14.7757 59.5881 15.2255C60.0465 15.9027 60.412 16.6383 60.6747 17.4127C60.4442 17.3046 57.7678 15.9263 57.2033 15.423C56.4029 14.6561 55.7521 13.7469 55.2842 12.7419C55.8778 12.7175 56.4701 12.817 57.0232 13.0341C57.5763 13.2511 58.0782 13.5809 58.4969 14.0025Z" fill="white"/>
<path d="M16.2141 20.5884C16.5945 21.2129 17.1486 21.7131 17.8087 22.0277C17.8834 22.063 17.9503 22.1127 18.0057 22.1739C18.061 22.2352 18.1037 22.3068 18.1313 22.3846C18.1588 22.4625 18.1707 22.545 18.1662 22.6274C18.1617 22.7099 18.1409 22.7906 18.1051 22.865C18.0319 23.014 17.9033 23.1285 17.7469 23.1839C17.5904 23.2393 17.4184 23.2312 17.2678 23.1613C17.0165 23.0387 16.7758 22.8955 16.5481 22.7333C16.8868 23.7255 17.5274 24.5869 18.3802 25.1968C19.233 25.8066 20.2552 26.1344 21.3036 26.1341H21.3413C21.3154 25.7881 21.3154 25.4406 21.3413 25.0946C21.4798 23.4902 22.2182 21.9971 23.4093 20.9133C24.6003 19.8294 26.1563 19.2347 27.7666 19.2478H31.3415C31.4276 19.2523 31.5137 19.2391 31.5944 19.2088C31.6751 19.1785 31.7487 19.1319 31.8105 19.0718C31.8724 19.0117 31.9211 18.9395 31.9537 18.8597C31.9864 18.7799 32.0021 18.6943 32 18.6081C32 18.1091 32.1983 17.6305 32.5511 17.2776C32.904 16.9248 33.3826 16.7266 33.8816 16.7266H35.7631C35.9202 16.7402 36.0666 16.8122 36.1732 16.9285C36.2798 17.0447 36.339 17.1968 36.339 17.3545C36.339 17.5123 36.2798 17.6643 36.1732 17.7805C36.0666 17.8968 35.9202 17.9689 35.7631 17.9825H33.8816C33.7156 17.9825 33.5565 18.0484 33.4392 18.1657C33.3219 18.283 33.256 18.4422 33.256 18.6081C33.256 19.1071 33.0577 19.5857 32.7049 19.9385C32.352 20.2914 31.8735 20.4896 31.3744 20.4896H27.7666C26.4693 20.4744 25.2144 20.9511 24.2544 21.8238C23.2944 22.6965 22.7006 23.9005 22.5925 25.1934C22.5606 25.6665 22.597 26.1418 22.7007 26.6045C22.7289 26.7315 22.7571 26.8491 22.7947 26.9667C22.8004 26.9909 22.8083 27.0145 22.8183 27.0373C22.8559 27.1643 22.8982 27.2819 22.9453 27.3994V27.4371C23.2407 28.1476 23.6948 28.7811 24.2729 29.2891C24.851 29.797 25.5376 30.1659 26.2802 30.3675H26.3273C26.4449 30.3958 26.5578 30.424 26.6754 30.4428L26.8541 30.471C26.9397 30.4863 27.0261 30.4973 27.1128 30.5039C27.268 30.5039 27.428 30.5322 27.5832 30.5322C28.3665 30.5294 29.1384 30.3439 29.8375 29.9903C30.5365 29.6367 31.1433 29.1248 31.6096 28.4954C31.3116 28.3066 31.0256 28.0992 30.7535 27.8745C30.6262 27.7675 30.5464 27.6145 30.5314 27.4488C30.5164 27.2832 30.5675 27.1184 30.6736 26.9902C30.7258 26.9261 30.7904 26.8731 30.8634 26.8343C30.9365 26.7954 31.0165 26.7716 31.0989 26.7642C31.1813 26.7567 31.2643 26.7658 31.3431 26.7909C31.422 26.816 31.495 26.8566 31.5579 26.9102C32.4152 27.6215 33.4197 28.1337 34.4989 28.4097C35.5781 28.6857 36.7051 28.7187 37.7986 28.5063C38.8921 28.2939 39.9249 27.8414 40.8223 27.1814C41.7197 26.5215 42.4594 25.6706 42.9881 24.6901C42.6513 24.233 42.3938 23.7226 42.2261 23.1802C42.2031 23.1011 42.1959 23.0182 42.205 22.9364C42.214 22.8546 42.2392 22.7753 42.2789 22.7032C42.3187 22.6311 42.3723 22.5676 42.4367 22.5162C42.5011 22.4649 42.575 22.4268 42.6541 22.404C42.7326 22.3802 42.815 22.3721 42.8965 22.3803C42.9781 22.3885 43.0572 22.4127 43.1294 22.4516C43.2016 22.4906 43.2653 22.5434 43.3169 22.6071C43.3686 22.6707 43.4071 22.744 43.4302 22.8227C43.6085 23.4199 43.9323 23.9636 44.3726 24.4047C44.8129 24.8459 45.3559 25.1708 45.9528 25.3502C46.5497 25.5297 47.1819 25.558 47.7924 25.4327C48.403 25.3075 48.9729 25.0325 49.4509 24.6325C49.929 24.2325 50.3001 23.7201 50.5312 23.1412C50.7622 22.5623 50.8458 21.935 50.7744 21.3158C50.7031 20.6966 50.479 20.1048 50.1225 19.5936C49.7659 19.0824 49.2879 18.6678 48.7314 18.387C48.6506 18.7532 48.5437 19.1132 48.4116 19.4642C48.3492 19.6195 48.2277 19.7436 48.0737 19.8094C47.9198 19.8751 47.7461 19.877 47.5907 19.8146C47.4354 19.7522 47.3113 19.6307 47.2455 19.4768C47.1798 19.3228 47.1779 19.1491 47.2403 18.9938C47.4392 18.4883 47.569 17.9582 47.626 17.418C47.626 17.3286 47.626 17.2487 47.626 17.164C47.626 17.0793 47.626 16.863 47.626 16.6936C47.6268 15.3672 47.2063 14.0749 46.4251 13.0029C45.644 11.931 44.5426 11.1348 43.2797 10.7292C43.4777 11.0289 43.6522 11.3435 43.8018 11.67C43.8542 11.7702 43.8779 11.883 43.8704 11.9958C43.863 12.1086 43.8246 12.2172 43.7595 12.3097C43.6957 12.403 43.6078 12.4773 43.5051 12.5247C43.4024 12.572 43.2888 12.5907 43.1764 12.5786C43.0639 12.5665 42.9569 12.5242 42.8666 12.4562C42.7763 12.3881 42.7061 12.2969 42.6635 12.1921C42.0048 10.7692 40.8389 9.64324 39.394 9.03431C37.9491 8.42538 36.329 8.37729 34.8505 8.89946C34.3875 9.05727 33.9453 9.27049 33.5335 9.53447C33.4645 9.58645 33.3855 9.62369 33.3016 9.64389C33.2176 9.66408 33.1303 9.66679 33.0452 9.65186C32.9602 9.63693 32.8791 9.60466 32.807 9.55707C32.7349 9.50949 32.6733 9.44759 32.6262 9.37522C32.579 9.30285 32.5472 9.22156 32.5328 9.13639C32.5183 9.05122 32.5215 8.96399 32.5422 8.88012C32.5629 8.79625 32.6006 8.71753 32.653 8.64884C32.7054 8.58015 32.7713 8.52296 32.8467 8.48082L33.1384 8.30679C32.4845 7.99625 31.763 7.85544 31.0403 7.89737C30.3177 7.9393 29.6173 8.1626 29.0037 8.54668C29.2939 8.80533 29.5542 9.09563 29.7799 9.41217C29.8456 9.50301 29.886 9.60975 29.8967 9.72137C29.9075 9.833 29.8882 9.94547 29.841 10.0472C29.7951 10.1483 29.7228 10.2353 29.6318 10.299C29.5408 10.3627 29.4344 10.4008 29.3236 10.4094C29.2119 10.4183 29.0999 10.3973 28.999 10.3485C28.8981 10.2997 28.8121 10.2249 28.7497 10.1318C28.4552 9.70844 28.0755 9.35118 27.6349 9.08291C26.8467 8.59278 25.9041 8.41375 24.9911 8.58071C24.078 8.74767 23.2598 9.24866 22.696 9.98603C22.9434 10.0601 23.1855 10.1513 23.4203 10.2589C23.5221 10.3051 23.6099 10.3772 23.6751 10.468C23.7403 10.5588 23.7806 10.6651 23.7919 10.7763C23.8 10.8877 23.7786 10.9992 23.7298 11.0996C23.6809 11.2001 23.6065 11.2859 23.514 11.3484C23.4214 11.4109 23.314 11.4479 23.2026 11.4556C23.0912 11.4633 22.9797 11.4416 22.8794 11.3925C22.3775 11.1554 21.8294 11.0322 21.2743 11.0319C20.7193 11.0315 20.171 11.154 19.6688 11.3905C19.1667 11.6269 18.723 11.9716 18.3697 12.3997C18.0164 12.8278 17.7622 13.3287 17.6253 13.8667C17.9617 13.7357 18.3121 13.6442 18.6695 13.5938C18.7511 13.5824 18.834 13.5872 18.9138 13.6078C18.9935 13.6284 19.0683 13.6646 19.134 13.7142C19.1998 13.7637 19.2551 13.8258 19.2969 13.8967C19.3386 13.9677 19.366 14.0462 19.3774 14.1277C19.3889 14.2093 19.3841 14.2922 19.3635 14.3719C19.3428 14.4516 19.3067 14.5265 19.2571 14.5922C19.2075 14.658 19.1455 14.7133 19.0745 14.7551C19.0036 14.7968 18.9251 14.8242 18.8436 14.8356C18.2704 14.9165 17.7242 15.1308 17.249 15.4612C16.4633 16.0072 15.915 16.832 15.7158 17.7679C15.5166 18.7037 15.6813 19.6803 16.1765 20.499L16.2141 20.5884Z" fill="white"/>
<path d="M42.3482 32.4325C45.6408 32.4325 48.3126 30.3205 48.3126 27.7287C48.3089 27.3671 48.255 27.0078 48.1527 26.6609C47.4179 26.827 46.6551 26.824 45.9217 26.652C45.1883 26.4801 44.5036 26.1438 43.9192 25.6685C43.1972 26.8643 42.2015 27.8717 41.0141 28.6077C39.8268 29.3437 38.4816 29.7872 37.0894 29.9019C37.9985 31.1761 39.3751 32.0386 40.9182 32.3008C41.3892 32.3929 41.8683 32.4371 42.3482 32.4325Z" fill="white"/>
<path d="M35.6172 29.897C34.7349 29.8169 33.8693 29.6061 33.049 29.2714C33.0273 29.2763 33.0048 29.2763 32.9831 29.2714C32.9173 29.2479 32.8561 29.2149 32.795 29.1867L32.715 29.1538C32.5001 29.4633 32.2542 29.7502 31.9812 30.0099C31.9971 30.4982 32.2023 30.9612 32.5535 31.301C32.9046 31.6407 33.3741 31.8305 33.8627 31.8302C34.1404 31.8245 34.4161 31.8787 34.6709 31.9891C34.9258 32.0995 35.1539 32.2635 35.3397 32.47L38.971 36.6281C39.0339 36.6984 39.1106 36.7547 39.1965 36.7936C39.2824 36.8325 39.3754 36.853 39.4696 36.8539C39.5573 36.8545 39.6443 36.8378 39.7256 36.8049C39.8069 36.7719 39.8809 36.7232 39.9433 36.6616C40.0058 36.6 40.0555 36.5267 40.0896 36.4459C40.1238 36.3651 40.1417 36.2784 40.1423 36.1907V33.4154C39.1775 33.1933 38.2728 32.7635 37.4913 32.1558C36.7098 31.5481 36.0702 30.7773 35.6172 29.897Z" fill="white"/>
<path d="M87.9425 53.6535C86.106 53.6893 84.2761 53.4235 82.5268 52.8667C81.1415 52.4396 79.8814 51.6842 78.8551 50.6658C77.9152 49.6786 77.182 48.5158 76.6979 47.2447C76.1785 45.8118 75.8844 44.3079 75.8259 42.786C75.8259 42.3299 75.8259 41.8624 75.8259 41.3948C75.8259 40.1633 75.8833 38.8746 75.998 37.5176L77.7765 20.8116C77.9875 18.5109 78.4492 16.2397 79.1534 14.038C79.748 12.2046 80.6648 10.4904 81.8613 8.9749C83.0609 7.47645 84.6471 6.32957 86.4509 5.6565C88.6044 4.86088 90.8891 4.47407 93.1862 4.51616C95.2403 4.46153 97.2867 4.78636 99.2215 5.47408C100.72 6.01524 102.02 6.99285 102.951 8.27931C103.829 9.57337 104.405 11.0461 104.637 12.5898C104.795 13.5588 104.871 14.539 104.867 15.5205C104.864 16.477 104.806 17.4326 104.695 18.3827L104.259 22.4994H95.9514L96.3874 18.474C96.5281 17.2814 96.6086 16.0825 96.6284 14.8819C96.6341 14.4468 96.6034 14.0119 96.5366 13.5819C96.4224 12.8566 96.0575 12.1934 95.5047 11.7065C94.9519 11.2195 94.2457 10.9391 93.5074 10.9135C93.1876 10.8753 92.8658 10.8562 92.5436 10.8565C91.7343 10.8397 90.93 10.9872 90.18 11.2898C89.5864 11.5392 89.0512 11.9081 88.608 12.3731C88.165 12.9132 87.8301 13.5325 87.6213 14.1977C87.3644 14.9223 87.1649 15.6658 87.0246 16.4213C86.8984 17.1169 86.7722 18.0178 86.6575 19.1353L84.5577 39.2281C84.4496 40.1633 84.3922 41.1035 84.3856 42.0448C84.3197 43.2143 84.5197 44.3836 84.9708 45.4658C85.5674 46.686 86.8181 47.2904 88.6998 47.2904C89.208 47.2954 89.7154 47.2495 90.2144 47.1535C90.6245 47.0575 91.0135 46.8874 91.3618 46.6518C91.6854 46.4489 91.9889 46.216 92.2683 45.9562C92.5558 45.6763 92.7789 45.3378 92.9223 44.9641C93.1059 44.5307 93.2665 44.143 93.3927 43.8237C93.5492 43.3712 93.6644 42.9056 93.7369 42.4325C93.8402 41.8509 93.9205 41.3492 93.9664 40.9501C94.0123 40.551 94.0812 39.9808 94.1615 39.2624L94.5975 35.1001H102.87L102.457 39.0115C102.3 40.6488 102.005 42.27 101.574 43.8579C101.181 45.273 100.603 46.6304 99.8526 47.8947C99.1518 49.0934 98.2337 50.1528 97.1447 51.0193C95.9735 51.9075 94.6469 52.5725 93.2321 52.9807C91.5112 53.4596 89.7293 53.6863 87.9425 53.6535Z" fill="white"/>
<path d="M108.218 53.6563L113.228 5.06836H121.622L116.601 53.6563H108.218Z" fill="white"/>
<path d="M124.973 53.6563L130.191 5.06836H138.935L133.705 53.6563H124.973Z" fill="white"/>
<path d="M146.035 8.02092C147.974 8.02092 149.546 6.44923 149.546 4.51046C149.546 2.57169 147.974 1 146.035 1C144.096 1 142.525 2.57169 142.525 4.51046C142.525 6.44923 144.096 8.02092 146.035 8.02092Z" stroke="white" stroke-width="0.7" stroke-linecap="round" stroke-linejoin="round"/>
<path d="M144.982 6.17012V3.10645H146.017C146.257 3.10645 146.453 3.14733 146.607 3.22911C146.76 3.30989 146.874 3.42109 146.948 3.5627C147.022 3.70432 147.059 3.86538 147.059 4.04589C147.059 4.2264 147.022 4.38647 146.948 4.52609C146.874 4.66571 146.761 4.77541 146.608 4.85519C146.456 4.93398 146.261 4.97337 146.023 4.97337H145.186V4.63828H146.011C146.175 4.63828 146.307 4.61435 146.406 4.56648C146.507 4.51861 146.58 4.45079 146.625 4.36303C146.671 4.27427 146.694 4.16856 146.694 4.04589C146.694 3.92322 146.671 3.81602 146.625 3.72427C146.579 3.63252 146.506 3.56171 146.405 3.51184C146.304 3.46098 146.171 3.43555 146.005 3.43555H145.353V6.17012H144.982ZM146.424 4.79386L147.178 6.17012H146.747L146.005 4.79386H146.424Z" fill="white"/>
</svg>
