<svg width="323" height="35" viewBox="0 0 323 35" fill="none" xmlns="http://www.w3.org/2000/svg">
<path d="M25.936 33.841C24.6089 32.4334 22.4252 31.5498 20.6144 30.9551C20.7521 29.5374 20.1608 27.7803 18.4071 26.5071C17.9554 26.1879 17.4841 25.8973 16.9961 25.6369C17.0419 26.5323 17.2998 27.404 17.7486 28.1801C18.2223 28.936 19.6905 30.2899 20.3456 30.8678C19.247 30.515 18.2123 30.2261 17.0364 29.8801C17.0202 29.3998 16.9435 28.9234 16.808 28.4623C16.6991 28.0181 16.546 27.586 16.3511 27.1723C15.9992 26.5751 15.5508 26.0404 15.024 25.5899C14.6628 25.2773 14.2848 24.9846 13.8919 24.713C13.7877 26.2719 14.1035 27.7568 16.7441 29.7927C15.6422 29.4568 14.5739 29.1208 13.4954 28.7143C13.4851 27.1719 12.9994 25.6703 12.1046 24.414C11.8541 24.085 11.5873 23.7688 11.305 23.4666C10.6331 25.4824 11.6611 27.2932 13.1998 28.6001C12.1432 28.1882 11.1247 27.6846 10.156 27.095C10.3912 25.9594 10.2937 23.7858 9.26571 21.7197C7.9622 23.6212 8.94656 25.8351 9.88724 26.9102C8.9458 26.3093 8.0835 25.5925 7.32052 24.7769L7.29029 24.7399C7.62625 23.9874 8.40231 21.4543 7.6968 19.331C6.35296 20.6278 6.25553 22.5125 6.90393 24.1285C6.94975 24.2637 7.00361 24.3961 7.06519 24.5249C6.31771 23.6713 5.68315 22.7251 5.17711 21.7096C5.75746 20.9774 6.18125 20.1338 6.42223 19.2311C6.66321 18.3285 6.71625 17.3859 6.57805 16.4619C4.9285 17.5403 4.6463 19.8685 5.06289 21.4341C4.56745 20.4033 4.16386 19.3308 3.8568 18.2291C5.38205 16.724 6.04724 14.9635 6.04724 13.3946C4.76388 13.9221 4.07181 15.2054 3.84672 16.5425C3.75709 17.0176 3.73897 17.5034 3.79297 17.9838C3.49548 16.8657 3.30646 15.7215 3.22855 14.5671C3.46036 14.389 3.85679 13.996 4.23642 13.6063C5.23661 12.7255 5.90034 11.5251 6.11444 10.2097C4.80084 10.4987 3.94078 11.6409 3.49396 12.8974C3.31435 13.3969 3.21678 13.9222 3.20504 14.4529C3.1748 13.9389 3.16136 13.445 3.16808 12.9511C3.23175 10.4156 3.75066 7.91208 4.70005 5.56008C4.74036 5.44922 4.77732 5.36186 4.80756 5.29467C4.94866 5.14013 5.17711 4.83777 5.42235 4.50517C5.75831 4.06171 6.11444 3.56785 6.31265 3.24533C6.91353 2.24296 7.36617 1.1589 7.65648 0.0268555C6.68119 0.672815 5.89969 1.57159 5.39548 2.62717C5.17708 3.12182 5.00173 3.63437 4.87139 4.15914C4.77603 4.51359 4.71085 4.87548 4.67654 5.24092C4.6463 5.31147 4.60598 5.4089 4.55895 5.52985C4.3305 6.08754 4.06173 6.84008 3.84672 7.56911C3.87696 7.3541 3.95086 6.70906 4.05165 5.98675C4.1054 5.58696 4.16923 5.16365 4.21627 4.77058C4.26224 4.43657 4.28582 4.09986 4.28683 3.76271C4.23627 2.90474 4.08517 2.05568 3.83664 1.23294C3.25544 2.33488 2.79853 3.53761 2.95307 4.8848C3.0337 5.63063 3.32262 7.08197 3.82992 7.6195C3.50031 8.75359 3.26656 9.91336 3.13113 11.0866C2.87244 7.46496 3.13113 7.33394 1.9452 4.86801C0.826459 8.27798 2.47601 10.8044 3.11097 11.2512C2.97692 12.4233 2.95105 13.6053 3.0337 14.7821C2.04262 11.4393 2.36178 11.221 0.608083 8.89278C0.141101 12.3464 1.93512 14.5638 3.05722 15.0542C3.15682 16.1903 3.36036 17.3149 3.6653 18.4138C1.98551 15.3902 2.261 15.0845 0 13.146C0.231811 17.0532 2.93628 18.5818 3.76273 18.7498C4.08286 19.8265 4.49421 20.8741 4.99233 21.8809C4.76388 21.6222 4.44473 21.2527 4.10877 20.8462C4.03486 20.7588 3.96094 20.6715 3.89039 20.5808C2.74813 19.1966 2.48273 18.6725 0.231812 17.5101C1.27664 20.9805 3.85007 22.2706 5.18383 22.2505C5.70363 23.2299 6.34353 24.1406 7.08871 24.9616L7.00472 24.9113L6.52094 24.5988C6.34625 24.4812 6.15475 24.3569 5.96661 24.2192C4.16252 22.9661 4.09533 22.4487 1.33375 21.76C2.5936 24.0546 4.49512 25.6436 7.06856 25.3816L7.26004 25.3514L7.42131 25.3077C8.189 26.0857 9.04605 26.7703 9.97459 27.3469C9.78981 27.2999 9.22204 27.142 8.69794 26.9707C6.45374 26.2383 6.34624 25.8755 3.38981 25.862C6.26897 29.0032 9.43706 28.2776 10.4248 27.6224C11.3527 28.1584 12.3209 28.6212 13.3207 29.0066C9.59495 28.7916 9.46394 28.4321 6.61837 29.3862C10.408 31.5901 13.4114 29.6516 13.8549 29.2149C14.8426 29.5811 15.8337 29.8868 16.8416 30.2026C16.0924 30.2362 13.65 30.3538 12.9243 30.5688C12.0472 30.8703 11.223 31.3079 10.4819 31.8656C11.103 32.0582 11.7426 32.1854 12.3901 32.2452C14.678 32.4266 16.9995 30.8812 17.4295 30.3773C18.3265 30.6461 19.4083 30.9619 20.3758 31.2844C16.5022 31.4154 15.6187 32.1915 14.3622 33.5118C14.9613 33.6032 15.5672 33.6414 16.173 33.626C18.1048 33.5487 20.5405 31.9798 20.9907 31.496C23.9773 32.561 25.1498 33.5622 26.03 34.6104C26.0123 34.3524 25.9809 34.0956 25.936 33.841Z" fill="#F5F7FB"/>
<path d="M3.33922 10.8515C5.7346 9.46403 6.48714 8.11013 6.79286 7.00146C4.98877 7.12241 3.64158 9.0508 3.33922 10.8515Z" fill="#F5F7FB"/>
<path d="M5.6946 4.77451C5.40056 5.03421 5.13785 5.32735 4.91181 5.64799C4.58702 6.13268 4.32723 6.65791 4.13911 7.2102C4.30373 7.13293 6.21534 6.14857 6.61848 5.78909C7.189 5.24102 7.65265 4.59167 7.98583 3.87414C7.56232 3.8568 7.13985 3.9279 6.74535 4.08293C6.35086 4.23795 5.993 4.47348 5.6946 4.77451Z" fill="#F5F7FB"/>
<path d="M21.5347 33.841C22.8785 32.4334 25.0488 31.5498 26.8563 30.9552C26.7219 29.5374 27.3132 27.7803 29.0635 26.5071C29.5159 26.187 29.9883 25.8964 30.4779 25.6369C30.4291 26.5323 30.1701 27.4035 29.722 28.1801C29.2483 28.936 27.7802 30.29 27.1284 30.8678C28.227 30.5151 29.2617 30.2261 30.4376 29.8801C30.4519 29.3996 30.5287 28.923 30.666 28.4623C30.7749 28.0182 30.928 27.586 31.1229 27.1723C31.4737 26.5744 31.9223 26.0395 32.45 25.5899C32.8102 25.2775 33.187 24.9848 33.5788 24.7131C33.683 26.2719 33.3672 27.7568 30.7299 29.7927C31.8318 29.4568 32.9002 29.1208 33.9752 28.7143C33.9875 27.1723 34.473 25.6712 35.3661 24.4141C35.7021 23.9908 35.9809 23.6716 36.1657 23.4667C36.8376 25.4824 35.8129 27.2932 34.2742 28.6001C35.3294 28.1875 36.3467 27.6839 37.3147 27.095C37.0828 25.9595 37.1769 23.7858 38.2083 21.7197C39.5118 23.6212 38.5275 25.8352 37.5868 26.9102C38.5272 26.3092 39.3884 25.5925 40.1501 24.7769L40.1837 24.7399C39.8478 23.9874 39.0684 21.4543 39.7772 19.331C41.1211 20.6278 41.2185 22.5125 40.5701 24.1285C40.5192 24.2572 40.4608 24.3828 40.3954 24.5048C41.1428 23.6518 41.7764 22.7055 42.2801 21.6894C41.7052 20.9585 41.2858 20.1177 41.0478 19.2187C40.8097 18.3198 40.7581 17.3816 40.896 16.4619C42.5455 17.5404 42.8277 19.8685 42.4078 21.4341C42.9032 20.4033 43.3068 19.3308 43.6139 18.2291C42.092 16.724 41.4268 14.9636 41.4268 13.3946C42.7068 13.9221 43.3988 15.2054 43.6273 16.5426C43.7169 17.0176 43.735 17.5034 43.6811 17.9838C43.9769 16.8654 44.1659 15.7213 44.2455 14.5671C43.893 14.2646 43.5566 13.9439 43.2376 13.6063C42.225 12.7331 41.5509 11.5323 41.3327 10.2131C42.6429 10.502 43.5064 11.6443 43.9532 12.9008C44.1316 13.4005 44.2281 13.9258 44.2387 14.4563C44.2723 13.9422 44.2858 13.4484 44.2757 12.9545C44.2131 10.4192 43.6953 7.91567 42.7471 5.56346L42.6396 5.29806C42.4951 5.14352 42.27 4.84115 42.0214 4.50855C41.6855 4.06509 41.3495 3.57123 41.1345 3.24871C40.5302 2.23689 40.0764 1.14252 39.7873 0C40.7643 0.644025 41.5462 1.54333 42.0483 2.60032C42.2683 3.09433 42.4437 3.60702 42.5724 4.13228C42.6711 4.48598 42.7363 4.84817 42.7672 5.21407C42.7975 5.28462 42.8412 5.38205 42.8882 5.50299C43.1133 6.06068 43.3854 6.81322 43.6004 7.54225C43.5702 7.32724 43.4929 6.6822 43.3921 5.95989C43.3384 5.5601 43.2779 5.13679 43.2309 4.74372C43.184 4.40977 43.1593 4.07307 43.157 3.73585C43.2108 2.87828 43.3619 2.02959 43.6071 1.20609C44.1917 2.30803 44.6486 3.51076 44.4941 4.85795C44.4134 5.60378 44.1245 7.05512 43.6139 7.59265C43.9613 8.7338 44.2097 9.90278 44.3563 11.0866C44.6184 7.46498 44.3563 7.33396 45.5423 4.86803C46.6644 8.278 45.0114 10.8044 44.3765 11.2512C44.5049 12.4114 44.5274 13.5809 44.4437 14.7452C45.4516 11.4024 45.1156 11.184 46.8727 8.85585C47.3396 12.3095 45.5288 14.5268 44.4235 15.0173C44.3228 16.1535 44.1181 17.2781 43.8121 18.3769C45.5087 15.3533 45.2197 15.0475 47.4807 13.1091C47.2456 17.0163 44.5445 18.5449 43.7147 18.7129C43.396 19.7901 42.9846 20.8377 42.485 21.844C42.7135 21.5853 43.0327 21.2157 43.372 20.8092L43.5903 20.5438C44.7326 19.1597 44.998 18.6356 47.2456 17.4732C46.2041 20.9436 43.6307 22.2337 42.2969 22.2135C41.7759 23.193 41.1349 24.1038 40.3887 24.9247L40.4727 24.8743C40.6205 24.7836 40.7817 24.6761 40.9598 24.5619C41.1379 24.4476 41.326 24.32 41.5141 24.1822C43.3182 22.9291 43.3854 22.4117 46.147 21.723C44.8871 24.0176 42.9856 25.6067 40.4122 25.3447L40.2207 25.3144L40.0594 25.2707C39.2912 26.0496 38.433 26.7342 37.5028 27.31C37.6909 27.263 38.2587 27.1051 38.7828 26.9337C41.027 26.2014 41.1345 25.8385 44.0909 25.8251C41.2084 28.9663 38.0437 28.2406 37.0358 27.5855C36.1091 28.1214 35.142 28.5842 34.1432 28.9696C37.869 28.7546 37.9967 28.3952 40.8422 29.3493C37.0526 31.5532 34.0525 29.6147 33.609 29.1779C32.6213 29.5441 31.6269 29.8499 30.619 30.1657C31.3716 30.1993 33.814 30.3168 34.5396 30.5318C35.4164 30.8341 36.2405 31.2717 36.9821 31.8286C36.3608 32.0208 35.7213 32.148 35.0738 32.2083C32.7859 32.3897 30.4645 30.8443 30.0344 30.3404C29.1374 30.6091 28.059 30.9249 27.0915 31.2474C30.9617 31.3785 31.8486 32.1545 33.1017 33.4748C32.5038 33.5664 31.899 33.6046 31.2943 33.5891C29.3625 33.5118 26.9268 31.9429 26.4767 31.4591C23.49 32.5241 22.3141 33.5252 21.4373 34.5734C21.4559 34.3276 21.4884 34.0831 21.5347 33.841Z" fill="#F5F7FB"/>
<path d="M44.1346 10.8515C41.7392 9.46403 40.9867 8.11013 40.681 7.00146C42.4851 7.12241 43.8323 9.0508 44.1346 10.8515Z" fill="#F5F7FB"/>
<path d="M41.7797 4.77452C42.0734 5.03353 42.3351 5.32677 42.5591 5.64801C42.8865 6.1317 43.1475 6.65712 43.3352 7.21022C43.1705 7.13295 41.2589 6.14859 40.8558 5.78911C40.2841 5.24133 39.8193 4.59196 39.4851 3.87415C39.9091 3.85675 40.3321 3.92782 40.7271 4.08283C41.1222 4.23785 41.4806 4.47341 41.7797 4.77452Z" fill="#F5F7FB"/>
<path d="M11.5806 9.47764C11.8523 9.9237 12.2481 10.2809 12.7195 10.5057C12.7729 10.5309 12.8207 10.5664 12.8602 10.6101C12.8997 10.6539 12.9302 10.705 12.9499 10.7606C12.9696 10.8162 12.978 10.8751 12.9748 10.934C12.9716 10.9929 12.9568 11.0506 12.9312 11.1037C12.879 11.2101 12.7871 11.2919 12.6753 11.3314C12.5636 11.371 12.4407 11.3652 12.3332 11.3153C12.1537 11.2277 11.9818 11.1255 11.8192 11.0096C12.0611 11.7183 12.5186 12.3335 13.1277 12.7691C13.7368 13.2047 14.4669 13.4388 15.2157 13.4386H15.2426C15.2241 13.1914 15.2241 12.9433 15.2426 12.6961C15.3415 11.5502 15.8689 10.4838 16.7196 9.70969C17.5703 8.9356 18.6816 8.51083 19.8318 8.52016H22.385C22.4465 8.52342 22.508 8.51394 22.5657 8.49231C22.6233 8.47068 22.6759 8.43736 22.72 8.39446C22.7642 8.35156 22.799 8.29999 22.8223 8.243C22.8456 8.186 22.8569 8.12481 22.8554 8.06326C22.8554 7.70685 22.997 7.36504 23.249 7.11303C23.501 6.86101 23.8428 6.71943 24.1992 6.71943H25.543C25.6553 6.72915 25.7598 6.78062 25.836 6.86365C25.9121 6.94669 25.9544 7.05526 25.9544 7.16793C25.9544 7.2806 25.9121 7.38918 25.836 7.47221C25.7598 7.55525 25.6553 7.60671 25.543 7.61644H24.1992C24.0807 7.61644 23.9671 7.66351 23.8833 7.74731C23.7995 7.83111 23.7524 7.94476 23.7524 8.06326C23.7524 8.41967 23.6108 8.76148 23.3588 9.01349C23.1068 9.26551 22.765 9.40709 22.4086 9.40709H19.8318C18.9052 9.39622 18.0089 9.73672 17.3232 10.36C16.6376 10.9834 16.2135 11.8433 16.1362 12.7667C16.1135 13.1046 16.1395 13.444 16.2135 13.7745C16.2337 13.8653 16.2538 13.9492 16.2807 14.0332C16.2848 14.0505 16.2904 14.0674 16.2975 14.0836C16.3244 14.1743 16.3546 14.2583 16.3882 14.3423V14.3692C16.5992 14.8767 16.9236 15.3292 17.3364 15.6919C17.7493 16.0547 18.2397 16.3182 18.7701 16.4622H18.8037C18.8877 16.4824 18.9684 16.5025 19.0523 16.516L19.18 16.5361C19.2412 16.547 19.3028 16.5549 19.3648 16.5596C19.4756 16.5596 19.5899 16.5798 19.7007 16.5798C20.2602 16.5778 20.8115 16.4453 21.3108 16.1928C21.8101 15.9402 22.2435 15.5746 22.5765 15.1251C22.3637 14.9902 22.1594 14.8421 21.9651 14.6816C21.8742 14.6052 21.8172 14.4959 21.8065 14.3776C21.7958 14.2593 21.8322 14.1415 21.908 14.05C21.9453 14.0042 21.9914 13.9664 22.0436 13.9386C22.0958 13.9109 22.1529 13.8939 22.2118 13.8886C22.2706 13.8833 22.3299 13.8897 22.3862 13.9077C22.4425 13.9256 22.4946 13.9546 22.5396 13.9929C23.1519 14.5009 23.8693 14.8667 24.6401 15.0639C25.4109 15.261 26.2159 15.2845 26.9969 15.1328C27.7779 14.9811 28.5155 14.658 29.1565 14.1866C29.7974 13.7153 30.3258 13.1075 30.7034 12.4072C30.4628 12.0807 30.2789 11.7162 30.1591 11.3288C30.1427 11.2723 30.1376 11.2131 30.144 11.1547C30.1505 11.0962 30.1685 11.0396 30.1969 10.9881C30.2253 10.9366 30.2636 10.8912 30.3096 10.8546C30.3555 10.8179 30.4083 10.7907 30.4648 10.7744C30.5209 10.7574 30.5797 10.7517 30.638 10.7575C30.6962 10.7633 30.7528 10.7806 30.8043 10.8084C30.8558 10.8362 30.9014 10.874 30.9382 10.9195C30.9751 10.9649 31.0026 11.0173 31.0192 11.0734C31.1465 11.5 31.3778 11.8883 31.6922 12.2034C32.0067 12.5185 32.3945 12.7506 32.8209 12.8787C33.2472 13.0069 33.6987 13.0271 34.1348 12.9376C34.5709 12.8482 34.9779 12.6518 35.3193 12.3661C35.6607 12.0804 35.9258 11.7144 36.0908 11.3009C36.2558 10.8875 36.3155 10.4395 36.2646 9.99722C36.2136 9.55497 36.0536 9.1323 35.7989 8.76718C35.5442 8.40206 35.2029 8.10592 34.8054 7.90536C34.7477 8.16693 34.6714 8.42404 34.577 8.67471C34.5324 8.78564 34.4456 8.87432 34.3357 8.92126C34.2257 8.9682 34.1016 8.96954 33.9907 8.92499C33.8798 8.88044 33.7911 8.79365 33.7442 8.68371C33.6972 8.57377 33.6959 8.44968 33.7404 8.33875C33.8825 7.9777 33.9752 7.59913 34.0159 7.21329C34.0159 7.14946 34.0159 7.09234 34.0159 7.03187C34.0159 6.9714 34.0159 6.81685 34.0159 6.69591C34.0164 5.74857 33.7161 4.82554 33.1582 4.05992C32.6003 3.2943 31.8136 2.72565 30.9117 2.43597C31.053 2.65003 31.1777 2.87467 31.2846 3.10788C31.3219 3.17948 31.3389 3.25999 31.3336 3.34058C31.3282 3.42116 31.3008 3.49873 31.2543 3.56479C31.2087 3.63145 31.1459 3.68451 31.0726 3.71833C30.9993 3.75215 30.9181 3.76546 30.8378 3.75684C30.7575 3.74823 30.6811 3.71801 30.6166 3.6694C30.5521 3.62079 30.502 3.55561 30.4716 3.4808C30.001 2.46454 29.1684 1.66032 28.1364 1.2254C27.1044 0.790486 25.9473 0.756143 24.8913 1.12909C24.5606 1.2418 24.2447 1.39409 23.9506 1.58264C23.9013 1.61976 23.8449 1.64636 23.785 1.66078C23.725 1.6752 23.6627 1.67714 23.6019 1.66648C23.5411 1.65581 23.4832 1.63277 23.4317 1.59878C23.3802 1.56479 23.3363 1.52058 23.3026 1.46889C23.2689 1.41721 23.2462 1.35914 23.2359 1.29832C23.2256 1.23749 23.2279 1.17518 23.2426 1.11528C23.2574 1.05538 23.2843 0.99915 23.3217 0.95009C23.3592 0.90103 23.4062 0.860185 23.4601 0.830088L23.6684 0.705785C23.2014 0.483992 22.6861 0.383425 22.1699 0.41337C21.6538 0.443316 21.1536 0.602807 20.7153 0.877122C20.9226 1.06186 21.1085 1.2692 21.2697 1.49528C21.3166 1.56016 21.3454 1.6364 21.3531 1.71612C21.3608 1.79585 21.3471 1.87618 21.3133 1.94883C21.2805 2.02106 21.2289 2.08317 21.1639 2.12867C21.0989 2.17417 21.0229 2.2014 20.9438 2.20752C20.864 2.21389 20.784 2.19888 20.7119 2.16404C20.6399 2.1292 20.5785 2.07578 20.5339 2.0093C20.3235 1.70689 20.0523 1.45172 19.7377 1.26011C19.1747 0.910049 18.5015 0.782181 17.8494 0.901431C17.1972 1.02068 16.6128 1.3785 16.2101 1.90515C16.3869 1.95807 16.5598 2.02318 16.7275 2.10001C16.8002 2.13305 16.8629 2.18456 16.9095 2.2494C16.9561 2.31424 16.9848 2.39015 16.9929 2.46956C16.9987 2.54912 16.9834 2.62878 16.9485 2.70053C16.9136 2.77227 16.8605 2.83355 16.7944 2.87818C16.7283 2.92282 16.6516 2.94923 16.572 2.95476C16.4924 2.96029 16.4128 2.94474 16.3412 2.90967C15.9827 2.74033 15.5912 2.65238 15.1948 2.65213C14.7983 2.65189 14.4068 2.73935 14.0481 2.90824C13.6894 3.07714 13.3726 3.32329 13.1202 3.62905C12.8679 3.93481 12.6863 4.29261 12.5885 4.6768C12.8288 4.58328 13.079 4.51789 13.3343 4.48195C13.3926 4.47379 13.4519 4.47718 13.5088 4.49192C13.5657 4.50667 13.6192 4.53248 13.6661 4.56789C13.7131 4.6033 13.7526 4.64761 13.7824 4.69829C13.8122 4.74897 13.8318 4.80503 13.84 4.86326C13.8481 4.9215 13.8447 4.98077 13.83 5.0377C13.8152 5.09462 13.7894 5.14809 13.754 5.19504C13.7186 5.24199 13.6743 5.28151 13.6236 5.31134C13.5729 5.34117 13.5169 5.36071 13.4586 5.36888C13.0493 5.42661 12.6592 5.57966 12.3198 5.8157C11.7586 6.20567 11.367 6.79477 11.2247 7.46317C11.0824 8.13157 11.2001 8.82907 11.5538 9.41381L11.5806 9.47764Z" fill="#F5F7FB"/>
<path d="M30.2462 17.937C32.5979 17.937 34.5062 16.4286 34.5062 14.5775C34.5035 14.3192 34.4651 14.0625 34.3919 13.8148C33.8672 13.9334 33.3223 13.9312 32.7985 13.8084C32.2747 13.6856 31.7857 13.4454 31.3683 13.106C30.8526 13.9601 30.1415 14.6796 29.2934 15.2052C28.4454 15.7309 27.4846 16.0477 26.4902 16.1296C27.1395 17.0397 28.1227 17.6557 29.2249 17.843C29.5613 17.9088 29.9035 17.9403 30.2462 17.937Z" fill="#F5F7FB"/>
<path d="M25.4388 16.1265C24.8086 16.0693 24.1904 15.9187 23.6045 15.6797C23.589 15.6832 23.5729 15.6832 23.5574 15.6797C23.5104 15.6629 23.4667 15.6394 23.423 15.6192L23.3659 15.5957C23.2124 15.8168 23.0368 16.0216 22.8418 16.2071C22.8532 16.5559 22.9997 16.8866 23.2505 17.1293C23.5013 17.3719 23.8367 17.5075 24.1857 17.5073C24.384 17.5032 24.5809 17.5419 24.7629 17.6207C24.945 17.6996 25.1079 17.8167 25.2406 17.9642L27.8342 20.9341C27.879 20.9842 27.9339 21.0245 27.9952 21.0523C28.0565 21.08 28.123 21.0947 28.1903 21.0953C28.2529 21.0958 28.315 21.0839 28.3731 21.0603C28.4311 21.0367 28.484 21.002 28.5286 20.958C28.5732 20.914 28.6087 20.8617 28.6331 20.8039C28.6575 20.7462 28.6703 20.6843 28.6707 20.6216V18.6395C27.9817 18.4809 27.3355 18.1738 26.7773 17.7398C26.2191 17.3058 25.7623 16.7552 25.4388 16.1265Z" fill="#F5F7FB"/>
<path d="M203.18 26.9209L205.154 8.10303H208.458L206.479 26.9209H203.18Z" fill="#F5F7FB"/>
<path d="M209.205 26.9208L210.612 13.4795H213.726L213.589 14.7991C214.782 13.7849 215.927 13.2777 217.025 13.2777C217.379 13.2671 217.73 13.3538 218.039 13.5286C218.304 13.678 218.516 13.9069 218.644 14.1829C218.776 14.4799 218.865 14.7937 218.911 15.1153C218.933 15.278 218.944 15.442 218.944 15.6061C218.942 15.7887 218.928 15.9709 218.9 16.1514L217.766 26.9208H214.652L215.699 16.8766C215.707 16.7513 215.707 16.6257 215.699 16.5004C215.706 16.3132 215.671 16.1268 215.596 15.9551C215.498 15.7424 215.274 15.6388 214.914 15.6388C214.362 15.6994 213.839 15.9192 213.409 16.2714L212.313 26.9208H209.205Z" fill="#F5F7FB"/>
<path d="M223.847 27.1008C223.327 27.1122 222.811 27.0079 222.336 26.7954C221.962 26.6285 221.649 26.3481 221.442 25.9938C221.241 25.6198 221.113 25.2107 221.066 24.7887C221.066 24.5597 221.017 24.3198 221.011 24.058C221.012 23.7773 221.03 23.4968 221.066 23.2183L221.884 15.5461H220.559L220.771 13.4795H222.091L222.511 9.54248H225.63L225.221 13.4795H227.277L227.064 15.5461H225.008L224.179 23.3655C224.174 23.4527 224.174 23.5401 224.179 23.6273C224.154 23.8773 224.222 24.128 224.37 24.3307C224.491 24.4448 224.635 24.5323 224.791 24.5877C224.948 24.6431 225.115 24.6652 225.281 24.6524C225.604 24.649 225.927 24.6217 226.246 24.5706L225.995 26.9535C225.079 27.0517 224.397 27.1008 223.95 27.1008H223.847Z" fill="#F5F7FB"/>
<path d="M231.829 27.1226C230.286 27.1226 229.223 26.7027 228.65 25.8521C228.172 25.0442 227.946 24.1119 228.001 23.1747C228.001 22.8257 228.001 22.4549 228.061 22.0842L228.459 18.3817C228.634 16.6985 229.099 15.4262 229.855 14.5646C230.608 13.714 231.747 13.2887 233.258 13.2887C233.945 13.2642 234.63 13.3888 235.265 13.654C235.755 13.8722 236.159 14.2459 236.415 14.7173C236.688 15.2458 236.85 15.8249 236.89 16.4186C236.917 16.6831 236.929 16.9489 236.928 17.2147C236.932 17.7102 236.907 18.2055 236.851 18.6979L236.671 20.3774H231.366L231.153 22.3514C231.109 22.8039 231.077 23.2238 231.06 23.6001V23.7255C231.048 24.0106 231.124 24.2925 231.279 24.5325C231.367 24.6564 231.487 24.7543 231.626 24.8157C231.765 24.8771 231.918 24.8998 232.069 24.8815C232.256 24.8976 232.444 24.8637 232.614 24.7832C232.783 24.7028 232.929 24.5786 233.034 24.4234C233.262 24.0096 233.391 23.5486 233.411 23.0766L233.525 22.046H236.486L236.399 22.8421C236.338 24.0342 235.857 25.1663 235.041 26.0375C234.604 26.4222 234.095 26.7163 233.544 26.9026C232.993 27.0889 232.41 27.1637 231.829 27.1226ZM231.513 18.7797H233.836L233.972 17.4983C233.997 17.2883 234.01 17.0772 234.01 16.8658C234.023 16.5706 233.976 16.2759 233.874 15.9987C233.793 15.8428 233.667 15.715 233.513 15.6322C233.358 15.5495 233.182 15.5157 233.007 15.5353C232.813 15.5202 232.618 15.5603 232.445 15.6509C232.273 15.7416 232.129 15.8792 232.031 16.0478C231.769 16.6423 231.619 17.2801 231.589 17.9291L231.513 18.7797Z" fill="#F5F7FB"/>
<path d="M238.176 26.9209L239.577 13.4796H242.685L242.484 15.5244C243.471 14.0467 244.496 13.3106 245.548 13.3106C245.708 13.3098 245.867 13.3282 246.022 13.3651L245.684 16.4787C245.326 16.3414 244.945 16.2712 244.561 16.2715C244.137 16.2815 243.722 16.3937 243.351 16.5987C242.919 16.865 242.548 17.2177 242.26 17.6347L241.284 26.9046L238.176 26.9209Z" fill="#F5F7FB"/>
<path d="M246.121 26.9209L247.528 13.4796H250.636L250.5 14.7992C251.699 13.785 252.846 13.2778 253.94 13.2778C254.293 13.2665 254.642 13.3533 254.949 13.5287C255.217 13.6763 255.431 13.9056 255.56 14.183C255.691 14.48 255.781 14.7938 255.827 15.1155C255.849 15.2781 255.86 15.4421 255.86 15.6062C255.858 15.7888 255.844 15.971 255.816 16.1515L254.693 26.91H251.574L252.664 16.8767C252.664 16.7404 252.664 16.615 252.664 16.5005C252.671 16.3133 252.636 16.1269 252.561 15.9552C252.463 15.7425 252.234 15.6389 251.879 15.6389C251.325 15.7004 250.801 15.9199 250.369 16.2715L249.245 26.9428L246.121 26.9209Z" fill="#F5F7FB"/>
<path d="M259.606 27.1226C259.222 27.1353 258.841 27.0517 258.498 26.8792C258.155 26.7068 257.861 26.4512 257.642 26.1357C257.245 25.6019 257.032 24.9528 257.037 24.2871C257.038 24.1649 257.047 24.0428 257.064 23.9218C257.109 23.4823 257.208 23.05 257.359 22.6349C257.494 22.265 257.677 21.9148 257.904 21.5934C258.12 21.2872 258.369 21.0056 258.646 20.7537C258.914 20.5041 259.204 20.2796 259.513 20.083C259.832 19.8833 260.161 19.7013 260.5 19.5377C260.865 19.3632 261.209 19.2105 261.53 19.0851C261.852 18.9597 262.201 18.8233 262.577 18.687L263.041 18.518L263.155 17.4274C263.155 17.1766 263.194 16.9476 263.194 16.7458V16.4513C263.193 16.2197 263.103 15.9972 262.943 15.8297C262.754 15.6774 262.514 15.6033 262.272 15.6225C261.53 15.6225 261.105 16.1296 261.001 17.1384L260.876 17.9672L257.877 17.8473C257.877 17.7982 257.877 17.7164 257.921 17.5964C257.964 17.4765 257.921 17.3947 257.959 17.3565C258.08 16.1733 258.633 15.0763 259.513 14.2756C260.454 13.5733 261.612 13.2257 262.785 13.2941C264.108 13.2941 265.051 13.6576 265.615 14.3847C266.091 15.0504 266.327 15.8576 266.285 16.6749C266.284 16.9338 266.268 17.1923 266.236 17.4492L265.593 23.5783C265.512 24.3736 265.474 25.1727 265.478 25.9721C265.478 26.2883 265.478 26.6155 265.478 26.9481H262.665C262.586 26.2929 262.541 25.634 262.528 24.9742C262.296 25.5716 261.922 26.1032 261.438 26.5228C260.924 26.9452 260.27 27.1593 259.606 27.1226ZM261.056 24.6852C261.336 24.6739 261.605 24.5747 261.825 24.4016C262.058 24.2458 262.273 24.0627 262.463 23.8563L262.85 20.1647C261.17 21.0372 260.271 22.026 260.151 23.1311C260.143 23.2473 260.143 23.3639 260.151 23.4801C260.139 23.7603 260.201 24.0387 260.331 24.2871C260.403 24.4152 260.508 24.521 260.636 24.5931C260.764 24.6653 260.909 24.7009 261.056 24.6961V24.6852Z" fill="#F5F7FB"/>
<path d="M271.243 27.1008C270.721 27.1121 270.203 27.0079 269.727 26.7954C269.352 26.6285 269.039 26.3481 268.833 25.9938C268.633 25.6194 268.507 25.2104 268.462 24.7887C268.429 24.5597 268.413 24.3198 268.402 24.058C268.404 23.7771 268.424 23.4967 268.462 23.2183L269.28 15.5461H267.933L268.145 13.4795H269.465L269.885 9.54248H273.004L272.6 13.4795H274.651L274.438 15.5461H272.382L271.554 23.3655C271.554 23.4582 271.554 23.5455 271.554 23.6273C271.53 23.8771 271.598 24.1268 271.744 24.3307C271.865 24.4448 272.009 24.5323 272.166 24.5877C272.323 24.6431 272.489 24.6652 272.655 24.6524C272.978 24.6496 273.301 24.6222 273.62 24.5706L273.369 26.9535C272.453 27.0517 271.772 27.1008 271.324 27.1008H271.243Z" fill="#F5F7FB"/>
<path d="M275.305 26.9209L276.712 13.4795H279.82L278.413 26.9209H275.305ZM276.941 11.3693L277.224 8.69189H280.343L280.06 11.3693H276.941Z" fill="#F5F7FB"/>
<path d="M288.266 25.9007C287.822 26.3262 287.293 26.6546 286.715 26.8649C286.137 27.0752 285.521 27.1628 284.907 27.1221C283.457 27.1221 282.426 26.7186 281.821 25.9007C281.301 25.1326 281.05 24.2143 281.106 23.2887C281.105 22.9883 281.12 22.6879 281.15 22.389L281.603 18.0267C281.677 16.7335 282.18 15.5019 283.031 14.526C283.47 14.0969 283.995 13.7654 284.571 13.553C285.147 13.3406 285.761 13.2522 286.374 13.2936C287.828 13.2936 288.86 13.7026 289.471 14.5205C289.995 15.2774 290.253 16.186 290.207 17.1052C290.207 17.4131 290.189 17.7208 290.153 18.0267L289.7 22.389C289.627 23.6868 289.123 24.9229 288.266 25.9007ZM285.147 24.9246C285.337 24.9262 285.524 24.8812 285.692 24.7937C285.842 24.7134 285.972 24.6018 286.074 24.4665C286.185 24.2999 286.266 24.1155 286.314 23.9213C286.378 23.7184 286.426 23.5104 286.456 23.2996C286.456 23.1088 286.51 22.8743 286.543 22.5853L287.056 17.7813C287.056 17.3669 287.094 16.9852 287.11 16.6362C287.107 16.6182 287.107 16.5997 287.11 16.5817C287.113 16.3014 287.03 16.027 286.87 15.7965C286.782 15.6812 286.667 15.5899 286.534 15.5308C286.402 15.4718 286.257 15.4469 286.112 15.4584C285.922 15.4554 285.734 15.5024 285.567 15.5947C285.414 15.6719 285.281 15.7839 285.18 15.9219C285.069 16.0886 284.988 16.273 284.94 16.4672C284.88 16.6907 284.831 16.898 284.798 17.0834C284.765 17.2688 284.738 17.5087 284.711 17.7922L284.198 22.5962C284.16 23.1415 284.144 23.5123 284.144 23.774C284.131 24.0565 284.209 24.3356 284.367 24.5701C284.455 24.6921 284.573 24.789 284.71 24.8511C284.847 24.9133 284.997 24.9386 285.147 24.9246Z" fill="#F5F7FB"/>
<path d="M291.412 26.9209L292.819 13.4796H295.927L295.791 14.7992C296.99 13.785 298.137 13.2778 299.232 13.2778C299.585 13.2665 299.934 13.3533 300.24 13.5287C300.508 13.6763 300.722 13.9056 300.851 14.183C300.983 14.48 301.073 14.7938 301.118 15.1155C301.14 15.2781 301.151 15.4421 301.151 15.6062C301.149 15.7888 301.135 15.971 301.107 16.1515L299.984 26.91H296.87L297.923 16.8767C297.923 16.7404 297.923 16.615 297.923 16.5005C297.929 16.3133 297.894 16.1269 297.819 15.9552C297.721 15.7425 297.492 15.6389 297.138 15.6389C296.584 15.7004 296.059 15.9199 295.627 16.2715L294.504 26.9428L291.412 26.9209Z" fill="#F5F7FB"/>
<path d="M304.886 27.1226C304.502 27.1353 304.122 27.0517 303.779 26.8792C303.436 26.7068 303.142 26.4512 302.923 26.1357C302.525 25.6019 302.313 24.9528 302.318 24.2871C302.319 24.1649 302.328 24.0428 302.345 23.9218C302.39 23.4823 302.488 23.05 302.639 22.6349C302.774 22.265 302.957 21.9148 303.185 21.5934C303.4 21.2872 303.649 21.0056 303.926 20.7537C304.194 20.5041 304.484 20.2796 304.793 20.083C305.112 19.8833 305.442 19.7013 305.78 19.5377C306.146 19.3632 306.489 19.2105 306.811 19.0851C307.133 18.9597 307.482 18.8233 307.858 18.687L308.321 18.518L308.436 17.4274C308.436 17.1766 308.474 16.9476 308.474 16.7458V16.4513C308.473 16.2197 308.383 15.9972 308.223 15.8297C308.034 15.6774 307.794 15.6033 307.552 15.6225C306.811 15.6225 306.386 16.1296 306.282 17.1384L306.156 17.9672L303.157 17.8473C303.157 17.7982 303.157 17.7164 303.201 17.5964C303.245 17.4765 303.228 17.3947 303.239 17.3565C303.36 16.1733 303.914 15.0763 304.793 14.2756C305.734 13.5733 306.893 13.2257 308.065 13.2941C309.392 13.2941 310.335 13.6576 310.895 14.3847C311.371 15.0504 311.607 15.8576 311.566 16.6749C311.565 16.9338 311.548 17.1923 311.517 17.4492L310.873 23.5783C310.793 24.3736 310.754 25.1727 310.759 25.9721C310.759 26.2883 310.759 26.6155 310.759 26.9481H307.945C307.866 26.2929 307.821 25.634 307.809 24.9742C307.577 25.5716 307.202 26.1032 306.718 26.5228C306.204 26.9452 305.55 27.1593 304.886 27.1226ZM306.336 24.6852C306.616 24.6739 306.885 24.5747 307.105 24.4016C307.339 24.2458 307.553 24.0627 307.743 23.8563L308.13 20.1647C306.451 21.0372 305.542 22.026 305.404 23.1311C305.396 23.2473 305.396 23.3639 305.404 23.4801C305.392 23.7603 305.454 24.0387 305.584 24.2871C305.658 24.4195 305.768 24.5282 305.901 24.6005C306.034 24.6729 306.185 24.7061 306.336 24.6961V24.6852Z" fill="#F5F7FB"/>
<path d="M313.001 26.9209L314.98 8.10303H318.099L316.125 26.9209H313.001Z" fill="#F5F7FB"/>
<path d="M106.277 26.9264L108.251 8.10303H111.556L109.576 26.9264H106.277Z" fill="#F5F7FB"/>
<path d="M112.302 26.9259L113.709 13.4846H116.817L116.686 14.7987C117.878 13.7845 119.023 13.2774 120.121 13.2774C120.476 13.2694 120.826 13.356 121.136 13.5282C121.4 13.6813 121.611 13.9116 121.741 14.188C121.872 14.485 121.962 14.7988 122.008 15.1204C122.03 15.2813 122.041 15.4434 122.041 15.6057C122.04 15.7883 122.025 15.9706 121.997 16.151L120.874 26.915H117.76L118.807 16.8654C118.814 16.7419 118.814 16.618 118.807 16.4946C118.814 16.3073 118.779 16.1208 118.704 15.9493C118.605 15.7366 118.382 15.6275 118.022 15.6275C117.468 15.6941 116.945 15.9152 116.511 16.2655L115.388 26.9368L112.302 26.9259Z" fill="#F5F7FB"/>
<path d="M123.252 26.926L124.659 13.4846H127.767L127.631 14.7988C128.825 13.7846 129.976 13.2774 131.072 13.2774C131.424 13.2689 131.773 13.3555 132.08 13.5283C132.347 13.6794 132.561 13.91 132.691 14.1881C132.823 14.4851 132.913 14.7989 132.958 15.1205C132.98 15.2813 132.991 15.4435 132.991 15.6058C132.991 15.7887 132.974 15.9711 132.942 16.1511L131.819 26.9151H128.705L129.752 16.8654C129.752 16.7291 129.752 16.6037 129.752 16.4946C129.757 16.3076 129.721 16.1217 129.648 15.9493C129.55 15.7367 129.321 15.6276 128.967 15.6276C128.413 15.693 127.889 15.9142 127.456 16.2656L126.333 26.9369L123.252 26.926Z" fill="#F5F7FB"/>
<path d="M141.498 25.9012C141.053 26.3272 140.525 26.6563 139.947 26.8675C139.369 27.0787 138.753 27.1674 138.139 27.1281C136.685 27.1281 135.656 26.7192 135.052 25.9012C134.532 25.1336 134.281 24.215 134.338 23.2893C134.337 22.9907 134.351 22.6922 134.382 22.3951L134.834 18.0327C134.912 16.7413 135.412 15.5111 136.257 14.532C136.699 14.1053 137.225 13.7754 137.802 13.5632C138.378 13.351 138.992 13.2613 139.605 13.2997C141.06 13.2997 142.092 13.7086 142.703 14.5266C143.225 15.2859 143.484 16.1959 143.439 17.1167C143.439 17.4228 143.421 17.7287 143.384 18.0327L142.926 22.3951C142.856 23.6907 142.353 24.9251 141.498 25.9012ZM138.379 24.9252C138.561 24.9306 138.743 24.8923 138.908 24.8136C139.073 24.7349 139.217 24.618 139.327 24.4726C139.437 24.3056 139.519 24.1213 139.567 23.9273C139.631 23.7261 139.679 23.52 139.709 23.3111C139.736 23.1203 139.764 22.8804 139.796 22.5968L140.309 17.7928C140.309 17.3784 140.347 16.9967 140.363 16.6477C140.36 16.6278 140.36 16.6076 140.363 16.5877C140.367 16.3092 140.283 16.0365 140.124 15.808C140.036 15.6921 139.921 15.6 139.788 15.54C139.656 15.48 139.511 15.4541 139.366 15.4644C139.182 15.4623 139 15.5037 138.835 15.5852C138.67 15.6667 138.527 15.786 138.417 15.9334C138.306 16.0998 138.224 16.2843 138.177 16.4787C138.117 16.7077 138.068 16.9149 138.035 17.1003C138.002 17.2857 137.975 17.5202 137.948 17.8092L137.435 22.6132C137.397 23.1312 137.381 23.5238 137.381 23.791C137.369 24.0734 137.447 24.3522 137.604 24.5871C137.694 24.7044 137.812 24.797 137.948 24.8561C138.083 24.9153 138.231 24.939 138.379 24.9252Z" fill="#F5F7FB"/>
<path d="M146.335 26.9262L145.13 13.4849H148.183L148.516 23.3491L150.888 13.4849H153.882L149.901 26.9262H146.335Z" fill="#F5F7FB"/>
<path d="M156.513 27.1283C156.13 27.14 155.75 27.0559 155.407 26.8836C155.064 26.7113 154.77 26.4561 154.55 26.1414C154.156 25.606 153.946 24.9576 153.951 24.2928C153.942 24.1712 153.942 24.0491 153.951 23.9275C154 23.4888 154.099 23.0571 154.245 22.6406C154.38 22.2691 154.563 21.9171 154.79 21.5937C155.004 21.2874 155.251 21.0057 155.526 20.7539C155.794 20.5043 156.085 20.2799 156.394 20.0832C156.713 19.8815 157.044 19.6994 157.386 19.5379C157.746 19.3634 158.089 19.2108 158.411 19.0799C158.733 18.949 159.082 18.8181 159.463 18.6818L159.927 18.5128L160.041 17.4222C160.041 17.1714 160.074 16.9478 160.074 16.7406V16.4461C160.076 16.3319 160.054 16.2185 160.011 16.1127C159.968 16.0069 159.904 15.9107 159.823 15.83C159.635 15.6762 159.395 15.6002 159.153 15.6173C158.411 15.6173 157.991 16.1244 157.882 17.1387L157.757 17.9675L154.763 17.8421C154.763 17.7985 154.763 17.7167 154.801 17.5912C154.839 17.4658 154.834 17.3949 154.839 17.3568C154.961 16.172 155.514 15.0734 156.394 14.2704C157.335 13.5694 158.493 13.2219 159.665 13.2889C160.99 13.2889 161.928 13.6488 162.49 14.3795C162.965 15.0476 163.201 15.8563 163.161 16.6752C163.161 16.9151 163.161 17.1714 163.117 17.444L162.468 23.5731C162.387 24.3702 162.349 25.1711 162.353 25.9723C162.353 26.2886 162.353 26.6158 162.353 26.9484H159.54C159.461 26.2913 159.415 25.6307 159.403 24.969C159.175 25.5697 158.8 26.1039 158.313 26.5231C157.808 26.9401 157.167 27.1557 156.513 27.1283ZM157.969 24.6909C158.248 24.6766 158.515 24.5755 158.733 24.4019C158.971 24.2506 159.188 24.0671 159.376 23.8566L159.763 20.1705C158.084 21.0375 157.179 22.0299 157.037 23.1314C157.029 23.2494 157.029 23.3678 157.037 23.4858C157.025 23.766 157.087 24.0444 157.217 24.2928C157.292 24.4237 157.402 24.5309 157.535 24.6023C157.668 24.6736 157.819 24.7062 157.969 24.6963V24.6909Z" fill="#F5F7FB"/>
<path d="M168.15 27.1061C167.628 27.1175 167.11 27.0132 166.634 26.8007C166.261 26.6338 165.95 26.3533 165.745 25.9992C165.542 25.6241 165.414 25.2128 165.369 24.7887C165.336 24.5482 165.318 24.306 165.314 24.0634C165.314 23.7826 165.333 23.5021 165.369 23.2237L166.187 15.5515H164.856L165.074 13.4848H166.389L166.808 9.54785H169.933L169.524 13.4848H171.58L171.362 15.5515H169.306L168.477 23.3709C168.477 23.4636 168.477 23.5508 168.477 23.6326C168.457 23.883 168.526 24.1323 168.673 24.3361C168.794 24.4482 168.937 24.5341 169.093 24.5886C169.249 24.643 169.414 24.6647 169.579 24.6523C169.902 24.6488 170.224 24.6233 170.544 24.576L170.293 26.9589C169.377 27.057 168.701 27.1061 168.253 27.1061H168.15Z" fill="#F5F7FB"/>
<path d="M172.214 26.9263L173.621 13.485H176.734L175.327 26.9263H172.214ZM173.85 11.3747L174.133 8.69189H177.236L176.952 11.3747H173.85Z" fill="#F5F7FB"/>
<path d="M185.181 25.9011C184.736 26.3272 184.207 26.6563 183.628 26.8675C183.049 27.0787 182.432 27.1674 181.817 27.128C180.363 27.128 179.334 26.719 178.731 25.9011C178.212 25.1323 177.961 24.2146 178.016 23.2892C178.016 23.0056 178.016 22.7057 178.06 22.3949L178.518 18.0326C178.59 16.7399 179.091 15.5081 179.941 14.5318C180.382 14.1056 180.907 13.7759 181.483 13.5637C182.058 13.3515 182.671 13.2615 183.284 13.2995C184.738 13.2995 185.77 13.7084 186.381 14.5264C186.905 15.2852 187.166 16.1952 187.123 17.1165C187.12 17.4228 187.1 17.7286 187.063 18.0326L186.61 22.3949C186.537 23.6899 186.034 24.9236 185.181 25.9011ZM182.057 24.925C182.247 24.9266 182.434 24.8816 182.602 24.7941C182.752 24.7178 182.883 24.6077 182.984 24.4724C183.094 24.3046 183.176 24.1206 183.229 23.9271C183.29 23.7252 183.338 23.5193 183.371 23.311C183.398 23.1201 183.425 22.8802 183.453 22.5966L183.965 17.7926C183.965 17.3782 184.009 16.9965 184.02 16.6475C184.014 16.6279 184.014 16.6072 184.02 16.5876C184.02 16.3094 183.937 16.0376 183.78 15.8078C183.691 15.6919 183.575 15.5998 183.441 15.5399C183.308 15.4799 183.162 15.4539 183.016 15.4643C182.826 15.4648 182.639 15.5116 182.471 15.6006C182.321 15.6816 182.19 15.7952 182.09 15.9332C181.976 16.0983 181.895 16.2833 181.85 16.4785C181.789 16.6824 181.742 16.8901 181.708 17.1001C181.675 17.2855 181.648 17.52 181.615 17.809L181.103 22.613C181.064 23.131 181.048 23.5236 181.048 23.7908C181.038 24.0737 181.118 24.3525 181.277 24.5869C181.367 24.7059 181.486 24.7996 181.622 24.8588C181.759 24.9181 181.909 24.9409 182.057 24.925Z" fill="#F5F7FB"/>
<path d="M188.321 26.9259L189.728 13.4846H192.842L192.705 14.7987C193.898 13.7845 195.045 13.2774 196.146 13.2774C196.499 13.2693 196.847 13.356 197.155 13.5282C197.419 13.6814 197.63 13.9116 197.76 14.188C197.892 14.485 197.982 14.7988 198.027 15.1204C198.049 15.2813 198.06 15.4434 198.06 15.6057C198.062 15.7884 198.047 15.9709 198.016 16.151L196.893 26.915H193.785L194.827 16.8654C194.834 16.7419 194.834 16.618 194.827 16.4946C194.833 16.3079 194.799 16.1221 194.728 15.9493C194.659 15.8346 194.557 15.7429 194.436 15.6856C194.315 15.6284 194.179 15.6082 194.047 15.6276C193.493 15.692 192.969 15.9134 192.536 16.2655L191.413 26.9259H188.321Z" fill="#F5F7FB"/>
<path d="M60.2032 26.9387C59.4879 26.9515 58.7752 26.8484 58.0929 26.6334C57.5551 26.4636 57.0654 26.1682 56.6643 25.7718C56.2978 25.3809 56.0124 24.9213 55.8245 24.4195C55.6215 23.8569 55.5057 23.2667 55.481 22.6691C55.481 22.4892 55.481 22.3092 55.481 22.1238C55.481 21.6385 55.5082 21.1314 55.5518 20.6025L56.2444 14.059C56.328 13.1565 56.5108 12.2659 56.7897 11.4035C57.0234 10.6861 57.3795 10.0146 57.8421 9.41862C58.3109 8.8344 58.9262 8.38474 59.6252 8.11538C60.4645 7.80748 61.3542 7.65952 62.248 7.67915C63.048 7.65732 63.845 7.78492 64.5982 8.0554C65.182 8.2644 65.6894 8.64444 66.0541 9.14598C66.3984 9.65208 66.6223 10.2303 66.7084 10.8364C66.7718 11.2148 66.8028 11.5978 66.8011 11.9815C66.801 12.357 66.7773 12.7322 66.7302 13.1048L66.5612 14.7406H63.3277L63.4967 13.1647C63.5567 12.5704 63.5894 12.0742 63.5894 11.7525C63.5922 11.5828 63.5812 11.4132 63.5567 11.2453C63.5113 10.9607 63.3686 10.7007 63.1527 10.5097C62.9369 10.3188 62.6614 10.2087 62.3734 10.1984C62.2589 10.1984 62.1335 10.1984 61.9972 10.1984C61.6835 10.1924 61.3719 10.2499 61.0811 10.3674C60.8484 10.4648 60.6385 10.6097 60.4649 10.7927C60.2936 11.0066 60.1641 11.2508 60.0832 11.5125C59.9813 11.7946 59.9029 12.0846 59.8487 12.3795C59.7996 12.6522 59.7506 13.0066 59.7069 13.4428L58.889 21.3222C58.8466 21.6843 58.8229 22.0483 58.8181 22.4128C58.7939 22.8714 58.8721 23.3297 59.0472 23.7542C59.1922 24.0038 59.4078 24.2048 59.6669 24.3319C59.926 24.459 60.217 24.5066 60.5031 24.4686C60.7006 24.4687 60.8978 24.4504 61.092 24.414C61.2577 24.3792 61.4151 24.3125 61.5555 24.2177C61.6818 24.138 61.8005 24.0467 61.9099 23.9451C62.0228 23.8343 62.1102 23.7004 62.1662 23.5525C62.2371 23.3834 62.2971 23.2308 62.3461 23.0999C62.4065 22.9222 62.4521 22.7398 62.4825 22.5546C62.5206 22.3256 62.5533 22.1293 62.5697 21.9711C62.5861 21.813 62.6133 21.5949 62.646 21.3113L62.8151 19.6755H66.0378L65.8796 21.2077C65.8152 21.8501 65.7004 22.4864 65.5361 23.1108C65.3816 23.6664 65.1562 24.1997 64.8654 24.6976C64.5936 25.1683 64.2346 25.5828 63.8075 25.919C63.3478 26.2601 62.828 26.5117 62.2753 26.6606C61.6022 26.8559 60.9039 26.9496 60.2032 26.9387Z" fill="#F5F7FB"/>
<path d="M67.6739 26.7095L69.6478 7.8916H72.7723L70.7984 26.7095H67.6739Z" fill="#F5F7FB"/>
<path d="M75.8588 26.917C75.4756 26.9273 75.0958 26.8425 74.7532 26.6703C74.4107 26.4981 74.1161 26.2438 73.8958 25.9301C73.5002 25.3934 73.2897 24.7428 73.296 24.0761C73.2879 23.9563 73.2879 23.836 73.296 23.7162C73.3452 23.2757 73.444 22.8422 73.5904 22.4239C73.7264 22.0546 73.9097 21.7045 74.1357 21.3824C74.3493 21.0761 74.5962 20.7944 74.8718 20.5426C75.1398 20.293 75.43 20.0685 75.7389 19.8719C76.0576 19.6722 76.3871 19.4902 76.7258 19.3266C77.0912 19.1521 77.4347 19.0049 77.7564 18.874C78.0782 18.7432 78.4271 18.6123 78.8034 18.476L79.2723 18.3069L79.3868 17.2164C79.3868 16.9655 79.4196 16.7365 79.4196 16.5347V16.2403C79.4209 16.0082 79.3308 15.7849 79.1687 15.6187C78.9786 15.4688 78.7396 15.395 78.498 15.4114C77.7564 15.4114 77.3311 15.9186 77.2275 16.9328L77.1021 17.7616L74.1085 17.6362C74.1085 17.5872 74.1085 17.5054 74.1466 17.3854C74.1848 17.2654 74.1794 17.1836 74.1848 17.1455C74.3074 15.9627 74.8605 14.8662 75.7389 14.0646C76.68 13.3627 77.8385 13.0151 79.0106 13.0831C80.3356 13.0831 81.2735 13.443 81.8352 14.1737C82.3111 14.8393 82.5475 15.6466 82.5059 16.4639C82.5059 16.7092 82.5059 16.9655 82.4623 17.2382L81.8134 23.3672C81.7329 24.1625 81.6946 24.9616 81.6989 25.761C81.6989 26.0827 81.6989 26.4045 81.6989 26.7371H78.8852C78.8064 26.0818 78.7609 25.423 78.7489 24.7631C78.5212 25.3628 78.1462 25.8954 77.6583 26.3117C77.1538 26.7288 76.5128 26.9444 75.8588 26.917ZM77.3148 24.4741C77.5927 24.4621 77.8597 24.3629 78.0781 24.1906C78.3144 24.0363 78.5306 23.8531 78.7216 23.6453L79.1087 19.9537C77.422 20.8262 76.5132 21.815 76.3823 22.9201C76.3745 23.0363 76.3745 23.1529 76.3823 23.269C76.3697 23.5493 76.4318 23.8278 76.5623 24.0761C76.6364 24.2079 76.7466 24.3158 76.8798 24.3872C77.0131 24.4587 77.164 24.4907 77.3148 24.4796V24.4741Z" fill="#F5F7FB"/>
<path d="M87.2006 26.9169C86.7214 26.9423 86.242 26.8725 85.7899 26.7115C85.3378 26.5505 84.9222 26.3016 84.5669 25.979C83.8777 25.2497 83.4716 24.2983 83.4218 23.2961L85.8919 22.4455C86.0628 23.9578 86.5826 24.7139 87.4514 24.7139H87.4842C87.8157 24.7049 88.1314 24.5705 88.3675 24.3376C88.4866 24.2251 88.5821 24.09 88.6486 23.9402C88.7151 23.7905 88.7511 23.629 88.7547 23.4652V23.3889C88.7547 22.909 88.3948 22.3255 87.6641 21.6439L85.9628 20.0408C85.5067 19.6737 85.1333 19.2143 84.8674 18.6927C84.6014 18.1712 84.4488 17.5992 84.4197 17.0144C84.4199 16.8648 84.4308 16.7154 84.4524 16.5673C84.5473 15.5693 85.0312 14.6487 85.7992 14.0045C86.5819 13.3595 87.5719 13.0204 88.5857 13.0502C89.0379 13.0252 89.4902 13.0981 89.9118 13.2637C90.3333 13.4293 90.7142 13.6838 91.0285 14.0099C91.6443 14.7177 91.9934 15.6185 92.0155 16.5564L89.8671 17.407C89.7398 16.0111 89.2818 15.3077 88.493 15.2968H88.4493C88.2984 15.293 88.1482 15.3195 88.0078 15.3748C87.8673 15.43 87.7393 15.5129 87.6314 15.6185C87.41 15.8168 87.2717 16.0914 87.2442 16.3874V16.4691C87.3484 17.0529 87.665 17.5774 88.1331 17.9414L89.8671 19.6918C90.3958 20.1744 90.8448 20.7375 91.1976 21.3604C91.4448 21.8366 91.5685 22.3671 91.5575 22.9035C91.5654 23.0507 91.5654 23.1981 91.5575 23.3452C91.525 23.8574 91.3837 24.3567 91.143 24.8099C90.9022 25.2631 90.5677 25.6598 90.1615 25.9735C89.3087 26.6118 88.2656 26.9442 87.2006 26.9169Z" fill="#F5F7FB"/>
<path d="M96.3609 26.9169C95.8817 26.9423 95.4022 26.8725 94.9501 26.7115C94.4981 26.5505 94.0824 26.3016 93.7271 25.979C93.0379 25.2497 92.6318 24.2983 92.582 23.2961L95.0522 22.4455C95.2194 23.9578 95.7392 24.7139 96.6117 24.7139H96.6281C96.9595 24.7049 97.2753 24.5705 97.5114 24.3376C97.6305 24.2251 97.726 24.09 97.7925 23.9402C97.8589 23.7905 97.895 23.629 97.8986 23.4652V23.3889C97.8986 22.909 97.5387 22.3255 96.808 21.6439L95.1067 20.0408C94.6506 19.6737 94.2772 19.2143 94.0112 18.6927C93.7453 18.1712 93.5927 17.5992 93.5635 17.0144C93.5638 16.8648 93.5747 16.7154 93.5963 16.5673C93.6912 15.5693 94.175 14.6487 94.9431 14.0045C95.7257 13.3595 96.7158 13.0204 97.7295 13.0502C98.1818 13.0252 98.6341 13.0981 99.0556 13.2637C99.4772 13.4293 99.8581 13.6838 100.172 14.0099C100.788 14.7177 101.137 15.6185 101.159 16.5564L99.011 17.407C98.8801 16.0111 98.4275 15.3077 97.6368 15.2968H97.6041C97.4532 15.293 97.3031 15.3195 97.1626 15.3748C97.0221 15.43 96.8941 15.5129 96.7862 15.6185C96.5647 15.8168 96.4265 16.0914 96.399 16.3874V16.4691C96.5032 17.0529 96.8198 17.5774 97.2879 17.9414L99.0219 19.6918C99.5506 20.1744 99.9996 20.7375 100.352 21.3604C100.6 21.8366 100.723 22.3671 100.712 22.9035C100.72 23.0507 100.72 23.1981 100.712 23.3452C100.68 23.8574 100.538 24.3567 100.298 24.8099C100.057 25.2631 99.7225 25.6598 99.3163 25.9735C98.4645 26.6099 97.4238 26.9421 96.3609 26.9169Z" fill="#F5F7FB"/>
<path d="M320.089 8.11737C321.243 8.11737 322.178 7.182 322.178 6.02817C322.178 4.87433 321.243 3.93896 320.089 3.93896C318.935 3.93896 318 4.87433 318 6.02817C318 7.182 318.935 8.11737 320.089 8.11737Z" fill="#F5F7FB" stroke="#13161C" stroke-width="0.7" stroke-linecap="round" stroke-linejoin="round"/>
<path d="M319.463 7.01569V5.19238H320.079C320.221 5.19238 320.338 5.21672 320.43 5.26539C320.521 5.31346 320.589 5.37964 320.633 5.46392C320.677 5.5482 320.699 5.64405 320.699 5.75148C320.699 5.85891 320.677 5.95417 320.633 6.03726C320.589 6.12036 320.521 6.18564 320.431 6.23313C320.34 6.28001 320.224 6.30346 320.083 6.30346H319.584V6.10403H320.075C320.173 6.10403 320.251 6.08979 320.31 6.0613C320.37 6.03281 320.414 5.99245 320.44 5.94022C320.468 5.8874 320.481 5.82449 320.481 5.75148C320.481 5.67848 320.468 5.61467 320.44 5.56007C320.413 5.50547 320.369 5.46333 320.31 5.43365C320.25 5.40338 320.17 5.38825 320.072 5.38825H319.684V7.01569H319.463ZM320.321 6.19662L320.77 7.01569H320.513L320.072 6.19662H320.321Z" fill="#13161C"/>
</svg>
