<svg width="90" height="38" viewBox="0 0 90 38" fill="none" xmlns="http://www.w3.org/2000/svg">
<path d="M45.754 37.8228C45.6589 37.8247 45.5642 37.8108 45.4736 37.7818C45.4019 37.7596 45.3367 37.7202 45.2835 37.6672C45.2349 37.6157 45.1969 37.5552 45.1719 37.489C45.145 37.4143 45.1297 37.336 45.1267 37.2567C45.1267 37.2329 45.1267 37.2086 45.1267 37.1842C45.1267 37.1201 45.1297 37.053 45.1356 36.9823L45.2277 36.1121C45.2386 35.9922 45.2625 35.8739 45.299 35.7592C45.3298 35.6637 45.3772 35.5744 45.4392 35.4955C45.5013 35.4174 45.5834 35.3577 45.6767 35.3226C45.7882 35.2812 45.9065 35.2611 46.0254 35.2632C46.1318 35.2604 46.2377 35.2773 46.3379 35.3131C46.4154 35.3413 46.4827 35.3923 46.5309 35.4593C46.5764 35.5267 46.6062 35.6034 46.6182 35.6838C46.6264 35.7343 46.6304 35.7853 46.6301 35.8365C46.63 35.8863 46.627 35.9361 46.6212 35.9855L46.5986 36.2H46.1686L46.1912 35.9903C46.1984 35.9282 46.2026 35.8657 46.2036 35.8032C46.2039 35.7805 46.2023 35.7579 46.1989 35.7355C46.193 35.6977 46.1741 35.6632 46.1455 35.6378C46.1168 35.6124 46.0803 35.5978 46.0421 35.5965C46.0255 35.5945 46.0088 35.5935 45.9922 35.5935C45.9503 35.5926 45.9086 35.6003 45.8698 35.6161C45.8391 35.6291 45.8114 35.6483 45.7884 35.6725C45.7655 35.7006 45.7481 35.7329 45.7373 35.7676C45.724 35.8053 45.7137 35.844 45.7064 35.8834C45.6999 35.9196 45.6934 35.9665 45.6874 36.0248L45.5787 37.0714C45.5731 37.1201 45.5702 37.1691 45.5698 37.2181C45.5664 37.279 45.5768 37.3399 45.6001 37.3963C45.631 37.4599 45.6958 37.4913 45.7932 37.4913C45.8195 37.4916 45.8458 37.4892 45.8716 37.4842C45.8928 37.4792 45.9129 37.4703 45.931 37.4581C45.9477 37.4475 45.9634 37.4354 45.9779 37.4218C45.9928 37.4073 46.0043 37.3896 46.0118 37.3702C46.0213 37.3476 46.0296 37.3274 46.0361 37.3108C46.0442 37.2872 46.0502 37.2629 46.0539 37.2383C46.0593 37.208 46.0634 37.1819 46.0658 37.1611C46.0682 37.1403 46.0718 37.1106 46.0759 37.0732L46.0985 36.8564H46.5268L46.5054 37.0601C46.4973 37.1454 46.482 37.2298 46.4596 37.3125C46.4393 37.3863 46.4094 37.457 46.3705 37.5228C46.3343 37.5853 46.2867 37.6404 46.2304 37.6856C46.1697 37.7318 46.101 37.7665 46.0278 37.7877C45.9387 37.8127 45.8465 37.8245 45.754 37.8228Z" fill="#005C46"/>
<path d="M46.7468 37.7637L47.0094 35.2629H47.4252L47.1626 37.7637H46.7468Z" fill="#005C46"/>
<path d="M47.8342 37.4588C47.7833 37.4601 47.7328 37.4489 47.6873 37.426C47.6418 37.4031 47.6027 37.3692 47.5735 37.3275C47.5201 37.2568 47.4911 37.1707 47.4909 37.0822C47.49 37.0662 47.49 37.0501 47.4909 37.0341C47.4973 36.9757 47.5105 36.9183 47.5301 36.863C47.5474 36.8139 47.571 36.7671 47.6002 36.724C47.6288 36.6834 47.6616 36.6459 47.6982 36.6123C47.734 36.5794 47.7726 36.5496 47.8134 36.5232C47.8559 36.4972 47.8997 36.4734 47.9447 36.4519C47.9934 36.4288 48.0386 36.4086 48.0813 36.3925C48.1241 36.3765 48.1704 36.3581 48.2209 36.3397L48.2803 36.3171L48.2952 36.1692C48.2984 36.1392 48.3 36.1091 48.2999 36.0789V36.0397C48.3002 36.0245 48.2973 36.0094 48.2916 35.9954C48.2859 35.9813 48.2774 35.9685 48.2667 35.9577C48.2417 35.9373 48.2097 35.9273 48.1776 35.9298C48.0797 35.9298 48.0235 35.9971 48.0089 36.1318L47.9922 36.2417L47.5943 36.225C47.5943 36.2191 47.5943 36.2078 47.5996 36.1918C47.6049 36.1757 47.6038 36.1656 47.6049 36.1603C47.6358 35.9746 47.7045 35.8381 47.8111 35.751C47.9353 35.6582 48.0881 35.612 48.2429 35.6204C48.4211 35.6204 48.5441 35.6685 48.6183 35.7635C48.6814 35.8522 48.7128 35.9595 48.7074 36.0682C48.7072 36.1026 48.705 36.1369 48.7009 36.171L48.6153 36.9854C48.6046 37.0911 48.5994 37.1974 48.5999 37.3037C48.5999 37.3459 48.5999 37.3893 48.5999 37.4332H48.2257C48.2138 37.3198 48.2079 37.2325 48.2079 37.1707C48.1768 37.2505 48.1264 37.3213 48.0611 37.3768C47.9976 37.4301 47.9172 37.4591 47.8342 37.4588ZM48.0273 37.1345C48.0643 37.1326 48.0998 37.1194 48.1289 37.0964C48.1605 37.0751 48.1893 37.0498 48.2144 37.021L48.2655 36.5309C48.0421 36.6466 47.9233 36.7779 47.9091 36.9248C47.9069 36.9403 47.9059 36.956 47.9061 36.9717C47.9044 37.0088 47.9126 37.0457 47.9299 37.0786C47.9392 37.0958 47.953 37.11 47.9699 37.1199C47.9867 37.1297 48.006 37.1348 48.0255 37.1345H48.0273Z" fill="#005C46"/>
<path d="M49.3408 37.4608C49.2771 37.4642 49.2134 37.455 49.1533 37.4336C49.0933 37.4122 49.0381 37.379 48.9909 37.3361C48.8993 37.2393 48.8453 37.1128 48.8389 36.9797L49.1673 36.8662C49.1899 37.0678 49.2588 37.1684 49.3741 37.168H49.3788C49.4234 37.1674 49.466 37.1495 49.4976 37.1181C49.5134 37.1031 49.526 37.0852 49.5348 37.0653C49.5436 37.0454 49.5483 37.024 49.5487 37.0022V36.9945C49.5487 36.9304 49.5012 36.8526 49.4055 36.7623L49.178 36.5496C49.0414 36.4221 48.9731 36.2879 48.9731 36.1469C48.973 36.127 48.9744 36.1072 48.9773 36.0875C48.9902 35.955 49.0541 35.8328 49.1555 35.7465C49.2597 35.661 49.3914 35.6161 49.5261 35.62C49.5863 35.6167 49.6464 35.6264 49.7025 35.6485C49.7586 35.6705 49.8092 35.7043 49.851 35.7477C49.9325 35.842 49.9785 35.9617 49.9811 36.0863L49.6966 36.1992C49.6796 36.0134 49.6186 35.92 49.5136 35.9188H49.5107C49.4907 35.9183 49.4708 35.9217 49.4521 35.929C49.4334 35.9362 49.4164 35.9471 49.402 35.961C49.3724 35.9874 49.3541 36.0242 49.3509 36.0637V36.0744C49.3509 36.1267 49.3905 36.192 49.4697 36.2704L49.7002 36.5027C49.7709 36.5669 49.831 36.6419 49.8784 36.7249C49.9113 36.788 49.9279 36.8585 49.9265 36.9298C49.9267 36.9496 49.9257 36.9695 49.9235 36.9892C49.9191 37.0572 49.9003 37.1235 49.8683 37.1837C49.8364 37.2439 49.792 37.2967 49.7382 37.3384C49.6234 37.423 49.4833 37.4662 49.3408 37.4608Z" fill="#005C46"/>
<path d="M50.5576 37.4608C50.4939 37.4642 50.4302 37.455 50.3701 37.4336C50.3101 37.4122 50.2549 37.379 50.2077 37.3361C50.1161 37.2393 50.0621 37.1128 50.0557 36.9797L50.3841 36.8662C50.4067 37.0678 50.4756 37.1684 50.5909 37.168H50.5956C50.6402 37.1674 50.6828 37.1495 50.7144 37.1181C50.7302 37.1031 50.7428 37.0852 50.7516 37.0653C50.7604 37.0454 50.7651 37.024 50.7655 37.0022V36.9945C50.7655 36.9304 50.718 36.8526 50.6223 36.7623L50.3948 36.5496C50.2582 36.4221 50.1899 36.2879 50.1899 36.1469C50.1898 36.127 50.1912 36.1072 50.1941 36.0875C50.207 35.955 50.2709 35.8328 50.3723 35.7465C50.4765 35.661 50.6082 35.6161 50.7429 35.62C50.8031 35.6167 50.8632 35.6264 50.9193 35.6485C50.9754 35.6705 51.026 35.7043 51.0678 35.7477C51.1493 35.842 51.1953 35.9617 51.1979 36.0863L50.9134 36.1992C50.896 36.0134 50.835 35.92 50.7304 35.9188H50.7263C50.7063 35.9183 50.6864 35.9217 50.6677 35.929C50.649 35.9362 50.632 35.9471 50.6176 35.961C50.588 35.9874 50.5697 36.0242 50.5665 36.0637V36.0744C50.5665 36.1267 50.6061 36.192 50.6853 36.2704L50.9158 36.5027C50.9865 36.5669 51.0466 36.6419 51.094 36.7249C51.127 36.788 51.1435 36.8585 51.1421 36.9298C51.1423 36.9496 51.1413 36.9695 51.1391 36.9892C51.1347 37.0572 51.1159 37.1235 51.0839 37.1837C51.052 37.2439 51.0076 37.2967 50.9538 37.3384C50.8393 37.4228 50.6997 37.4659 50.5576 37.4608Z" fill="#005C46"/>
<path d="M52.0171 37.7637L52.279 35.2629H52.718L52.4555 37.7637H52.0171Z" fill="#005C46"/>
<path d="M52.8179 37.4324L53.005 35.6468H53.4208L53.403 35.8214C53.5616 35.6866 53.7142 35.6195 53.8597 35.6195C53.9067 35.6182 53.9531 35.6297 53.994 35.6528C54.0294 35.6727 54.0577 35.7032 54.0748 35.7401C54.1016 35.7994 54.1152 35.8639 54.1146 35.929C54.1147 35.9536 54.1127 35.9783 54.1086 36.0026L53.9595 37.4324H53.5437L53.6827 36.0977C53.6827 36.0792 53.6857 36.0632 53.6857 36.0478C53.6868 36.0219 53.6821 35.9961 53.672 35.9723C53.659 35.9444 53.6287 35.9301 53.5818 35.9301C53.508 35.9381 53.438 35.9672 53.3804 36.0139L53.2307 37.4318L52.8179 37.4324Z" fill="#005C46"/>
<path d="M54.2705 37.4324L54.4576 35.6468H54.8704L54.8526 35.8214C55.0112 35.6866 55.1639 35.6195 55.3094 35.6195C55.3564 35.6182 55.4028 35.6297 55.4437 35.6528C55.4791 35.6727 55.5073 35.7032 55.5244 35.7401C55.5513 35.7994 55.5649 35.8639 55.5642 35.929C55.5643 35.9536 55.5624 35.9783 55.5583 36.0026L55.4092 37.4324H54.9934L55.1324 36.0977C55.1324 36.0792 55.1324 36.0632 55.1324 36.0478C55.1335 36.0219 55.1288 35.9961 55.1187 35.9723C55.1057 35.9444 55.0754 35.9301 55.0284 35.9301C54.9548 35.9384 54.8851 35.9677 54.8277 36.0145L54.6786 37.4324H54.2705Z" fill="#005C46"/>
<path d="M56.695 37.2962C56.5905 37.4051 56.4418 37.4596 56.2489 37.4596C56.0559 37.4596 55.9186 37.4049 55.8385 37.2962C55.7695 37.1942 55.7361 37.0723 55.7434 36.9493C55.7434 36.9097 55.7454 36.87 55.7494 36.8305L55.8088 36.2484C55.8182 36.0767 55.8846 35.913 55.9977 35.7833C56.1022 35.674 56.2503 35.6194 56.442 35.6194C56.6336 35.6194 56.7708 35.6736 56.8536 35.7821C56.9232 35.8829 56.9576 36.0038 56.9516 36.1261C56.9515 36.167 56.9491 36.2078 56.9445 36.2484L56.8851 36.8305C56.8755 37.0026 56.8086 37.1666 56.695 37.2962ZM56.2792 37.1668C56.3054 37.1673 56.3313 37.1614 56.3546 37.1495C56.3742 37.1389 56.3914 37.1243 56.4051 37.1068C56.4196 37.085 56.4306 37.0612 56.4378 37.0361C56.446 37.0093 56.4522 36.9819 56.4562 36.9541C56.4598 36.9292 56.4639 36.8977 56.4675 36.8591L56.5358 36.2211C56.5388 36.1659 56.5412 36.1154 56.5429 36.069C56.5423 36.0665 56.5423 36.0638 56.5429 36.0613C56.543 36.0243 56.532 35.9881 56.5115 35.9574C56.4995 35.9421 56.484 35.9301 56.4663 35.9222C56.4486 35.9143 56.4292 35.9109 56.4099 35.9122C56.384 35.9117 56.3584 35.9178 56.3356 35.93C56.3154 35.9408 56.2978 35.9558 56.284 35.974C56.2693 35.9955 56.2587 36.0194 56.2525 36.0447C56.2442 36.075 56.2376 36.1041 56.2335 36.1267C56.2293 36.1492 56.2257 36.1861 56.2216 36.2211L56.1604 36.8591C56.1551 36.9286 56.1527 36.9779 56.1527 37.0159C56.1514 37.0534 56.162 37.0904 56.183 37.1216C56.1944 37.1369 56.2095 37.149 56.2268 37.1569C56.2441 37.1648 56.2632 37.1682 56.2822 37.1668H56.2792Z" fill="#005C46"/>
<path d="M57.3395 37.4049L57.1797 35.6194H57.586L57.6293 36.9297L57.9424 35.6194H58.3404L57.8111 37.4049H57.3395Z" fill="#005C46"/>
<path d="M58.6922 37.4629C58.6413 37.4643 58.5908 37.453 58.5453 37.4301C58.4998 37.4071 58.4607 37.3733 58.4314 37.3317C58.3789 37.2605 58.351 37.1742 58.3518 37.0857C58.3516 37.0697 58.3526 37.0536 58.3548 37.0376C58.3609 36.979 58.3741 36.9214 58.394 36.866C58.4112 36.817 58.4348 36.7704 58.4641 36.7276C58.4923 36.6867 58.5252 36.6492 58.5621 36.6159C58.5978 36.5828 58.6364 36.553 58.6773 36.5268C58.7198 36.5007 58.7636 36.4769 58.8086 36.4555C58.8567 36.4323 58.9025 36.4122 58.9452 36.3961C58.988 36.3801 59.0343 36.3617 59.0848 36.3432L59.1442 36.3207L59.1591 36.1728C59.162 36.1395 59.1638 36.1098 59.1638 36.0825V36.0433C59.1642 36.0275 59.1615 36.0119 59.1558 35.9972C59.1501 35.9825 59.1415 35.9691 59.1306 35.9577C59.1056 35.9373 59.0736 35.9273 59.0415 35.9298C58.9429 35.9298 58.8866 35.9971 58.8728 36.1318L58.8561 36.2417L58.4576 36.225C58.4576 36.2191 58.4605 36.2078 58.4629 36.1918C58.4653 36.1757 58.4671 36.1656 58.4683 36.1603C58.4999 35.9746 58.5688 35.8382 58.675 35.751C58.7989 35.6582 58.9516 35.612 59.1062 35.6204C59.282 35.6204 59.4072 35.6681 59.4816 35.7635C59.5447 35.8522 59.5761 35.9595 59.5707 36.0682C59.5707 36.1026 59.5687 36.1369 59.5648 36.171L59.4786 36.9854C59.4681 37.0912 59.4631 37.1974 59.4638 37.3037C59.4638 37.3459 59.4638 37.3887 59.4638 37.4332H59.0902C59.0796 37.3461 59.0734 37.2585 59.0718 37.1707C59.0409 37.2505 58.9907 37.3213 58.9256 37.3768C58.8609 37.433 58.7779 37.4636 58.6922 37.4629ZM58.8852 37.1386C58.9224 37.1369 58.9582 37.1236 58.9874 37.1006C59.0185 37.0799 59.0467 37.0551 59.0712 37.0269L59.1228 36.5369C58.8995 36.6525 58.7797 36.7838 58.7635 36.9307C58.7626 36.9463 58.7626 36.962 58.7635 36.9776C58.762 37.0148 58.7704 37.0517 58.7878 37.0846C58.7975 37.1017 58.8117 37.1158 58.8289 37.1254C58.8461 37.1349 58.8656 37.1395 58.8852 37.1386Z" fill="#005C46"/>
<path d="M60.2381 37.7148C60.1688 37.716 60.1001 37.702 60.0368 37.6738C59.987 37.6517 59.9455 37.6145 59.918 37.5675C59.8908 37.5179 59.8739 37.4634 59.8681 37.4071C59.8639 37.375 59.8613 37.3427 59.8604 37.3103C59.8604 37.2729 59.863 37.2356 59.8681 37.1986L59.9768 36.1793H59.7986L59.8271 35.9049H60.0017L60.0576 35.3816H60.4734L60.4187 35.9049H60.692L60.6634 36.1793H60.3902L60.2803 37.2182C60.2803 37.2307 60.2803 37.242 60.2803 37.2533C60.2773 37.2864 60.2864 37.3195 60.3059 37.3465C60.3217 37.3613 60.3405 37.3727 60.3609 37.3799C60.3813 37.3872 60.403 37.3902 60.4247 37.3887C60.4676 37.3884 60.5105 37.3848 60.553 37.378L60.5197 37.6952C60.3979 37.7083 60.3076 37.7148 60.2482 37.7148H60.2381Z" fill="#005C46"/>
<path d="M60.7781 37.7452L60.9652 35.9596H61.378L61.1915 37.7452H60.7781ZM60.9955 35.6787L61.0329 35.3223H61.4487L61.4113 35.6787H60.9955Z" fill="#005C46"/>
<path d="M62.5005 37.2962C62.3953 37.4049 62.2468 37.4596 62.0538 37.4596C61.8607 37.4596 61.7241 37.4049 61.6433 37.2962C61.5746 37.1941 61.5413 37.0722 61.5483 36.9493C61.5485 36.9097 61.5506 36.87 61.5548 36.8305L61.6142 36.2484C61.6238 36.0766 61.6905 35.9129 61.8037 35.7833C61.9078 35.674 62.0559 35.6194 62.248 35.6194C62.4401 35.6194 62.5773 35.6736 62.6596 35.7821C62.7292 35.8829 62.7637 36.0038 62.7577 36.1261C62.7586 36.1679 62.7572 36.2097 62.7535 36.2514L62.6941 36.8335C62.668 37.0325 62.605 37.1881 62.5005 37.2962ZM62.0847 37.1668C62.1089 37.1676 62.1329 37.1627 62.1549 37.1524C62.1768 37.142 62.1959 37.1266 62.2106 37.1074C62.2253 37.0857 62.2363 37.0619 62.2433 37.0367C62.2517 37.0099 62.258 36.9825 62.2623 36.9547C62.2658 36.9297 62.2694 36.8983 62.2736 36.8597L62.3413 36.2217C62.3442 36.1665 62.3466 36.116 62.349 36.0696C62.3483 36.0671 62.3483 36.0644 62.349 36.0619C62.3493 36.0249 62.3383 35.9886 62.3175 35.958C62.3056 35.9428 62.2902 35.9308 62.2726 35.9229C62.255 35.9151 62.2358 35.9116 62.2165 35.9128C62.1905 35.9122 62.1647 35.9184 62.1417 35.9306C62.1216 35.9414 62.1042 35.9564 62.0906 35.9746C62.076 35.9962 62.0652 36.0201 62.0585 36.0453C62.0508 36.0722 62.0446 36.0996 62.0401 36.1273C62.0358 36.1522 62.0316 36.1837 62.0276 36.2217L61.9599 36.8597C61.9552 36.9292 61.9522 36.9785 61.9522 37.0165C61.9509 37.054 61.9615 37.091 61.9825 37.1222C61.9944 37.1378 62.0101 37.1501 62.0281 37.1579C62.0461 37.1657 62.0657 37.1687 62.0853 37.1668H62.0847Z" fill="#005C46"/>
<path d="M62.918 37.4324L63.1051 35.6468H63.5179L63.5001 35.8214C63.6587 35.6866 63.8113 35.6195 63.9569 35.6195C64.0038 35.6182 64.0502 35.6297 64.0911 35.6528C64.1265 35.6727 64.1548 35.7032 64.1719 35.7401C64.1987 35.7994 64.2123 35.8639 64.2117 35.929C64.2118 35.9536 64.2098 35.9783 64.2058 36.0026L64.0567 37.4324H63.6409L63.7799 36.0977C63.7799 36.0792 63.7828 36.0632 63.7828 36.0478C63.7839 36.0219 63.7793 35.9961 63.7692 35.9723C63.7561 35.9444 63.7258 35.9301 63.6789 35.9301C63.6053 35.9384 63.5356 35.9677 63.4781 36.0145L63.329 37.4324H62.918Z" fill="#005C46"/>
<path d="M65.0259 37.7637L65.2878 35.2629H65.7268L65.4642 37.7637H65.0259Z" fill="#005C46"/>
<path d="M65.8262 37.7637L66.0133 35.9781H66.4291L66.4113 36.1527C66.5699 36.0179 66.7225 35.9508 66.868 35.9508C66.915 35.9495 66.9614 35.961 67.0023 35.9841C67.0377 36.004 67.066 36.0345 67.0831 36.0714C67.1099 36.1307 67.1235 36.1952 67.1229 36.2603C67.123 36.2849 67.121 36.3096 67.1169 36.3339L66.9678 37.7637H66.552L66.691 36.429C66.691 36.4105 66.694 36.3945 66.694 36.3791C66.6951 36.3532 66.6904 36.3274 66.6803 36.3036C66.6673 36.2757 66.637 36.2614 66.5901 36.2614C66.5164 36.2697 66.4467 36.2989 66.3893 36.3458L66.2402 37.7637H65.8262Z" fill="#005C46"/>
<path d="M67.7716 37.7878C67.7023 37.789 67.6336 37.775 67.5702 37.7468C67.5206 37.7245 67.4791 37.6874 67.4514 37.6405C67.4248 37.5907 67.4079 37.5363 67.4015 37.4801C67.3973 37.448 67.3947 37.4157 67.3938 37.3833C67.3942 37.346 67.3967 37.3087 67.4015 37.2716L67.5102 36.2523H67.332L67.3605 35.9779H67.5387L67.5946 35.4546H68.0104L67.9557 35.9779H68.2272L68.1987 36.2523H67.9254L67.8155 37.2912C67.8155 37.3037 67.8155 37.315 67.8155 37.3263C67.8129 37.3594 67.8219 37.3924 67.8411 37.4195C67.857 37.4342 67.8758 37.4455 67.8962 37.4528C67.9166 37.46 67.9383 37.4631 67.9599 37.4617C68.0027 37.4613 68.0454 37.4578 68.0876 37.451L68.0549 37.7682C67.9332 37.7813 67.8423 37.7878 67.7835 37.7878H67.7716Z" fill="#005C46"/>
<path d="M68.8319 37.7911C68.6272 37.7911 68.4864 37.7347 68.4096 37.6218C68.3458 37.5144 68.316 37.3901 68.324 37.2654C68.324 37.2191 68.3264 37.1698 68.3312 37.1175L68.384 36.6263C68.4074 36.4018 68.4692 36.2331 68.5694 36.1202C68.6696 36.0073 68.8204 35.9507 69.022 35.9503C69.1132 35.9472 69.204 35.964 69.2881 35.9996C69.3536 36.028 69.4076 36.0776 69.4414 36.1404C69.4776 36.2108 69.4992 36.2877 69.5049 36.3667C69.5079 36.4 69.5091 36.435 69.5091 36.4724C69.5089 36.538 69.5043 36.6035 69.4954 36.6685L69.4716 36.8912H68.7672L68.7387 37.1538C68.7327 37.2132 68.7286 37.2696 68.7262 37.3201V37.3361C68.7249 37.3741 68.735 37.4115 68.7553 37.4436C68.767 37.4601 68.783 37.4731 68.8015 37.4813C68.82 37.4894 68.8403 37.4924 68.8604 37.49C68.8851 37.4922 68.91 37.4879 68.9325 37.4774C68.9551 37.467 68.9744 37.4508 68.9887 37.4306C69.0189 37.3758 69.036 37.3148 69.0386 37.2524L69.0535 37.1151H69.4473L69.4354 37.2203C69.4285 37.3786 69.3653 37.5292 69.2572 37.645C69.1996 37.6964 69.1323 37.7357 69.0593 37.7608C68.9862 37.7859 68.909 37.7962 68.8319 37.7911ZM68.7897 36.6821H69.0992L69.117 36.5122C69.117 36.4808 69.1218 36.4528 69.1218 36.4273C69.1238 36.3882 69.1175 36.3491 69.1034 36.3127C69.0924 36.2924 69.0756 36.276 69.0551 36.2654C69.0347 36.2548 69.0116 36.2506 68.9887 36.2533C68.9629 36.2513 68.937 36.2566 68.9141 36.2687C68.8912 36.2808 68.8722 36.2991 68.8592 36.3216C68.8242 36.4006 68.8041 36.4853 68.7998 36.5716L68.7897 36.6821Z" fill="#005C46"/>
<path d="M69.6755 37.7637L69.8621 35.9782H70.2779L70.2505 36.2496C70.3824 36.0516 70.5182 35.9536 70.658 35.9556C70.6794 35.9556 70.7007 35.958 70.7216 35.9627L70.6758 36.3785C70.6282 36.3604 70.5777 36.3511 70.5267 36.3512C70.4706 36.3526 70.4156 36.3675 70.3664 36.3946C70.3088 36.4299 70.2592 36.4768 70.2208 36.5324L70.0907 37.7661L69.6755 37.7637Z" fill="#005C46"/>
<path d="M70.7322 37.7637L70.9193 35.9781H71.3351L71.3167 36.1527C71.4759 36.0179 71.6279 35.9508 71.774 35.9508C71.821 35.9495 71.8674 35.961 71.9083 35.984C71.9436 36.0041 71.9718 36.0346 71.9891 36.0714C72.0151 36.1309 72.0287 36.1952 72.0289 36.2602C72.0287 36.2849 72.0267 36.3095 72.0229 36.3339L71.8732 37.7637H71.4604L71.5988 36.4289C71.5999 36.4123 71.5999 36.3957 71.5988 36.379C71.6 36.3533 71.5955 36.3275 71.5858 36.3036C71.5721 36.2757 71.5424 36.2614 71.4949 36.2614C71.4212 36.2697 71.3516 36.299 71.2941 36.3458L71.145 37.7637H70.7322Z" fill="#005C46"/>
<path d="M72.5226 37.7909C72.4717 37.7923 72.4212 37.781 72.3757 37.7581C72.3302 37.7352 72.2911 37.7014 72.2618 37.6597C72.2092 37.5885 72.181 37.5022 72.1817 37.4137C72.1817 37.3976 72.1828 37.3816 72.1852 37.3656C72.1911 37.307 72.2042 37.2493 72.2244 37.194C72.2416 37.145 72.2652 37.0984 72.2945 37.0556C72.3227 37.0146 72.3556 36.9772 72.3925 36.9439C72.4282 36.9108 72.4668 36.881 72.5078 36.8548C72.5502 36.8287 72.594 36.8049 72.639 36.7835C72.6871 36.7603 72.7329 36.7401 72.7756 36.7241C72.8184 36.7081 72.8647 36.6897 72.9146 36.6712L72.974 36.6487L72.9889 36.5008C72.9919 36.4675 72.9936 36.4378 72.9936 36.4105V36.3713C72.9935 36.3407 72.9816 36.3113 72.9604 36.2893C72.9354 36.2689 72.9035 36.2589 72.8713 36.2614C72.7727 36.2614 72.7162 36.3287 72.702 36.4633L72.686 36.5732L72.2874 36.5566C72.2874 36.5507 72.2904 36.5394 72.2927 36.5233C72.2951 36.5073 72.2969 36.4972 72.2981 36.4919C72.329 36.3061 72.3979 36.1697 72.5048 36.0826C72.6287 35.9897 72.7814 35.9435 72.936 35.9519C73.1118 35.9519 73.237 35.9996 73.3114 36.0951C73.3745 36.1837 73.4059 36.2911 73.4005 36.3998C73.4005 36.4341 73.3985 36.4684 73.3946 36.5025L73.3085 37.3169C73.2979 37.4227 73.293 37.529 73.2936 37.6353C73.2936 37.6775 73.2936 37.7202 73.2936 37.7648H72.92C72.9094 37.6776 72.9032 37.59 72.9016 37.5022C72.8707 37.582 72.8205 37.6528 72.7555 37.7084C72.6904 37.7631 72.6076 37.7924 72.5226 37.7909ZM72.7157 37.4666C72.7528 37.4649 72.7886 37.4516 72.8178 37.4286C72.8495 37.4074 72.878 37.3821 72.9028 37.3531L72.9538 36.8631C72.7313 36.9787 72.6125 37.11 72.5974 37.2569C72.5966 37.2726 72.5966 37.2882 72.5974 37.3038C72.5959 37.341 72.6043 37.3779 72.6218 37.4108C72.6309 37.4277 72.6445 37.4418 72.661 37.4517C72.6775 37.4615 72.6964 37.4667 72.7157 37.4666Z" fill="#005C46"/>
<path d="M74.0686 37.7878C73.9993 37.789 73.9305 37.775 73.8672 37.7468C73.8174 37.7247 73.7759 37.6875 73.7484 37.6405C73.7213 37.5909 73.7043 37.5364 73.6985 37.4801C73.6943 37.448 73.6917 37.4157 73.6908 37.3833C73.6908 37.3459 73.6934 37.3086 73.6985 37.2716L73.8108 36.2523H73.6326L73.6617 35.9779H73.8363L73.8921 35.4546H74.3079L74.2539 35.9779H74.5236L74.4945 36.2523H74.2218L74.1113 37.2912C74.1113 37.3037 74.1113 37.315 74.1113 37.3263C74.1084 37.3594 74.1174 37.3925 74.1369 37.4195C74.1527 37.4343 74.1715 37.4457 74.1919 37.4529C74.2123 37.4602 74.234 37.4632 74.2557 37.4617C74.2986 37.4613 74.3415 37.4577 74.384 37.451L74.3507 37.7682C74.2289 37.7813 74.1387 37.7878 74.0793 37.7878H74.0686Z" fill="#005C46"/>
<path d="M74.6086 37.7637L74.7958 35.9782H75.2086L75.0215 37.7637H74.6086ZM74.8255 35.6972L74.8635 35.3408H75.2793L75.2418 35.6972H74.8255Z" fill="#005C46"/>
<path d="M76.3309 37.6278C76.2264 37.7367 76.0777 37.7911 75.8848 37.7911C75.692 37.7911 75.5552 37.7367 75.4744 37.6278C75.4057 37.5256 75.3723 37.4038 75.3793 37.2809C75.3793 37.2429 75.3793 37.2031 75.3853 37.1621L75.4447 36.58C75.4542 36.4082 75.5209 36.2445 75.6342 36.1149C75.7383 36.0056 75.8862 35.9509 76.0779 35.9509C76.2695 35.9509 76.407 36.0052 76.4901 36.1137C76.5597 36.2144 76.5941 36.3353 76.5881 36.4576C76.5878 36.4985 76.5852 36.5394 76.5804 36.58L76.521 37.1621C76.5114 37.3342 76.4445 37.4981 76.3309 37.6278ZM75.9151 37.4983C75.9393 37.4992 75.9634 37.4943 75.9853 37.4839C76.0072 37.4736 76.0263 37.4581 76.041 37.4389C76.0558 37.4173 76.0668 37.3934 76.0737 37.3682C76.0822 37.3415 76.0884 37.314 76.0921 37.2862C76.0957 37.2613 76.0999 37.2298 76.104 37.1912L76.1717 36.5532C76.1747 36.498 76.1771 36.4475 76.1789 36.4012C76.1782 36.3987 76.1782 36.396 76.1789 36.3935C76.1792 36.3564 76.1682 36.3202 76.1474 36.2895C76.1355 36.2744 76.12 36.2623 76.1025 36.2545C76.0849 36.2466 76.0656 36.2431 76.0464 36.2444C76.0203 36.2438 75.9945 36.2499 75.9715 36.2622C75.9514 36.2727 75.9339 36.2878 75.9205 36.3061C75.9056 36.3276 75.8948 36.3515 75.8884 36.3768C75.8806 36.4038 75.8745 36.4311 75.87 36.4588C75.866 36.4837 75.8619 36.5152 75.8575 36.5532L75.7898 37.1912C75.7844 37.2607 75.7821 37.31 75.7821 37.348C75.7808 37.3856 75.7914 37.4226 75.8124 37.4537C75.8244 37.4695 75.8402 37.4819 75.8585 37.4897C75.8767 37.4975 75.8966 37.5005 75.9163 37.4983H75.9151Z" fill="#005C46"/>
<path d="M76.7488 37.7637L76.9359 35.9781H77.3487L77.3309 36.1527C77.4895 36.0179 77.6422 35.9508 77.7877 35.9508C77.8346 35.9495 77.881 35.961 77.9219 35.984C77.9573 36.0039 77.9856 36.0345 78.0027 36.0714C78.0295 36.1307 78.0431 36.1951 78.0425 36.2602C78.0426 36.2849 78.0406 36.3096 78.0366 36.3339L77.8875 37.7637H77.4717L77.6125 36.4289C77.6125 36.4105 77.6154 36.3945 77.6154 36.379C77.6165 36.3532 77.6118 36.3274 77.6018 36.3036C77.5887 36.2757 77.5584 36.2614 77.5109 36.2614C77.4374 36.2697 77.3679 36.299 77.3107 36.3458L77.161 37.7637H76.7488Z" fill="#005C46"/>
<path d="M78.5395 37.791C78.4885 37.7924 78.4379 37.7811 78.3923 37.7582C78.3467 37.7353 78.3075 37.7015 78.2781 37.6598C78.2259 37.5884 78.198 37.5022 78.1985 37.4138C78.1983 37.3978 78.1993 37.3817 78.2015 37.3657C78.2079 37.3072 78.221 37.2496 78.2407 37.1941C78.2579 37.1451 78.2815 37.0985 78.3108 37.0557C78.339 37.0148 78.3719 36.9773 78.4088 36.944C78.4445 36.9109 78.4831 36.8811 78.524 36.8549C78.5665 36.8288 78.6103 36.805 78.6553 36.7836C78.7034 36.7605 78.7491 36.7403 78.7919 36.7242C78.8347 36.7082 78.881 36.6898 78.9315 36.6714L78.9909 36.6488L79.0058 36.5009C79.0087 36.4676 79.0105 36.4379 79.0105 36.4106V36.3714C79.0111 36.3558 79.0087 36.3402 79.0033 36.3255C78.9979 36.3108 78.9896 36.2973 78.979 36.2858C78.954 36.2654 78.9221 36.2554 78.8899 36.2579C78.7913 36.2579 78.7351 36.3252 78.7212 36.4599L78.7046 36.5698L78.3066 36.5531C78.3066 36.5472 78.3066 36.5359 78.3114 36.5199C78.3161 36.5038 78.3161 36.4937 78.3167 36.4884C78.348 36.3027 78.4169 36.1663 78.5234 36.0791C78.6474 35.9864 78.8001 35.9402 78.9547 35.9485C79.1329 35.9485 79.2558 35.996 79.3307 36.0916C79.3933 36.1805 79.4245 36.2877 79.4192 36.3963C79.4192 36.4307 79.4172 36.465 79.4132 36.4991L79.3277 37.3135C79.3169 37.4192 79.3118 37.5255 79.3123 37.6318C79.3123 37.674 79.3123 37.7168 79.3123 37.7613H78.938C78.9262 37.6479 78.9202 37.56 78.9202 37.4988C78.8889 37.5785 78.8385 37.6493 78.7735 37.7049C78.7086 37.7612 78.6254 37.7918 78.5395 37.791ZM78.7325 37.4667C78.7695 37.4649 78.805 37.4516 78.8341 37.4287C78.8658 37.4081 78.8946 37.3834 78.9196 37.355L78.9713 36.865C78.748 36.9806 78.6282 37.1119 78.6119 37.2588C78.6101 37.2744 78.6091 37.2901 78.609 37.3057C78.6075 37.3429 78.6159 37.3798 78.6333 37.4127C78.6432 37.43 78.6577 37.4443 78.6752 37.4539C78.6927 37.4634 78.7126 37.4679 78.7325 37.4667Z" fill="#005C46"/>
<path d="M79.6177 37.7637L79.8802 35.2629H80.296L80.0335 37.7637H79.6177Z" fill="#005C46"/>
<path d="M21.6113 32.9591C20.5056 31.7861 18.6859 31.0499 17.1771 30.5544C17.2918 29.3731 16.7992 27.909 15.3379 26.848C14.9614 26.5821 14.5687 26.34 14.1621 26.123C14.2003 26.8691 14.4152 27.5954 14.7892 28.2421C15.1839 28.872 16.4072 30.0001 16.9531 30.4816C16.0377 30.1877 15.1755 29.9469 14.1957 29.6586C14.1822 29.2584 14.1183 28.8615 14.0054 28.4773C13.9146 28.1071 13.7871 27.747 13.6246 27.4023C13.3315 26.9047 12.9578 26.4591 12.5189 26.0838C12.2179 25.8233 11.9029 25.5794 11.5755 25.3531C11.4887 26.6521 11.7519 27.8894 13.9522 29.5858C13.034 29.3059 12.1438 29.0259 11.2452 28.6872C11.2366 27.402 10.8319 26.1508 10.0862 25.104C9.87754 24.8298 9.65517 24.5663 9.41996 24.3146C8.86008 25.9942 9.71669 27.5031 10.9988 28.592C10.1184 28.2488 9.26976 27.8292 8.46257 27.3379C8.65853 26.3917 8.57734 24.5805 7.72072 22.8589C6.63456 24.4433 7.45478 26.2881 8.23861 27.1839C7.45415 26.6832 6.73563 26.086 6.09988 25.4063L6.07469 25.3755C6.35463 24.7485 7.00128 22.6377 6.41341 20.8685C5.29365 21.9491 5.21247 23.5195 5.75275 24.866C5.79093 24.9787 5.83581 25.089 5.88712 25.1964C5.26428 24.4851 4.73552 23.6967 4.31387 22.8505C4.79744 22.2404 5.15057 21.5375 5.35137 20.7853C5.55217 20.0332 5.59636 19.2478 5.48121 18.4778C4.10671 19.3764 3.87156 21.3164 4.21869 22.6209C3.80586 21.762 3.46956 20.8683 3.21371 19.9503C4.48463 18.6962 5.03891 17.2293 5.03891 15.922C3.96954 16.3615 3.39287 17.4309 3.20531 18.545C3.13062 18.9409 3.11553 19.3456 3.16052 19.746C2.91264 18.8143 2.75513 17.8609 2.69021 16.899C2.88337 16.7506 3.2137 16.4231 3.53003 16.0983C4.36344 15.3645 4.9165 14.3642 5.0949 13.2682C4.00034 13.5089 3.28369 14.4607 2.91137 15.5077C2.7617 15.9239 2.68041 16.3616 2.67062 16.8038C2.64543 16.3755 2.63423 15.964 2.63983 15.5525C2.69288 13.4397 3.12526 11.3536 3.91635 9.3938C3.94994 9.30142 3.98074 9.22864 4.00593 9.17265C4.12351 9.04388 4.31386 8.79193 4.51822 8.51479C4.79815 8.14527 5.0949 7.73376 5.26006 7.46502C5.76075 6.62979 6.13791 5.72649 6.37982 4.7832C5.56715 5.32145 4.91596 6.07037 4.49582 6.94993C4.31384 7.3621 4.16773 7.78919 4.05912 8.22646C3.97966 8.52181 3.92535 8.82335 3.89676 9.12786C3.87156 9.18665 3.83797 9.26783 3.79878 9.36861C3.60842 9.83331 3.38447 10.4604 3.20531 11.0678C3.2305 10.8887 3.29209 10.3512 3.37607 9.74933C3.42086 9.4162 3.47404 9.06347 3.51323 8.73594C3.55155 8.45763 3.57119 8.17706 3.57203 7.89613C3.5299 7.18122 3.404 6.47373 3.19691 5.78818C2.71262 6.70638 2.3319 7.70857 2.46067 8.83112C2.52785 9.45259 2.7686 10.6619 3.19131 11.1098C2.91666 12.0548 2.72189 13.0212 2.60904 13.9988C2.39348 10.9811 2.60904 10.8719 1.62085 8.81713C0.688653 11.6585 2.06316 13.7637 2.59224 14.136C2.48054 15.1126 2.45899 16.0975 2.52785 17.0781C1.70203 14.2927 1.96797 14.1108 0.506689 12.1708C0.117574 15.0486 1.61245 16.8962 2.54745 17.3049C2.63044 18.2515 2.80005 19.1886 3.05414 20.1043C1.65444 17.5848 1.88399 17.3301 0 15.7148C0.193158 18.9705 2.44667 20.2442 3.13532 20.3842C3.40207 21.2814 3.74483 22.1543 4.15989 22.9933C3.96954 22.7777 3.7036 22.4698 3.42366 22.131C3.36207 22.0583 3.30048 21.9855 3.24169 21.9099C2.2899 20.7565 2.06875 20.3198 0.193159 19.3512C1.06377 22.243 3.2081 23.318 4.31946 23.3012C4.75259 24.1173 5.28579 24.8762 5.90672 25.5603L5.83674 25.5183L5.43362 25.258C5.28805 25.16 5.12849 25.0564 4.97172 24.9416C3.46845 23.8975 3.41246 23.4663 1.11136 22.8925C2.16113 24.8045 3.74559 26.1286 5.88993 25.9102L6.04948 25.885L6.18386 25.8486C6.82354 26.497 7.53769 27.0673 8.3114 27.5479C8.15743 27.5087 7.68433 27.3771 7.24762 27.2343C5.37763 26.6241 5.28805 26.3217 2.82459 26.3105C5.22367 28.928 7.86349 28.3233 8.68652 27.7774C9.45968 28.224 10.2665 28.6096 11.0996 28.9308C7.99506 28.7516 7.88589 28.4521 5.51481 29.2471C8.67252 31.0835 11.1752 29.4682 11.5447 29.1043C12.3677 29.4095 13.1935 29.6642 14.0334 29.9273C13.4091 29.9553 11.3739 30.0533 10.7693 30.2325C10.0384 30.4837 9.35165 30.8484 8.73411 31.313C9.25168 31.4735 9.78458 31.5795 10.3242 31.6294C12.2305 31.7805 14.1649 30.4928 14.5233 30.0729C15.2707 30.2969 16.1721 30.56 16.9783 30.8288C13.7506 30.9379 13.0144 31.5846 11.9674 32.6847C12.4666 32.7609 12.9715 32.7928 13.4763 32.7799C15.0859 32.7155 17.1155 31.4082 17.4906 31.0051C19.9793 31.8925 20.9563 32.7267 21.6897 33.6001C21.6749 33.3852 21.6488 33.1712 21.6113 32.9591Z" fill="#005C46"/>
<path d="M2.78247 13.8026C4.77844 12.6464 5.4055 11.5183 5.66025 10.5945C4.15697 10.6953 3.03442 12.3021 2.78247 13.8026Z" fill="#005C46"/>
<path d="M4.74509 8.73845C4.50009 8.95485 4.28118 9.19912 4.09283 9.46629C3.82219 9.87016 3.60573 10.3078 3.44897 10.768C3.58614 10.7036 5.179 9.8834 5.51493 9.58386C5.99031 9.12718 6.37665 8.58611 6.65427 7.98821C6.30138 7.97376 5.94936 8.03301 5.62064 8.16219C5.29192 8.29136 4.99374 8.48762 4.74509 8.73845Z" fill="#005C46"/>
<path d="M17.9442 32.959C19.064 31.7861 20.8724 31.0498 22.3785 30.5544C22.2665 29.373 22.7592 27.9089 24.2177 26.8479C24.5946 26.5813 24.9882 26.3391 25.3962 26.1229C25.3555 26.8689 25.1397 27.5949 24.7663 28.2421C24.3716 28.8719 23.1483 30.0001 22.6052 30.4816C23.5206 30.1876 24.3828 29.9469 25.3626 29.6585C25.3745 29.2582 25.4385 28.8611 25.553 28.4772C25.6437 28.1071 25.7712 27.747 25.9337 27.4022C26.226 26.904 26.5998 26.4583 27.0394 26.0837C27.3396 25.8234 27.6536 25.5795 27.98 25.3531C28.0668 26.652 27.8037 27.8893 25.6062 29.5858C26.5244 29.3058 27.4146 29.0259 28.3104 28.6872C28.3206 27.4022 28.7252 26.1515 29.4693 25.1039C29.7493 24.7512 29.9816 24.4853 30.1356 24.3145C30.6955 25.9941 29.8416 27.503 28.5595 28.592C29.4388 28.2482 30.2865 27.8286 31.093 27.3378C30.8998 26.3916 30.9782 24.5804 31.8376 22.8588C32.9238 24.4433 32.1036 26.2881 31.3197 27.1839C32.1033 26.6831 32.8209 26.0859 33.4557 25.4063L33.4836 25.3755C33.2037 24.7484 32.5543 22.6377 33.1449 20.8685C34.2647 21.949 34.3459 23.5195 33.8056 24.866C33.7632 24.9732 33.7145 25.0779 33.66 25.1795C34.2828 24.4688 34.8107 23.6803 35.2305 22.8336C34.7514 22.2246 34.402 21.524 34.2036 20.7749C34.0053 20.0258 33.9622 19.2441 34.0771 18.4778C35.4516 19.3764 35.6868 21.3163 35.3369 22.6209C35.7497 21.7619 36.086 20.8683 36.3418 19.9503C35.0737 18.6961 34.5194 17.2292 34.5194 15.9219C35.586 16.3614 36.1627 17.4308 36.353 18.545C36.4277 18.9408 36.4428 19.3456 36.3978 19.7459C36.6443 18.8139 36.8018 17.8606 36.8681 16.8989C36.5744 16.6468 36.2941 16.3796 36.0283 16.0983C35.1846 15.3707 34.6229 14.3701 34.441 13.2709C35.5328 13.5116 36.2522 14.4634 36.6246 15.5104C36.7733 15.9268 36.8536 16.3645 36.8625 16.8065C36.8905 16.3782 36.9017 15.9667 36.8933 15.5552C36.8412 13.4426 36.4097 11.3565 35.6196 9.39654L35.53 9.17539C35.4096 9.04661 35.2221 8.79467 35.0149 8.51753C34.735 8.14801 34.455 7.7365 34.2759 7.46775C33.7724 6.62464 33.3942 5.71275 33.1533 4.76074C33.9674 5.29738 34.619 6.04673 35.0373 6.92747C35.2206 7.33911 35.3668 7.76632 35.474 8.204C35.5562 8.49872 35.6106 8.80051 35.6364 9.1054C35.6616 9.16419 35.698 9.24537 35.7372 9.34615C35.9247 9.81085 36.1515 10.4379 36.3306 11.0454C36.3054 10.8662 36.2411 10.3287 36.1571 9.72687C36.1123 9.39374 36.0619 9.04101 36.0227 8.71348C35.9836 8.43521 35.9631 8.15466 35.9611 7.87367C36.006 7.15909 36.1318 6.45192 36.3362 5.76572C36.8233 6.68392 37.204 7.68611 37.0753 8.80867C37.0081 9.43013 36.7673 10.6395 36.3418 11.0874C36.6313 12.0382 36.8383 13.0123 36.9605 13.9987C37.1788 10.981 36.9605 10.8718 37.9487 8.81706C38.8837 11.6584 37.5064 13.7636 36.9773 14.1359C37.0843 15.1026 37.1031 16.0771 37.0333 17.0473C37.8731 14.2619 37.5932 14.0799 39.0572 12.1399C39.4464 15.0177 37.9375 16.8653 37.0165 17.274C36.9325 18.2208 36.762 19.1578 36.507 20.0734C37.9207 17.554 37.6799 17.2992 39.5639 15.684C39.368 18.9397 37.1173 20.2134 36.4258 20.3534C36.1603 21.251 35.8175 22.1239 35.4012 22.9624C35.5916 22.7468 35.8575 22.4389 36.1403 22.1002L36.3222 21.879C37.274 20.7257 37.4952 20.289 39.368 19.3204C38.5002 22.2122 36.3558 23.2871 35.2445 23.2703C34.8103 24.0865 34.2762 24.8454 33.6544 25.5294L33.7244 25.4874C33.8476 25.4119 33.9819 25.3223 34.1303 25.2271C34.2787 25.1319 34.4354 25.0256 34.5922 24.9108C36.0955 23.8666 36.1515 23.4355 38.4526 22.8616C37.4028 24.7736 35.8183 26.0977 33.674 25.8794L33.5144 25.8542L33.3801 25.8178C32.74 26.4668 32.0248 27.0372 31.2497 27.517C31.4065 27.4778 31.8796 27.3462 32.3163 27.2035C34.1863 26.5932 34.2759 26.2909 36.7393 26.2797C34.3375 28.8971 31.7004 28.2924 30.8606 27.7466C30.0884 28.1931 29.2825 28.5787 28.4503 28.8999C31.5549 28.7207 31.6612 28.4212 34.0323 29.2162C30.8746 31.0526 28.3748 29.4374 28.0052 29.0735C27.1822 29.3786 26.3536 29.6334 25.5138 29.8965C26.1408 29.9245 28.176 30.0225 28.7807 30.2016C29.5113 30.4535 30.1979 30.8181 30.8158 31.2822C30.2982 31.4423 29.7653 31.5483 29.2258 31.5985C27.3194 31.7497 25.385 30.462 25.0267 30.0421C24.2792 30.266 23.3806 30.5292 22.5744 30.7979C25.7993 30.9071 26.5384 31.5537 27.5825 32.6539C27.0843 32.7302 26.5803 32.7621 26.0765 32.7491C24.4668 32.6847 22.4372 31.3774 22.0621 30.9743C19.5735 31.8617 18.5937 32.6959 17.863 33.5693C17.8785 33.3645 17.9056 33.1608 17.9442 32.959Z" fill="#005C46"/>
<path d="M36.7757 13.8026C34.7798 12.6464 34.1527 11.5183 33.8979 10.5945C35.4012 10.6953 36.5238 12.3021 36.7757 13.8026Z" fill="#005C46"/>
<path d="M34.8136 8.73847C35.0584 8.95428 35.2764 9.19863 35.4631 9.4663C35.7358 9.86934 35.9533 10.3072 36.1097 10.768C35.9725 10.7036 34.3797 9.88341 34.0438 9.58388C33.5674 9.12744 33.1801 8.58634 32.9016 7.98823C33.2549 7.97373 33.6074 8.03295 33.9366 8.16211C34.2657 8.29128 34.5644 8.48756 34.8136 8.73847Z" fill="#005C46"/>
<path d="M9.64964 12.6578C9.87602 13.0294 10.2058 13.3271 10.5986 13.5144C10.6431 13.5354 10.6829 13.5649 10.7158 13.6014C10.7488 13.6379 10.7742 13.6805 10.7906 13.7268C10.807 13.7731 10.814 13.8222 10.8114 13.8713C10.8087 13.9204 10.7963 13.9684 10.775 14.0127C10.7315 14.1014 10.6549 14.1695 10.5618 14.2025C10.4687 14.2354 10.3663 14.2306 10.2767 14.189C10.1272 14.116 9.98392 14.0308 9.84839 13.9343C10.0499 14.5248 10.4312 15.0374 10.9387 15.4004C11.4463 15.7633 12.0546 15.9584 12.6786 15.9582H12.701C12.6856 15.7523 12.6856 15.5455 12.701 15.3396C12.7834 14.3848 13.2229 13.4961 13.9317 12.8511C14.6406 12.2061 15.5666 11.8522 16.5249 11.8599H18.6525C18.7037 11.8626 18.755 11.8547 18.803 11.8367C18.851 11.8187 18.8948 11.7909 18.9316 11.7552C18.9684 11.7194 18.9974 11.6765 19.0168 11.629C19.0362 11.5815 19.0456 11.5305 19.0444 11.4792C19.0444 11.1822 19.1624 10.8974 19.3724 10.6874C19.5824 10.4774 19.8672 10.3595 20.1642 10.3595H21.2839C21.3774 10.3676 21.4645 10.4104 21.528 10.4796C21.5915 10.5488 21.6267 10.6393 21.6267 10.7332C21.6267 10.8271 21.5915 10.9175 21.528 10.9867C21.4645 11.0559 21.3774 11.0988 21.2839 11.1069H20.1642C20.0654 11.1069 19.9707 11.1461 19.9009 11.2159C19.8311 11.2858 19.7918 11.3805 19.7918 11.4792C19.7918 11.7762 19.6739 12.061 19.4639 12.271C19.2539 12.481 18.9691 12.599 18.6721 12.599H16.5249C15.7529 12.5899 15.006 12.8736 14.4347 13.393C13.8634 13.9124 13.51 14.6289 13.4456 15.3984C13.4266 15.6799 13.4483 15.9628 13.51 16.2382C13.5268 16.3138 13.5436 16.3837 13.566 16.4537C13.5694 16.4681 13.5741 16.4822 13.58 16.4957C13.6024 16.5713 13.6276 16.6413 13.6556 16.7113V16.7337C13.8314 17.1565 14.1017 17.5336 14.4457 17.8359C14.7897 18.1382 15.1984 18.3577 15.6403 18.4777H15.6683C15.7383 18.4945 15.8055 18.5113 15.8755 18.5225L15.9819 18.5393C16.0328 18.5484 16.0842 18.5549 16.1358 18.5589C16.2282 18.5589 16.3234 18.5757 16.4158 18.5757C16.882 18.5741 17.3414 18.4636 17.7574 18.2532C18.1734 18.0428 18.5345 17.7381 18.8121 17.3635C18.6347 17.2511 18.4645 17.1277 18.3026 16.994C18.2268 16.9303 18.1793 16.8393 18.1704 16.7407C18.1615 16.6421 18.1919 16.544 18.255 16.4677C18.2861 16.4296 18.3245 16.398 18.368 16.3749C18.4114 16.3518 18.4591 16.3376 18.5081 16.3332C18.5571 16.3288 18.6065 16.3342 18.6535 16.3491C18.7004 16.364 18.7438 16.3882 18.7813 16.4201C19.2915 16.8435 19.8893 17.1483 20.5315 17.3125C21.1738 17.4768 21.8446 17.4964 22.4953 17.37C23.1461 17.2436 23.7607 16.9743 24.2948 16.5815C24.8289 16.1888 25.2691 15.6824 25.5838 15.0988C25.3834 14.8268 25.2301 14.523 25.1303 14.2002C25.1166 14.1532 25.1123 14.1039 25.1177 14.0552C25.1231 14.0065 25.1381 13.9593 25.1617 13.9164C25.1854 13.8735 25.2173 13.8356 25.2556 13.8051C25.294 13.7745 25.3379 13.7519 25.385 13.7383C25.4317 13.7241 25.4807 13.7193 25.5293 13.7242C25.5778 13.7291 25.6249 13.7435 25.6679 13.7667C25.7108 13.7898 25.7488 13.8213 25.7795 13.8592C25.8102 13.8971 25.8331 13.9407 25.8469 13.9875C25.953 14.3429 26.1457 14.6665 26.4078 14.929C26.6698 15.1916 26.993 15.3849 27.3482 15.4917C27.7034 15.5985 28.0796 15.6154 28.443 15.5408C28.8064 15.4663 29.1456 15.3026 29.4301 15.0646C29.7145 14.8265 29.9354 14.5216 30.0729 14.177C30.2104 13.8325 30.2602 13.4592 30.2177 13.0907C30.1753 12.7222 30.0419 12.37 29.8297 12.0658C29.6175 11.7615 29.333 11.5148 29.0018 11.3476C28.9538 11.5656 28.8902 11.7798 28.8115 11.9887C28.7744 12.0811 28.702 12.155 28.6104 12.1942C28.5188 12.2333 28.4154 12.2344 28.323 12.1973C28.2306 12.1601 28.1567 12.0878 28.1175 11.9962C28.0784 11.9046 28.0773 11.8012 28.1144 11.7088C28.2328 11.4079 28.31 11.0925 28.344 10.771C28.344 10.7178 28.344 10.6702 28.344 10.6198C28.344 10.5694 28.344 10.4406 28.344 10.3399C28.3444 9.55049 28.0942 8.78137 27.6293 8.1434C27.1644 7.50544 26.5089 7.03161 25.7573 6.79023C25.8751 6.96861 25.979 7.15578 26.0681 7.35011C26.0992 7.40977 26.1133 7.47685 26.1089 7.54401C26.1045 7.61116 26.0816 7.67579 26.0429 7.73083C26.0049 7.78638 25.9526 7.8306 25.8915 7.85878C25.8303 7.88696 25.7627 7.89804 25.6958 7.89086C25.6289 7.88368 25.5652 7.85851 25.5115 7.818C25.4577 7.7775 25.416 7.72319 25.3906 7.66085C24.9986 6.81404 24.3047 6.14392 23.4448 5.78152C22.5849 5.41913 21.6207 5.39051 20.7408 5.70127C20.4653 5.79519 20.2021 5.92208 19.957 6.07919C19.9159 6.11013 19.869 6.13229 19.819 6.14431C19.769 6.15632 19.7171 6.15794 19.6664 6.14905C19.6158 6.14016 19.5675 6.12096 19.5246 6.09264C19.4817 6.06432 19.4451 6.02748 19.417 5.98441C19.3889 5.94134 19.37 5.89296 19.3614 5.84228C19.3528 5.79159 19.3548 5.73968 19.3671 5.68976C19.3794 5.63985 19.4018 5.593 19.433 5.55212C19.4642 5.51124 19.5034 5.4772 19.5483 5.45212L19.7219 5.34855C19.3327 5.16374 18.9033 5.07994 18.4732 5.10489C18.0432 5.12984 17.6263 5.26274 17.2612 5.49132C17.4339 5.64525 17.5888 5.81802 17.7231 6.0064C17.7622 6.06046 17.7862 6.12399 17.7926 6.19042C17.799 6.25685 17.7876 6.32379 17.7595 6.38432C17.7321 6.44451 17.6891 6.49626 17.635 6.53418C17.5808 6.57209 17.5175 6.59478 17.4515 6.59988C17.3851 6.60519 17.3184 6.59268 17.2584 6.56365C17.1983 6.53462 17.1471 6.49011 17.11 6.43471C16.9347 6.18273 16.7087 5.97011 16.4466 5.81045C15.9774 5.51875 15.4165 5.41221 14.8731 5.51157C14.3297 5.61094 13.8427 5.9091 13.5072 6.34793C13.6545 6.39202 13.7985 6.44627 13.9383 6.51029C13.9989 6.53783 14.0511 6.58075 14.0899 6.63478C14.1287 6.6888 14.1527 6.75206 14.1595 6.81823C14.1643 6.88452 14.1515 6.9509 14.1224 7.01068C14.0934 7.07046 14.0491 7.12152 13.994 7.15871C13.9389 7.19591 13.875 7.21792 13.8087 7.22252C13.7424 7.22713 13.6761 7.21417 13.6164 7.18495C13.3177 7.04384 12.9915 6.97056 12.6611 6.97036C12.3308 6.97015 12.0045 7.04303 11.7057 7.18376C11.4068 7.3245 11.1428 7.5296 10.9325 7.78438C10.7222 8.03916 10.5709 8.3373 10.4895 8.65743C10.6896 8.5795 10.8982 8.52501 11.1109 8.49506C11.1594 8.48826 11.2088 8.49109 11.2563 8.50338C11.3037 8.51566 11.3483 8.53717 11.3874 8.56668C11.4265 8.59618 11.4594 8.6331 11.4843 8.67533C11.5091 8.71756 11.5254 8.76427 11.5322 8.8128C11.539 8.86132 11.5362 8.91071 11.5239 8.95814C11.5116 9.00558 11.4901 9.05013 11.4606 9.08925C11.4311 9.12838 11.3942 9.16131 11.352 9.18616C11.3097 9.21101 11.263 9.2273 11.2145 9.2341C10.8734 9.28221 10.5483 9.40974 10.2655 9.60642C9.79789 9.93137 9.47161 10.4222 9.35305 10.9792C9.23448 11.5361 9.33252 12.1173 9.62724 12.6046L9.64964 12.6578Z" fill="#005C46"/>
<path d="M25.203 19.7067C27.1625 19.7067 28.7526 18.4498 28.7526 16.9073C28.7504 16.6921 28.7183 16.4782 28.6574 16.2718C28.2201 16.3706 27.7661 16.3688 27.3297 16.2665C26.8932 16.1642 26.4857 15.964 26.138 15.6812C25.7082 16.3929 25.1157 16.9924 24.409 17.4304C23.7024 17.8684 22.9018 18.1324 22.0732 18.2006C22.6143 18.9589 23.4335 19.4722 24.3519 19.6283C24.6322 19.6831 24.9174 19.7094 25.203 19.7067Z" fill="#005C46"/>
<path d="M21.1971 18.1979C20.672 18.1503 20.1569 18.0248 19.6687 17.8256C19.6558 17.8285 19.6424 17.8285 19.6295 17.8256C19.5903 17.8116 19.5539 17.792 19.5175 17.7752L19.4699 17.7556C19.342 17.9398 19.1957 18.1105 19.0332 18.2651C19.0427 18.5557 19.1648 18.8313 19.3738 19.0335C19.5828 19.2357 19.8622 19.3486 20.153 19.3485C20.3182 19.3451 20.4823 19.3773 20.634 19.443C20.7857 19.5087 20.9214 19.6063 21.032 19.7292L23.1931 22.2038C23.2305 22.2457 23.2762 22.2792 23.3273 22.3023C23.3784 22.3255 23.4338 22.3377 23.4898 22.3382C23.542 22.3386 23.5938 22.3287 23.6422 22.309C23.6905 22.2894 23.7346 22.2604 23.7717 22.2238C23.8089 22.1871 23.8385 22.1435 23.8588 22.0954C23.8791 22.0473 23.8898 21.9957 23.8902 21.9435V20.2919C23.316 20.1597 22.7776 19.9039 22.3125 19.5422C21.8474 19.1806 21.4667 18.7218 21.1971 18.1979Z" fill="#005C46"/>
<path d="M52.3377 32.336C51.2448 32.3574 50.1557 32.1991 49.1146 31.8678C48.2902 31.6136 47.5403 31.1641 46.9295 30.5579C46.3701 29.9704 45.9337 29.2784 45.6457 28.522C45.3365 27.6692 45.1615 26.7742 45.1267 25.8684C45.1267 25.5969 45.1267 25.3187 45.1267 25.0405C45.1267 24.3075 45.1608 23.5406 45.2291 22.733L46.2876 12.7907C46.4132 11.4214 46.6879 10.0698 47.107 8.75943C47.4609 7.6683 48.0065 6.64811 48.7186 5.74618C49.4325 4.8544 50.3765 4.17185 51.45 3.77128C52.7316 3.29778 54.0913 3.06758 55.4584 3.09263C56.6809 3.06011 57.8988 3.25343 59.0503 3.66272C59.9421 3.98478 60.7156 4.5666 61.2696 5.33221C61.7923 6.10235 62.1352 6.9788 62.2734 7.89754C62.367 8.47421 62.4127 9.05757 62.41 9.6417C62.4081 10.211 62.3739 10.7797 62.3075 11.3451L62.0481 13.7951H57.1041L57.3636 11.3994C57.4473 10.6897 57.4952 9.97617 57.507 9.26165C57.5104 9.0027 57.4921 8.74391 57.4524 8.48797C57.3844 8.0563 57.1673 7.66164 56.8383 7.37183C56.5093 7.08202 56.089 6.91516 55.6496 6.89991C55.4593 6.87718 55.2677 6.86583 55.076 6.86596C54.5944 6.85601 54.1157 6.94377 53.6693 7.12386C53.3161 7.27231 52.9975 7.49183 52.7338 7.76859C52.4701 8.09 52.2708 8.45858 52.1465 8.85445C51.9937 9.28571 51.8749 9.72817 51.7914 10.1778C51.7163 10.5918 51.6412 11.1279 51.5729 11.793L50.3233 23.751C50.259 24.3075 50.2248 24.8671 50.2209 25.4273C50.1817 26.1233 50.3007 26.8192 50.5691 27.4633C50.9242 28.1894 51.6685 28.5491 52.7884 28.5491C53.0909 28.5521 53.3929 28.5248 53.6898 28.4677C53.9339 28.4105 54.1654 28.3093 54.3727 28.1691C54.5652 28.0483 54.7459 27.9097 54.9121 27.7551C55.0832 27.5885 55.216 27.3871 55.3014 27.1646C55.4106 26.9067 55.5062 26.676 55.5813 26.486C55.6745 26.2167 55.743 25.9396 55.7862 25.658C55.8477 25.3119 55.8955 25.0133 55.9228 24.7758C55.9501 24.5382 55.9911 24.1989 56.0389 23.7713L56.2983 21.2942H61.2218L60.976 23.622C60.8826 24.5965 60.7067 25.5613 60.4502 26.5063C60.2167 27.3485 59.8723 28.1563 59.4259 28.9088C59.0088 29.6222 58.4624 30.2526 57.8143 30.7683C57.1173 31.2969 56.3278 31.6927 55.4857 31.9356C54.4616 32.2206 53.4011 32.3555 52.3377 32.336Z" fill="#005C46"/>
<path d="M64.4045 32.3381L67.3858 3.42163H72.3815L69.3935 32.3381H64.4045Z" fill="#005C46"/>
<path d="M74.3757 32.3381L77.4812 3.42163H82.6851L79.5726 32.3381H74.3757Z" fill="#005C46"/>
<path d="M86.9107 5.1784C88.0646 5.1784 88.9999 4.24304 88.9999 3.0892C88.9999 1.93537 88.0646 1 86.9107 1C85.7569 1 84.8215 1.93537 84.8215 3.0892C84.8215 4.24304 85.7569 5.1784 86.9107 5.1784Z" stroke="#005C46" stroke-width="0.7" stroke-linecap="round" stroke-linejoin="round"/>
<path d="M86.2842 4.07697V2.25366H86.9003C87.0427 2.25366 87.1596 2.278 87.251 2.32667C87.3424 2.37474 87.4101 2.44092 87.454 2.5252C87.4979 2.60948 87.5199 2.70533 87.5199 2.81276C87.5199 2.92019 87.4979 3.01545 87.454 3.09854C87.4101 3.18164 87.3427 3.24692 87.2519 3.2944C87.1611 3.34129 87.0451 3.36474 86.9038 3.36474H86.4053V3.16531H86.8967C86.994 3.16531 87.0724 3.15107 87.1317 3.12258C87.1917 3.09409 87.235 3.05373 87.2617 3.0015C87.289 2.94868 87.3027 2.88577 87.3027 2.81276C87.3027 2.73976 87.289 2.67595 87.2617 2.62135C87.2344 2.56675 87.1908 2.5246 87.1308 2.49493C87.0709 2.46466 86.9917 2.44953 86.8931 2.44953H86.505V4.07697H86.2842ZM87.1424 3.2579L87.5911 4.07697H87.3347L86.8931 3.2579H87.1424Z" fill="#005C46"/>
</svg>
