<svg width="21" height="21" viewBox="0 0 21 21" fill="none" xmlns="http://www.w3.org/2000/svg">
<path d="M2.16623 0.973999C1.2446 0.973999 0.5 1.53245 0.5 2.22367C0.5 2.9149 1.2446 3.47335 2.16623 3.47335V3.90292C2.16623 5.55874 3.04621 7.14817 4.6083 8.31974L8.13864 10.9714L4.6083 13.623C3.04621 14.7946 2.16623 16.384 2.16623 18.0399V18.4694C1.2446 18.4694 0.5 19.0279 0.5 19.7191C0.5 20.4103 1.2446 20.9688 2.16623 20.9688H3.83247H17.1623H18.8286C19.7502 20.9688 20.4948 20.4103 20.4948 19.7191C20.4948 19.0279 19.7502 18.4694 18.8286 18.4694V18.0399C18.8286 16.384 17.9486 14.7946 16.3865 13.623L12.8562 10.9714L16.3917 8.31974C17.9538 7.14817 18.8338 5.55874 18.8338 3.90292V3.47335C19.7554 3.47335 20.5 2.9149 20.5 2.22367C20.5 1.53245 19.7554 0.973999 18.8338 0.973999H17.1623H3.83247H2.16623ZM5.4987 3.90292V3.47335H15.4961V3.90292C15.4961 4.89876 14.9702 5.85163 14.0329 6.55458L10.4974 9.20232L6.96186 6.55067C6.0246 5.85163 5.4987 4.89485 5.4987 3.90292Z" fill="#F8F7F8"/>
</svg>
