<svg width="21" height="21" viewBox="0 0 21 21" fill="none" xmlns="http://www.w3.org/2000/svg">
<path d="M0.5 2.22137C0.5 1.52997 1.2446 0.971375 2.16623 0.971375H3.83247H17.1623H18.8286C19.7502 0.971375 20.4948 1.52997 20.4948 2.22137C20.4948 2.91278 19.7502 3.47137 18.8286 3.47137V3.90106C18.8286 5.55731 17.9486 7.14716 16.3865 8.31903L12.8562 10.9714L16.3917 13.6237C17.9538 14.7956 18.8338 16.3854 18.8338 18.0417V18.4714C19.7554 18.4714 20.5 19.03 20.5 19.7214C20.5 20.4128 19.7554 20.9714 18.8338 20.9714H17.1623H3.83247H2.16623C1.2446 20.9714 0.5 20.4128 0.5 19.7214C0.5 19.03 1.2446 18.4714 2.16623 18.4714V18.0417C2.16623 16.3854 3.04621 14.7956 4.6083 13.6237L8.13864 10.9714L4.6083 8.31903C3.04621 7.14716 2.16623 5.55731 2.16623 3.90106V3.47137C1.2446 3.47137 0.5 2.91278 0.5 2.22137ZM5.4987 3.47137V3.90106C5.4987 4.89716 6.0246 5.85028 6.96186 6.55341L10.4974 9.20184L14.0329 6.5495C14.9702 5.84637 15.4961 4.89325 15.4961 3.89716V3.47137H5.4987ZM5.4987 18.4714H15.4961V18.0417C15.4961 17.0456 14.9702 16.0925 14.0329 15.3893L10.4974 12.7409L6.96186 15.3932C6.0246 16.0964 5.4987 17.0495 5.4987 18.0456V18.4753V18.4714Z" fill="#F8F7F8"/>
</svg>
