<svg width="30" height="34" viewBox="0 0 30 34" fill="none" xmlns="http://www.w3.org/2000/svg">
<path d="M22.9556 23.5882L21.5039 21.1481C21.1827 20.6159 20.9001 19.5906 20.9001 18.9676V16.5404C20.9001 11.8289 17.1103 8 12.4597 8C7.79636 8.01298 4.00656 11.8289 4.00656 16.5404V18.9546C4.00656 19.5776 3.72394 20.6029 3.41561 21.1351L1.96393 23.5752C1.41151 24.5227 1.28305 25.6 1.62991 26.5345C1.97677 27.482 2.76043 28.2348 3.78817 28.5723C5.17562 29.0395 6.57592 29.377 8.00191 29.6236C8.14323 29.6496 8.28454 29.6625 8.42586 29.6885C8.60571 29.7145 8.79841 29.7404 8.99111 29.7664C9.32513 29.8183 9.65915 29.8572 10.006 29.8832C10.8154 29.9611 11.6376 30 12.4597 30C13.2691 30 14.0784 29.9611 14.8749 29.8832C15.1704 29.8572 15.4659 29.8313 15.7485 29.7923C15.9798 29.7664 16.211 29.7404 16.4422 29.7015C16.5836 29.6885 16.7249 29.6625 16.8662 29.6366C18.305 29.4029 19.731 29.0395 21.1185 28.5723C22.1077 28.2348 22.8656 27.482 23.2253 26.5215C23.5851 25.5481 23.4823 24.4838 22.9556 23.5882ZM13.3976 18.3186C13.3976 18.8637 12.9608 19.305 12.4212 19.305C11.8816 19.305 11.4448 18.8637 11.4448 18.3186V14.295C11.4448 13.7499 11.8816 13.3086 12.4212 13.3086C12.9608 13.3086 13.3976 13.7499 13.3976 14.295V18.3186Z" fill="#F5F7FB"/>
<path d="M16.4375 31.01C15.8428 32.17 14.2711 33 12.4304 33C11.3118 33 10.2074 32.68 9.42865 32.11C8.97555 31.81 8.63573 31.41 8.4375 31C8.62157 31.02 8.80564 31.03 9.00387 31.05C9.32953 31.08 9.66936 31.11 10.0092 31.13C10.8163 31.18 11.6375 31.21 12.4587 31.21C13.2658 31.21 14.0729 31.18 14.8658 31.13C15.1632 31.11 15.4605 31.1 15.7437 31.07C15.9702 31.05 16.1968 31.03 16.4375 31.01Z" fill="#F5F7FB"/>
<circle cx="21.4375" cy="8" r="8" fill="#FF5630"/>
<path d="M18.9375 11.0795C18.5095 11.0795 18.1449 10.9631 17.8438 10.7301C17.5426 10.4953 17.3125 10.1553 17.1534 9.71023C16.9943 9.26326 16.9148 8.72348 16.9148 8.09091C16.9148 7.46212 16.9943 6.92519 17.1534 6.48011C17.3144 6.03314 17.5455 5.69223 17.8466 5.45739C18.1496 5.22064 18.5133 5.10227 18.9375 5.10227C19.3617 5.10227 19.7244 5.22064 20.0256 5.45739C20.3286 5.69223 20.5597 6.03314 20.7188 6.48011C20.8797 6.92519 20.9602 7.46212 20.9602 8.09091C20.9602 8.72348 20.8807 9.26326 20.7216 9.71023C20.5625 10.1553 20.3324 10.4953 20.0312 10.7301C19.7301 10.9631 19.3655 11.0795 18.9375 11.0795ZM18.9375 10.4545C19.3617 10.4545 19.6913 10.25 19.9261 9.84091C20.161 9.43182 20.2784 8.84848 20.2784 8.09091C20.2784 7.58712 20.2244 7.15814 20.1165 6.80398C20.0104 6.44981 19.857 6.17992 19.6562 5.99432C19.4574 5.80871 19.2178 5.71591 18.9375 5.71591C18.517 5.71591 18.1884 5.9233 17.9517 6.33807C17.715 6.75095 17.5966 7.33523 17.5966 8.09091C17.5966 8.5947 17.6496 9.02273 17.7557 9.375C17.8617 9.72727 18.0142 9.99527 18.2131 10.179C18.4138 10.3627 18.6553 10.4545 18.9375 10.4545ZM23.7657 11.0795C23.3907 11.0795 23.0564 11.0152 22.7628 10.8864C22.4712 10.7576 22.2392 10.5786 22.0668 10.3494C21.8964 10.1184 21.8036 9.85038 21.7884 9.54545H22.5043C22.5195 9.73295 22.5839 9.89489 22.6975 10.0312C22.8111 10.1657 22.9598 10.2699 23.1435 10.3438C23.3272 10.4176 23.5308 10.4545 23.7543 10.4545C24.0043 10.4545 24.2259 10.411 24.4191 10.3239C24.6123 10.2367 24.7638 10.1155 24.8736 9.96023C24.9835 9.80492 25.0384 9.625 25.0384 9.42045C25.0384 9.20644 24.9854 9.01799 24.8793 8.85511C24.7733 8.69034 24.618 8.56155 24.4134 8.46875C24.2089 8.37595 23.9589 8.32955 23.6634 8.32955H23.1975V7.70455H23.6634C23.8945 7.70455 24.0971 7.66288 24.2714 7.57955C24.4475 7.49621 24.5848 7.37879 24.6833 7.22727C24.7837 7.07576 24.8339 6.89773 24.8339 6.69318C24.8339 6.49621 24.7903 6.32481 24.7032 6.17898C24.6161 6.03314 24.493 5.91951 24.3339 5.83807C24.1767 5.75663 23.9911 5.71591 23.777 5.71591C23.5763 5.71591 23.3869 5.75284 23.2089 5.8267C23.0327 5.89867 22.8888 6.00379 22.777 6.14205C22.6653 6.27841 22.6047 6.44318 22.5952 6.63636H21.9134C21.9248 6.33144 22.0166 6.06439 22.189 5.83523C22.3613 5.60417 22.5867 5.42424 22.8651 5.29545C23.1454 5.16667 23.4532 5.10227 23.7884 5.10227C24.1483 5.10227 24.457 5.17519 24.7145 5.32102C24.9721 5.46496 25.17 5.6553 25.3083 5.89205C25.4466 6.12879 25.5157 6.38447 25.5157 6.65909C25.5157 6.98674 25.4295 7.2661 25.2572 7.49716C25.0867 7.72822 24.8547 7.88826 24.5611 7.97727V8.02273C24.9286 8.08333 25.2155 8.23958 25.4219 8.49148C25.6284 8.74148 25.7316 9.05114 25.7316 9.42045C25.7316 9.73674 25.6454 10.0208 25.4731 10.2727C25.3026 10.5227 25.0697 10.7197 24.7742 10.8636C24.4788 11.0076 24.1426 11.0795 23.7657 11.0795Z" fill="white"/>
</svg>
