<svg xmlns="http://www.w3.org/2000/svg" width="86" height="86" viewBox="0 0 86 86"><g><g><g><g><g><g><path fill="#deddff" d="M69.774 17.903v62.636a5.354 5.354 0 0 1-5.354 5.354H5.353a5.354 5.354 0 0 1-5.354-5.354V5.59A5.354 5.354 0 0 1 5.353.237h46.754V12.55a5.354 5.354 0 0 0 5.354 5.354z"/></g></g></g><g><g><g><path fill="#c6c6f7" d="M52.107.236V12.55a5.354 5.354 0 0 0 5.354 5.354h12.313z"/></g></g></g><g><g><g><path fill="#b5b5ea" d="M69.774 17.903v7.354l-7.266-7.354z"/></g></g></g><g><g><g><path fill="#b5b5ea" d="M49.218 21.58c0 .632-.506 1.139-1.14 1.139H21.694a1.134 1.134 0 0 1-1.138-1.14c0-.632.506-1.138 1.138-1.138H48.08c.633 0 1.139.506 1.139 1.139z"/></g></g></g><g><g><g><path fill="#b5b5ea" d="M24.676 31.367c0 .633-.506 1.14-1.139 1.14H12.771a1.134 1.134 0 0 1-1.139-1.14c0-.632.506-1.139 1.139-1.139h10.766c.633 0 1.14.507 1.14 1.14z"/></g></g></g><g><g><g><path fill="#b5b5ea" d="M44.733 31.367c0 .633-.506 1.14-1.139 1.14H28.813a1.134 1.134 0 0 1-1.139-1.14c0-.632.506-1.139 1.139-1.139h14.781c.633 0 1.14.507 1.14 1.14z"/></g></g></g><g><g><g><path fill="#b5b5ea" d="M58.14 31.367c0 .633-.506 1.14-1.139 1.14h-6.75a1.134 1.134 0 0 1-1.14-1.14c0-.632.506-1.139 1.14-1.139H57c.633 0 1.14.507 1.14 1.14z"/></g></g></g><g><g><g><path fill="#b5b5ea" d="M20.666 38.478c0 .633-.507 1.139-1.14 1.139h-6.755a1.134 1.134 0 0 1-1.139-1.139c0-.633.506-1.139 1.139-1.139h6.756c.632 0 1.139.506 1.139 1.14z"/></g></g></g><g><g><g><path fill="#b5b5ea" d="M55.282 38.478c0 .633-.506 1.139-1.139 1.139H25.04a1.134 1.134 0 0 1-1.138-1.139c0-.633.506-1.139 1.138-1.139h29.104c.633 0 1.14.506 1.14 1.14z"/></g></g></g><g><g><g><path fill="#b5b5ea" d="M35.834 45.589c0 .633-.506 1.139-1.14 1.139H12.772a1.134 1.134 0 0 1-1.139-1.14c0-.632.506-1.138 1.139-1.138h21.924c.633 0 1.139.506 1.139 1.139z"/></g></g></g><g><g><g><path fill="#b5b5ea" d="M54.39 45.589c0 .633-.506 1.139-1.139 1.139H39.357a1.134 1.134 0 0 1-1.138-1.14c0-.632.506-1.138 1.138-1.138h13.894c.633 0 1.139.506 1.139 1.139z"/></g></g></g><g><g><g><path fill="#b5b5ea" d="M48.827 73.124c0 .633-.506 1.139-1.14 1.139h-13a1.134 1.134 0 0 1-1.139-1.139c0-.633.506-1.139 1.138-1.139h13.002c.633 0 1.139.506 1.139 1.14z"/></g></g></g><g><g><g><path fill="#b5b5ea" d="M22.45 52.7c0 .632-.506 1.139-1.139 1.139h-8.54a1.134 1.134 0 0 1-1.139-1.14c0-.632.506-1.138 1.139-1.138h8.54c.633 0 1.139.506 1.139 1.139z"/></g></g></g><g><g><g><path fill="#b5b5ea" d="M51.713 52.7c0 .625-.5 1.143-1.124 1.143H25.821A1.139 1.139 0 0 1 24.68 52.7c0-.643.5-1.142 1.142-1.142H50.59c.624 0 1.124.5 1.124 1.142z"/></g></g></g><g><g><g><path fill="#b5b5ea" d="M51.894 59.81c0 .633-.506 1.14-1.139 1.14H12.771a1.134 1.134 0 0 1-1.139-1.14c0-.632.506-1.138 1.139-1.138h37.984c.633 0 1.14.506 1.14 1.139z"/></g></g></g><g><g><g><path fill="#fcb73e" d="M12.308 74.299h.014c.632.388.848 1.207.489 1.854a1.373 1.373 0 0 0 1.179 2.04c.747.015 1.35.618 1.364 1.366.015.79.662 1.35 1.38 1.35.59 0 .733-.344 1.323-.344.474 0 .934.244 1.193.675.52.9 1.834.9 2.356 0l.015-.014a1.366 1.366 0 0 1 1.839-.489h.014a1.37 1.37 0 0 0 2.041-1.178c.014-.748.618-1.351 1.35-1.351h.015c1.035-.014 1.681-1.135 1.179-2.055a1.385 1.385 0 0 1 .488-1.854h.014a1.373 1.373 0 0 0 0-2.357l-.014-.014a1.367 1.367 0 0 1-.488-1.84v-.014c.502-.906-.144-2.026-1.18-2.04h-.013a1.377 1.377 0 0 1-1.35-1.352 1.383 1.383 0 0 0-1.366-1.365c-.23 0-.46.058-.676.187h-.014A1.358 1.358 0 0 1 21.62 65h-.014a1.373 1.373 0 0 0-2.356 0v.014a1.388 1.388 0 0 1-1.854.489c-.944-.502-2.037.152-2.056 1.178a1.35 1.35 0 0 1-1.35 1.351 1.39 1.39 0 0 0-1.18 2.055c.377.705.1 1.492-.502 1.854-.9.523-.9 1.834 0 2.357z"/></g></g></g><g><g><g><path fill="#fd982e" d="M12.31 74.293h.018a1.4 1.4 0 0 1 .482 1.856c-.523 1.045.22 2.03 1.178 2.053.75 0 1.356.606 1.374 1.356 0 .785.66 1.356 1.374 1.356.59 0 .754-.357 1.32-.357.482 0 .928.25 1.196.678.488.87 1.794.938 2.356 0l.017-.018a1.374 1.374 0 0 1 1.839-.482h.017a1.355 1.355 0 0 0 2-.945c-6.425-.107-11.617-5.3-11.725-11.724-.813.153-1.43 1.05-.946 2.016.392.784.066 1.526-.5 1.856-.916.55-.887 1.858 0 2.355z"/></g></g></g><g><g><g><path fill="#e87f21" d="M16.756 73.125a3.676 3.676 0 1 1 7.352 0 3.676 3.676 0 0 1-7.352 0z"/></g></g></g></g><g><g><g><g><g><path fill="#e83d62" d="M85.63 52.506v13.482a19.975 19.975 0 0 1-12.455 18.508l-3.401 1.382-3.402-1.382a19.975 19.975 0 0 1-12.456-18.508V52.506l15.858-6.042z"/></g></g></g><g><g><g><path fill="#ce2955" d="M67.792 80.63a15.737 15.737 0 0 1-9.85-14.636V55.382l11.832-4.508 11.83 4.508v10.612a15.739 15.739 0 0 1-9.85 14.637l-1.98.805z"/></g></g></g></g></g><g><g><g><g><path fill="#deddff" d="M67.548 70.23l-3.81-3.808a1.449 1.449 0 1 1 2.05-2.05l2.785 2.784 5.781-5.782a1.449 1.449 0 1 1 2.05 2.05l-6.806 6.807a1.449 1.449 0 0 1-2.05 0z"/></g></g></g></g></g></g></svg>