<svg width="30" height="30" viewBox="0 0 30 30" fill="none" xmlns="http://www.w3.org/2000/svg">
<path opacity="0.4" d="M15.2782 29.4183C23.1801 29.4183 29.5858 23.0126 29.5858 15.1107C29.5858 7.20892 23.1801 0.803223 15.2782 0.803223C7.3764 0.803223 0.970703 7.20892 0.970703 15.1107C0.970703 23.0126 7.3764 29.4183 15.2782 29.4183Z" fill="black"/>
<g clip-path="url(#clip0_936_87465)">
<path d="M10.6117 7.61084C9.32467 7.61084 8.27832 8.45166 8.27832 9.48584V20.7358C8.27832 21.77 9.32467 22.6108 10.6117 22.6108H19.945C21.232 22.6108 22.2783 21.77 22.2783 20.7358V12.2983H17.6117C16.9663 12.2983 16.445 11.8794 16.445 11.3608V7.61084H10.6117ZM17.6117 7.61084V11.3608H22.2783L17.6117 7.61084ZM12.3617 15.1108H18.195C18.5158 15.1108 18.7783 15.3218 18.7783 15.5796C18.7783 15.8374 18.5158 16.0483 18.195 16.0483H12.3617C12.0408 16.0483 11.7783 15.8374 11.7783 15.5796C11.7783 15.3218 12.0408 15.1108 12.3617 15.1108ZM12.3617 16.9858H18.195C18.5158 16.9858 18.7783 17.1968 18.7783 17.4546C18.7783 17.7124 18.5158 17.9233 18.195 17.9233H12.3617C12.0408 17.9233 11.7783 17.7124 11.7783 17.4546C11.7783 17.1968 12.0408 16.9858 12.3617 16.9858ZM12.3617 18.8608H18.195C18.5158 18.8608 18.7783 19.0718 18.7783 19.3296C18.7783 19.5874 18.5158 19.7983 18.195 19.7983H12.3617C12.0408 19.7983 11.7783 19.5874 11.7783 19.3296C11.7783 19.0718 12.0408 18.8608 12.3617 18.8608Z" fill="white"/>
</g>
<defs>
<clipPath id="clip0_936_87465">
<rect width="14" height="15" fill="white" transform="translate(8.27832 7.61084)"/>
</clipPath>
</defs>
</svg>
