<svg xmlns="http://www.w3.org/2000/svg" width="67" height="85" viewBox="0 0 67 85"><g><g><g><path fill="#334a5e" d="M63.477 84.908H2.803C1.388 84.908.15 83.67.15 82.255V6.19a3.548 3.548 0 0 1 3.538-3.538H63.3a3.548 3.548 0 0 1 3.538 3.538v75.18c.177 1.945-1.415 3.537-3.36 3.537z"/></g><g><path fill="#40596b" d="M60.824 82.255H.15V3.538A3.548 3.548 0 0 1 3.688 0h56.959a3.548 3.548 0 0 1 3.538 3.538v75.179c.177 1.946-1.415 3.538-3.361 3.538z"/></g><g><path fill="#fff" d="M11.117 30.602c0-11.723 9.504-21.227 21.227-21.227 11.724 0 21.227 9.504 21.227 21.227 0 11.724-9.503 21.227-21.227 21.227-11.723 0-21.227-9.503-21.227-21.227z"/></g><g><g><path fill="#54c0eb" d="M12.71 30.602c0-10.844 8.79-19.635 19.634-19.635 10.844 0 19.635 8.791 19.635 19.635 0 10.844-8.79 19.635-19.635 19.635-10.844 0-19.635-8.79-19.635-19.635z"/></g><g><path fill="#54c0eb" d="M36.59 11.321c-4.777 1.238-10.083 4.246-14.682 8.845-4.423 4.422-7.607 9.552-8.845 14.682a139.632 139.632 0 0 1-.53-3.361v-1.062c0-10.79 8.844-19.635 19.634-19.635h1.239l3.184.531z"/></g></g><g><g><path fill="#84dbff" d="M23.146 40.685c-.177-.177-.177-.354-.177-.708 0-.353-.53-.53-.885-.53-.353 0-.707.177-1.061 0-.53-.177-.884-.708-1.238-1.062-.531-.53-1.415-.707-1.77-1.238-.353-.354-.353-.707-.53-1.238l-.53-2.123c0-.177-.178-.354-.178-.53-.177-.177-.353-.177-.353-.354-.885-.53-1.239-1.592-1.062-2.654.177-.707.708-1.238 1.062-1.945.707-.885 1.415-1.77 2.3-2.477.353-.177.707-.53.884-.707.707-.708.707-1.946.353-2.83a2.444 2.444 0 0 0-.53-.708c0-.354 0-.885-.177-1.415-.177-.531-.708-1.062-1.238-.885l-3.184 2.3c-1.416 2.653-2.123 5.66-2.123 8.844 0 7.253 3.891 13.62 9.906 16.982.53-.177.884-.53 1.415-.708.177-.177.354-.177.354-.177.353-.53-.177-1.061-.177-1.769 0-.707.707-1.06.884-1.769 0-.177.177-.353.177-.53.177-1.061-.884-2.123-2.122-1.769.177 0 0 0 0 0z"/></g><g><path fill="#84dbff" d="M49.503 33.433c-.885-.177.177-2.123-.177-3.008-.177-.884-.53-1.945-1.239-2.476-.707-.708-1.768-1.061-2.653-.53.177.707 1.238.707 1.592 1.238.354.353.177 1.061-.177 1.415-.354.353-.707.707-1.238 1.061-.177.177-.354.354-.354.708 0 .353.354.53.354.707.177.354 0 .885-.354 1.062-.354.353-.707.53-1.061.707-1.062.708-1.77 1.946-1.946 3.184 0 .531 0 1.062-.177 1.415-.177.531-.707 1.062-.884 1.593-.531.707-.708 1.592-.885 2.476-.353 1.061-1.061 1.946-1.945 2.653-.354.354-.885.708-1.416.708-1.06.177-2.122-.708-2.653-1.592-.354-.884-.53-1.946-.354-2.83.177-.885.708-1.946.177-2.654-.177-.354-.53-.53-.884-.707-.884-.885-.53-2.477-.708-3.892 0-.177-.177-.53-.353-.53-.177 0-.177 0-.354-.178-1.062-.177-2.123 0-3.361-.177-1.062-.177-2.123-.707-2.83-1.592-.531-.707-.531-1.769-.354-2.653 0-.708.177-1.415.53-1.946.531-.707 1.239-1.238 2.123-1.592 1.415-.708 3.007-1.238 4.423-1.061.884.177 1.768.707 2.653.707.53 0 1.061 0 1.592-.177 1.415-.353 3.007-.53 4.245-1.238.885-.354 1.77-1.061 1.592-1.946a1.595 1.595 0 0 0-1.061-1.061c-.53-.177-1.061 0-1.592.177-.708.354-1.415.708-1.946 1.238a2.442 2.442 0 0 1-.707.531c-.885.177-1.239-1.592-2.123-1.592.354.354.177.884-.177 1.238a.855.855 0 0 1-1.238 0c-.354-.353-.708-.884-1.062-1.061-.53-.177-1.061.177-1.415.354-.884.53-1.769.884-2.83.884-.53 0-1.238 0-1.592-.53-.354-.531.177-1.416.707-1.593.708-.353 1.416-.353 2.123-.53.177-.354.177-.885.177-1.415-.707-.354-1.946 0-2.653-.531-.53-.354-.708-.885-.53-1.592.176-.53.53-1.062 1.06-1.238.708-.354 1.77-.354 1.946.353 0 .354 0 .708-.177.885 0 .353 0 .707.354.884h.354c1.945-.354 3.714-.884 5.66-1.238.354 0 .708-.177.885-.354.53.177.707-.177.53-.53-.353-.531-1.061 0-1.769.176-.707.354-1.592.177-2.3-.177-.353-.177-.884-.353-.884-.707 0-.177.177-.53.354-.708 1.415-1.238 3.538-1.769 5.307-1.238.884.354 1.769.707 2.83.884.53.177 1.238 0 1.77-.177 5.129 3.184 8.667 8.845 9.197 15.213-.176.177-.353.53-.53.708-.354 1.415.707 4.422-1.592 3.892z"/></g></g><g><g><path fill="#ffd15c" d="M13.063 64.92h-1.238v-1.416h1.238c.53 0 .884.177.884.708 0 .53-.353.707-.884.707zm-2.3 3.007v.176h1.062v-1.945h1.415c1.061 0 1.769-.885 1.769-1.77 0-1.06-.53-1.768-1.77-1.768h-2.476v5.307z"/></g><g><path fill="#ffd15c" d="M18.724 65.98h-1.77l.885-2.299zm1.945 1.947l-2.122-5.307H17.13l-2.122 5.307h1.238l.354-.885h2.3l.353.885z"/></g><g><path fill="#ffd15c" d="M21.2 67.219l.708-.884c.353.353.884.707 1.769.707.707 0 .884-.354.884-.53 0-.885-3.184-.354-3.184-2.3 0-.885.708-1.592 2.123-1.592.884 0 1.592.177 2.122.707l-.707.885c-.354-.354-1.062-.53-1.592-.53-.531 0-.708.176-.708.53 0 .884 3.007.354 3.007 2.3 0 1.06-.707 1.768-2.123 1.768-1.06-.353-1.768-.707-2.3-1.061z"/></g><g><path fill="#ffd15c" d="M26.507 67.219l.707-.884c.354.353.885.707 1.77.707.707 0 .884-.354.884-.53 0-.885-3.184-.354-3.184-2.3 0-.885.707-1.592 2.122-1.592.885 0 1.592.177 2.123.707l-.708.885c-.353-.354-1.06-.53-1.592-.53-.53 0-.707.176-.707.53 0 .884 3.007.354 3.007 2.3 0 1.06-.708 1.768-2.123 1.768-1.061-.353-1.769-.707-2.3-1.061z"/></g><g><path fill="#ffd15c" d="M34.467 64.92h-1.238v-1.416h1.238c.53 0 .884.177.884.708 0 .53-.353.707-.884.707zm-2.3 3.183h1.062v-1.945h1.415c1.061 0 1.769-.885 1.769-1.77 0-1.06-.531-1.768-1.77-1.768h-2.476z"/></g><g><path fill="#ffd15c" d="M40.304 67.042c-.884 0-1.592-.707-1.592-1.769 0-1.061.53-1.769 1.592-1.769.885 0 1.592.708 1.592 1.77 0 .884-.707 1.768-1.592 1.768zm-.177 1.061a2.794 2.794 0 0 0 2.83-2.83 2.794 2.794 0 0 0-2.83-2.83 2.794 2.794 0 0 0-2.83 2.83c0 1.592 1.238 2.654 2.83 2.83z"/></g><g><path fill="#ffd15c" d="M46.496 64.92h-1.239v-1.416h1.239c.53 0 .884.177.884.708 0 .53-.354.707-.884.707zm.884 3.183h1.061l-1.238-2.122c.708-.177 1.238-.708 1.238-1.592 0-1.062-.707-1.77-1.769-1.77h-2.476v5.308h1.238V65.98h.885l1.061 1.946z"/></g><g><path fill="#ffd15c" d="M51.095 67.927v-4.423h-1.592v-1.061h4.245v1.061h-1.592v4.423z"/></g></g></g></g></svg>