<svg width="24" height="25" viewBox="0 0 24 25" fill="none" xmlns="http://www.w3.org/2000/svg">
<path d="M12 24.5664C18.6281 24.5664 24 19.1945 24 12.5664C24 5.93828 18.6281 0.566406 12 0.566406C5.37188 0.566406 0 5.93828 0 12.5664C0 19.1945 5.37188 24.5664 12 24.5664ZM17.2969 10.3633L11.2969 16.3633C10.8562 16.8039 10.1438 16.8039 9.70781 16.3633L6.70781 13.3633C6.26719 12.9227 6.26719 12.2102 6.70781 11.7742C7.14844 11.3383 7.86094 11.3336 8.29688 11.7742L10.5 13.9773L15.7031 8.76953C16.1437 8.32891 16.8562 8.32891 17.2922 8.76953C17.7281 9.21016 17.7328 9.92266 17.2922 10.3586L17.2969 10.3633Z" fill="#4BAE4F"/>
</svg>
