<svg width="12" height="12" viewBox="0 0 12 12" fill="none" xmlns="http://www.w3.org/2000/svg">
<path fill-rule="evenodd" clip-rule="evenodd" d="M5.655 0.32999C5.74799 0.241345 5.87153 0.191895 6 0.191895C6.12847 0.191895 6.25201 0.241345 6.345 0.32999L6.837 0.79899C6.90412 0.863066 6.98775 0.907199 7.07853 0.926449C7.1693 0.945699 7.26365 0.939308 7.351 0.90799L7.991 0.67899C8.11188 0.635895 8.2447 0.640929 8.36197 0.693049C8.47924 0.74517 8.57199 0.840386 8.621 0.95899L8.881 1.58899C8.91626 1.67453 8.97456 1.74861 9.04941 1.80299C9.12427 1.85737 9.21275 1.88991 9.305 1.89699L9.983 1.94899C10.1112 1.95871 10.2307 2.01743 10.3167 2.11296C10.4028 2.20849 10.4487 2.33348 10.445 2.46199L10.425 3.14199C10.4225 3.2346 10.4457 3.32609 10.4922 3.40626C10.5386 3.48642 10.6064 3.55211 10.688 3.59599L11.287 3.91899C11.4002 3.98008 11.4855 4.08244 11.5252 4.2048C11.5648 4.32716 11.5558 4.4601 11.5 4.57599L11.206 5.18899C11.1657 5.27246 11.1495 5.36547 11.159 5.45764C11.1685 5.54982 11.2035 5.63753 11.26 5.71099L11.676 6.24999C11.7544 6.3517 11.7906 6.47968 11.7772 6.60739C11.7638 6.73511 11.7018 6.85277 11.604 6.93599L11.085 7.37599C11.0142 7.43608 10.9616 7.51468 10.933 7.60299C10.9044 7.6913 10.9009 7.78582 10.923 7.87599L11.083 8.53599C11.1134 8.66091 11.0945 8.79273 11.0303 8.90409C10.966 9.01545 10.8614 9.09778 10.738 9.13399L10.086 9.32599C9.9971 9.35209 9.91721 9.40238 9.85523 9.47125C9.79325 9.54011 9.75163 9.62485 9.735 9.71599L9.612 10.385C9.58897 10.5114 9.51816 10.6241 9.41427 10.6997C9.31037 10.7753 9.18136 10.808 9.054 10.791L8.38 10.701C8.28811 10.6885 8.19455 10.7018 8.10979 10.7394C8.02502 10.777 7.95238 10.8375 7.9 10.914L7.517 11.475C7.44453 11.5814 7.33381 11.6558 7.20789 11.6826C7.08196 11.7094 6.95054 11.6866 6.841 11.619L6.262 11.262C6.18321 11.2135 6.09251 11.1878 6 11.1878C5.90749 11.1878 5.81679 11.2135 5.738 11.262L5.158 11.619C5.04854 11.6863 4.91736 11.7089 4.79167 11.6821C4.66598 11.6553 4.55544 11.5811 4.483 11.475L4.1 10.914C4.04774 10.8373 3.97516 10.7766 3.89038 10.7388C3.80561 10.701 3.71199 10.6876 3.62 10.7L2.946 10.79C2.81878 10.807 2.6899 10.7744 2.58603 10.6991C2.48216 10.6237 2.41125 10.5112 2.388 10.385L2.265 9.71499C2.24845 9.62397 2.20698 9.53932 2.14518 9.47047C2.08339 9.40161 2.00371 9.35125 1.915 9.32499L1.262 9.13499C1.13846 9.09899 1.03355 9.01674 0.969105 8.90536C0.90466 8.79398 0.885639 8.66204 0.915999 8.53699L1.076 7.87499C1.09799 7.78506 1.09458 7.6908 1.06616 7.60269C1.03773 7.51459 0.9854 7.43611 0.914999 7.37599L0.395999 6.93599C0.298201 6.85277 0.236173 6.73511 0.222768 6.60739C0.209364 6.47968 0.245612 6.3517 0.323999 6.24999L0.739999 5.70999C0.796265 5.63683 0.831186 5.54953 0.840893 5.45775C0.850601 5.36597 0.834716 5.2733 0.794999 5.18999L0.499999 4.57499C0.444178 4.4591 0.435164 4.32616 0.474833 4.2038C0.514503 4.08144 0.599802 3.97908 0.712999 3.91799L1.313 3.59499C1.39422 3.55084 1.46161 3.48504 1.50769 3.40489C1.55376 3.32475 1.57672 3.2334 1.574 3.14099L1.554 2.46099C1.5503 2.33232 1.59637 2.20719 1.68261 2.11163C1.76886 2.01608 1.88863 1.95746 2.017 1.94799L2.695 1.89599C2.78725 1.88891 2.87573 1.85637 2.95058 1.80199C3.02544 1.74761 3.08374 1.67353 3.119 1.58799L3.379 0.95799C3.42801 0.839386 3.52075 0.74417 3.63803 0.692049C3.7553 0.639929 3.88812 0.634895 4.009 0.67799L4.649 0.90699C4.73644 0.938181 4.83084 0.944411 4.92162 0.924983C5.0124 0.905555 5.09598 0.861236 5.163 0.79699L5.655 0.32999Z" fill="#E42575"/>
<path d="M8.5 4.5L5.062 7.938L3.5 6.375" stroke="#120C18" stroke-width="1.2" stroke-linecap="round" stroke-linejoin="round"/>
</svg>
