<svg xmlns="http://www.w3.org/2000/svg" width="59" height="56" viewBox="0 0 59 56"><g><g><path fill="#ffc107" d="M58.16 21.285a3.088 3.088 0 0 0-2.663-2.127l-16.802-1.526-6.644-15.55a3.095 3.095 0 0 0-5.69.002l-6.644 15.548-16.804 1.526a3.094 3.094 0 0 0-2.661 2.127 3.09 3.09 0 0 0 .905 3.287l12.7 11.138-3.745 16.496a3.093 3.093 0 0 0 1.203 3.194c.54.391 1.174.59 1.812.59.55 0 1.096-.148 1.586-.441l14.493-8.662 14.488 8.662a3.095 3.095 0 0 0 4.604-3.343L44.553 35.71l12.7-11.136a3.095 3.095 0 0 0 .907-3.289z"/></g></g></svg>