<svg width="19" height="19" viewBox="0 0 19 19" fill="none" xmlns="http://www.w3.org/2000/svg">
<g clip-path="url(#clip0_150_5923)">
<path d="M18.1498 10.3997H8.83789V17.3114H18.1498V10.3997ZM11.185 11.5247C11.185 11.2252 11.6983 11.2252 11.6983 11.5247V12.5031C11.6983 13.3816 12.505 14.1011 13.4951 14.1011C14.4829 14.1011 15.2918 13.3815 15.2918 12.5031V11.492C15.2918 11.1925 15.8029 11.1925 15.8029 11.492V12.5031C15.8029 13.6303 14.7623 14.5556 13.4951 14.5556C12.2231 14.5556 11.1848 13.6323 11.1848 12.5031V11.5247H11.185Z" fill="#F8F7F8"/>
<path d="M12.3561 9.94296V5.76842H10.0092V5.12631C10.0092 3.99512 8.971 3.07166 7.69894 3.07166C6.42928 3.07166 5.39106 3.99498 5.39106 5.12631V5.76842H3.04419V17.3115H8.32245V10.1712C8.32245 10.0448 8.43707 9.94283 8.57919 9.94283H12.3562L12.3561 9.94296ZM9.49584 5.76842H5.9044V5.12631C5.9044 4.24776 6.7111 3.52835 7.69894 3.52835C8.68677 3.52835 9.49568 4.24794 9.49568 5.12631V5.76842H9.49584Z" fill="#F8F7F8"/>
</g>
<defs>
<clipPath id="clip0_150_5923">
<rect width="19" height="19" fill="white"/>
</clipPath>
</defs>
</svg>
