<svg xmlns="http://www.w3.org/2000/svg" width="24" height="16" viewBox="0 0 24 16"><g><g><path fill="#fff" d="M22.246 13.702c-.177.413-.413.649-.708.737-.324.089-.737.03-1.209-.147-1.032-.413-2.24-1.327-3.42-2.448-1.12-1.12-3.096-1.68-5.072-1.68s-3.951.56-5.101 1.621c-1.21 1.12-2.418 2.065-3.42 2.448-.472.177-.885.265-1.21.147-.295-.088-.53-.324-.707-.737-.236-.56-.354-1.474-.295-2.83.059-1.269.265-2.713.619-4.07.324-1.268.737-2.447 1.238-3.332C4.583.491 6.471.964 8.711 1.553c.915.236 1.858.472 2.89.56h.443c1.061-.088 2.005-.324 2.919-.56 2.24-.56 4.128-1.061 5.75 1.858.501.885.914 2.035 1.238 3.332.325 1.357.56 2.772.62 4.07.058 1.356-.06 2.27-.325 2.89zm1.415-2.949c-.059-1.356-.294-2.86-.648-4.275-.354-1.357-.796-2.625-1.327-3.598C19.622-.747 17.38-.186 14.697.521c-.855.207-1.769.443-2.712.531h-.295C10.746.964 9.832.728 8.977.522 6.294-.158 4.052-.748 1.988 2.91 1.458 3.883.986 5.15.661 6.507c-.353 1.416-.59 2.92-.648 4.276-.06 1.504.088 2.595.413 3.361.324.708.796 1.15 1.415 1.327.56.148 1.209.089 1.887-.206 1.15-.472 2.477-1.474 3.774-2.683.915-.885 2.625-1.327 4.335-1.327s3.42.442 4.335 1.327c1.297 1.209 2.624 2.211 3.774 2.683.678.265 1.327.354 1.887.206.59-.177 1.091-.59 1.416-1.356.324-.737.471-1.828.412-3.362z"/></g><g><g><g><path fill="#fff" d="M8.387 6.655a.6.6 0 0 1-.442.177h-.413a.56.56 0 0 0-.56.56v.383a.6.6 0 0 1-.177.443.6.6 0 0 1-.442.176.6.6 0 0 1-.443-.176.6.6 0 0 1-.177-.443v-.413a.56.56 0 0 0-.56-.56H4.76a.6.6 0 0 1-.442-.177.597.597 0 0 1-.177-.413.6.6 0 0 1 .177-.442l.03-.03a.705.705 0 0 1 .412-.147h.413a.56.56 0 0 0 .56-.56V4.62a.6.6 0 0 1 .177-.442A.6.6 0 0 1 6.352 4a.6.6 0 0 1 .443.177l.03.03a.705.705 0 0 1 .147.412v.413c0 .295.236.56.56.56h.413a.6.6 0 0 1 .442.177.6.6 0 0 1 .177.442.6.6 0 0 1-.177.443zm.737-1.652c-.295-.265-.648-.471-1.061-.5A1.678 1.678 0 0 0 7.59 3.47l-.03-.03a1.67 1.67 0 0 0-1.208-.5c-.472 0-.915.206-1.21.5a1.714 1.714 0 0 0-.5 1.062c-.414.03-.767.207-1.062.472l-.03.03a1.67 1.67 0 0 0-.501 1.208c0 .472.206.915.501 1.21.295.294.649.471 1.091.5.03.413.207.797.502 1.062a1.67 1.67 0 0 0 1.209.501c.471 0 .914-.206 1.208-.5.266-.296.472-.65.502-1.062.413-.03.796-.207 1.061-.502a1.67 1.67 0 0 0 .502-1.209c0-.471-.207-.914-.502-1.209z"/></g></g></g><g><g><g><path fill="#fff" d="M15.936 4.119a1.032 1.032 0 1 1 2.064 0 1.032 1.032 0 0 1-2.064 0z"/></g></g></g><g><g><g><path fill="#fff" d="M15.936 8.306a1.032 1.032 0 1 1 2.064 0 1.032 1.032 0 0 1-2.064 0z"/></g></g></g><g><g><g><path fill="#fff" d="M13.842 6.212a1.032 1.032 0 1 1 2.064 0 1.032 1.032 0 0 1-2.064 0z"/></g></g></g><g><g><g><path fill="#fff" d="M18.03 6.212a1.032 1.032 0 1 1 2.063 0 1.032 1.032 0 0 1-2.064 0z"/></g></g></g></g></svg>