<svg width="24" height="25" viewBox="0 0 24 25" fill="none" xmlns="http://www.w3.org/2000/svg">
<path d="M24 12.548C24 11.6983 23.3571 10.6364 22.5002 10.4242C21.6429 10.2117 21.0004 9.36228 20.786 8.93766C20.5716 8.30045 20.5716 7.45109 21.0004 6.60133C21.4288 5.75157 21.2148 4.68971 20.5719 4.05248C19.929 3.41527 18.8577 3.20272 18.0003 3.62778C17.143 4.05248 16.2861 4.05248 15.6432 3.8403C15 3.62746 14.3571 2.7781 14.1427 2.14087C13.9283 1.29111 12.857 0.654297 12 0.654297C11.1427 0.654297 10.0714 1.29151 9.85728 2.14087C9.64287 2.77808 8.78588 3.62744 8.35713 3.83996C7.71425 4.05248 6.85732 4.05248 5.99999 3.62745C5.14301 3.20276 4.07169 3.41526 3.42878 4.05248C2.7859 4.68936 2.57146 5.96376 2.99997 6.601C3.42844 7.45075 3.42845 8.30009 3.21438 8.93732C2.99997 9.57453 2.14297 10.2117 1.50015 10.4242C0.642824 10.8489 0 11.6984 0 12.548C0 13.3977 0.642883 14.4597 1.49981 14.6718C2.35714 14.8844 2.99962 15.7338 3.21404 16.1584C3.42844 16.7956 3.42844 17.645 2.99963 18.4947C2.57115 19.3445 2.78522 20.4064 3.42811 21.0436C4.07099 21.6808 5.14233 21.8933 5.99966 21.4683C6.85698 21.0436 7.71388 21.0436 8.35679 21.2558C8.78594 21.4686 9.64286 22.318 9.85728 23.1677C10.0717 24.0175 11.143 24.6543 12 24.6543C12.8573 24.6543 13.9286 24.0171 14.1427 23.1677C14.3571 22.318 15.2141 21.6812 15.6425 21.4686C16.2854 21.2561 17.1423 21.2561 17.9997 21.6811C18.857 22.1058 19.9283 21.8937 20.5712 21.2564C21.2141 20.6192 21.4285 19.5574 20.9997 18.7076C20.5712 17.8578 20.5712 17.0085 20.7853 16.3713C20.9997 15.7341 21.8567 15.0969 22.4995 14.8847C23.3572 14.4597 24 13.3978 24 12.548ZM11.9997 17.0082C9.64252 17.0082 7.4998 15.0966 7.4998 12.548C7.4998 10.2117 9.42844 8.0879 11.9997 8.0879C14.3568 8.0879 16.4995 9.99952 16.4995 12.548C16.2854 15.0969 14.3568 17.0082 11.9997 17.0082Z" fill="white"/>
</svg>
