<svg width="20" height="23" viewBox="0 0 20 23" fill="none" xmlns="http://www.w3.org/2000/svg">
<path d="M2.85714 15.7143C2.85714 14.9241 2.21875 14.2857 1.42857 14.2857C0.638392 14.2857 -3.46764e-07 14.9241 -3.12224e-07 15.7143L-1.87335e-07 18.5714C-8.39103e-08 20.9375 1.91964 22.8571 4.28571 22.8571L15.7143 22.8571C18.0804 22.8571 20 20.9375 20 18.5714L20 15.7143C20 14.9241 19.3616 14.2857 18.5714 14.2857C17.7812 14.2857 17.1429 14.9241 17.1429 15.7143L17.1429 18.5714C17.1429 19.3616 16.5045 20 15.7143 20L4.28571 20C3.49554 20 2.85714 19.3616 2.85714 18.5714L2.85714 15.7143ZM10.7768 0.334825C10.5759 0.120538 10.2946 3.3647e-06 10 3.37758e-06C9.70536 3.39046e-06 9.42411 0.120538 9.22321 0.334825L3.15178 6.7634C2.85714 7.0759 2.77679 7.53125 2.94643 7.92411C3.11607 8.31697 3.50446 8.57143 3.92857 8.57143L7.14286 8.57143L7.14286 14.2857C7.14286 15.0759 7.78125 15.7143 8.57143 15.7143L11.4286 15.7143C12.2187 15.7143 12.8571 15.0759 12.8571 14.2857L12.8571 8.57143L16.0714 8.57143C16.5 8.57143 16.8839 8.31697 17.0536 7.92411C17.2232 7.53125 17.1429 7.0759 16.8482 6.7634L10.7768 0.334825Z" fill="white"/>
</svg>
