<svg width="30" height="29" viewBox="0 0 30 29" fill="none" xmlns="http://www.w3.org/2000/svg">
<path opacity="0.4" d="M15.2782 28.909C23.1801 28.909 29.5858 22.5033 29.5858 14.6015C29.5858 6.69964 23.1801 0.293945 15.2782 0.293945C7.3764 0.293945 0.970703 6.69964 0.970703 14.6015C0.970703 22.5033 7.3764 28.909 15.2782 28.909Z" fill="black"/>
<path d="M14.0625 10.6992C14.5119 10.6992 14.875 10.3361 14.875 9.88672C14.875 9.4373 14.5119 9.07422 14.0625 9.07422H12.4375C11.0918 9.07422 10 10.166 10 11.5117V18.0117C10 19.3574 11.0918 20.4492 12.4375 20.4492H14.0625C14.5119 20.4492 14.875 20.0861 14.875 19.6367C14.875 19.1873 14.5119 18.8242 14.0625 18.8242H12.4375C11.9881 18.8242 11.625 18.4611 11.625 18.0117V11.5117C11.625 11.0623 11.9881 10.6992 12.4375 10.6992H14.0625ZM22.8096 15.2035C22.9314 15.0893 23 14.9293 23 14.7617C23 14.5941 22.9314 14.4342 22.8096 14.3199L19.1533 10.8668C18.9756 10.6992 18.7166 10.6535 18.4932 10.75C18.2697 10.8465 18.125 11.0674 18.125 11.3086V13.1367H14.875C14.4256 13.1367 14.0625 13.4998 14.0625 13.9492V15.5742C14.0625 16.0236 14.4256 16.3867 14.875 16.3867H18.125V18.2148C18.125 18.4586 18.2697 18.677 18.4932 18.7734C18.7166 18.8699 18.9756 18.8242 19.1533 18.6566L22.8096 15.2035Z" fill="white"/>
</svg>
