<svg width="14" height="14" viewBox="0 0 14 14" fill="none" xmlns="http://www.w3.org/2000/svg">
<path d="M7.87359 1.16576C7.75426 0.912879 7.50209 0.751953 7.22516 0.751953C6.94823 0.751953 6.69831 0.912879 6.57673 1.16576L5.12903 4.20727L1.8959 4.69464C1.62572 4.73602 1.40057 4.92913 1.31727 5.19351C1.23396 5.45789 1.30151 5.74986 1.49514 5.94527L3.84118 8.31548L3.28732 11.665C3.24229 11.9409 3.35486 12.2214 3.57776 12.3846C3.80066 12.5478 4.0956 12.5685 4.33876 12.4375L7.22741 10.8627L10.1161 12.4375C10.3592 12.5685 10.6542 12.5501 10.8771 12.3846C11.1 12.2191 11.2125 11.9409 11.1675 11.665L10.6114 8.31548L12.9574 5.94527C13.1511 5.74986 13.2209 5.45789 13.1353 5.19351C13.0497 4.92913 12.8269 4.73602 12.5567 4.69464L9.32129 4.20727L7.87359 1.16576Z" fill="#94D509"/>
</svg>
