<svg width="205" height="262" viewBox="0 0 205 262" fill="none" xmlns="http://www.w3.org/2000/svg">
<path d="M104.13 245.363C72.7579 245.363 46.1094 246.503 46.1094 251.768C46.1094 257.032 71.51 261.292 102.855 261.292C134.172 261.292 159.575 257.032 159.575 251.768C159.575 246.476 135.422 245.363 104.13 245.363Z" fill="#13161C"/>
<path d="M201.746 75.6358C203.727 73.1119 204.758 69.5566 204.487 65.5951C204.134 60.9272 200.579 58.3224 197.403 58.214C194.771 58.1589 191.406 59.8698 190.699 65.081C190.672 65.1086 190.672 65.1086 190.672 65.1362L190.563 66.2761C189.26 65.4354 187.851 64.9472 186.683 65.7327C185.163 66.7368 185.38 69.1249 186.059 70.997C187.443 74.7416 189.723 77.4014 192.383 78.5137L191.703 105.137C191.16 105.409 190.644 105.734 190.128 106.141C188.148 107.689 186.736 109.994 186.14 112.654C185.896 113.821 185.84 114.934 185.923 116.046L164.566 129.886C164.35 126.658 164.105 124.431 164.105 124.323C164.105 114.934 125.27 112.707 116.477 112.327C116.777 112.055 117.074 111.811 117.346 111.622C120.033 109.695 121.334 107.659 121.198 105.57C121.09 103.779 119.95 102.45 119.027 101.635C120.71 99.7623 121.578 97.9176 121.551 96.0986C121.551 94.878 121.143 93.8739 120.602 93.0589C131.918 92.0824 141.662 85.2428 146.899 75.5272H152.651C153.6 75.5272 154.335 73.5998 154.85 70.6703H157.89C162.802 70.6703 162.802 43.2869 157.89 43.2869H155.014V17.2618C155.069 14.982 153.982 12.7022 152.082 10.9658L147.225 6.59714C147.361 6.18961 147.442 5.78207 147.442 5.34894C147.442 2.825 145.434 0.761719 142.91 0.761719C140.386 0.761719 138.378 2.825 138.378 5.34894C138.378 7.8453 140.386 9.90858 142.91 9.90858C143.995 9.90858 144.946 9.52861 145.733 8.90451L150.265 12.9759C151.568 14.1709 152.328 15.744 152.301 17.2363V38.4592H146.901C141.229 27.9302 130.32 20.7643 117.836 20.7643L88.2806 20.7603C75.8242 20.7603 64.8602 27.9247 59.1882 38.4553H53.4355C52.4866 38.4553 51.7523 40.3551 51.2364 43.2866H48.1967C43.5839 43.2866 43.2846 67.3587 47.3284 70.3706V83.0709C47.3284 83.4509 47.4918 83.8033 47.736 84.075L64.8604 100.439C65.1321 100.684 65.4569 100.819 65.8093 100.819H68.985C69.174 101.308 69.4456 101.796 69.8532 102.203C71.3455 103.696 73.7887 103.723 75.3085 102.231C76.8008 100.684 76.7732 98.2679 75.2534 96.7757C73.7611 95.2834 71.3178 95.2282 69.7981 96.7481C69.4181 97.1281 69.1464 97.6164 68.9574 98.1046H66.3527L50.0417 82.5002V70.6678H51.2368C51.7526 73.5993 52.485 75.5247 53.4359 75.5247H59.1885C64.2915 84.9414 73.6 91.6724 84.4813 92.948C83.9124 93.7906 83.5048 94.7947 83.5048 96.0429C83.5048 97.9151 84.4282 99.815 86.1922 101.743C85.2432 102.558 84.1289 103.859 84.0206 105.623C83.8848 107.712 85.1605 109.72 87.7928 111.62C88.092 111.809 88.3893 112.055 88.6885 112.324C79.4885 112.732 41.0327 114.984 41.0327 124.32C41.0327 124.537 40.8969 127.441 40.7886 130.292L19.0772 115.528C19.1579 114.416 19.1048 113.248 18.8607 112.081C18.2641 109.448 16.8525 107.113 14.8719 105.568C14.3561 105.188 13.8403 104.863 13.2969 104.591L12.6177 77.9423C15.2775 76.83 17.5573 74.1978 18.9414 70.4257C19.6206 68.5534 19.8372 66.1929 18.3173 65.1886C17.1498 64.3735 15.7382 64.8637 14.4369 65.7044L14.3286 64.5645C14.3286 64.5645 14.3286 64.5369 14.301 64.5369C13.5962 59.3255 10.2041 57.617 7.59732 57.6442C4.42171 57.7525 0.866391 60.3847 0.51359 65.2435C0.241903 69.0157 1.27352 72.5435 3.2541 75.0952L4.2306 106.032C1.92323 108.34 0.78333 112.057 1.65152 115.884C2.22049 118.544 3.63209 120.851 5.64023 122.397C7.21524 123.617 9.00485 124.269 10.8239 124.269C11.1763 124.269 11.5563 124.188 11.9362 124.133L40.9475 147.254C42.0323 166.713 46.6473 194.422 62.984 212.331C73.4047 223.73 87.2723 229.51 104.18 229.51C156.178 229.51 164.212 174.635 164.887 146.577L193.03 124.704C193.41 124.759 193.79 124.812 194.198 124.812C195.989 124.812 197.781 124.188 199.354 122.968C201.362 121.42 202.774 119.115 203.343 116.455C204.211 112.628 203.071 108.911 200.763 106.603L201.746 75.6358ZM3.23029 65.2408C3.47441 62.1479 5.69909 60.4371 7.68163 60.3563H7.78991C9.79805 60.3563 11.2372 62.0396 11.6172 64.8884L12.0247 68.4715C12.0798 68.9598 12.4323 69.3949 12.893 69.5839C13.3812 69.7473 13.9246 69.6646 14.3046 69.3122C15.6335 68.0916 16.3934 67.684 16.7478 67.5482C16.7754 67.9282 16.7203 68.633 16.3954 69.5012C15.2004 72.7044 12.7316 76.0139 9.44775 75.8249C8.06371 75.7442 6.76042 75.065 5.6756 73.8168C3.90767 71.8362 2.9862 68.6882 3.23029 65.2408ZM11.887 121.417C10.3396 121.769 8.7114 121.336 7.2998 120.249C5.8075 119.082 4.74829 117.345 4.28759 115.31C3.39182 111.185 5.31922 107.25 8.63066 106.545C8.9555 106.464 9.3099 106.409 9.68987 106.409C10.8849 106.409 12.1055 106.869 13.1903 107.712C14.6826 108.88 15.7694 110.644 16.2025 112.679C17.0983 116.776 15.1709 120.712 11.887 121.417ZM115.772 109.421C113.059 111.374 111.511 113.628 111.185 115.908C110.48 113.465 109.964 110.996 109.584 108.527C112.704 106.818 115.201 105.162 117.075 103.534C117.699 104.022 118.431 104.81 118.486 105.733C118.565 107.115 117.047 108.5 115.772 109.421ZM114.793 114.172C114.766 114.199 114.738 114.199 114.713 114.227C114.713 114.199 114.74 114.172 114.768 114.146L114.793 114.172ZM109.204 105.649C108.743 101.28 108.716 97.018 108.905 93.2203H116.992C117.616 93.6279 118.837 94.6319 118.837 96.1518C118.837 97.7248 117.48 100.928 109.204 105.649ZM66.2711 43.2335C65.9994 38.0499 70.0156 33.0018 75.0634 33.0018H131.023C136.126 33.0018 140.142 38.0499 139.843 43.2335C139.299 53.1381 143.587 79.6536 119.787 80.6853H86.3515C62.4961 79.6537 66.8391 53.1386 66.2701 43.2335H66.2711ZM88.0081 93.1946C88.0889 93.1946 88.1971 93.2222 88.2798 93.2222H96.4204C96.6094 97.0495 96.5839 101.338 96.1212 105.734C87.6006 100.93 86.2166 97.6735 86.2166 96.0708C86.2166 94.5785 87.4116 93.6022 88.0081 93.1946ZM86.7324 105.814C86.7875 104.919 87.5199 104.131 88.1716 103.643C90.0714 105.243 92.5954 106.899 95.7432 108.61C95.3357 111.189 94.7942 113.794 94.0343 116.318C93.8453 113.902 92.2703 111.486 89.394 109.425C88.1162 108.529 86.6517 107.171 86.7324 105.814ZM52.293 119.71C52.2379 119.845 52.1571 119.954 52.1571 120.09C52.1571 123.698 74.7369 126.685 102.608 126.685C130.371 126.685 152.977 123.7 152.977 120.09C152.977 119.954 152.896 119.818 152.841 119.682C158.593 121.31 161.389 123.021 161.389 124.322C161.389 128.339 139 133.93 102.582 133.93C66.6505 133.93 43.7451 128.258 43.7451 124.322C43.7451 123.021 46.5403 121.31 52.293 119.71ZM146.138 206.468C137.426 218.464 124.183 226.796 104.182 226.796C88.062 226.796 74.8732 221.315 64.9938 210.485C63.1747 208.477 61.521 206.333 59.9735 204.08C64.1532 179.52 61.5485 151.841 43.4458 135.934C43.4458 132.731 43.5265 130.099 43.6348 128.199C50.3385 132.895 69.0355 135.336 86.7581 136.232V137.019C86.7581 168.092 98.2655 193.331 103.069 193.331C107.818 193.331 119.325 168.092 119.325 137.019L119.323 136.179C136.936 135.23 155.255 132.759 161.687 128.063C161.85 129.963 162.039 132.676 162.148 135.988C143.531 152.435 141.387 181.391 146.138 206.467L146.138 206.468ZM188.61 70.0454C188.285 69.1771 188.23 68.4979 188.258 68.1179C188.61 68.2538 189.37 68.6337 190.701 69.8544C191.081 70.2068 191.624 70.3151 192.113 70.1261C192.573 69.9627 192.928 69.5295 192.981 69.0137L193.388 65.4306C193.796 62.5543 195.288 60.8434 197.324 60.9261C199.305 60.9812 201.531 62.7177 201.775 65.9742C202.019 69.258 201.096 72.3785 199.332 74.3864C198.247 75.6071 196.944 76.3139 195.56 76.3946C192.191 76.6663 189.803 73.2743 188.61 70.0454ZM200.714 115.855C200.254 117.89 199.194 119.654 197.702 120.822C196.29 121.906 194.662 122.314 193.115 121.989C189.831 121.257 187.903 117.349 188.799 113.25C189.234 111.187 190.319 109.423 191.812 108.283C192.896 107.414 194.119 106.979 195.34 106.979C195.692 106.979 196.044 107.007 196.371 107.088C199.683 107.822 201.608 111.757 200.714 115.855Z" fill="#005C46"/>
<path d="M123.077 138.301C121.91 138.301 120.988 139.224 120.988 140.39C120.988 141.557 121.912 142.478 123.077 142.478C124.217 142.478 125.166 141.555 125.166 140.39C125.166 139.224 124.217 138.301 123.077 138.301ZM123.077 141.449C122.372 141.449 121.801 140.88 121.801 140.173C121.801 139.468 122.37 138.897 123.077 138.897C123.756 138.897 124.353 139.466 124.353 140.173C124.353 140.88 123.754 141.449 123.077 141.449Z" fill="#005C46"/>
<path d="M85.1054 140.358C85.1054 139.191 84.1565 138.27 83.0166 138.27C81.8491 138.27 80.9277 139.193 80.9277 140.358C80.9277 141.526 81.8511 142.447 83.0166 142.447C84.1565 142.447 85.1054 141.526 85.1054 140.358ZM83.0166 141.443C82.3118 141.443 81.7408 140.874 81.7408 140.167C81.7408 139.463 82.3098 138.892 83.0166 138.892C83.6958 138.892 84.2923 139.461 84.2923 140.167C84.2923 140.874 83.6938 141.443 83.0166 141.443Z" fill="#005C46"/>
<path d="M48.1728 132.631C47.0053 132.631 46.084 133.554 46.084 134.72C46.084 135.887 47.0073 136.809 48.1728 136.809C49.3127 136.809 50.2617 135.885 50.2617 134.72C50.2636 133.554 49.2851 132.631 48.1728 132.631ZM48.1728 135.779C47.468 135.779 46.8971 135.21 46.8971 134.503C46.8971 133.798 47.4661 133.227 48.1728 133.227C48.8521 133.227 49.4485 133.796 49.4485 134.503C49.4485 135.21 48.852 135.779 48.1728 135.779Z" fill="#005C46"/>
<path d="M86.5478 164.326C85.3803 164.326 84.459 165.25 84.459 166.415C84.459 167.582 85.3823 168.504 86.5478 168.504C87.6877 168.504 88.6367 167.581 88.6367 166.415C88.6367 165.248 87.6877 164.326 86.5478 164.326ZM86.5478 167.502C85.843 167.502 85.2721 166.933 85.2721 166.226C85.2721 165.521 85.8411 164.95 86.5478 164.95C87.2271 164.95 87.8235 165.519 87.8235 166.226C87.8491 166.931 87.2526 167.502 86.5478 167.502Z" fill="#005C46"/>
<path d="M119.112 164.326C117.945 164.326 117.023 165.25 117.023 166.415C117.023 167.582 117.947 168.504 119.112 168.504C120.252 168.504 121.201 167.581 121.201 166.415C121.203 165.248 120.252 164.326 119.112 164.326ZM119.112 167.502C118.407 167.502 117.837 166.933 117.837 166.226C117.837 165.521 118.406 164.95 119.112 164.95C119.792 164.95 120.388 165.519 120.388 166.226C120.388 166.931 119.819 167.502 119.112 167.502Z" fill="#005C46"/>
<path d="M102.825 195.834C101.658 195.834 100.736 196.757 100.736 197.923C100.736 199.09 101.66 200.012 102.825 200.012C103.965 200.012 104.914 199.088 104.914 197.923C104.916 196.755 103.965 195.834 102.825 195.834ZM102.825 198.982C102.12 198.982 101.549 198.413 101.549 197.706C101.549 197.002 102.118 196.431 102.825 196.431C103.504 196.431 104.101 197 104.101 197.706C104.101 198.411 103.532 198.982 102.825 198.982Z" fill="#005C46"/>
<path d="M158.79 136.1C159.93 136.1 160.879 135.176 160.879 134.011C160.879 132.843 159.93 131.922 158.79 131.922C157.623 131.922 156.701 132.845 156.701 134.011C156.701 135.176 157.65 136.1 158.79 136.1ZM158.79 132.516C159.469 132.516 160.066 133.085 160.066 133.792C160.066 134.497 159.469 135.068 158.79 135.068C158.085 135.068 157.514 134.499 157.514 133.792C157.514 133.087 158.085 132.516 158.79 132.516Z" fill="#005C46"/>
<path d="M64.7548 201.803C63.5874 201.803 62.666 202.726 62.666 203.892C62.666 205.059 63.5893 205.98 64.7548 205.98C65.8947 205.98 66.8437 205.057 66.8437 203.892C66.8437 202.726 65.8947 201.803 64.7548 201.803ZM64.7548 204.951C64.0501 204.951 63.4791 204.382 63.4791 203.675C63.4791 202.97 64.0481 202.399 64.7548 202.399C65.4341 202.399 66.0306 202.968 66.0306 203.675C66.0562 204.382 65.4596 204.951 64.7548 204.951Z" fill="#005C46"/>
<path d="M141.882 203.213C140.714 203.213 139.793 204.136 139.793 205.302C139.793 206.469 140.716 207.391 141.882 207.391C143.022 207.391 143.971 206.467 143.971 205.302C143.973 204.164 143.022 203.213 141.882 203.213ZM141.882 206.388C141.177 206.388 140.606 205.82 140.606 205.113C140.606 204.408 141.175 203.837 141.882 203.837C142.561 203.837 143.158 204.406 143.158 205.113C143.158 205.818 142.561 206.388 141.882 206.388Z" fill="#005C46"/>
<path d="M102.825 219.576C101.658 219.576 100.736 220.5 100.736 221.665C100.736 222.832 101.66 223.754 102.825 223.754C103.965 223.754 104.914 222.831 104.914 221.665C104.916 220.5 103.965 219.576 102.825 219.576ZM102.825 222.724C102.12 222.724 101.549 222.155 101.549 221.448C101.549 220.744 102.118 220.173 102.825 220.173C103.504 220.173 104.101 220.742 104.101 221.448C104.101 222.155 103.532 222.724 102.825 222.724Z" fill="#005C46"/>
<path d="M24.4537 166.793C24.6427 166.873 24.8337 166.928 25.0227 166.928C25.5385 166.928 26.0268 166.629 26.2434 166.141C26.5682 165.462 26.2709 164.649 25.5917 164.349C23.5284 163.4 21.8747 161.853 20.9238 160.061C20.5714 159.41 19.7563 159.138 19.079 159.492C18.4274 159.845 18.1557 160.66 18.5101 161.337C19.7327 163.617 21.8491 165.572 24.4537 166.793Z" fill="#005C46"/>
<path d="M34.9282 186.303C29.8529 185.163 25.4036 182.586 22.3912 179.003C21.9029 178.434 21.0623 178.351 20.4913 178.84C19.9224 179.328 19.8397 180.169 20.3279 180.739C23.7201 184.756 28.713 187.687 34.3593 188.936C34.4676 188.963 34.5483 188.963 34.6586 188.963C35.2827 188.963 35.8536 188.528 35.9875 187.904C36.0957 187.199 35.6606 186.466 34.9282 186.303Z" fill="#005C46"/>
<path d="M28.2231 203.566C27.2741 204.245 27.0556 205.629 27.7348 206.578C28.414 207.527 29.7981 207.746 30.747 207.066C31.696 206.387 31.9145 205.003 31.2353 204.054C30.5561 203.105 29.172 202.889 28.2231 203.566Z" fill="#005C46"/>
<path d="M56.2318 230.218C58.1316 228.862 58.5648 226.121 57.2083 224.247C55.8518 222.347 53.1113 221.914 51.2369 223.27C49.337 224.627 48.9039 227.367 50.2604 229.242C51.6188 231.139 54.3317 231.575 56.2318 230.218Z" fill="#005C46"/>
<path d="M158.572 108.31C158.301 109.015 158.627 109.803 159.305 110.075C159.468 110.155 159.657 110.183 159.82 110.183C160.364 110.183 160.852 109.858 161.069 109.342C162.86 104.973 166.252 99.4627 172.222 97.9174C172.954 97.7284 173.389 96.9941 173.198 96.2617C173.009 95.5293 172.275 95.0942 171.542 95.2852C164.516 97.1299 160.608 103.371 158.572 108.31Z" fill="#005C46"/>
<path d="M154.525 93.8443C154.226 94.5235 154.553 95.3366 155.23 95.6359C155.394 95.7166 155.583 95.7442 155.774 95.7442C156.289 95.7442 156.805 95.4449 157.022 94.9291C158.461 91.5369 161.77 85.6484 167.931 84.1283C168.663 83.9393 169.098 83.205 168.907 82.4726C168.718 81.7402 167.984 81.3051 167.252 81.4961C159.981 83.2877 156.153 90.0169 154.525 93.8443Z" fill="#005C46"/>
<path d="M154.039 229.239C154.039 227.963 152.979 226.932 151.731 226.932C150.455 226.932 149.424 227.991 149.424 229.239C149.424 230.515 150.483 231.546 151.731 231.546C152.979 231.544 154.039 230.487 154.039 229.239Z" fill="#005C46"/>
<path d="M164.025 211.354C161.773 211.354 159.873 213.226 159.873 215.506C159.873 217.758 161.745 219.658 164.025 219.658C166.305 219.658 168.177 217.785 168.177 215.506C168.177 213.228 166.305 211.354 164.025 211.354Z" fill="#005C46"/>
<path d="M133.359 95.2008C133.359 96.7758 134.688 98.1047 136.263 98.1047C137.838 98.1047 139.167 96.7758 139.167 95.2008C139.167 93.6258 137.838 92.2969 136.263 92.2969C134.69 92.2969 133.359 93.6277 133.359 95.2008Z" fill="#005C46"/>
<path d="M21.7374 87.2779C21.574 88.0103 22.0091 88.7426 22.7415 88.9061C27.3542 89.9908 30.3408 93.8457 31.6976 96.017C33.8691 99.5175 35.0897 103.589 36.2848 107.55C36.4482 108.147 36.9896 108.527 37.5881 108.527C37.7239 108.527 37.8598 108.499 37.9681 108.471C38.6728 108.255 39.0804 107.495 38.8638 106.788C37.6156 102.664 36.3399 98.4031 33.9793 94.6035C31.2664 90.2072 27.4666 87.2481 23.3404 86.2718C22.6336 86.1104 21.9264 86.5455 21.7374 87.2779Z" fill="#005C46"/>
<path d="M40.5462 93.8182C40.7097 94.4148 41.251 94.7947 41.8495 94.7947C41.9854 94.7947 42.0937 94.7672 42.2295 94.7396C42.9619 94.523 43.3694 93.7907 43.1528 93.0563C41.8771 88.5243 40.2765 83.7479 37.4259 79.6237C36.9908 78.9996 36.1501 78.8638 35.526 79.2713C34.9019 79.7064 34.7661 80.547 35.1736 81.1711C37.8314 84.9728 39.3237 89.5045 40.5462 93.8182Z" fill="#005C46"/>
<path d="M20.7885 38.2645C21.956 38.2645 22.9325 37.288 22.9325 36.1205C22.9325 34.9531 21.956 33.9766 20.7885 33.9766C19.621 33.9766 18.6445 34.9531 18.6445 36.1205C18.6701 37.3156 19.621 38.2645 20.7885 38.2645Z" fill="#005C46"/>
<path d="M30.3151 55.0111C32.2425 55.0111 33.8431 53.4105 33.8431 51.4831C33.8431 49.5557 32.2425 47.9551 30.3151 47.9551C28.3877 47.9551 26.7871 49.5557 26.7871 51.4831C26.7871 53.4105 28.3877 55.0111 30.3151 55.0111Z" fill="#005C46"/>
<path d="M179.222 166.225C181.582 164.597 183.319 162.317 184.134 159.793C184.378 159.088 183.971 158.328 183.266 158.084C182.533 157.868 181.801 158.248 181.557 158.952C180.933 160.905 179.549 162.697 177.676 163.973C177.052 164.408 176.917 165.248 177.324 165.873C177.596 166.252 178.003 166.469 178.436 166.469C178.706 166.469 178.978 166.387 179.222 166.225Z" fill="#005C46"/>
<path d="M184.866 179.112C184.214 178.732 183.401 178.949 182.993 179.573C180.253 184.16 175.748 187.877 170.265 190.076C169.561 190.348 169.234 191.135 169.505 191.84C169.722 192.383 170.238 192.681 170.754 192.681C170.917 192.681 171.106 192.653 171.269 192.572C177.294 190.157 182.288 186.032 185.327 180.929C185.734 180.307 185.517 179.492 184.866 179.112Z" fill="#005C46"/>
<path d="M179.062 47.8459C181.558 47.8459 183.621 45.757 183.621 43.2862C183.621 40.7898 181.532 38.7266 179.062 38.7266C176.593 38.7266 174.502 40.8154 174.502 43.2862C174.504 45.757 176.565 47.8459 179.062 47.8459Z" fill="#005C46"/>
<path d="M103.048 74.4147C107.391 74.4147 111.164 72.2156 113.089 68.9594C114.392 66.7603 112.681 63.9922 110.13 63.9922H95.9372C93.3856 63.9922 91.6768 66.7603 92.9781 68.9594C94.9331 72.2176 98.7052 74.4147 103.048 74.4147Z" fill="#005C46"/>
<path d="M115.798 50.5632H128.091C128.635 50.5632 129.123 50.2915 129.42 49.8584C129.72 49.4233 129.8 48.8543 129.584 48.3385C128.336 45.1353 125.323 43.0742 121.931 43.0742C118.539 43.0742 115.499 45.1375 114.251 48.3385C114.062 48.8268 114.115 49.3977 114.414 49.8584C114.769 50.2915 115.257 50.5632 115.798 50.5632Z" fill="#005C46"/>
<path d="M91.6215 49.8545C91.9208 49.4194 92.0015 48.8504 91.7849 48.3346C90.5367 45.1314 87.5246 43.0703 84.1322 43.0703C80.7398 43.0703 77.7001 45.1336 76.4522 48.3346C76.2632 48.8229 76.3164 49.3938 76.6156 49.8545C76.9149 50.2896 77.4307 50.5593 77.9445 50.5593H90.2376C90.8361 50.5612 91.3242 50.2895 91.6215 49.8545Z" fill="#005C46"/>
</svg>
