<svg width="19" height="24" viewBox="0 0 19 24" fill="none" xmlns="http://www.w3.org/2000/svg">
<path d="M9.16699 0C7.20762 0 5.53887 1.25156 4.9248 3H3.16699C1.5123 3 0.166992 4.34531 0.166992 6V21C0.166992 22.6547 1.5123 24 3.16699 24H15.167C16.8217 24 18.167 22.6547 18.167 21V6C18.167 4.34531 16.8217 3 15.167 3H13.4092C12.7951 1.25156 11.1264 0 9.16699 0ZM9.16699 3C9.56482 3 9.94635 3.15804 10.2277 3.43934C10.509 3.72064 10.667 4.10218 10.667 4.5C10.667 4.89782 10.509 5.27936 10.2277 5.56066C9.94635 5.84196 9.56482 6 9.16699 6C8.76917 6 8.38764 5.84196 8.10633 5.56066C7.82503 5.27936 7.66699 4.89782 7.66699 4.5C7.66699 4.10218 7.82503 3.72064 8.10633 3.43934C8.38764 3.15804 8.76917 3 9.16699 3ZM3.54199 12.75C3.54199 12.4516 3.66052 12.1655 3.8715 11.9545C4.08248 11.7435 4.36862 11.625 4.66699 11.625C4.96536 11.625 5.25151 11.7435 5.46249 11.9545C5.67347 12.1655 5.79199 12.4516 5.79199 12.75C5.79199 13.0484 5.67347 13.3345 5.46249 13.5455C5.25151 13.7565 4.96536 13.875 4.66699 13.875C4.36862 13.875 4.08248 13.7565 3.8715 13.5455C3.66052 13.3345 3.54199 13.0484 3.54199 12.75ZM8.41699 12H14.417C14.8295 12 15.167 12.3375 15.167 12.75C15.167 13.1625 14.8295 13.5 14.417 13.5H8.41699C8.00449 13.5 7.66699 13.1625 7.66699 12.75C7.66699 12.3375 8.00449 12 8.41699 12ZM3.54199 17.25C3.54199 16.9516 3.66052 16.6655 3.8715 16.4545C4.08248 16.2435 4.36862 16.125 4.66699 16.125C4.96536 16.125 5.25151 16.2435 5.46249 16.4545C5.67347 16.6655 5.79199 16.9516 5.79199 17.25C5.79199 17.5484 5.67347 17.8345 5.46249 18.0455C5.25151 18.2565 4.96536 18.375 4.66699 18.375C4.36862 18.375 4.08248 18.2565 3.8715 18.0455C3.66052 17.8345 3.54199 17.5484 3.54199 17.25ZM7.66699 17.25C7.66699 16.8375 8.00449 16.5 8.41699 16.5H14.417C14.8295 16.5 15.167 16.8375 15.167 17.25C15.167 17.6625 14.8295 18 14.417 18H8.41699C8.00449 18 7.66699 17.6625 7.66699 17.25Z" fill="#E42575"/>
</svg>
