<svg width="19" height="24" viewBox="0 0 19 24" fill="none" xmlns="http://www.w3.org/2000/svg">
<path d="M9.66699 0C7.70762 0 6.03887 1.25156 5.4248 3H3.66699C2.0123 3 0.666992 4.34531 0.666992 6V21C0.666992 22.6547 2.0123 24 3.66699 24H15.667C17.3217 24 18.667 22.6547 18.667 21V6C18.667 4.34531 17.3217 3 15.667 3H13.9092C13.2951 1.25156 11.6264 0 9.66699 0ZM9.66699 3C10.0648 3 10.4463 3.15804 10.7277 3.43934C11.009 3.72064 11.167 4.10218 11.167 4.5C11.167 4.89782 11.009 5.27936 10.7277 5.56066C10.4463 5.84196 10.0648 6 9.66699 6C9.26917 6 8.88764 5.84196 8.60633 5.56066C8.32503 5.27936 8.16699 4.89782 8.16699 4.5C8.16699 4.10218 8.32503 3.72064 8.60633 3.43934C8.88764 3.15804 9.26917 3 9.66699 3ZM4.04199 12.75C4.04199 12.4516 4.16052 12.1655 4.3715 11.9545C4.58248 11.7435 4.86862 11.625 5.16699 11.625C5.46536 11.625 5.75151 11.7435 5.96249 11.9545C6.17347 12.1655 6.29199 12.4516 6.29199 12.75C6.29199 13.0484 6.17347 13.3345 5.96249 13.5455C5.75151 13.7565 5.46536 13.875 5.16699 13.875C4.86862 13.875 4.58248 13.7565 4.3715 13.5455C4.16052 13.3345 4.04199 13.0484 4.04199 12.75ZM8.91699 12H14.917C15.3295 12 15.667 12.3375 15.667 12.75C15.667 13.1625 15.3295 13.5 14.917 13.5H8.91699C8.50449 13.5 8.16699 13.1625 8.16699 12.75C8.16699 12.3375 8.50449 12 8.91699 12ZM4.04199 17.25C4.04199 16.9516 4.16052 16.6655 4.3715 16.4545C4.58248 16.2435 4.86862 16.125 5.16699 16.125C5.46536 16.125 5.75151 16.2435 5.96249 16.4545C6.17347 16.6655 6.29199 16.9516 6.29199 17.25C6.29199 17.5484 6.17347 17.8345 5.96249 18.0455C5.75151 18.2565 5.46536 18.375 5.16699 18.375C4.86862 18.375 4.58248 18.2565 4.3715 18.0455C4.16052 17.8345 4.04199 17.5484 4.04199 17.25ZM8.16699 17.25C8.16699 16.8375 8.50449 16.5 8.91699 16.5H14.917C15.3295 16.5 15.667 16.8375 15.667 17.25C15.667 17.6625 15.3295 18 14.917 18H8.91699C8.50449 18 8.16699 17.6625 8.16699 17.25Z" fill="#F8F7F8"/>
</svg>
