<svg width="185" height="161" viewBox="0 0 185 161" fill="none" xmlns="http://www.w3.org/2000/svg">
<mask id="path-1-inside-1_150_22706" fill="white">
<path fill-rule="evenodd" clip-rule="evenodd" d="M23.5283 38.5958H18.2453V52.5295H23.5283V38.5958ZM23.5283 84.2332H18.2453V98.1669H23.5283V84.2332ZM26.553 140.439L30.2378 151.837H42.1444L45.8291 140.439H26.553ZM112.08 66.9056L79.8888 66.9071C79.8174 66.9085 79.7489 66.9377 79.6994 66.9887C79.6484 67.0382 79.6193 67.1067 79.6178 67.1781V71.8776C79.6207 72.0248 79.7402 72.1457 79.8888 72.1487H112.08C113.499 72.1414 114.648 70.9931 114.654 69.5724V69.482V69.4835C114.648 68.0627 113.499 66.9145 112.08 66.9072V66.9056ZM105.004 62.5004H112.08V62.5019C113.93 62.5048 115.703 63.2407 117.012 64.5492C118.322 65.8577 119.057 67.6311 119.062 69.4834V69.5737V69.5723C119.057 71.4229 118.32 73.1977 117.012 74.5064C115.703 75.815 113.93 76.5523 112.08 76.5567H105.004C102.698 85.7909 96.0061 93.3053 87.1009 96.6616C78.1958 100.019 68.2097 98.7905 60.3825 93.3742C52.5557 87.9592 47.8859 79.0473 47.8859 69.5288C47.8859 60.0104 52.5557 51.0985 60.3825 45.6835C68.2094 40.2685 78.1958 39.0401 87.1009 42.3961C96.0061 45.7535 102.698 53.2668 105.004 62.5021V62.5004ZM79.8888 62.5004V62.5019C77.3099 62.5048 75.2178 64.5944 75.2104 67.1734V71.8729C75.2133 74.4551 77.3055 76.5475 79.8873 76.552H100.456C98.1859 84.1686 92.3784 90.2204 84.8615 92.7996C77.345 95.3788 69.046 94.1679 62.5783 89.5487C56.1107 84.9308 52.273 77.4716 52.273 69.524C52.273 61.5764 56.1107 54.1186 62.5783 49.4993C69.046 44.8815 77.345 43.6706 84.8615 46.2498C92.378 48.829 98.1859 54.8808 100.456 62.4975L79.8888 62.5004ZM147.963 80.5271H139.862C132.77 80.4659 125.88 82.8906 120.388 87.3816C115.547 91.2433 112.681 97.0646 112.573 103.258C112.573 104.743 112.596 106.034 112.634 107.189C112.676 108.422 112.739 109.719 112.809 111.043C112.885 112.402 112.981 113.914 113.077 115.408C113.958 129.245 114.735 141.426 104.339 153.305V153.303C103.491 154.142 103.261 155.423 103.762 156.506C104.093 157.181 104.562 157.778 105.141 158.259C105.825 158.842 106.602 159.305 107.438 159.632C108.463 160.118 109.603 160.3 110.728 160.158C111.853 160.015 112.912 159.551 113.782 158.824C114.994 157.664 116.396 156.722 117.929 156.038C119.372 155.404 120.902 154.982 122.467 154.785C126.552 154.459 130.664 154.709 134.68 155.531C137.728 156.076 140.812 156.394 143.908 156.481C147.004 156.394 150.089 156.076 153.138 155.531C160.83 154.355 168.16 153.233 174.026 158.823C174.895 159.55 175.955 160.012 177.079 160.155C178.203 160.298 179.345 160.115 180.369 159.629C181.206 159.304 181.982 158.839 182.667 158.256C183.245 157.777 183.715 157.179 184.047 156.504C184.549 155.422 184.318 154.141 183.471 153.302C173.076 141.426 173.862 129.247 174.734 115.405C174.98 111.523 175.236 107.507 175.236 103.255V103.256C175.105 97.0385 172.217 91.2012 167.355 87.325C161.886 82.8485 155.015 80.4413 147.947 80.5256L147.963 80.5271ZM154.648 76.731C155.634 76.5154 156.299 75.5915 156.191 74.589C156.085 73.585 155.24 72.8243 154.231 72.82H134.072C133.302 72.8214 132.601 73.2702 132.279 73.9697C131.955 74.6706 132.069 75.4939 132.569 76.0811C132.812 76.3653 133.13 76.5751 133.485 76.6873C135.59 76.3099 137.723 76.1205 139.863 76.1219H147.965C150.207 76.1205 152.444 76.3245 154.648 76.731ZM135.046 36.0699V20.7813C135.046 20.197 134.814 19.636 134.402 19.2221C133.989 18.8098 133.428 18.5766 132.844 18.5766H20.8872C19.6706 18.5766 18.6842 19.5631 18.6842 20.7813V34.1887L16.0456 34.1872C14.829 34.1872 13.8427 35.1752 13.8427 36.392V54.732C13.8427 55.9487 14.829 56.9352 16.0456 56.9352H18.6857V79.8245H16.0456C14.829 79.8245 13.8427 80.811 13.8427 82.0277V100.368C13.8427 101.584 14.829 102.571 16.0456 102.571H18.6857V115.978C18.6857 117.197 19.6721 118.183 20.8886 118.183H108.84C109.43 124.133 109.227 130.135 108.237 136.031H11.2777C8.49342 136.022 5.82422 134.912 3.85446 132.941C1.8847 130.971 0.77438 128.303 0.76416 125.517V11.2408C0.774359 8.4547 1.88459 5.78666 3.85446 3.81665C5.82433 1.84663 8.49372 0.736177 11.2777 0.727448H142.451C145.235 0.736191 147.904 1.84656 149.874 3.81519C151.844 5.78528 152.956 8.45504 152.965 11.2409V34.9303L135.046 36.0699ZM133.864 47.9183L126.036 53.5591H126.034C125.217 54.0953 124.851 55.108 125.138 56.0436L129.556 70.2802H129.557C128.569 71.2652 127.934 72.5475 127.748 73.9304C127.563 75.3133 127.836 76.7195 128.529 77.9305C124.516 79.2405 120.791 81.3039 117.55 84.0114C111.71 88.7005 108.269 95.7546 108.167 103.245C108.167 104.459 108.196 105.836 108.244 107.315C108.292 108.715 108.354 110.018 108.419 111.264C108.467 112.145 108.517 112.969 108.565 113.77L23.0903 113.769V102.574H25.7318C26.9484 102.574 27.9348 101.588 27.9348 100.37V82.0312C27.9348 81.4454 27.7031 80.8844 27.2908 80.4706C26.877 80.0567 26.3161 79.825 25.7318 79.825H23.0903V56.9358H25.7318C26.9484 56.9358 27.9348 55.9493 27.9348 54.7326V36.3925C27.9348 35.1758 26.9484 34.1878 25.7318 34.1878H23.0903V22.9836H130.638V37.1881H130.64C130.223 37.7914 130.136 38.5623 130.407 39.2413L133.861 47.9129L133.864 47.9183ZM154.437 68.4134L162.6 52.9544L156.434 51.9664L154.325 59.9793C154.016 61.1523 152.814 61.8532 151.639 61.5443C150.466 61.2353 149.766 60.0332 150.075 58.8587L155.242 39.191L135.608 40.4442L138.549 47.8218C138.564 47.8567 138.579 47.8903 138.592 47.9267L142.373 57.9536L142.371 57.955C142.798 59.0902 142.225 60.3579 141.089 60.7863C139.954 61.2147 138.686 60.6406 138.258 59.504L135.493 52.157L129.803 56.2619L133.58 68.4308C133.743 68.4177 133.907 68.4118 134.072 68.4118H154.435L154.437 68.4134ZM146.355 139.361C146.372 139.958 146.148 140.535 145.734 140.963C145.319 141.391 144.748 141.633 144.152 141.633C143.556 141.633 142.985 141.391 142.569 140.963C142.154 140.535 141.93 139.958 141.949 139.361V136.029C140.108 135.688 138.389 134.876 136.954 133.674C134.969 132.057 133.807 129.642 133.778 127.082C133.778 125.865 134.764 124.877 135.981 124.877C137.199 124.877 138.185 125.865 138.185 127.082C138.216 128.345 138.804 129.531 139.794 130.32C141.035 131.297 142.571 131.829 144.152 131.829C145.732 131.829 147.268 131.297 148.51 130.32C149.499 129.531 150.088 128.345 150.12 127.082C150.12 123.513 146.897 122.852 143.683 122.192C138.724 121.172 133.778 120.157 133.778 113.09C133.807 110.53 134.971 108.115 136.954 106.496C138.389 105.296 140.11 104.486 141.949 104.145V100.815C141.93 100.219 142.154 99.6404 142.569 99.212C142.985 98.785 143.556 98.5431 144.152 98.5431C144.748 98.5431 145.319 98.785 145.734 99.212C146.148 99.6404 146.372 100.219 146.355 100.815V104.145C148.195 104.486 149.916 105.296 151.351 106.496C153.332 108.115 154.495 110.53 154.526 113.09C154.543 113.686 154.32 114.263 153.905 114.692C153.49 115.12 152.919 115.362 152.323 115.362C151.727 115.362 151.156 115.12 150.74 114.692C150.325 114.263 150.102 113.686 150.12 113.09C150.088 111.825 149.498 110.642 148.51 109.854C147.268 108.875 145.733 108.343 144.152 108.343C142.571 108.343 141.035 108.875 139.794 109.854C138.806 110.642 138.217 111.827 138.185 113.09C138.185 116.579 141.369 117.233 144.56 117.895C149.537 118.918 154.525 119.943 154.525 127.087C154.496 129.645 153.334 132.06 151.351 133.679C149.916 134.881 148.195 135.693 146.354 136.034L146.355 139.361Z"/>
</mask>
<path fill-rule="evenodd" clip-rule="evenodd" d="M23.5283 38.5958H18.2453V52.5295H23.5283V38.5958ZM23.5283 84.2332H18.2453V98.1669H23.5283V84.2332ZM26.553 140.439L30.2378 151.837H42.1444L45.8291 140.439H26.553ZM112.08 66.9056L79.8888 66.9071C79.8174 66.9085 79.7489 66.9377 79.6994 66.9887C79.6484 67.0382 79.6193 67.1067 79.6178 67.1781V71.8776C79.6207 72.0248 79.7402 72.1457 79.8888 72.1487H112.08C113.499 72.1414 114.648 70.9931 114.654 69.5724V69.482V69.4835C114.648 68.0627 113.499 66.9145 112.08 66.9072V66.9056ZM105.004 62.5004H112.08V62.5019C113.93 62.5048 115.703 63.2407 117.012 64.5492C118.322 65.8577 119.057 67.6311 119.062 69.4834V69.5737V69.5723C119.057 71.4229 118.32 73.1977 117.012 74.5064C115.703 75.815 113.93 76.5523 112.08 76.5567H105.004C102.698 85.7909 96.0061 93.3053 87.1009 96.6616C78.1958 100.019 68.2097 98.7905 60.3825 93.3742C52.5557 87.9592 47.8859 79.0473 47.8859 69.5288C47.8859 60.0104 52.5557 51.0985 60.3825 45.6835C68.2094 40.2685 78.1958 39.0401 87.1009 42.3961C96.0061 45.7535 102.698 53.2668 105.004 62.5021V62.5004ZM79.8888 62.5004V62.5019C77.3099 62.5048 75.2178 64.5944 75.2104 67.1734V71.8729C75.2133 74.4551 77.3055 76.5475 79.8873 76.552H100.456C98.1859 84.1686 92.3784 90.2204 84.8615 92.7996C77.345 95.3788 69.046 94.1679 62.5783 89.5487C56.1107 84.9308 52.273 77.4716 52.273 69.524C52.273 61.5764 56.1107 54.1186 62.5783 49.4993C69.046 44.8815 77.345 43.6706 84.8615 46.2498C92.378 48.829 98.1859 54.8808 100.456 62.4975L79.8888 62.5004ZM147.963 80.5271H139.862C132.77 80.4659 125.88 82.8906 120.388 87.3816C115.547 91.2433 112.681 97.0646 112.573 103.258C112.573 104.743 112.596 106.034 112.634 107.189C112.676 108.422 112.739 109.719 112.809 111.043C112.885 112.402 112.981 113.914 113.077 115.408C113.958 129.245 114.735 141.426 104.339 153.305V153.303C103.491 154.142 103.261 155.423 103.762 156.506C104.093 157.181 104.562 157.778 105.141 158.259C105.825 158.842 106.602 159.305 107.438 159.632C108.463 160.118 109.603 160.3 110.728 160.158C111.853 160.015 112.912 159.551 113.782 158.824C114.994 157.664 116.396 156.722 117.929 156.038C119.372 155.404 120.902 154.982 122.467 154.785C126.552 154.459 130.664 154.709 134.68 155.531C137.728 156.076 140.812 156.394 143.908 156.481C147.004 156.394 150.089 156.076 153.138 155.531C160.83 154.355 168.16 153.233 174.026 158.823C174.895 159.55 175.955 160.012 177.079 160.155C178.203 160.298 179.345 160.115 180.369 159.629C181.206 159.304 181.982 158.839 182.667 158.256C183.245 157.777 183.715 157.179 184.047 156.504C184.549 155.422 184.318 154.141 183.471 153.302C173.076 141.426 173.862 129.247 174.734 115.405C174.98 111.523 175.236 107.507 175.236 103.255V103.256C175.105 97.0385 172.217 91.2012 167.355 87.325C161.886 82.8485 155.015 80.4413 147.947 80.5256L147.963 80.5271ZM154.648 76.731C155.634 76.5154 156.299 75.5915 156.191 74.589C156.085 73.585 155.24 72.8243 154.231 72.82H134.072C133.302 72.8214 132.601 73.2702 132.279 73.9697C131.955 74.6706 132.069 75.4939 132.569 76.0811C132.812 76.3653 133.13 76.5751 133.485 76.6873C135.59 76.3099 137.723 76.1205 139.863 76.1219H147.965C150.207 76.1205 152.444 76.3245 154.648 76.731ZM135.046 36.0699V20.7813C135.046 20.197 134.814 19.636 134.402 19.2221C133.989 18.8098 133.428 18.5766 132.844 18.5766H20.8872C19.6706 18.5766 18.6842 19.5631 18.6842 20.7813V34.1887L16.0456 34.1872C14.829 34.1872 13.8427 35.1752 13.8427 36.392V54.732C13.8427 55.9487 14.829 56.9352 16.0456 56.9352H18.6857V79.8245H16.0456C14.829 79.8245 13.8427 80.811 13.8427 82.0277V100.368C13.8427 101.584 14.829 102.571 16.0456 102.571H18.6857V115.978C18.6857 117.197 19.6721 118.183 20.8886 118.183H108.84C109.43 124.133 109.227 130.135 108.237 136.031H11.2777C8.49342 136.022 5.82422 134.912 3.85446 132.941C1.8847 130.971 0.77438 128.303 0.76416 125.517V11.2408C0.774359 8.4547 1.88459 5.78666 3.85446 3.81665C5.82433 1.84663 8.49372 0.736177 11.2777 0.727448H142.451C145.235 0.736191 147.904 1.84656 149.874 3.81519C151.844 5.78528 152.956 8.45504 152.965 11.2409V34.9303L135.046 36.0699ZM133.864 47.9183L126.036 53.5591H126.034C125.217 54.0953 124.851 55.108 125.138 56.0436L129.556 70.2802H129.557C128.569 71.2652 127.934 72.5475 127.748 73.9304C127.563 75.3133 127.836 76.7195 128.529 77.9305C124.516 79.2405 120.791 81.3039 117.55 84.0114C111.71 88.7005 108.269 95.7546 108.167 103.245C108.167 104.459 108.196 105.836 108.244 107.315C108.292 108.715 108.354 110.018 108.419 111.264C108.467 112.145 108.517 112.969 108.565 113.77L23.0903 113.769V102.574H25.7318C26.9484 102.574 27.9348 101.588 27.9348 100.37V82.0312C27.9348 81.4454 27.7031 80.8844 27.2908 80.4706C26.877 80.0567 26.3161 79.825 25.7318 79.825H23.0903V56.9358H25.7318C26.9484 56.9358 27.9348 55.9493 27.9348 54.7326V36.3925C27.9348 35.1758 26.9484 34.1878 25.7318 34.1878H23.0903V22.9836H130.638V37.1881H130.64C130.223 37.7914 130.136 38.5623 130.407 39.2413L133.861 47.9129L133.864 47.9183ZM154.437 68.4134L162.6 52.9544L156.434 51.9664L154.325 59.9793C154.016 61.1523 152.814 61.8532 151.639 61.5443C150.466 61.2353 149.766 60.0332 150.075 58.8587L155.242 39.191L135.608 40.4442L138.549 47.8218C138.564 47.8567 138.579 47.8903 138.592 47.9267L142.373 57.9536L142.371 57.955C142.798 59.0902 142.225 60.3579 141.089 60.7863C139.954 61.2147 138.686 60.6406 138.258 59.504L135.493 52.157L129.803 56.2619L133.58 68.4308C133.743 68.4177 133.907 68.4118 134.072 68.4118H154.435L154.437 68.4134ZM146.355 139.361C146.372 139.958 146.148 140.535 145.734 140.963C145.319 141.391 144.748 141.633 144.152 141.633C143.556 141.633 142.985 141.391 142.569 140.963C142.154 140.535 141.93 139.958 141.949 139.361V136.029C140.108 135.688 138.389 134.876 136.954 133.674C134.969 132.057 133.807 129.642 133.778 127.082C133.778 125.865 134.764 124.877 135.981 124.877C137.199 124.877 138.185 125.865 138.185 127.082C138.216 128.345 138.804 129.531 139.794 130.32C141.035 131.297 142.571 131.829 144.152 131.829C145.732 131.829 147.268 131.297 148.51 130.32C149.499 129.531 150.088 128.345 150.12 127.082C150.12 123.513 146.897 122.852 143.683 122.192C138.724 121.172 133.778 120.157 133.778 113.09C133.807 110.53 134.971 108.115 136.954 106.496C138.389 105.296 140.11 104.486 141.949 104.145V100.815C141.93 100.219 142.154 99.6404 142.569 99.212C142.985 98.785 143.556 98.5431 144.152 98.5431C144.748 98.5431 145.319 98.785 145.734 99.212C146.148 99.6404 146.372 100.219 146.355 100.815V104.145C148.195 104.486 149.916 105.296 151.351 106.496C153.332 108.115 154.495 110.53 154.526 113.09C154.543 113.686 154.32 114.263 153.905 114.692C153.49 115.12 152.919 115.362 152.323 115.362C151.727 115.362 151.156 115.12 150.74 114.692C150.325 114.263 150.102 113.686 150.12 113.09C150.088 111.825 149.498 110.642 148.51 109.854C147.268 108.875 145.733 108.343 144.152 108.343C142.571 108.343 141.035 108.875 139.794 109.854C138.806 110.642 138.217 111.827 138.185 113.09C138.185 116.579 141.369 117.233 144.56 117.895C149.537 118.918 154.525 119.943 154.525 127.087C154.496 129.645 153.334 132.06 151.351 133.679C149.916 134.881 148.195 135.693 146.354 136.034L146.355 139.361Z" fill="#878787" fill-opacity="0.5"/>
<path fill-rule="evenodd" clip-rule="evenodd" d="M23.5283 38.5958H18.2453V52.5295H23.5283V38.5958ZM23.5283 84.2332H18.2453V98.1669H23.5283V84.2332ZM26.553 140.439L30.2378 151.837H42.1444L45.8291 140.439H26.553ZM112.08 66.9056L79.8888 66.9071C79.8174 66.9085 79.7489 66.9377 79.6994 66.9887C79.6484 67.0382 79.6193 67.1067 79.6178 67.1781V71.8776C79.6207 72.0248 79.7402 72.1457 79.8888 72.1487H112.08C113.499 72.1414 114.648 70.9931 114.654 69.5724V69.482V69.4835C114.648 68.0627 113.499 66.9145 112.08 66.9072V66.9056ZM105.004 62.5004H112.08V62.5019C113.93 62.5048 115.703 63.2407 117.012 64.5492C118.322 65.8577 119.057 67.6311 119.062 69.4834V69.5737V69.5723C119.057 71.4229 118.32 73.1977 117.012 74.5064C115.703 75.815 113.93 76.5523 112.08 76.5567H105.004C102.698 85.7909 96.0061 93.3053 87.1009 96.6616C78.1958 100.019 68.2097 98.7905 60.3825 93.3742C52.5557 87.9592 47.8859 79.0473 47.8859 69.5288C47.8859 60.0104 52.5557 51.0985 60.3825 45.6835C68.2094 40.2685 78.1958 39.0401 87.1009 42.3961C96.0061 45.7535 102.698 53.2668 105.004 62.5021V62.5004ZM79.8888 62.5004V62.5019C77.3099 62.5048 75.2178 64.5944 75.2104 67.1734V71.8729C75.2133 74.4551 77.3055 76.5475 79.8873 76.552H100.456C98.1859 84.1686 92.3784 90.2204 84.8615 92.7996C77.345 95.3788 69.046 94.1679 62.5783 89.5487C56.1107 84.9308 52.273 77.4716 52.273 69.524C52.273 61.5764 56.1107 54.1186 62.5783 49.4993C69.046 44.8815 77.345 43.6706 84.8615 46.2498C92.378 48.829 98.1859 54.8808 100.456 62.4975L79.8888 62.5004ZM147.963 80.5271H139.862C132.77 80.4659 125.88 82.8906 120.388 87.3816C115.547 91.2433 112.681 97.0646 112.573 103.258C112.573 104.743 112.596 106.034 112.634 107.189C112.676 108.422 112.739 109.719 112.809 111.043C112.885 112.402 112.981 113.914 113.077 115.408C113.958 129.245 114.735 141.426 104.339 153.305V153.303C103.491 154.142 103.261 155.423 103.762 156.506C104.093 157.181 104.562 157.778 105.141 158.259C105.825 158.842 106.602 159.305 107.438 159.632C108.463 160.118 109.603 160.3 110.728 160.158C111.853 160.015 112.912 159.551 113.782 158.824C114.994 157.664 116.396 156.722 117.929 156.038C119.372 155.404 120.902 154.982 122.467 154.785C126.552 154.459 130.664 154.709 134.68 155.531C137.728 156.076 140.812 156.394 143.908 156.481C147.004 156.394 150.089 156.076 153.138 155.531C160.83 154.355 168.16 153.233 174.026 158.823C174.895 159.55 175.955 160.012 177.079 160.155C178.203 160.298 179.345 160.115 180.369 159.629C181.206 159.304 181.982 158.839 182.667 158.256C183.245 157.777 183.715 157.179 184.047 156.504C184.549 155.422 184.318 154.141 183.471 153.302C173.076 141.426 173.862 129.247 174.734 115.405C174.98 111.523 175.236 107.507 175.236 103.255V103.256C175.105 97.0385 172.217 91.2012 167.355 87.325C161.886 82.8485 155.015 80.4413 147.947 80.5256L147.963 80.5271ZM154.648 76.731C155.634 76.5154 156.299 75.5915 156.191 74.589C156.085 73.585 155.24 72.8243 154.231 72.82H134.072C133.302 72.8214 132.601 73.2702 132.279 73.9697C131.955 74.6706 132.069 75.4939 132.569 76.0811C132.812 76.3653 133.13 76.5751 133.485 76.6873C135.59 76.3099 137.723 76.1205 139.863 76.1219H147.965C150.207 76.1205 152.444 76.3245 154.648 76.731ZM135.046 36.0699V20.7813C135.046 20.197 134.814 19.636 134.402 19.2221C133.989 18.8098 133.428 18.5766 132.844 18.5766H20.8872C19.6706 18.5766 18.6842 19.5631 18.6842 20.7813V34.1887L16.0456 34.1872C14.829 34.1872 13.8427 35.1752 13.8427 36.392V54.732C13.8427 55.9487 14.829 56.9352 16.0456 56.9352H18.6857V79.8245H16.0456C14.829 79.8245 13.8427 80.811 13.8427 82.0277V100.368C13.8427 101.584 14.829 102.571 16.0456 102.571H18.6857V115.978C18.6857 117.197 19.6721 118.183 20.8886 118.183H108.84C109.43 124.133 109.227 130.135 108.237 136.031H11.2777C8.49342 136.022 5.82422 134.912 3.85446 132.941C1.8847 130.971 0.77438 128.303 0.76416 125.517V11.2408C0.774359 8.4547 1.88459 5.78666 3.85446 3.81665C5.82433 1.84663 8.49372 0.736177 11.2777 0.727448H142.451C145.235 0.736191 147.904 1.84656 149.874 3.81519C151.844 5.78528 152.956 8.45504 152.965 11.2409V34.9303L135.046 36.0699ZM133.864 47.9183L126.036 53.5591H126.034C125.217 54.0953 124.851 55.108 125.138 56.0436L129.556 70.2802H129.557C128.569 71.2652 127.934 72.5475 127.748 73.9304C127.563 75.3133 127.836 76.7195 128.529 77.9305C124.516 79.2405 120.791 81.3039 117.55 84.0114C111.71 88.7005 108.269 95.7546 108.167 103.245C108.167 104.459 108.196 105.836 108.244 107.315C108.292 108.715 108.354 110.018 108.419 111.264C108.467 112.145 108.517 112.969 108.565 113.77L23.0903 113.769V102.574H25.7318C26.9484 102.574 27.9348 101.588 27.9348 100.37V82.0312C27.9348 81.4454 27.7031 80.8844 27.2908 80.4706C26.877 80.0567 26.3161 79.825 25.7318 79.825H23.0903V56.9358H25.7318C26.9484 56.9358 27.9348 55.9493 27.9348 54.7326V36.3925C27.9348 35.1758 26.9484 34.1878 25.7318 34.1878H23.0903V22.9836H130.638V37.1881H130.64C130.223 37.7914 130.136 38.5623 130.407 39.2413L133.861 47.9129L133.864 47.9183ZM154.437 68.4134L162.6 52.9544L156.434 51.9664L154.325 59.9793C154.016 61.1523 152.814 61.8532 151.639 61.5443C150.466 61.2353 149.766 60.0332 150.075 58.8587L155.242 39.191L135.608 40.4442L138.549 47.8218C138.564 47.8567 138.579 47.8903 138.592 47.9267L142.373 57.9536L142.371 57.955C142.798 59.0902 142.225 60.3579 141.089 60.7863C139.954 61.2147 138.686 60.6406 138.258 59.504L135.493 52.157L129.803 56.2619L133.58 68.4308C133.743 68.4177 133.907 68.4118 134.072 68.4118H154.435L154.437 68.4134ZM146.355 139.361C146.372 139.958 146.148 140.535 145.734 140.963C145.319 141.391 144.748 141.633 144.152 141.633C143.556 141.633 142.985 141.391 142.569 140.963C142.154 140.535 141.93 139.958 141.949 139.361V136.029C140.108 135.688 138.389 134.876 136.954 133.674C134.969 132.057 133.807 129.642 133.778 127.082C133.778 125.865 134.764 124.877 135.981 124.877C137.199 124.877 138.185 125.865 138.185 127.082C138.216 128.345 138.804 129.531 139.794 130.32C141.035 131.297 142.571 131.829 144.152 131.829C145.732 131.829 147.268 131.297 148.51 130.32C149.499 129.531 150.088 128.345 150.12 127.082C150.12 123.513 146.897 122.852 143.683 122.192C138.724 121.172 133.778 120.157 133.778 113.09C133.807 110.53 134.971 108.115 136.954 106.496C138.389 105.296 140.11 104.486 141.949 104.145V100.815C141.93 100.219 142.154 99.6404 142.569 99.212C142.985 98.785 143.556 98.5431 144.152 98.5431C144.748 98.5431 145.319 98.785 145.734 99.212C146.148 99.6404 146.372 100.219 146.355 100.815V104.145C148.195 104.486 149.916 105.296 151.351 106.496C153.332 108.115 154.495 110.53 154.526 113.09C154.543 113.686 154.32 114.263 153.905 114.692C153.49 115.12 152.919 115.362 152.323 115.362C151.727 115.362 151.156 115.12 150.74 114.692C150.325 114.263 150.102 113.686 150.12 113.09C150.088 111.825 149.498 110.642 148.51 109.854C147.268 108.875 145.733 108.343 144.152 108.343C142.571 108.343 141.035 108.875 139.794 109.854C138.806 110.642 138.217 111.827 138.185 113.09C138.185 116.579 141.369 117.233 144.56 117.895C149.537 118.918 154.525 119.943 154.525 127.087C154.496 129.645 153.334 132.06 151.351 133.679C149.916 134.881 148.195 135.693 146.354 136.034L146.355 139.361Z" stroke="url(#paint0_linear_150_22706)" stroke-width="2" style="mix-blend-mode:soft-light" mask="url(#path-1-inside-1_150_22706)"/>
<defs>
<linearGradient id="paint0_linear_150_22706" x1="6.5" y1="6.00003" x2="172.5" y2="156" gradientUnits="userSpaceOnUse">
<stop offset="0.223331" stop-color="#F8F8F8"/>
<stop offset="0.307399" stop-color="#9D9D9D" stop-opacity="0.634422"/>
<stop offset="1" stop-opacity="0"/>
</linearGradient>
</defs>
</svg>
