<svg width="30" height="30" viewBox="0 0 30 30" fill="none" xmlns="http://www.w3.org/2000/svg">
<path opacity="0.4" d="M29.3358 14.7255C29.3358 22.4893 23.042 28.783 15.2782 28.783C7.51447 28.783 1.2207 22.4893 1.2207 14.7255C1.2207 6.96174 7.51447 0.667969 15.2782 0.667969C23.042 0.667969 29.3358 6.96174 29.3358 14.7255Z" fill="black" stroke="black" stroke-width="0.5"/>
<g clip-path="url(#clip0_936_87480)">
<path d="M9.66667 7.26172C8.7474 7.26172 8 8.10254 8 9.13672V17.5742C8 18.6084 8.7474 19.4492 9.66667 19.4492H14.25L13.9714 20.3867H12.1667C11.7057 20.3867 11.3333 20.8057 11.3333 21.3242C11.3333 21.8428 11.7057 22.2617 12.1667 22.2617H18.8333C19.2943 22.2617 19.6667 21.8428 19.6667 21.3242C19.6667 20.8057 19.2943 20.3867 18.8333 20.3867H17.0286L16.75 19.4492H21.3333C22.2526 19.4492 23 18.6084 23 17.5742V9.13672C23 8.10254 22.2526 7.26172 21.3333 7.26172H9.66667ZM21.3333 9.13672V17.5742H9.66667V9.13672H21.3333Z" fill="white"/>
</g>
<defs>
<clipPath id="clip0_936_87480">
<rect width="15" height="15" fill="white" transform="translate(8 7.26172)"/>
</clipPath>
</defs>
</svg>
