<svg width="64" height="51" viewBox="0 0 64 51" fill="none" xmlns="http://www.w3.org/2000/svg">
<g clip-path="url(#clip0_1492_85687)">
<path d="M53.5 4.08406C52.56 3.14773 52.56 1.63367 53.5 0.707305C54.44 -0.219062 55.96 -0.229023 56.89 0.707305L63.29 7.0823C63.74 7.53055 63.99 8.13816 63.99 8.77566C63.99 9.41316 63.74 10.0208 63.29 10.469L56.89 16.844C55.95 17.7804 54.43 17.7804 53.5 16.844C52.57 15.9077 52.56 14.3936 53.5 13.4673L55.8 11.1763L38.4 11.1563C37.07 11.1563 36 10.0905 36 8.7657C36 7.4409 37.07 6.37508 38.4 6.37508H55.81L53.5 4.08406ZM10.5 37.5528L8.2 39.8438H25.6C26.93 39.8438 28 40.9096 28 42.2345C28 43.5593 26.93 44.6251 25.6 44.6251H8.19L10.49 46.9161C11.43 47.8524 11.43 49.3665 10.49 50.2929C9.55 51.2192 8.03 51.2292 7.1 50.2929L0.7 43.9278C0.25 43.4796 0 42.872 0 42.2345C0 41.597 0.25 40.9893 0.7 40.5411L7.1 34.1661C8.04 33.2298 9.56 33.2298 10.49 34.1661C11.42 35.1024 11.43 36.6165 10.49 37.5429L10.5 37.5528ZM9.6 6.37508H33.79C33.42 7.09227 33.2 7.8991 33.2 8.7657C33.2 11.6245 35.53 13.9454 38.4 13.9454H50.14C49.74 15.6388 50.2 17.4815 51.52 18.8063C53.55 20.8284 56.84 20.8284 58.87 18.8063L60.8 16.8839V38.2501C60.8 41.7663 57.93 44.6251 54.4 44.6251H30.21C30.58 43.9079 30.8 43.1011 30.8 42.2345C30.8 39.3757 28.47 37.0548 25.6 37.0548H13.86C14.26 35.3614 13.8 33.5186 12.48 32.1938C10.45 30.1718 7.16 30.1718 5.13 32.1938L3.2 34.1163V12.7501C3.2 9.23387 6.07 6.37508 9.6 6.37508ZM16 12.7501H9.6V19.1251C13.13 19.1251 16 16.2663 16 12.7501ZM54.4 31.8751C50.87 31.8751 48 34.7339 48 38.2501H54.4V31.8751ZM32 35.0626C37.3 35.0626 41.6 30.7794 41.6 25.5001C41.6 20.2208 37.3 15.9376 32 15.9376C26.7 15.9376 22.4 20.2208 22.4 25.5001C22.4 30.7794 26.7 35.0626 32 35.0626Z" fill="#005C46"/>
</g>
<defs>
<clipPath id="clip0_1492_85687">
<rect width="64" height="51" fill="white"/>
</clipPath>
</defs>
</svg>
