<svg width="76" height="54" viewBox="0 0 76 54" fill="none" xmlns="http://www.w3.org/2000/svg">
<path d="M71.75 0.583374H4.25C2.14062 0.583374 0.5 2.34119 0.5 4.33337V49.3334C0.5 51.4427 2.14062 53.0834 4.25 53.0834H71.75C73.7422 53.0834 75.5 51.4427 75.5 49.3334V4.33337C75.5 2.34119 73.7422 0.583374 71.75 0.583374ZM69.875 47.4584H6.125V6.20837H69.875V47.4584ZM35.1875 34.3334H44.5625C45.0312 34.3334 45.5 33.9818 45.5 33.3959V29.6459C45.5 29.1771 45.0312 28.7084 44.5625 28.7084H35.1875C34.6016 28.7084 34.25 29.1771 34.25 29.6459V33.3959C34.25 33.9818 34.6016 34.3334 35.1875 34.3334ZM63.3125 28.7084H53.9375C53.3516 28.7084 53 29.1771 53 29.6459V33.3959C53 33.9818 53.3516 34.3334 53.9375 34.3334H63.3125C63.7812 34.3334 64.25 33.9818 64.25 33.3959V29.6459C64.25 29.1771 63.7812 28.7084 63.3125 28.7084ZM35.1875 24.9584H63.3125C63.7812 24.9584 64.25 24.6068 64.25 24.0209V20.2709C64.25 19.8021 63.7812 19.3334 63.3125 19.3334H35.1875C34.6016 19.3334 34.25 19.8021 34.25 20.2709V24.0209C34.25 24.6068 34.6016 24.9584 35.1875 24.9584ZM16.2031 27.0677L21.125 28.474C21.7109 28.5912 22.0625 28.9427 22.0625 29.4115C22.0625 29.9974 21.4766 30.4662 20.7734 30.4662H17.7266C17.2578 30.4662 16.7891 30.349 16.3203 30.1146C15.9688 29.8802 15.5 29.8802 15.2656 30.2318L13.8594 31.7552C13.5078 32.1068 13.5078 32.6927 13.9766 33.0443C14.9141 33.6302 16.0859 34.099 17.375 34.099V35.2709C17.375 35.8568 17.7266 36.2084 18.3125 36.2084H20.1875C20.6562 36.2084 21.125 35.8568 21.125 35.2709V34.099C23.7031 33.9818 25.8125 31.9896 25.8125 29.4115C25.8125 27.3021 24.2891 25.4271 22.1797 24.8412L17.2578 23.4349C16.6719 23.3177 16.4375 22.9662 16.4375 22.4974C16.4375 21.9115 16.9062 21.4427 17.6094 21.4427H20.6562C21.125 21.4427 21.5938 21.5599 22.0625 21.7943C22.4141 22.0287 22.8828 22.0287 23.1172 21.6771L24.5234 20.1537C24.875 19.8021 24.875 19.2162 24.4062 18.8646C23.4688 18.2787 22.2969 17.8099 21.125 17.8099V16.5209C21.125 16.0521 20.6562 15.5834 20.1875 15.5834H18.3125C17.7266 15.5834 17.375 16.0521 17.375 16.5209V17.8099C14.6797 17.9271 12.6875 19.9193 12.6875 22.4974C12.6875 24.6068 14.0938 26.4818 16.2031 27.0677Z" fill="#E42575"/>
</svg>
