<svg width="24" height="25" viewBox="0 0 24 25" fill="none" xmlns="http://www.w3.org/2000/svg">
<path d="M12 24.3184C18.6281 24.3184 24 18.9465 24 12.3184C24 5.69023 18.6281 0.318359 12 0.318359C5.37188 0.318359 0 5.69023 0 12.3184C0 18.9465 5.37188 24.3184 12 24.3184ZM8.20312 8.52148C8.64375 8.08086 9.35625 8.08086 9.79219 8.52148L11.9953 10.7246L14.1984 8.52148C14.6391 8.08086 15.3516 8.08086 15.7875 8.52148C16.2234 8.96211 16.2281 9.67461 15.7875 10.1105L13.5844 12.3137L15.7875 14.5168C16.2281 14.9574 16.2281 15.6699 15.7875 16.1059C15.3469 16.5418 14.6344 16.5465 14.1984 16.1059L11.9953 13.9027L9.79219 16.1059C9.35156 16.5465 8.63906 16.5465 8.20312 16.1059C7.76719 15.6652 7.7625 14.9527 8.20312 14.5168L10.4062 12.3137L8.20312 10.1105C7.7625 9.66992 7.7625 8.95742 8.20312 8.52148Z" fill="#FF3030"/>
</svg>
